<?xml version="1.0" encoding="UTF-8" standalone="no"?>
<!-- Created with Inkscape (http://www.inkscape.org/) -->

<svg
   width="80.6605mm"
   height="126.51946mm"
   viewBox="0 0 80.660499 126.51946"
   version="1.1"
   id="svg2720"
   inkscape:version="1.1.2 (b8e25be833, 2022-02-05)"
   sodipodi:docname="azul_0.svg"
   xmlns:inkscape="http://www.inkscape.org/namespaces/inkscape"
   xmlns:sodipodi="http://sodipodi.sourceforge.net/DTD/sodipodi-0.dtd"
   xmlns="http://www.w3.org/2000/svg"
   xmlns:svg="http://www.w3.org/2000/svg">
  <sodipodi:namedview
     id="namedview2722"
     pagecolor="#ffffff"
     bordercolor="#666666"
     borderopacity="1.0"
     inkscape:pageshadow="2"
     inkscape:pageopacity="0.0"
     inkscape:pagecheckerboard="0"
     inkscape:document-units="mm"
     showgrid="false"
     inkscape:zoom="0.74029882"
     inkscape:cx="218.15515"
     inkscape:cy="242.46966"
     inkscape:window-width="958"
     inkscape:window-height="1008"
     inkscape:window-x="953"
     inkscape:window-y="0"
     inkscape:window-maximized="0"
     inkscape:current-layer="layer1" />
  <defs
     id="defs2717">
    <filter
       style="color-interpolation-filters:sRGB"
       inkscape:label="Invert"
       id="filter50808"
       x="-0.0081904726"
       y="-0.0051908861"
       width="1.0163809"
       height="1.0103818">
      <feColorMatrix
         values="1 0 0 0 0 0 1 0 0 0 0 0 1 0 0 -0.21 -0.72 -0.07 2 0 "
         result="color2"
         id="feColorMatrix50806" />
    </filter>
    <filter
       style="color-interpolation-filters:sRGB"
       inkscape:label="Invert"
       id="filter50804"
       x="0"
       y="0"
       width="1"
       height="1">
      <feColorMatrix
         values="1 0 0 0 0 0 1 0 0 0 0 0 1 0 0 -0.21 -0.72 -0.07 2 0 "
         result="color2"
         id="feColorMatrix50802" />
    </filter>
    <filter
       style="color-interpolation-filters:sRGB"
       inkscape:label="Invert"
       id="filter50800"
       x="-0.033412036"
       y="-0.02489306"
       width="1.0668241"
       height="1.0497861">
      <feColorMatrix
         values="1 0 0 0 0 0 1 0 0 0 0 0 1 0 0 -0.21 -0.72 -0.07 2 0 "
         result="color2"
         id="feColorMatrix50798" />
    </filter>
    <filter
       style="color-interpolation-filters:sRGB"
       inkscape:label="Invert"
       id="filter50796"
       x="-0.055072352"
       y="-0.026280202"
       width="1.110509"
       height="1.0525604">
      <feColorMatrix
         values="1 0 0 0 0 0 1 0 0 0 0 0 1 0 0 -0.21 -0.72 -0.07 2 0 "
         result="color2"
         id="feColorMatrix50794" />
    </filter>
    <filter
       style="color-interpolation-filters:sRGB"
       inkscape:label="Invert"
       id="filter50792"
       x="-0.038102195"
       y="-0.014397957"
       width="1.0566831"
       height="1.0439095">
      <feColorMatrix
         values="1 0 0 0 0 0 1 0 0 0 0 0 1 0 0 -0.21 -0.72 -0.07 2 0 "
         result="color2"
         id="feColorMatrix50790" />
    </filter>
    <filter
       style="color-interpolation-filters:sRGB"
       inkscape:label="Invert"
       id="filter50788"
       x="-0.055072408"
       y="-0.02628033"
       width="1.1105092"
       height="1.0525607">
      <feColorMatrix
         values="1 0 0 0 0 0 1 0 0 0 0 0 1 0 0 -0.21 -0.72 -0.07 2 0 "
         result="color2"
         id="feColorMatrix50786" />
    </filter>
  </defs>
  <g
     inkscape:label="Capa 1"
     inkscape:groupmode="layer"
     id="layer1"
     transform="translate(-36.3413,-141.43755)">
    <path
       id="rect44650"
       style="fill:#ffffff;stroke:#000000;stroke-width:1.3;stroke-linecap:round;stroke-linejoin:round;stroke-dashoffset:9.31653"
       d="m 45.0232,142.08755 h 63.2967 c 4.4497,0 8.0319,3.5822 8.0319,8.03185 v 109.15576 c 0,4.44965 -3.5822,8.03185 -8.0319,8.03185 H 45.0232 c -4.4497,0 -8.0319,-3.5822 -8.0319,-8.03185 V 150.1194 c 0,-4.44965 3.5822,-8.03185 8.0319,-8.03185 z" />
    <path
       id="rect44652"
       style="fill:#0555e4;stroke-width:1.81997;stroke-linecap:round;stroke-linejoin:round;stroke-dashoffset:9.31653"
       d="m 46.8381,146.46401 h 59.6671 c 3.0438,0 5.4942,2.45043 5.4942,5.49424 v 105.4781 c 0,3.04381 -2.4504,5.49424 -5.4942,5.49424 H 46.8381 c -3.0438,0 -5.4942,-2.45043 -5.4942,-5.49424 v -105.4781 c 0,-3.04381 2.4504,-5.49424 5.4942,-5.49424 z" />
    <path
       id="ellipse44654"
       style="fill:none;fill-opacity:0;stroke:#ffffff;stroke-width:4.90276;stroke-linecap:round;stroke-linejoin:round;stroke-dashoffset:9.31653"
       d="m 102.23752,218.86155 a 29.227528,54.28476 28.987554 0 1 -51.873482,33.32001 29.227528,54.28476 28.987554 0 1 0.741342,-61.64849 29.227528,54.28476 28.987554 0 1 51.87357,-33.31997 29.227528,54.28476 28.987554 0 1 -0.74143,61.64845 z" />
    <g
       aria-label="0"
       transform="matrix(1.1127008,0,-0.06826013,0.89871419,-2195.2394,-500.14811)"
       id="text44658"
       style="font-size:75.0979px;line-height:1.25;font-family:'Tw Cen MT Condensed Extra Bold';-inkscape-font-specification:'Tw Cen MT Condensed Extra Bold, Normal';fill:#ffffff;stroke:#000000;stroke-width:2.573">
      <path
         d="m 2090.113,757.91705 q 7.9572,0 12.0641,6.56374 4.1436,6.56373 4.1436,19.3245 0,12.43076 -4.217,19.03116 -4.1802,6.6004 -11.9907,6.6004 -7.4071,0 -11.8074,-6.16037 -4.3636,-6.19704 -4.3636,-19.98455 0,-12.10074 4.217,-18.73781 4.2169,-6.63707 11.8073,-6.63707 z m -5.5003,25.30154 q 0,15.69429 5.427,15.69429 2.9335,0 4.2169,-3.44688 1.3201,-3.48354 1.3201,-11.03733 0,-8.32384 -1.3201,-12.10074 -1.2834,-3.81356 -4.2903,-3.81356 -5.3536,0 -5.3536,14.70422 z"
         id="path47745" />
    </g>
    <g
       aria-label="0"
       transform="matrix(1.1127008,0,-0.06826013,0.89871419,-2195.2394,-500.14811)"
       id="text44664"
       style="font-size:24.4557px;line-height:1.25;font-family:'Tw Cen MT Condensed Extra Bold';-inkscape-font-specification:'Tw Cen MT Condensed Extra Bold, Normal';fill:#ffffff;stroke:#000000;stroke-width:1.138">
      <path
         d="m 2064.3349,724.84403 q 2.5912,0 3.9287,2.13748 1.3493,2.13749 1.3493,6.29305 0,4.04808 -1.3732,6.19751 -1.3613,2.14943 -3.9048,2.14943 -2.4121,0 -3.8451,-2.00614 -1.421,-2.01807 -1.421,-6.50798 0,-3.94062 1.3732,-6.10199 1.3733,-2.16136 3.8451,-2.16136 z m -1.7912,8.23947 q 0,5.11085 1.7673,5.11085 0.9553,0 1.3733,-1.12247 0.4298,-1.13442 0.4298,-3.59432 0,-2.71067 -0.4298,-3.94062 -0.418,-1.24189 -1.3972,-1.24189 -1.7434,0 -1.7434,4.78845 z"
         id="path47748" />
    </g>
    <g
       aria-label="0"
       transform="matrix(-1.1127008,0,0.06826013,-0.89871419,-2195.2394,-500.14811)"
       id="text44668"
       style="font-size:24.4557px;line-height:1.25;font-family:'Tw Cen MT Condensed Extra Bold';-inkscape-font-specification:'Tw Cen MT Condensed Extra Bold, Normal';fill:#ffffff;stroke:#000000;stroke-width:1.138">
      <path
         d="m -2115.577,-843.91562 q 2.5913,0 3.9287,2.13749 1.3494,2.13748 1.3494,6.29304 0,4.04809 -1.3733,6.19752 -1.3613,2.14942 -3.9048,2.14942 -2.4121,0 -3.8451,-2.00613 -1.421,-2.01807 -1.421,-6.50799 0,-3.94061 1.3733,-6.10198 1.3732,-2.16137 3.8451,-2.16137 z m -1.7912,8.23947 q 0,5.11086 1.7673,5.11086 0.9553,0 1.3733,-1.12248 0.4299,-1.13442 0.4299,-3.59432 0,-2.71066 -0.4299,-3.94061 -0.418,-1.24189 -1.3971,-1.24189 -1.7435,0 -1.7435,4.78844 z"
         id="path47751" />
    </g>
  </g>
</svg>
