<?xml version="1.0" encoding="UTF-8" standalone="no"?>
<!-- Created with Inkscape (http://www.inkscape.org/) -->

<svg
   width="80.6605mm"
   height="126.51946mm"
   viewBox="0 0 80.660499 126.51946"
   version="1.1"
   id="svg2720"
   inkscape:version="1.1.2 (b8e25be833, 2022-02-05)"
   sodipodi:docname="azul_cambio_sentido.svg"
   xmlns:inkscape="http://www.inkscape.org/namespaces/inkscape"
   xmlns:sodipodi="http://sodipodi.sourceforge.net/DTD/sodipodi-0.dtd"
   xmlns="http://www.w3.org/2000/svg"
   xmlns:svg="http://www.w3.org/2000/svg">
  <sodipodi:namedview
     id="namedview2722"
     pagecolor="#ffffff"
     bordercolor="#666666"
     borderopacity="1.0"
     inkscape:pageshadow="2"
     inkscape:pageopacity="0.0"
     inkscape:pagecheckerboard="0"
     inkscape:document-units="mm"
     showgrid="false"
     inkscape:zoom="0.74029882"
     inkscape:cx="253.2761"
     inkscape:cy="196.54226"
     inkscape:window-width="958"
     inkscape:window-height="1008"
     inkscape:window-x="953"
     inkscape:window-y="0"
     inkscape:window-maximized="0"
     inkscape:current-layer="layer1" />
  <defs
     id="defs2717">
    <filter
       style="color-interpolation-filters:sRGB"
       inkscape:label="Invert"
       id="filter50808"
       x="-0.0081904726"
       y="-0.0051908861"
       width="1.0163809"
       height="1.0103818">
      <feColorMatrix
         values="1 0 0 0 0 0 1 0 0 0 0 0 1 0 0 -0.21 -0.72 -0.07 2 0 "
         result="color2"
         id="feColorMatrix50806" />
    </filter>
    <filter
       style="color-interpolation-filters:sRGB"
       inkscape:label="Invert"
       id="filter50804"
       x="0"
       y="0"
       width="1"
       height="1">
      <feColorMatrix
         values="1 0 0 0 0 0 1 0 0 0 0 0 1 0 0 -0.21 -0.72 -0.07 2 0 "
         result="color2"
         id="feColorMatrix50802" />
    </filter>
    <filter
       style="color-interpolation-filters:sRGB"
       inkscape:label="Invert"
       id="filter50800"
       x="-0.033412036"
       y="-0.02489306"
       width="1.0668241"
       height="1.0497861">
      <feColorMatrix
         values="1 0 0 0 0 0 1 0 0 0 0 0 1 0 0 -0.21 -0.72 -0.07 2 0 "
         result="color2"
         id="feColorMatrix50798" />
    </filter>
    <filter
       style="color-interpolation-filters:sRGB"
       inkscape:label="Invert"
       id="filter50796"
       x="-0.055072352"
       y="-0.026280202"
       width="1.110509"
       height="1.0525604">
      <feColorMatrix
         values="1 0 0 0 0 0 1 0 0 0 0 0 1 0 0 -0.21 -0.72 -0.07 2 0 "
         result="color2"
         id="feColorMatrix50794" />
    </filter>
    <filter
       style="color-interpolation-filters:sRGB"
       inkscape:label="Invert"
       id="filter50792"
       x="-0.038102195"
       y="-0.014397957"
       width="1.0566831"
       height="1.0439095">
      <feColorMatrix
         values="1 0 0 0 0 0 1 0 0 0 0 0 1 0 0 -0.21 -0.72 -0.07 2 0 "
         result="color2"
         id="feColorMatrix50790" />
    </filter>
    <filter
       style="color-interpolation-filters:sRGB"
       inkscape:label="Invert"
       id="filter50788"
       x="-0.055072408"
       y="-0.02628033"
       width="1.1105092"
       height="1.0525607">
      <feColorMatrix
         values="1 0 0 0 0 0 1 0 0 0 0 0 1 0 0 -0.21 -0.72 -0.07 2 0 "
         result="color2"
         id="feColorMatrix50786" />
    </filter>
  </defs>
  <g
     inkscape:label="Capa 1"
     inkscape:groupmode="layer"
     id="layer1"
     transform="translate(-27.7213,-153.59155)">
    <path
       id="rect44810"
       style="fill:#ffffff;stroke:#000000;stroke-width:1.3;stroke-linecap:round;stroke-linejoin:round;stroke-dashoffset:9.31653"
       d="M 36.4032,154.24155 H 99.7 c 4.4496,0 8.0318,3.5822 8.0318,8.03185 v 109.15576 c 0,4.44965 -3.5822,8.03185 -8.0318,8.03185 H 36.4032 c -4.4496,0 -8.0319,-3.5822 -8.0319,-8.03185 V 162.2734 c 0,-4.44965 3.5823,-8.03185 8.0319,-8.03185 z" />
    <path
       id="rect44812"
       style="fill:#0555e4;stroke-width:1.81997;stroke-linecap:round;stroke-linejoin:round;stroke-dashoffset:9.31653"
       d="m 38.2181,158.61801 h 59.6671 c 3.0438,0 5.4943,2.45043 5.4943,5.49424 v 105.4781 c 0,3.04381 -2.4505,5.49424 -5.4943,5.49424 H 38.2181 c -3.0438,0 -5.4942,-2.45043 -5.4942,-5.49424 v -105.4781 c 0,-3.04381 2.4504,-5.49424 5.4942,-5.49424 z" />
    <path
       id="ellipse44814"
       style="fill:none;fill-opacity:0;stroke:#ffffff;stroke-width:4.90276;stroke-linecap:round;stroke-linejoin:round;stroke-dashoffset:9.31653"
       d="m 93.617546,231.01546 a 29.227528,54.28476 28.987554 0 1 -51.873484,33.32002 29.227528,54.28476 28.987554 0 1 0.741347,-61.6485 29.227528,54.28476 28.987554 0 1 51.873572,-33.31997 29.227528,54.28476 28.987554 0 1 -0.741435,61.64845 z" />
    <path
       style="fill:#ffffff;fill-opacity:1;stroke:#000000;stroke-width:2.794;stroke-linecap:square;stroke-miterlimit:4;stroke-dasharray:none;stroke-opacity:1;paint-order:markers fill stroke"
       d="m 67.7677,237.616 c 0,-0.21683 -0.7645,-1.28742 -1.699,-2.37909 l -1.6989,-1.98486 4.383,-3.7278 c 4.869,-4.14109 6.3225,-6.3751 6.3742,-9.79666 0.035,-2.31656 -1.3818,-5.51586 -2.4426,-5.51586 -0.3071,0 -3.5747,2.65029 -7.2614,5.88953 -3.6867,3.23924 -6.9129,5.88953 -7.1693,5.88953 -0.2566,0 -1.274,-0.98543 -2.2609,-2.18985 -0.9869,-1.20442 -1.8752,-2.10908 -1.9739,-2.01036 -0.099,0.0987 -0.621,3.30174 -1.1605,7.11782 -0.5396,3.81608 -1.0878,7.42513 -1.2182,8.0201 l -0.2373,1.08175 h 8.1824 c 4.5003,0 8.1824,-0.17742 8.1824,-0.39425 z m -0.1248,-22.32252 c 2.7974,-2.44596 5.9496,-5.19513 7.005,-6.10927 l 1.9189,-1.66207 2.1069,2.3272 c 1.1589,1.27996 2.1805,2.24425 2.2704,2.14285 0.2025,-0.22826 2.215,-14.2895 2.2112,-15.44905 0,-0.76819 -0.7135,-0.84136 -8.1759,-0.84136 -4.4953,0 -8.1732,0.13604 -8.1732,0.30231 0,0.16627 0.7571,1.14047 1.6827,2.16489 0.9255,1.02441 1.6827,2.05106 1.6827,2.28142 0,0.23037 -1.9777,2.11029 -4.3949,4.17761 -5.0984,4.36045 -6.428,6.616 -6.0738,10.30359 0.2035,2.11624 1.557,4.76002 2.4545,4.79397 0.2196,0.008 2.6882,-1.98613 5.4855,-4.43209 z"
       id="path44816"
       sodipodi:nodetypes="sscscssssssccsssscsscssssssss" />
    <path
       style="fill:#ffffff;fill-opacity:1;stroke:#000000;stroke-width:1.235;stroke-linecap:square;stroke-miterlimit:4;stroke-dasharray:none;stroke-opacity:1;paint-order:markers fill stroke"
       d="m 44.3707,179.40852 c 0,-0.0813 -0.2866,-0.4827 -0.637,-0.892 l -0.6369,-0.74419 1.6433,-1.39767 c 1.8255,-1.55263 2.3705,-2.39023 2.3899,-3.67309 0.013,-0.86855 -0.5181,-2.06807 -0.9158,-2.06807 -0.1152,0 -1.3403,0.99368 -2.7226,2.20817 -1.3822,1.2145 -2.5918,2.20818 -2.6879,2.20818 -0.096,0 -0.4777,-0.36947 -0.8477,-0.82105 -0.37,-0.45157 -0.7031,-0.79076 -0.7401,-0.75375 -0.037,0.037 -0.2328,1.23793 -0.4351,2.66871 -0.2023,1.43077 -0.4079,2.78392 -0.4568,3.00699 l -0.089,0.40559 h 3.0679 c 1.6873,0 3.0678,-0.0665 3.0678,-0.14782 z m -0.047,-8.36944 c 1.0489,-0.91707 2.2307,-1.94782 2.6264,-2.29056 l 0.7195,-0.62317 0.79,0.87255 c 0.4344,0.4799 0.8175,0.84144 0.8512,0.80342 0.076,-0.0856 0.8305,-5.3576 0.829,-5.79235 0,-0.28802 -0.2675,-0.31545 -3.0654,-0.31545 -1.6854,0 -3.0644,0.051 -3.0644,0.11334 0,0.0623 0.2839,0.4276 0.6309,0.81169 0.347,0.38408 0.6309,0.76901 0.6309,0.85538 0,0.0864 -0.7415,0.79121 -1.6477,1.56632 -1.9116,1.63487 -2.4101,2.48055 -2.2773,3.86315 0.076,0.79345 0.5838,1.78469 0.9203,1.79741 0.082,0.003 1.0078,-0.74466 2.0566,-1.66173 z"
       id="path44818"
       sodipodi:nodetypes="sscscssssssccsssscsscssssssss" />
    <path
       style="fill:#ffffff;fill-opacity:1;stroke:#000000;stroke-width:1.235;stroke-linecap:square;stroke-miterlimit:4;stroke-dasharray:none;stroke-opacity:1;paint-order:markers fill stroke"
       d="m 91.2549,254.68701 c 0,0.0813 0.2866,0.4827 0.637,0.892 l 0.637,0.74419 -1.6434,1.39767 c -1.8255,1.55263 -2.3705,2.39023 -2.3899,3.67309 -0.013,0.86855 0.5181,2.06807 0.9158,2.06807 0.1152,0 1.3403,-0.99367 2.7226,-2.20817 1.3823,-1.2145 2.5919,-2.20818 2.688,-2.20818 0.096,0 0.4777,0.36947 0.8477,0.82105 0.37,0.45157 0.7031,0.79076 0.7401,0.75375 0.037,-0.037 0.2328,-1.23793 0.4351,-2.66871 0.2023,-1.43077 0.4079,-2.78392 0.4567,-3.00699 l 0.089,-0.40558 h -3.0678 c -1.6873,0 -3.0679,0.0665 -3.0679,0.14781 z m 0.047,8.36944 c -1.0489,0.91707 -2.2307,1.94782 -2.6264,2.29056 l -0.7195,0.62317 -0.7899,-0.87255 c -0.4345,-0.47989 -0.8176,-0.84143 -0.8513,-0.80342 -0.076,0.0856 -0.8304,5.3576 -0.829,5.79235 0,0.28803 0.2675,0.31546 3.0654,0.31546 1.6854,0 3.0644,-0.051 3.0644,-0.11335 0,-0.0623 -0.2839,-0.4276 -0.6309,-0.81169 -0.347,-0.38408 -0.6309,-0.769 -0.6309,-0.85538 0,-0.0864 0.7415,-0.79121 1.6478,-1.56632 1.9116,-1.63487 2.4101,-2.48055 2.2773,-3.86315 -0.076,-0.79345 -0.5838,-1.78468 -0.9203,-1.79741 -0.082,-0.003 -1.0079,0.74466 -2.0567,1.66173 z"
       id="path44820"
       sodipodi:nodetypes="sscscssssssccsssscsscssssssss" />
  </g>
</svg>
