<?xml version="1.0" encoding="UTF-8" standalone="no"?>
<!-- Created with Inkscape (http://www.inkscape.org/) -->

<svg
   width="80.6604mm"
   height="126.51946mm"
   viewBox="0 0 80.6604 126.51946"
   version="1.1"
   id="svg2720"
   inkscape:version="1.1.2 (b8e25be833, 2022-02-05)"
   sodipodi:docname="azul_2.svg"
   xmlns:inkscape="http://www.inkscape.org/namespaces/inkscape"
   xmlns:sodipodi="http://sodipodi.sourceforge.net/DTD/sodipodi-0.dtd"
   xmlns="http://www.w3.org/2000/svg"
   xmlns:svg="http://www.w3.org/2000/svg">
  <sodipodi:namedview
     id="namedview2722"
     pagecolor="#ffffff"
     bordercolor="#666666"
     borderopacity="1.0"
     inkscape:pageshadow="2"
     inkscape:pageopacity="0.0"
     inkscape:pagecheckerboard="0"
     inkscape:document-units="mm"
     showgrid="false"
     inkscape:zoom="0.74029882"
     inkscape:cx="223.55837"
     inkscape:cy="241.11885"
     inkscape:window-width="958"
     inkscape:window-height="1008"
     inkscape:window-x="953"
     inkscape:window-y="0"
     inkscape:window-maximized="0"
     inkscape:current-layer="layer1" />
  <defs
     id="defs2717">
    <filter
       style="color-interpolation-filters:sRGB"
       inkscape:label="Invert"
       id="filter50808"
       x="-0.0081904726"
       y="-0.0051908861"
       width="1.0163809"
       height="1.0103818">
      <feColorMatrix
         values="1 0 0 0 0 0 1 0 0 0 0 0 1 0 0 -0.21 -0.72 -0.07 2 0 "
         result="color2"
         id="feColorMatrix50806" />
    </filter>
    <filter
       style="color-interpolation-filters:sRGB"
       inkscape:label="Invert"
       id="filter50804"
       x="0"
       y="0"
       width="1"
       height="1">
      <feColorMatrix
         values="1 0 0 0 0 0 1 0 0 0 0 0 1 0 0 -0.21 -0.72 -0.07 2 0 "
         result="color2"
         id="feColorMatrix50802" />
    </filter>
    <filter
       style="color-interpolation-filters:sRGB"
       inkscape:label="Invert"
       id="filter50800"
       x="-0.033412036"
       y="-0.02489306"
       width="1.0668241"
       height="1.0497861">
      <feColorMatrix
         values="1 0 0 0 0 0 1 0 0 0 0 0 1 0 0 -0.21 -0.72 -0.07 2 0 "
         result="color2"
         id="feColorMatrix50798" />
    </filter>
    <filter
       style="color-interpolation-filters:sRGB"
       inkscape:label="Invert"
       id="filter50796"
       x="-0.055072352"
       y="-0.026280202"
       width="1.110509"
       height="1.0525604">
      <feColorMatrix
         values="1 0 0 0 0 0 1 0 0 0 0 0 1 0 0 -0.21 -0.72 -0.07 2 0 "
         result="color2"
         id="feColorMatrix50794" />
    </filter>
    <filter
       style="color-interpolation-filters:sRGB"
       inkscape:label="Invert"
       id="filter50792"
       x="-0.038102195"
       y="-0.014397957"
       width="1.0566831"
       height="1.0439095">
      <feColorMatrix
         values="1 0 0 0 0 0 1 0 0 0 0 0 1 0 0 -0.21 -0.72 -0.07 2 0 "
         result="color2"
         id="feColorMatrix50790" />
    </filter>
    <filter
       style="color-interpolation-filters:sRGB"
       inkscape:label="Invert"
       id="filter50788"
       x="-0.055072408"
       y="-0.02628033"
       width="1.1105092"
       height="1.0525607">
      <feColorMatrix
         values="1 0 0 0 0 0 1 0 0 0 0 0 1 0 0 -0.21 -0.72 -0.07 2 0 "
         result="color2"
         id="feColorMatrix50786" />
    </filter>
  </defs>
  <g
     inkscape:label="Capa 1"
     inkscape:groupmode="layer"
     id="layer1"
     transform="translate(-35.0239,-141.79535)">
    <path
       id="rect44596"
       style="fill:#ffffff;stroke:#000000;stroke-width:1.3;stroke-linecap:round;stroke-linejoin:round;stroke-dashoffset:9.31653"
       d="m 43.7057,142.44535 h 63.2968 c 4.4496,0 8.0318,3.5822 8.0318,8.03185 v 109.15576 c 0,4.44965 -3.5822,8.03185 -8.0318,8.03185 H 43.7057 c -4.4496,0 -8.0318,-3.5822 -8.0318,-8.03185 V 150.4772 c 0,-4.44965 3.5822,-8.03185 8.0318,-8.03185 z" />
    <path
       id="rect44598"
       style="fill:#0555e4;stroke-width:1.81997;stroke-linecap:round;stroke-linejoin:round;stroke-dashoffset:9.31653"
       d="m 45.5206,146.82181 h 59.6671 c 3.0438,0 5.4943,2.45043 5.4943,5.49424 v 105.4781 c 0,3.04381 -2.4505,5.49424 -5.4943,5.49424 H 45.5206 c -3.0438,0 -5.4942,-2.45043 -5.4942,-5.49424 v -105.4781 c 0,-3.04381 2.4504,-5.49424 5.4942,-5.49424 z" />
    <path
       id="ellipse44600"
       style="fill:none;fill-opacity:0;stroke:#ffffff;stroke-width:4.90276;stroke-linecap:round;stroke-linejoin:round;stroke-dashoffset:9.31653"
       d="m 100.92022,219.21936 a 29.227528,54.28476 28.987554 0 1 -51.873484,33.32001 29.227528,54.28476 28.987554 0 1 0.741347,-61.6485 29.227528,54.28476 28.987554 0 1 51.873577,-33.31997 29.227528,54.28476 28.987554 0 1 -0.74144,61.64846 z" />
    <g
       aria-label="2"
       transform="matrix(1.1127008,0,-0.06826013,0.89871419,-2366.9194,-499.79031)"
       id="text44604"
       style="font-size:75.0979px;line-height:1.25;font-family:'Tw Cen MT Condensed Extra Bold';-inkscape-font-specification:'Tw Cen MT Condensed Extra Bold, Normal';fill:#ffffff;stroke:#000000;stroke-width:2.573">
      <path
         d="m 2240.2133,777.35157 h -10.7439 q 0,-5.50034 0.44,-8.61719 0.4767,-3.11686 1.9068,-5.50034 1.4667,-2.42014 4.4369,-3.85023 3.0068,-1.46676 7.1138,-1.46676 6.7837,0 10.4139,3.55689 3.6303,3.55688 3.6303,10.26729 0,3.44687 -1.3935,7.44378 -1.3934,3.96024 -4.1802,8.7272 l -6.0137,10.26729 h 9.8639 v 9.97394 h -27.9417 l 15.9877,-27.31833 q 2.9335,-4.91363 2.9335,-8.94721 0,-2.01679 -0.8801,-3.3002 -0.88,-1.28341 -2.2001,-1.28341 -2.0901,0 -2.7502,1.68677 -0.6234,1.6501 -0.6234,6.56373 z"
         id="path47709" />
    </g>
    <g
       aria-label="2"
       transform="matrix(1.1127008,0,-0.06826013,0.89871419,-2366.9194,-499.79031)"
       id="text44608"
       style="font-size:24.4557px;line-height:1.25;font-family:'Tw Cen MT Condensed Extra Bold';-inkscape-font-specification:'Tw Cen MT Condensed Extra Bold, Normal';fill:#ffffff;stroke:#000000;stroke-width:1.138">
      <path
         d="m 2216.4631,731.17283 h -3.4988 q 0,-1.79119 0.1433,-2.80619 0.1553,-1.01501 0.621,-1.79119 0.4776,-0.78813 1.4449,-1.25383 0.9792,-0.47765 2.3166,-0.47765 2.2091,0 3.3913,1.1583 1.1822,1.1583 1.1822,3.34355 0,1.12248 -0.4538,2.42408 -0.4538,1.28965 -1.3613,2.84202 l -1.9584,3.34355 h 3.2122 v 3.24802 h -9.0992 l 5.2064,-8.89624 q 0.9553,-1.60013 0.9553,-2.91366 0,-0.65677 -0.2866,-1.07472 -0.2866,-0.41794 -0.7165,-0.41794 -0.6806,0 -0.8956,0.5493 -0.203,0.53735 -0.203,2.13748 z"
         id="path47712" />
    </g>
    <g
       aria-label="2"
       transform="matrix(-1.1127008,0,0.06826013,-0.89871419,-2366.9194,-499.79031)"
       id="text44612"
       style="font-size:24.4557px;line-height:1.25;font-family:'Tw Cen MT Condensed Extra Bold';-inkscape-font-specification:'Tw Cen MT Condensed Extra Bold, Normal';fill:#ffffff;stroke:#000000;stroke-width:1.138">
      <path
         d="m -2269.6636,-837.58675 h -3.4988 q 0,-1.79119 0.1433,-2.8062 0.1553,-1.015 0.621,-1.79118 0.4776,-0.78813 1.4449,-1.25384 0.9791,-0.47765 2.3166,-0.47765 2.2091,0 3.3913,1.15831 1.1822,1.1583 1.1822,3.34355 0,1.12248 -0.4538,2.42407 -0.4538,1.28966 -1.3613,2.84202 l -1.9584,3.34356 h 3.2122 v 3.24802 h -9.0992 l 5.2064,-8.89624 q 0.9553,-1.60013 0.9553,-2.91367 0,-0.65677 -0.2866,-1.07471 -0.2866,-0.41794 -0.7165,-0.41794 -0.6806,0 -0.8956,0.54929 -0.203,0.53736 -0.203,2.13749 z"
         id="path47715" />
    </g>
  </g>
</svg>
