<?xml version="1.0" encoding="UTF-8" standalone="no"?>
<!-- Created with Inkscape (http://www.inkscape.org/) -->

<svg
   width="80.6605mm"
   height="126.51946mm"
   viewBox="0 0 80.660499 126.51946"
   version="1.1"
   id="svg2720"
   inkscape:version="1.1.2 (b8e25be833, 2022-02-05)"
   sodipodi:docname="azul_5.svg"
   xmlns:inkscape="http://www.inkscape.org/namespaces/inkscape"
   xmlns:sodipodi="http://sodipodi.sourceforge.net/DTD/sodipodi-0.dtd"
   xmlns="http://www.w3.org/2000/svg"
   xmlns:svg="http://www.w3.org/2000/svg">
  <sodipodi:namedview
     id="namedview2722"
     pagecolor="#ffffff"
     bordercolor="#666666"
     borderopacity="1.0"
     inkscape:pageshadow="2"
     inkscape:pageopacity="0.0"
     inkscape:pagecheckerboard="0"
     inkscape:document-units="mm"
     showgrid="false"
     inkscape:zoom="0.74029882"
     inkscape:cx="243.82046"
     inkscape:cy="214.10273"
     inkscape:window-width="958"
     inkscape:window-height="1008"
     inkscape:window-x="953"
     inkscape:window-y="0"
     inkscape:window-maximized="0"
     inkscape:current-layer="layer1" />
  <defs
     id="defs2717">
    <filter
       style="color-interpolation-filters:sRGB"
       inkscape:label="Invert"
       id="filter50808"
       x="-0.0081904726"
       y="-0.0051908861"
       width="1.0163809"
       height="1.0103818">
      <feColorMatrix
         values="1 0 0 0 0 0 1 0 0 0 0 0 1 0 0 -0.21 -0.72 -0.07 2 0 "
         result="color2"
         id="feColorMatrix50806" />
    </filter>
    <filter
       style="color-interpolation-filters:sRGB"
       inkscape:label="Invert"
       id="filter50804"
       x="0"
       y="0"
       width="1"
       height="1">
      <feColorMatrix
         values="1 0 0 0 0 0 1 0 0 0 0 0 1 0 0 -0.21 -0.72 -0.07 2 0 "
         result="color2"
         id="feColorMatrix50802" />
    </filter>
    <filter
       style="color-interpolation-filters:sRGB"
       inkscape:label="Invert"
       id="filter50800"
       x="-0.033412036"
       y="-0.02489306"
       width="1.0668241"
       height="1.0497861">
      <feColorMatrix
         values="1 0 0 0 0 0 1 0 0 0 0 0 1 0 0 -0.21 -0.72 -0.07 2 0 "
         result="color2"
         id="feColorMatrix50798" />
    </filter>
    <filter
       style="color-interpolation-filters:sRGB"
       inkscape:label="Invert"
       id="filter50796"
       x="-0.055072352"
       y="-0.026280202"
       width="1.110509"
       height="1.0525604">
      <feColorMatrix
         values="1 0 0 0 0 0 1 0 0 0 0 0 1 0 0 -0.21 -0.72 -0.07 2 0 "
         result="color2"
         id="feColorMatrix50794" />
    </filter>
    <filter
       style="color-interpolation-filters:sRGB"
       inkscape:label="Invert"
       id="filter50792"
       x="-0.038102195"
       y="-0.014397957"
       width="1.0566831"
       height="1.0439095">
      <feColorMatrix
         values="1 0 0 0 0 0 1 0 0 0 0 0 1 0 0 -0.21 -0.72 -0.07 2 0 "
         result="color2"
         id="feColorMatrix50790" />
    </filter>
    <filter
       style="color-interpolation-filters:sRGB"
       inkscape:label="Invert"
       id="filter50788"
       x="-0.055072408"
       y="-0.02628033"
       width="1.1105092"
       height="1.0525607">
      <feColorMatrix
         values="1 0 0 0 0 0 1 0 0 0 0 0 1 0 0 -0.21 -0.72 -0.07 2 0 "
         result="color2"
         id="feColorMatrix50786" />
    </filter>
  </defs>
  <g
     inkscape:label="Capa 1"
     inkscape:groupmode="layer"
     id="layer1"
     transform="translate(-29.8309,-148.94396)">
    <path
       id="rect44560"
       style="fill:#ffffff;stroke:#000000;stroke-width:1.3;stroke-linecap:round;stroke-linejoin:round;stroke-dashoffset:9.31653"
       d="m 38.5128,149.59396 h 63.2967 c 4.4497,0 8.0319,3.5822 8.0319,8.03185 v 109.15576 c 0,4.44965 -3.5822,8.03185 -8.0319,8.03185 H 38.5128 c -4.4497,0 -8.0319,-3.5822 -8.0319,-8.03185 V 157.62581 c 0,-4.44965 3.5822,-8.03185 8.0319,-8.03185 z" />
    <path
       id="rect44562"
       style="fill:#0555e4;stroke-width:1.81997;stroke-linecap:round;stroke-linejoin:round;stroke-dashoffset:9.31653"
       d="m 40.3274,153.97042 h 59.6671 c 3.0438,0 5.4943,2.45043 5.4943,5.49424 v 105.4781 c 0,3.04381 -2.4505,5.49424 -5.4943,5.49424 H 40.3274 c -3.0438,0 -5.4942,-2.45043 -5.4942,-5.49424 v -105.4781 c 0,-3.04381 2.4504,-5.49424 5.4942,-5.49424 z" />
    <path
       id="ellipse44564"
       style="fill:none;fill-opacity:0;stroke:#ffffff;stroke-width:4.90276;stroke-linecap:round;stroke-linejoin:round;stroke-dashoffset:9.31653"
       d="m 95.727057,226.36794 a 29.227528,54.28476 28.987554 0 1 -51.873572,33.31996 29.227528,54.28476 28.987554 0 1 0.741434,-61.64845 29.227528,54.28476 28.987554 0 1 51.873485,-33.32002 29.227528,54.28476 28.987554 0 1 -0.741347,61.64851 z" />
    <g
       aria-label="5"
       transform="matrix(1.1127008,0,-0.06826013,0.89871419,-2630.3023,-492.6417)"
       id="text44568"
       style="font-size:75.0979px;line-height:1.25;font-family:'Tw Cen MT Condensed Extra Bold';-inkscape-font-specification:'Tw Cen MT Condensed Extra Bold, Normal';fill:#ffffff;stroke:#000000;stroke-width:2.573">
      <path
         d="m 2467.1554,759.12719 h 20.7913 l -0.22,9.82726 h -12.6141 l -1.0634,7.44379 q 7.0404,0.22001 10.744,4.40027 3.7402,4.14358 3.7402,11.36735 0,7.92049 -4.3636,12.6141 -4.3636,4.65695 -11.7707,4.65695 -4.1436,0 -10.8173,-2.20013 l 1.43,-9.38724 q 5.317,2.1268 7.9572,2.1268 3.3002,0 5.097,-2.16347 1.7967,-2.16346 1.7967,-6.19704 0,-3.44688 -2.3834,-5.31699 -2.3468,-1.87011 -6.7471,-1.87011 -1.9801,0 -5.1337,0.66004 z"
         id="path47685" />
    </g>
    <g
       aria-label="5"
       transform="matrix(1.1127008,0,-0.06826013,0.89871419,-2630.3023,-492.6417)"
       id="text44572"
       style="font-size:24.4557px;line-height:1.25;font-family:'Tw Cen MT Condensed Extra Bold';-inkscape-font-specification:'Tw Cen MT Condensed Extra Bold, Normal';fill:#ffffff;stroke:#000000;stroke-width:1.138">
      <path
         d="m 2446.8421,725.23809 h 6.7707 l -0.072,3.20026 h -4.1078 l -0.3463,2.42407 q 2.2927,0.0716 3.4988,1.43295 1.218,1.34936 1.218,3.70179 0,2.57932 -1.421,4.1078 -1.4211,1.51654 -3.8332,1.51654 -1.3494,0 -3.5227,-0.71648 l 0.4657,-3.05696 q 1.7315,0.69259 2.5913,0.69259 1.0747,0 1.6598,-0.70453 0.5852,-0.70454 0.5852,-2.01808 0,-1.12247 -0.7762,-1.73148 -0.7643,-0.609 -2.1972,-0.609 -0.6448,0 -1.6718,0.21494 z"
         id="path47688" />
    </g>
    <g
       aria-label="5"
       transform="matrix(-1.1127008,0,0.06826013,-0.89871419,-2630.3023,-492.6417)"
       id="text44576"
       style="font-size:24.4557px;line-height:1.25;font-family:'Tw Cen MT Condensed Extra Bold';-inkscape-font-specification:'Tw Cen MT Condensed Extra Bold, Normal';fill:#ffffff;stroke:#000000;stroke-width:1.138">
      <path
         d="m -2503.3622,-843.52162 h 6.7707 l -0.072,3.20026 h -4.1078 l -0.3463,2.42408 q 2.2927,0.0716 3.4988,1.43295 1.218,1.34936 1.218,3.70179 0,2.57931 -1.421,4.10779 -1.421,1.51654 -3.8331,1.51654 -1.3494,0 -3.5227,-0.71647 l 0.4657,-3.05697 q 1.7315,0.6926 2.5913,0.6926 1.0747,0 1.6598,-0.70454 0.5851,-0.70453 0.5851,-2.01807 0,-1.12248 -0.7762,-1.73148 -0.7642,-0.60901 -2.1972,-0.60901 -0.6448,0 -1.6717,0.21495 z"
         id="path47691" />
    </g>
  </g>
</svg>
