<?xml version="1.0" encoding="UTF-8" standalone="no"?>
<!-- Created with Inkscape (http://www.inkscape.org/) -->

<svg
   width="80.6605mm"
   height="126.51947mm"
   viewBox="0 0 80.660499 126.51947"
   version="1.1"
   id="svg2720"
   inkscape:version="1.1.2 (b8e25be833, 2022-02-05)"
   sodipodi:docname="rojo_alt_6.svg"
   xmlns:inkscape="http://www.inkscape.org/namespaces/inkscape"
   xmlns:sodipodi="http://sodipodi.sourceforge.net/DTD/sodipodi-0.dtd"
   xmlns="http://www.w3.org/2000/svg"
   xmlns:svg="http://www.w3.org/2000/svg">
  <sodipodi:namedview
     id="namedview2722"
     pagecolor="#ffffff"
     bordercolor="#666666"
     borderopacity="1.0"
     inkscape:pageshadow="2"
     inkscape:pageopacity="0.0"
     inkscape:pagecheckerboard="0"
     inkscape:document-units="mm"
     showgrid="false"
     inkscape:zoom="0.74029882"
     inkscape:cx="203.29628"
     inkscape:cy="273.53819"
     inkscape:window-width="958"
     inkscape:window-height="1008"
     inkscape:window-x="953"
     inkscape:window-y="0"
     inkscape:window-maximized="0"
     inkscape:current-layer="layer1" />
  <defs
     id="defs2717" />
  <g
     inkscape:label="Capa 1"
     inkscape:groupmode="layer"
     id="layer1"
     transform="translate(-39.6002,-133.21503)">
    <path
       id="rect45288"
       style="stroke:#ffffff;stroke-width:1.3;stroke-linecap:round;stroke-linejoin:round;stroke-dashoffset:9.31653"
       d="m 48.2821,133.86503 h 63.2967 c 4.4497,0 8.0319,3.58221 8.0319,8.03185 v 109.15577 c 0,4.44964 -3.5822,8.03185 -8.0319,8.03185 H 48.2821 c -4.4497,0 -8.0319,-3.58221 -8.0319,-8.03185 V 141.89688 c 0,-4.44964 3.5822,-8.03185 8.0319,-8.03185 z" />
    <path
       id="rect45290"
       style="fill:#20f3f3;stroke-width:1.81997;stroke-linecap:round;stroke-linejoin:round;stroke-dashoffset:9.31653"
       d="m 50.097,138.2415 h 59.6671 c 3.0438,0 5.4942,2.45043 5.4942,5.49424 v 105.4781 c 0,3.04381 -2.4504,5.49424 -5.4942,5.49424 H 50.097 c -3.0438,0 -5.4942,-2.45043 -5.4942,-5.49424 v -105.4781 c 0,-3.04381 2.4504,-5.49424 5.4942,-5.49424 z" />
    <path
       id="ellipse45292"
       style="fill:none;fill-opacity:0;stroke:#000000;stroke-width:4.90276;stroke-linecap:round;stroke-linejoin:round;stroke-dashoffset:9.31653"
       d="m 105.49654,210.63905 a 29.227528,54.28476 28.987554 0 1 -51.87348,33.32001 29.227528,54.28476 28.987554 0 1 0.741435,-61.64845 29.227528,54.28476 28.987554 0 1 51.873485,-33.32002 29.227528,54.28476 28.987554 0 1 -0.74144,61.64846 z" />
    <g
       id="g45368"
       transform="matrix(-0.29966215,0,0.01575159,-0.28960271,243.8378,268.73623)"
       style="stroke:#ffffff;stroke-width:1.00139;stroke-miterlimit:4;stroke-dasharray:none;stroke-opacity:1">
      <g
         aria-label="6"
         transform="matrix(1.1127008,0,-0.06826013,0.89871419,0,0)"
         id="text45364"
         style="font-size:75.0979px;line-height:1.25;font-family:'Tw Cen MT Condensed Extra Bold';-inkscape-font-specification:'Tw Cen MT Condensed Extra Bold, Normal';stroke:#ffffff;stroke-width:1.00139;stroke-miterlimit:4;stroke-dasharray:none;stroke-opacity:1">
        <path
           d="m 424.54642,72.099952 h 11.66071 q -6.27038,12.980789 -8.50718,18.444455 0.47669,-0.03667 1.57676,-0.293352 1.24674,-0.220013 2.12679,-0.220013 5.94037,0 9.27724,3.99691 3.33687,3.99691 3.33687,11.184018 0,7.88381 -4.32693,12.54076 -4.32693,4.65695 -11.58738,4.65695 -6.82041,0 -11.074,-4.62028 -4.25359,-4.65695 -4.25359,-12.13741 0,-9.203891 8.39717,-26.584948 z m 3.85024,40.702478 q 2.27347,0 3.66688,-1.94345 1.43009,-1.98013 1.43009,-5.13365 0,-3.04352 -1.46675,-5.09698 -1.46676,-2.090124 -3.55689,-2.090124 -2.20013,0 -3.63022,2.053454 -1.39342,2.05346 -1.39342,5.28033 0,3.11685 1.32008,5.02363 1.35675,1.90679 3.55689,1.90679 z"
           id="path48088"
           style="stroke:#ffffff;stroke-width:1.00139;stroke-miterlimit:4;stroke-dasharray:none;stroke-opacity:1" />
      </g>
      <path
         id="rect45366"
         style="stroke:#ffffff;stroke-width:1.00139;stroke-linecap:square;stroke-miterlimit:4;stroke-dasharray:none;stroke-dashoffset:9.31653;stroke-opacity:1"
         d="m 451.99484,112.17763 h 32.92879 v 6.34426 h -32.92879 z" />
    </g>
    <g
       id="g45376"
       transform="matrix(0.86688912,0,-0.0455676,0.83778828,-324.2383,119.36439)">
      <g
         aria-label="6"
         transform="matrix(1.1127008,0,-0.06826013,0.89871419,0,0)"
         id="text45372"
         style="font-size:75.0979px;line-height:1.25;font-family:'Tw Cen MT Condensed Extra Bold';-inkscape-font-specification:'Tw Cen MT Condensed Extra Bold, Normal';stroke:#ffffff;stroke-width:2.80798">
        <path
           d="m 424.54642,72.099952 h 11.66071 q -6.27038,12.980789 -8.50718,18.444455 0.47669,-0.03667 1.57676,-0.293352 1.24674,-0.220013 2.12679,-0.220013 5.94037,0 9.27724,3.99691 3.33687,3.99691 3.33687,11.184018 0,7.88381 -4.32693,12.54076 -4.32693,4.65695 -11.58738,4.65695 -6.82041,0 -11.074,-4.62028 -4.25359,-4.65695 -4.25359,-12.13741 0,-9.203891 8.39717,-26.584948 z m 3.85024,40.702478 q 2.27347,0 3.66688,-1.94345 1.43009,-1.98013 1.43009,-5.13365 0,-3.04352 -1.46675,-5.09698 -1.46676,-2.090124 -3.55689,-2.090124 -2.20013,0 -3.63022,2.053454 -1.39342,2.05346 -1.39342,5.28033 0,3.11685 1.32008,5.02363 1.35675,1.90679 3.55689,1.90679 z"
           id="path48092" />
      </g>
      <path
         id="rect45374"
         style="stroke:#ffffff;stroke-width:2.41723;stroke-linecap:square;stroke-dashoffset:9.31653"
         d="m 451.99484,112.17763 h 32.92879 v 6.34426 h -32.92879 z" />
    </g>
    <g
       id="g45392"
       transform="matrix(0.29966215,0,-0.01575159,0.28960271,-84.6115,124.44497)"
       style="stroke:#ffffff;stroke-width:1.00139;stroke-miterlimit:4;stroke-dasharray:none;stroke-opacity:1">
      <g
         aria-label="6"
         transform="matrix(1.1127008,0,-0.06826013,0.89871419,0,0)"
         id="text45388"
         style="font-size:75.0979px;line-height:1.25;font-family:'Tw Cen MT Condensed Extra Bold';-inkscape-font-specification:'Tw Cen MT Condensed Extra Bold, Normal';stroke:#ffffff;stroke-width:1.00139;stroke-miterlimit:4;stroke-dasharray:none;stroke-opacity:1">
        <path
           d="m 424.54642,72.099952 h 11.66071 q -6.27038,12.980789 -8.50718,18.444455 0.47669,-0.03667 1.57676,-0.293352 1.24674,-0.220013 2.12679,-0.220013 5.94037,0 9.27724,3.99691 3.33687,3.99691 3.33687,11.184018 0,7.88381 -4.32693,12.54076 -4.32693,4.65695 -11.58738,4.65695 -6.82041,0 -11.074,-4.62028 -4.25359,-4.65695 -4.25359,-12.13741 0,-9.203891 8.39717,-26.584948 z m 3.85024,40.702478 q 2.27347,0 3.66688,-1.94345 1.43009,-1.98013 1.43009,-5.13365 0,-3.04352 -1.46675,-5.09698 -1.46676,-2.090124 -3.55689,-2.090124 -2.20013,0 -3.63022,2.053454 -1.39342,2.05346 -1.39342,5.28033 0,3.11685 1.32008,5.02363 1.35675,1.90679 3.55689,1.90679 z"
           id="path48100"
           style="stroke:#ffffff;stroke-width:1.00139;stroke-miterlimit:4;stroke-dasharray:none;stroke-opacity:1" />
      </g>
      <path
         id="rect45390"
         style="stroke:#ffffff;stroke-width:1.00139;stroke-linecap:square;stroke-miterlimit:4;stroke-dasharray:none;stroke-dashoffset:9.31653;stroke-opacity:1"
         d="m 451.99484,112.17763 h 32.92879 v 6.34426 h -32.92879 z" />
    </g>
  </g>
</svg>
