<?xml version="1.0" encoding="UTF-8" standalone="no"?>
<!-- Created with Inkscape (http://www.inkscape.org/) -->

<svg
   width="80.6605mm"
   height="126.51947mm"
   viewBox="0 0 80.660499 126.51947"
   version="1.1"
   id="svg2720"
   inkscape:version="1.1.2 (b8e25be833, 2022-02-05)"
   sodipodi:docname="rojo_alt_2.svg"
   xmlns:inkscape="http://www.inkscape.org/namespaces/inkscape"
   xmlns:sodipodi="http://sodipodi.sourceforge.net/DTD/sodipodi-0.dtd"
   xmlns="http://www.w3.org/2000/svg"
   xmlns:svg="http://www.w3.org/2000/svg">
  <sodipodi:namedview
     id="namedview2722"
     pagecolor="#ffffff"
     bordercolor="#666666"
     borderopacity="1.0"
     inkscape:pageshadow="2"
     inkscape:pageopacity="0.0"
     inkscape:pagecheckerboard="0"
     inkscape:document-units="mm"
     showgrid="false"
     inkscape:zoom="0.74029882"
     inkscape:cx="264.08255"
     inkscape:cy="276.2398"
     inkscape:window-width="958"
     inkscape:window-height="1008"
     inkscape:window-x="953"
     inkscape:window-y="0"
     inkscape:window-maximized="0"
     inkscape:current-layer="layer1" />
  <defs
     id="defs2717" />
  <g
     inkscape:label="Capa 1"
     inkscape:groupmode="layer"
     id="layer1"
     transform="translate(-23.2931,-132.49946)">
    <path
       id="rect45216"
       style="stroke:#ffffff;stroke-width:1.3;stroke-linecap:round;stroke-linejoin:round;stroke-dashoffset:9.31653"
       d="m 31.975,133.14946 h 63.2967 c 4.4497,0 8.0319,3.58221 8.0319,8.03185 v 109.15577 c 0,4.44964 -3.5822,8.03185 -8.0319,8.03185 H 31.975 c -4.4497,0 -8.0319,-3.58221 -8.0319,-8.03185 V 141.18131 c 0,-4.44964 3.5822,-8.03185 8.0319,-8.03185 z" />
    <path
       id="rect45218"
       style="fill:#20f3f3;stroke-width:1.81997;stroke-linecap:round;stroke-linejoin:round;stroke-dashoffset:9.31653"
       d="M 33.7899,137.52593 H 93.457 c 3.0438,0 5.4942,2.45043 5.4942,5.49424 v 105.4781 c 0,3.04381 -2.4504,5.49424 -5.4942,5.49424 H 33.7899 c -3.0438,0 -5.4942,-2.45043 -5.4942,-5.49424 v -105.4781 c 0,-3.04381 2.4504,-5.49424 5.4942,-5.49424 z" />
    <path
       id="ellipse45220"
       style="fill:none;fill-opacity:0;stroke:#000000;stroke-width:4.90276;stroke-linecap:round;stroke-linejoin:round;stroke-dashoffset:9.31653"
       d="m 89.189343,209.92348 a 29.227528,54.28476 28.987554 0 1 -51.873572,33.31996 29.227528,54.28476 28.987554 0 1 0.741434,-61.64845 29.227528,54.28476 28.987554 0 1 51.873485,-33.32002 29.227528,54.28476 28.987554 0 1 -0.741347,61.64851 z" />
    <g
       aria-label="2"
       transform="matrix(1.1127008,0,-0.06826013,0.89871419,-2378.5559,-708.84834)"
       id="text45224"
       style="font-size:75.0979px;line-height:1.25;font-family:'Tw Cen MT Condensed Extra Bold';-inkscape-font-specification:'Tw Cen MT Condensed Extra Bold, Normal';stroke:#ffffff;stroke-width:2.573">
      <path
         d="m 2253.7646,999.6272 h -10.744 q 0,-5.50033 0.4401,-8.61719 0.4766,-3.11685 1.9067,-5.50033 1.4668,-2.42015 4.437,-3.85024 3.0068,-1.46675 7.1137,-1.46675 6.7838,0 10.414,3.55688 3.6302,3.55688 3.6302,10.26729 0,3.44688 -1.3934,7.44374 -1.3934,3.9603 -4.1802,8.7272 l -6.0137,10.2673 h 9.8639 v 9.974 h -27.9417 l 15.9876,-27.3184 q 2.9335,-4.91358 2.9335,-8.94716 0,-2.01679 -0.88,-3.3002 -0.8801,-1.28341 -2.2002,-1.28341 -2.0901,0 -2.7501,1.68677 -0.6234,1.6501 -0.6234,6.56373 z"
         id="path47998" />
    </g>
    <g
       aria-label="2"
       transform="matrix(1.1127008,0,-0.06826013,0.89871419,-2378.5559,-708.84834)"
       id="text45228"
       style="font-size:24.4557px;line-height:1.25;font-family:'Tw Cen MT Condensed Extra Bold';-inkscape-font-specification:'Tw Cen MT Condensed Extra Bold, Normal';stroke:#ffffff;stroke-width:1.138">
      <path
         d="m 2230.0142,953.44847 h -3.4988 q 0,-1.79119 0.1433,-2.8062 0.1552,-1.01501 0.6209,-1.79119 0.4777,-0.78812 1.4449,-1.25383 0.9792,-0.47765 2.3166,-0.47765 2.2091,0 3.3913,1.1583 1.1822,1.1583 1.1822,3.34356 0,1.12247 -0.4538,2.42407 -0.4537,1.28966 -1.3613,2.84202 l -1.9583,3.34355 h 3.2122 v 3.24803 h -9.0993 l 5.2064,-8.89624 q 0.9553,-1.60013 0.9553,-2.91367 0,-0.65677 -0.2866,-1.07471 -0.2866,-0.41795 -0.7165,-0.41795 -0.6806,0 -0.8955,0.5493 -0.203,0.53736 -0.203,2.13749 z"
         id="path48001" />
    </g>
    <g
       aria-label="2"
       transform="matrix(-1.1127008,0,0.06826013,-0.89871419,-2378.5559,-708.84834)"
       id="text45232"
       style="font-size:24.4557px;line-height:1.25;font-family:'Tw Cen MT Condensed Extra Bold';-inkscape-font-specification:'Tw Cen MT Condensed Extra Bold, Normal';stroke:#ffffff;stroke-width:1.138">
      <path
         d="m -2283.2146,-1059.8623 h -3.4988 q 0,-1.7912 0.1433,-2.8062 0.1552,-1.015 0.6209,-1.7912 0.4777,-0.7881 1.4449,-1.2538 0.9792,-0.4777 2.3166,-0.4777 2.2092,0 3.3914,1.1583 1.1821,1.1583 1.1821,3.3436 0,1.1224 -0.4537,2.424 -0.4538,1.2897 -1.3613,2.8421 l -1.9584,3.3435 h 3.2122 v 3.248 h -9.0992 l 5.2064,-8.8962 q 0.9553,-1.6001 0.9553,-2.9137 0,-0.6567 -0.2866,-1.0747 -0.2866,-0.4179 -0.7165,-0.4179 -0.6807,0 -0.8956,0.5493 -0.203,0.5373 -0.203,2.1375 z"
         id="path48004" />
    </g>
  </g>
</svg>
