<?xml version="1.0" encoding="UTF-8" standalone="no"?>
<!-- Created with Inkscape (http://www.inkscape.org/) -->

<svg
   width="80.6605mm"
   height="126.51947mm"
   viewBox="0 0 80.660499 126.51947"
   version="1.1"
   id="svg2720"
   inkscape:version="1.1.2 (b8e25be833, 2022-02-05)"
   sodipodi:docname="rojo_alt_8.svg"
   xmlns:inkscape="http://www.inkscape.org/namespaces/inkscape"
   xmlns:sodipodi="http://sodipodi.sourceforge.net/DTD/sodipodi-0.dtd"
   xmlns="http://www.w3.org/2000/svg"
   xmlns:svg="http://www.w3.org/2000/svg">
  <sodipodi:namedview
     id="namedview2722"
     pagecolor="#ffffff"
     bordercolor="#666666"
     borderopacity="1.0"
     inkscape:pageshadow="2"
     inkscape:pageopacity="0.0"
     inkscape:pagecheckerboard="0"
     inkscape:document-units="mm"
     showgrid="false"
     inkscape:zoom="0.74029882"
     inkscape:cx="195.19145"
     inkscape:cy="276.2398"
     inkscape:window-width="958"
     inkscape:window-height="1008"
     inkscape:window-x="953"
     inkscape:window-y="0"
     inkscape:window-maximized="0"
     inkscape:current-layer="layer1" />
  <defs
     id="defs2717" />
  <g
     inkscape:label="Capa 1"
     inkscape:groupmode="layer"
     id="layer1"
     transform="translate(-41.8567,-132.50061)">
    <path
       id="rect45312"
       style="stroke:#ffffff;stroke-width:1.3;stroke-linecap:round;stroke-linejoin:round;stroke-dashoffset:9.31653"
       d="m 50.5386,133.15061 h 63.2967 c 4.4497,0 8.0319,3.58221 8.0319,8.03185 v 109.15577 c 0,4.44964 -3.5822,8.03185 -8.0319,8.03185 H 50.5386 c -4.4497,0 -8.0319,-3.58221 -8.0319,-8.03185 V 141.18246 c 0,-4.44964 3.5822,-8.03185 8.0319,-8.03185 z" />
    <path
       id="rect45314"
       style="fill:#20f3f3;stroke-width:1.81997;stroke-linecap:round;stroke-linejoin:round;stroke-dashoffset:9.31653"
       d="m 52.3533,137.52708 h 59.667 c 3.0439,0 5.4943,2.45043 5.4943,5.49424 v 105.4781 c 0,3.04381 -2.4504,5.49424 -5.4943,5.49424 h -59.667 c -3.0439,0 -5.4943,-2.45043 -5.4943,-5.49424 v -105.4781 c 0,-3.04381 2.4504,-5.49424 5.4943,-5.49424 z" />
    <path
       id="ellipse45316"
       style="fill:none;fill-opacity:0;stroke:#000000;stroke-width:4.90276;stroke-linecap:round;stroke-linejoin:round;stroke-dashoffset:9.31653"
       d="m 107.75297,209.92458 a 29.227528,54.28476 28.987554 0 1 -51.873484,33.32002 29.227528,54.28476 28.987554 0 1 0.741435,-61.64846 29.227528,54.28476 28.987554 0 1 51.873489,-33.32001 29.227528,54.28476 28.987554 0 1 -0.74144,61.64845 z" />
    <g
       aria-label="8"
       transform="matrix(1.1127008,0,-0.06826013,0.89871419,-2878.4884,-710.96389)"
       id="text45320"
       style="font-size:75.0979px;line-height:1.25;font-family:'Tw Cen MT Condensed Extra Bold';-inkscape-font-specification:'Tw Cen MT Condensed Extra Bold, Normal';stroke:#ffffff;stroke-width:2.573;paint-order:markers fill stroke">
      <path
         d="m 2728.9828,1006.0526 q 4.1802,1.7967 6.4537,5.4636 2.3101,3.6669 2.3101,8.2872 0,6.4904 -3.9969,10.3773 -3.9969,3.8869 -10.7073,3.8869 -6.8571,0 -10.854,-3.8502 -3.9602,-3.8503 -3.9602,-10.414 0,-1.6501 0.22,-3.0802 0.22,-1.4668 0.66,-2.7135 0.4767,-1.2834 1.1734,-2.3835 0.6967,-1.1367 1.6135,-2.0901 0.9533,-0.9534 2.2001,-1.7601 1.2834,-0.8434 2.6402,-1.6501 v -0.073 h -0.073 q 0,-0.073 -0.073,-0.073 0,-0.073 -0.073,-0.073 -2.2001,-1.0268 -3.6669,-2.2735 -1.43,-1.2467 -2.4568,-3.5202 -1.0267,-2.31015 -1.0267,-5.317 0,-5.24365 3.8869,-8.72719 3.8869,-3.52022 9.7173,-3.52022 5.9403,0 9.7172,3.55688 3.7769,3.55689 3.7769,9.13056 0,3.66689 -1.8334,6.23367 -1.7968,2.5669 -5.647,4.5837 z m -3.2269,-9.24061 q 0,-5.31699 -2.7868,-5.31699 -2.8602,0 -2.8602,4.73029 0,2.86017 0.66,4.07021 0.6967,1.1734 2.2735,1.1734 2.7135,0 2.7135,-4.65691 z m 1.1734,22.07471 q 0,-7.1871 -3.9602,-7.1871 -4.1436,0 -4.1436,6.6004 0,7.0404 4.2169,7.0404 3.8869,0 3.8869,-6.4537 z"
         id="path48061" />
    </g>
    <g
       aria-label="8"
       transform="matrix(1.1127008,0,-0.06826013,0.89871419,-2878.4884,-710.96389)"
       id="text45324"
       style="font-size:24.4557px;line-height:1.25;font-family:'Tw Cen MT Condensed Extra Bold';-inkscape-font-specification:'Tw Cen MT Condensed Extra Bold, Normal';stroke:#ffffff;stroke-width:1.138">
      <path
         d="m 2699.1001,957.12917 q 1.3613,0.58512 2.1017,1.77925 0.7523,1.19413 0.7523,2.69872 0,2.11361 -1.3016,3.37938 -1.3016,1.26577 -3.4869,1.26577 -2.233,0 -3.5346,-1.25383 -1.2897,-1.25383 -1.2897,-3.39132 0,-0.53735 0.072,-1.00306 0.072,-0.47765 0.2149,-0.88365 0.1553,-0.41795 0.3822,-0.77619 0.2268,-0.37018 0.5254,-0.68065 0.3104,-0.31047 0.7164,-0.57318 0.418,-0.27465 0.8598,-0.53736 v -0.0239 h -0.024 q 0,-0.0239 -0.024,-0.0239 0,-0.0239 -0.024,-0.0239 -0.7165,-0.33436 -1.1942,-0.74036 -0.4657,-0.406 -0.8,-1.14636 -0.3344,-0.7523 -0.3344,-1.73148 0,-1.7076 1.2658,-2.84202 1.2658,-1.14637 3.1644,-1.14637 1.9345,0 3.1645,1.15831 1.2299,1.1583 1.2299,2.97337 0,1.19413 -0.5971,2.03001 -0.5851,0.83589 -1.8389,1.49266 z m -1.0508,-3.0092 q 0,-1.73148 -0.9076,-1.73148 -0.9314,0 -0.9314,1.54042 0,0.93142 0.215,1.32548 0.2268,0.38212 0.7403,0.38212 0.8837,0 0.8837,-1.51654 z m 0.3821,7.18864 q 0,-2.34048 -1.2897,-2.34048 -1.3493,0 -1.3493,2.14942 0,2.29272 1.3732,2.29272 1.2658,0 1.2658,-2.10166 z"
         id="path48064" />
    </g>
    <g
       aria-label="8"
       transform="matrix(-1.1127008,0,0.06826013,-0.89871419,-2878.4884,-710.96389)"
       id="text45328"
       style="font-size:24.4557px;line-height:1.25;font-family:'Tw Cen MT Condensed Extra Bold';-inkscape-font-specification:'Tw Cen MT Condensed Extra Bold, Normal';stroke:#ffffff;stroke-width:1.138">
      <path
         d="m -2746.3777,-1060.8921 q 1.3613,0.5852 2.1017,1.7793 0.7523,1.1941 0.7523,2.6987 0,2.1136 -1.3016,3.3794 -1.3016,1.2658 -3.4869,1.2658 -2.233,0 -3.5346,-1.2539 -1.2896,-1.2538 -1.2896,-3.3913 0,-0.5374 0.072,-1.0031 0.072,-0.4776 0.2149,-0.8836 0.1553,-0.418 0.3822,-0.7762 0.2269,-0.3702 0.5254,-0.6806 0.3105,-0.3105 0.7165,-0.5732 0.4179,-0.2747 0.8597,-0.5374 v -0.024 h -0.024 q 0,-0.024 -0.024,-0.024 0,-0.024 -0.024,-0.024 -0.7165,-0.3344 -1.1941,-0.7404 -0.4658,-0.406 -0.8001,-1.1464 -0.3344,-0.7523 -0.3344,-1.7314 0,-1.7076 1.2658,-2.8421 1.2658,-1.1463 3.1644,-1.1463 1.9345,0 3.1645,1.1583 1.2299,1.1583 1.2299,2.9734 0,1.1941 -0.597,2.03 -0.5852,0.8359 -1.839,1.4926 z m -1.0508,-3.0092 q 0,-1.7314 -0.9076,-1.7314 -0.9314,0 -0.9314,1.5404 0,0.9314 0.215,1.3255 0.2269,0.3821 0.7403,0.3821 0.8837,0 0.8837,-1.5166 z m 0.3821,7.1887 q 0,-2.3405 -1.2897,-2.3405 -1.3493,0 -1.3493,2.1494 0,2.2927 1.3732,2.2927 1.2658,0 1.2658,-2.1016 z"
         id="path48067" />
    </g>
  </g>
</svg>
