<?xml version="1.0" encoding="UTF-8" standalone="no"?>
<!-- Created with Inkscape (http://www.inkscape.org/) -->

<svg
   width="80.6605mm"
   height="126.51947mm"
   viewBox="0 0 80.660499 126.51947"
   version="1.1"
   id="svg2720"
   inkscape:version="1.1.2 (b8e25be833, 2022-02-05)"
   sodipodi:docname="rojo_alt_3.svg"
   xmlns:inkscape="http://www.inkscape.org/namespaces/inkscape"
   xmlns:sodipodi="http://sodipodi.sourceforge.net/DTD/sodipodi-0.dtd"
   xmlns="http://www.w3.org/2000/svg"
   xmlns:svg="http://www.w3.org/2000/svg">
  <sodipodi:namedview
     id="namedview2722"
     pagecolor="#ffffff"
     bordercolor="#666666"
     borderopacity="1.0"
     inkscape:pageshadow="2"
     inkscape:pageopacity="0.0"
     inkscape:pagecheckerboard="0"
     inkscape:document-units="mm"
     showgrid="false"
     inkscape:zoom="0.74029882"
     inkscape:cx="238.41724"
     inkscape:cy="254.62691"
     inkscape:window-width="958"
     inkscape:window-height="1008"
     inkscape:window-x="953"
     inkscape:window-y="0"
     inkscape:window-maximized="0"
     inkscape:current-layer="layer1" />
  <defs
     id="defs2717" />
  <g
     inkscape:label="Capa 1"
     inkscape:groupmode="layer"
     id="layer1"
     transform="translate(-30.1397,-138.21806)">
    <path
       id="rect45234"
       style="stroke:#ffffff;stroke-width:1.3;stroke-linecap:round;stroke-linejoin:round;stroke-dashoffset:9.31653"
       d="m 38.8216,138.86806 h 63.2967 c 4.4497,0 8.0319,3.58221 8.0319,8.03185 v 109.15577 c 0,4.44964 -3.5822,8.03185 -8.0319,8.03185 H 38.8216 c -4.4497,0 -8.0319,-3.58221 -8.0319,-8.03185 V 146.89991 c 0,-4.44964 3.5822,-8.03185 8.0319,-8.03185 z" />
    <path
       id="rect45236"
       style="fill:#20f3f3;stroke-width:1.81997;stroke-linecap:round;stroke-linejoin:round;stroke-dashoffset:9.31653"
       d="m 40.6365,143.24453 h 59.6671 c 3.0438,0 5.4942,2.45043 5.4942,5.49424 v 105.4781 c 0,3.04381 -2.4504,5.49424 -5.4942,5.49424 H 40.6365 c -3.0438,0 -5.4942,-2.45043 -5.4942,-5.49424 v -105.4781 c 0,-3.04381 2.4504,-5.49424 5.4942,-5.49424 z" />
    <path
       id="ellipse45238"
       style="fill:none;fill-opacity:0;stroke:#000000;stroke-width:4.90276;stroke-linecap:round;stroke-linejoin:round;stroke-dashoffset:9.31653"
       d="m 96.035994,215.64206 a 29.227528,54.28476 28.987554 0 1 -51.873485,33.32002 29.227528,54.28476 28.987554 0 1 0.741435,-61.64846 29.227528,54.28476 28.987554 0 1 51.873485,-33.32002 29.227528,54.28476 28.987554 0 1 -0.741435,61.64846 z" />
    <g
       aria-label="3"
       transform="matrix(1.1127008,0,-0.06826013,0.89871419,-2458.4781,-704.18809)"
       id="text45242"
       style="font-size:75.0979px;line-height:1.25;font-family:'Tw Cen MT Condensed Extra Bold';-inkscape-font-specification:'Tw Cen MT Condensed Extra Bold, Normal';stroke:#ffffff;stroke-width:2.573">
      <path
         d="m 2332.7707,997.57783 h -10.7073 q 0.073,-4.21692 0.7334,-6.56373 0.6967,-2.34681 2.3468,-4.58361 1.6868,-2.23681 4.4003,-3.59356 2.7135,-1.39341 5.867,-1.39341 5.647,0 9.3139,4.07024 3.6669,4.03358 3.6669,10.2673 0,7.26044 -5.6104,11.40404 6.6004,3.4102 6.6004,12.1741 0,3.4835 -1.6501,6.967 -1.6134,3.4469 -4.7302,5.0237 -3.1169,1.5401 -7.2972,1.5401 -6.2703,0 -10.2672,-3.6669 -3.997,-3.7036 -4.2903,-10.1573 h 10.524 q 0.073,4.5103 3.5935,4.5103 3.4469,0 3.4469,-6.1604 0,-2.8602 -1.0267,-3.9602 -0.9901,-1.1368 -3.5569,-1.1368 h -3.3736 v -10.1573 h 3.6669 q 2.3468,0 3.3369,-1.21 1.0267,-1.24677 1.0267,-4.03361 0,-6.0137 -3.3735,-6.0137 -1.5768,0 -2.1268,1.24674 -0.5134,1.24675 -0.5134,4.40027 z"
         id="path48010" />
    </g>
    <g
       aria-label="3"
       transform="matrix(1.1127008,0,-0.06826013,0.89871419,-2458.4781,-704.18809)"
       id="text45246"
       style="font-size:24.4557px;line-height:1.25;font-family:'Tw Cen MT Condensed Extra Bold';-inkscape-font-specification:'Tw Cen MT Condensed Extra Bold, Normal';stroke:#ffffff;stroke-width:1.138">
      <path
         d="m 2308.3774,953.57525 h -3.4869 q 0.024,-1.37325 0.2388,-2.13749 0.2269,-0.76424 0.7643,-1.49265 0.5493,-0.72842 1.4329,-1.17025 0.8837,-0.45377 1.9106,-0.45377 1.839,0 3.0331,1.32548 1.1941,1.31354 1.1941,3.34356 0,2.36437 -1.827,3.71373 2.1494,1.11054 2.1494,3.9645 0,1.13442 -0.5373,2.26884 -0.5254,1.12248 -1.5404,1.63595 -1.015,0.50153 -2.3763,0.50153 -2.042,0 -3.3436,-1.19412 -1.3016,-1.20607 -1.3971,-3.30773 h 3.4271 q 0.024,1.46877 1.1703,1.46877 1.1224,0 1.1224,-2.00613 0,-0.93142 -0.3343,-1.28966 -0.3224,-0.37017 -1.1583,-0.37017 h -1.0986 v -3.30773 h 1.1941 q 0.7643,0 1.0867,-0.39406 0.3343,-0.40601 0.3343,-1.31354 0,-1.95837 -1.0986,-1.95837 -0.5134,0 -0.6926,0.406 -0.1671,0.40601 -0.1671,1.43295 z"
         id="path48013" />
    </g>
    <g
       aria-label="3"
       transform="matrix(-1.1127008,0,0.06826013,-0.89871419,-2458.4781,-704.18809)"
       id="text45250"
       style="font-size:24.4557px;line-height:1.25;font-family:'Tw Cen MT Condensed Extra Bold';-inkscape-font-specification:'Tw Cen MT Condensed Extra Bold, Normal';stroke:#ffffff;stroke-width:1.138">
      <path
         d="m -2360.9569,-1062.0908 h -3.4868 q 0.024,-1.3732 0.2388,-2.1375 0.2269,-0.7642 0.7642,-1.4926 0.5493,-0.7284 1.433,-1.1703 0.8837,-0.4537 1.9106,-0.4537 1.839,0 3.0331,1.3255 1.1941,1.3135 1.1941,3.3435 0,2.3644 -1.827,3.7137 2.1494,1.1106 2.1494,3.9645 0,1.1345 -0.5373,2.2689 -0.5255,1.1225 -1.5405,1.6359 -1.015,0.5016 -2.3763,0.5016 -2.0419,0 -3.3435,-1.1942 -1.3016,-1.206 -1.3971,-3.3077 h 3.4271 q 0.024,1.4688 1.1702,1.4688 1.1225,0 1.1225,-2.0061 0,-0.9315 -0.3343,-1.2897 -0.3225,-0.3702 -1.1583,-0.3702 h -1.0986 v -3.3077 h 1.1941 q 0.7642,0 1.0866,-0.3941 0.3344,-0.406 0.3344,-1.3135 0,-1.9584 -1.0986,-1.9584 -0.5135,0 -0.6926,0.406 -0.1672,0.406 -0.1672,1.433 z"
         id="path48016" />
    </g>
  </g>
</svg>
