<?xml version="1.0" encoding="UTF-8" standalone="no"?>
<!-- Created with Inkscape (http://www.inkscape.org/) -->

<svg
   width="80.6604mm"
   height="126.51947mm"
   viewBox="0 0 80.6604 126.51947"
   version="1.1"
   id="svg2720"
   inkscape:version="1.1.2 (b8e25be833, 2022-02-05)"
   sodipodi:docname="rojo_alt_cambio_sentido.svg"
   xmlns:inkscape="http://www.inkscape.org/namespaces/inkscape"
   xmlns:sodipodi="http://sodipodi.sourceforge.net/DTD/sodipodi-0.dtd"
   xmlns="http://www.w3.org/2000/svg"
   xmlns:svg="http://www.w3.org/2000/svg">
  <sodipodi:namedview
     id="namedview2722"
     pagecolor="#ffffff"
     bordercolor="#666666"
     borderopacity="1.0"
     inkscape:pageshadow="2"
     inkscape:pageopacity="0.0"
     inkscape:pagecheckerboard="0"
     inkscape:document-units="mm"
     showgrid="false"
     inkscape:zoom="0.74029882"
     inkscape:cx="266.78416"
     inkscape:cy="238.41724"
     inkscape:window-width="958"
     inkscape:window-height="1008"
     inkscape:window-x="953"
     inkscape:window-y="0"
     inkscape:window-maximized="0"
     inkscape:current-layer="layer1" />
  <defs
     id="defs2717" />
  <g
     inkscape:label="Capa 1"
     inkscape:groupmode="layer"
     id="layer1"
     transform="translate(-23.1388,-142.5086)">
    <path
       id="rect45428"
       style="stroke:#ffffff;stroke-width:1.3;stroke-linecap:round;stroke-linejoin:round;stroke-dashoffset:9.31653"
       d="m 31.8206,143.1586 h 63.2968 c 4.4496,0 8.0318,3.58221 8.0318,8.03185 v 109.15577 c 0,4.44964 -3.5822,8.03185 -8.0318,8.03185 H 31.8206 c -4.4496,0 -8.0318,-3.58221 -8.0318,-8.03185 V 151.19045 c 0,-4.44964 3.5822,-8.03185 8.0318,-8.03185 z" />
    <path
       id="rect45430"
       style="fill:#20f3f3;stroke-width:1.81997;stroke-linecap:round;stroke-linejoin:round;stroke-dashoffset:9.31653"
       d="m 33.6353,147.53507 h 59.6671 c 3.0438,0 5.4942,2.45043 5.4942,5.49424 v 105.4781 c 0,3.04381 -2.4504,5.49424 -5.4942,5.49424 H 33.6353 c -3.0438,0 -5.4942,-2.45043 -5.4942,-5.49424 v -105.4781 c 0,-3.04381 2.4504,-5.49424 5.4942,-5.49424 z" />
    <path
       id="ellipse45432"
       style="fill:none;fill-opacity:0;stroke:#000000;stroke-width:4.90276;stroke-linecap:round;stroke-linejoin:round;stroke-dashoffset:9.31653"
       d="m 89.034746,219.93251 a 29.227528,54.28476 28.987554 0 1 -51.873485,33.32002 29.227528,54.28476 28.987554 0 1 0.741435,-61.64846 29.227528,54.28476 28.987554 0 1 51.873485,-33.32002 29.227528,54.28476 28.987554 0 1 -0.741435,61.64846 z" />
    <path
       style="fill:#000000;fill-opacity:1;stroke:#ffffff;stroke-width:2.794;stroke-linecap:square;stroke-miterlimit:4;stroke-dasharray:none;stroke-opacity:1;paint-order:markers fill stroke"
       d="m 63.1851,226.53307 c 0,-0.21683 -0.7645,-1.28742 -1.699,-2.37909 l -1.6989,-1.98486 4.383,-3.7278 c 4.869,-4.14109 6.3225,-6.37509 6.3742,-9.79666 0.035,-2.31656 -1.3818,-5.51586 -2.4426,-5.51586 -0.3071,0 -3.5747,2.65029 -7.2614,5.88953 -3.6866,3.23924 -6.9128,5.88953 -7.1693,5.88953 -0.2566,0 -1.274,-0.98543 -2.261,-2.18985 -0.9868,-1.20442 -1.8751,-2.10908 -1.9738,-2.01036 -0.099,0.0987 -0.621,3.30174 -1.1605,7.11783 -0.5396,3.81607 -1.0878,7.42512 -1.2182,8.02009 l -0.2373,1.08175 h 8.1824 c 4.5003,0 8.1824,-0.17742 8.1824,-0.39425 z m -0.1248,-22.32252 c 2.7974,-2.44596 5.9496,-5.19512 7.005,-6.10926 l 1.9189,-1.66207 2.1069,2.32719 c 1.1589,1.27996 2.1805,2.24425 2.2704,2.14285 0.2025,-0.22825 2.2151,-14.2895 2.2112,-15.44905 0,-0.76819 -0.7134,-0.84136 -8.1759,-0.84136 -4.4953,0 -8.1733,0.13604 -8.1733,0.30231 0,0.16628 0.7572,1.14047 1.6828,2.16489 0.9255,1.02441 1.6827,2.05106 1.6827,2.28142 0,0.23037 -1.9777,2.11029 -4.3949,4.17761 -5.0984,4.36045 -6.428,6.616 -6.0738,10.30359 0.2035,2.11624 1.5571,4.76002 2.4545,4.79397 0.2197,0.008 2.6882,-1.98613 5.4855,-4.43209 z"
       id="path45434"
       sodipodi:nodetypes="sscscssssssccsssscsscssssssss" />
    <path
       style="fill:#000000;fill-opacity:1;stroke:#ffffff;stroke-width:2.335;stroke-linecap:square;stroke-miterlimit:4;stroke-dasharray:none;stroke-opacity:1;paint-order:markers stroke fill"
       d="m 39.7882,168.32559 c 0,-0.0813 -0.2867,-0.4827 -0.6371,-0.892 l -0.6369,-0.74419 1.6433,-1.39767 c 1.8255,-1.55263 2.3705,-2.39023 2.3899,-3.67309 0.013,-0.86855 -0.5181,-2.06807 -0.9158,-2.06807 -0.1152,0 -1.3403,0.99368 -2.7225,2.20817 -1.3823,1.2145 -2.5919,2.20818 -2.6881,2.20818 -0.096,0 -0.4776,-0.36947 -0.8477,-0.82105 -0.37,-0.45157 -0.703,-0.79076 -0.74,-0.75374 -0.037,0.037 -0.2328,1.23792 -0.4351,2.6687 -0.2024,1.43077 -0.4079,2.78392 -0.4568,3.00699 l -0.089,0.40559 h 3.0679 c 1.6873,0 3.0678,-0.0665 3.0678,-0.14782 z m -0.047,-8.36944 c 1.0488,-0.91707 2.2306,-1.94782 2.6263,-2.29056 l 0.7195,-0.62317 0.7899,0.87255 c 0.4345,0.4799 0.8176,0.84144 0.8513,0.80342 0.076,-0.0856 0.8305,-5.3576 0.829,-5.79235 0,-0.28802 -0.2675,-0.31545 -3.0654,-0.31545 -1.6854,0 -3.0644,0.051 -3.0644,0.11334 0,0.0623 0.2839,0.4276 0.6309,0.81169 0.347,0.38408 0.6309,0.76901 0.6309,0.85538 0,0.0864 -0.7415,0.79122 -1.6477,1.56632 -1.9116,1.63487 -2.4101,2.48055 -2.2773,3.86315 0.076,0.79345 0.5838,1.78469 0.9203,1.79742 0.082,0.003 1.0079,-0.74467 2.0567,-1.66174 z"
       id="path45436"
       sodipodi:nodetypes="sscscssssssccsssscsscssssssss" />
    <path
       style="fill:#000000;fill-opacity:1;stroke:#ffffff;stroke-width:2.335;stroke-linecap:square;stroke-miterlimit:4;stroke-dasharray:none;stroke-opacity:1;paint-order:markers stroke fill"
       d="m 86.6723,243.60408 c 0,0.0813 0.2867,0.4827 0.637,0.892 l 0.637,0.74419 -1.6433,1.39767 c -1.8256,1.55263 -2.3705,2.39023 -2.3899,3.67309 -0.013,0.86855 0.5181,2.06807 0.9158,2.06807 0.1151,0 1.3403,-0.99367 2.7225,-2.20817 1.3823,-1.2145 2.5919,-2.20818 2.688,-2.20818 0.096,0 0.4776,0.36947 0.8477,0.82105 0.37,0.45157 0.703,0.79076 0.74,0.75375 0.037,-0.037 0.2329,-1.23793 0.4352,-2.66871 0.2023,-1.43077 0.4078,-2.78392 0.4567,-3.00699 l 0.089,-0.40558 h -3.0678 c -1.6873,0 -3.0679,0.0665 -3.0679,0.14781 z m 0.047,8.36944 c -1.0488,0.91707 -2.2307,1.94782 -2.6264,2.29056 l -0.7195,0.62317 -0.7899,-0.87255 c -0.4345,-0.47989 -0.8175,-0.84143 -0.8512,-0.80342 -0.076,0.0856 -0.8305,5.3576 -0.8291,5.79235 0,0.28803 0.2675,0.31546 3.0654,0.31546 1.6854,0 3.0644,-0.051 3.0644,-0.11335 0,-0.0623 -0.2839,-0.4276 -0.6309,-0.81169 -0.347,-0.38408 -0.6309,-0.769 -0.6309,-0.85538 0,-0.0864 0.7415,-0.79121 1.6478,-1.56632 1.9116,-1.63487 2.4101,-2.48055 2.2772,-3.86315 -0.076,-0.79345 -0.5837,-1.78468 -0.9202,-1.79741 -0.082,-0.003 -1.0079,0.74466 -2.0567,1.66173 z"
       id="path45438"
       sodipodi:nodetypes="sscscssssssccsssscsscssssssss" />
  </g>
</svg>
