<?xml version="1.0" encoding="UTF-8" standalone="no"?>
<!-- Created with Inkscape (http://www.inkscape.org/) -->

<svg
   width="80.6604mm"
   height="126.5195mm"
   viewBox="0 0 80.6604 126.5195"
   version="1.1"
   id="svg2720"
   inkscape:version="1.1.2 (b8e25be833, 2022-02-05)"
   sodipodi:docname="rojo_alt_mas4.svg"
   xmlns:inkscape="http://www.inkscape.org/namespaces/inkscape"
   xmlns:sodipodi="http://sodipodi.sourceforge.net/DTD/sodipodi-0.dtd"
   xmlns="http://www.w3.org/2000/svg"
   xmlns:svg="http://www.w3.org/2000/svg">
  <sodipodi:namedview
     id="namedview2722"
     pagecolor="#ffffff"
     bordercolor="#666666"
     borderopacity="1.0"
     inkscape:pageshadow="2"
     inkscape:pageopacity="0.0"
     inkscape:pagecheckerboard="0"
     inkscape:document-units="mm"
     showgrid="false"
     inkscape:zoom="0.74029882"
     inkscape:cx="219.50596"
     inkscape:cy="320.8164"
     inkscape:window-width="958"
     inkscape:window-height="1008"
     inkscape:window-x="953"
     inkscape:window-y="0"
     inkscape:window-maximized="0"
     inkscape:current-layer="layer1" />
  <defs
     id="defs2717" />
  <g
     inkscape:label="Capa 1"
     inkscape:groupmode="layer"
     id="layer1"
     transform="translate(-34.9192,-120.70466)">
    <path
       id="path25528"
       style="stroke:#ffffff;stroke-width:1.3;stroke-linecap:round;stroke-linejoin:round;stroke-dashoffset:9.31653"
       d="m 43.601,121.35466 h 63.2968 c 4.4496,0 8.0318,3.5822 8.0318,8.0319 v 109.1557 c 0,4.4497 -3.5822,8.0319 -8.0318,8.0319 H 43.601 c -4.4496,0 -8.0318,-3.5822 -8.0318,-8.0319 v -109.1557 c 0,-4.4497 3.5822,-8.0319 8.0318,-8.0319 z" />
    <path
       id="path25530"
       style="fill:#20f3f3;fill-opacity:1;stroke:none;stroke-width:1.81997;stroke-linecap:round;stroke-linejoin:round;stroke-dashoffset:9.31653;stroke-opacity:1"
       d="m 45.4159,125.73116 h 59.6671 c 3.0438,0 5.4943,2.4504 5.4943,5.4942 v 105.4781 c 0,3.0438 -2.4505,5.4943 -5.4943,5.4943 H 45.4159 c -3.0438,0 -5.4942,-2.4505 -5.4942,-5.4943 v -105.4781 c 0,-3.0438 2.4504,-5.4942 5.4942,-5.4942 z" />
    <path
       id="path25532"
       style="stroke:#000000;stroke-width:4.90276;stroke-linecap:round;stroke-linejoin:round;stroke-dashoffset:9.31653"
       d="m 100.8154,198.12866 a 29.227528,54.28476 28.987554 0 1 -51.8735,33.3201 29.227528,54.28476 28.987554 0 1 0.7415,-61.6485 29.227528,54.28476 28.987554 0 1 51.8734,-33.32 29.227528,54.28476 28.987554 0 1 -0.7414,61.6484 z" />
    <g
       id="g25554"
       transform="matrix(0.91508041,0,0,0.91508041,183.1551,-36.94716)">
      <g
         id="g25542"
         transform="translate(-907.16364,148.19373)"
         style="fill:none;fill-opacity:1;stroke:#000000;stroke-width:3.6;stroke-linecap:round;stroke-linejoin:round;stroke-miterlimit:4;stroke-dasharray:none;stroke-opacity:1">
        <g
           aria-label="4"
           transform="matrix(1.1127008,0,-0.06826013,0.89871419,0,0)"
           id="g25536"
           style="font-size:22.5569px;line-height:1.25;font-family:'Tw Cen MT Condensed Extra Bold';-inkscape-font-specification:'Tw Cen MT Condensed Extra Bold, Normal'">
          <path
             d="m 694.21183,38.93671 h 3.42539 v 9.10867 h 1.14547 v 2.665415 h -1.14547 v 2.929754 h -3.05091 v -2.929754 h -4.71404 v -2.390062 z m 0.33043,4.438687 -2.13674,4.669983 h 2.18079 v -4.669983 z"
             id="path25534" />
        </g>
        <g
           aria-label="+"
           transform="matrix(1.1127008,0,-0.06826013,0.89871419,0,0)"
           id="g25540"
           style="font-size:14.3052px;line-height:1.25;font-family:'Franklin Gothic Heavy';-inkscape-font-specification:'Franklin Gothic Heavy, Normal';paint-order:stroke markers fill">
          <path
             d="m 688.23327,46.151564 v 1.767195 h -2.58444 v 2.682225 h -1.78116 v -2.682225 h -2.58444 v -1.767195 h 2.58444 v -2.682225 h 1.78116 v 2.682225 z"
             id="path25538" />
        </g>
      </g>
      <g
         id="g25552"
         transform="translate(-907.16364,148.19373)"
         style="stroke:#ffffff;stroke-width:1.32775;stroke-miterlimit:4;stroke-dasharray:none;stroke-opacity:1">
        <g
           aria-label="4"
           transform="matrix(1.1127008,0,-0.06826013,0.89871419,0,0)"
           id="g25546"
           style="font-size:22.5569px;line-height:1.25;font-family:'Tw Cen MT Condensed Extra Bold';-inkscape-font-specification:'Tw Cen MT Condensed Extra Bold, Normal'">
          <path
             d="m 694.21183,38.93671 h 3.42539 v 9.10867 h 1.14547 v 2.665415 h -1.14547 v 2.929754 h -3.05091 v -2.929754 h -4.71404 v -2.390062 z m 0.33043,4.438687 -2.13674,4.669983 h 2.18079 v -4.669983 z"
             id="path25544" />
        </g>
        <g
           aria-label="+"
           transform="matrix(1.1127008,0,-0.06826013,0.89871419,0,0)"
           id="g25550"
           style="font-size:14.3052px;line-height:1.25;font-family:'Franklin Gothic Heavy';-inkscape-font-specification:'Franklin Gothic Heavy, Normal';stroke-width:1.87415;paint-order:stroke markers fill">
          <path
             d="m 688.23327,46.151564 v 1.767195 h -2.58444 v 2.682225 h -1.78116 v -2.682225 h -2.58444 v -1.767195 h 2.58444 v -2.682225 h 1.78116 v 2.682225 z"
             id="path25548" />
        </g>
      </g>
    </g>
    <g
       id="g25576"
       transform="matrix(-0.91508041,0,0,-0.91508041,-32.5778,403.80356)">
      <g
         id="g25564"
         transform="translate(-907.16364,148.19373)"
         style="fill:none;fill-opacity:1;stroke:#000000;stroke-width:3.6;stroke-linecap:round;stroke-linejoin:round;stroke-miterlimit:4;stroke-dasharray:none;stroke-opacity:1">
        <g
           aria-label="4"
           transform="matrix(1.1127008,0,-0.06826013,0.89871419,0,0)"
           id="g25558"
           style="font-size:22.5569px;line-height:1.25;font-family:'Tw Cen MT Condensed Extra Bold';-inkscape-font-specification:'Tw Cen MT Condensed Extra Bold, Normal'">
          <path
             d="m 694.21183,38.93671 h 3.42539 v 9.10867 h 1.14547 v 2.665415 h -1.14547 v 2.929754 h -3.05091 v -2.929754 h -4.71404 v -2.390062 z m 0.33043,4.438687 -2.13674,4.669983 h 2.18079 v -4.669983 z"
             id="path25556" />
        </g>
        <g
           aria-label="+"
           transform="matrix(1.1127008,0,-0.06826013,0.89871419,0,0)"
           id="g25562"
           style="font-size:14.3052px;line-height:1.25;font-family:'Franklin Gothic Heavy';-inkscape-font-specification:'Franklin Gothic Heavy, Normal';paint-order:stroke markers fill">
          <path
             d="m 688.23327,46.151564 v 1.767195 h -2.58444 v 2.682225 h -1.78116 v -2.682225 h -2.58444 v -1.767195 h 2.58444 v -2.682225 h 1.78116 v 2.682225 z"
             id="path25560" />
        </g>
      </g>
      <g
         id="g25574"
         transform="translate(-907.16364,148.19373)"
         style="stroke:#ffffff;stroke-width:1.32775;stroke-miterlimit:4;stroke-dasharray:none;stroke-opacity:1">
        <g
           aria-label="4"
           transform="matrix(1.1127008,0,-0.06826013,0.89871419,0,0)"
           id="g25568"
           style="font-size:22.5569px;line-height:1.25;font-family:'Tw Cen MT Condensed Extra Bold';-inkscape-font-specification:'Tw Cen MT Condensed Extra Bold, Normal'">
          <path
             d="m 694.21183,38.93671 h 3.42539 v 9.10867 h 1.14547 v 2.665415 h -1.14547 v 2.929754 h -3.05091 v -2.929754 h -4.71404 v -2.390062 z m 0.33043,4.438687 -2.13674,4.669983 h 2.18079 v -4.669983 z"
             id="path25566" />
        </g>
        <g
           aria-label="+"
           transform="matrix(1.1127008,0,-0.06826013,0.89871419,0,0)"
           id="g25572"
           style="font-size:14.3052px;line-height:1.25;font-family:'Franklin Gothic Heavy';-inkscape-font-specification:'Franklin Gothic Heavy, Normal';stroke-width:1.87415;paint-order:stroke markers fill">
          <path
             d="m 688.23327,46.151564 v 1.767195 h -2.58444 v 2.682225 h -1.78116 v -2.682225 h -2.58444 v -1.767195 h 2.58444 v -2.682225 h 1.78116 v 2.682225 z"
             id="path25570" />
        </g>
      </g>
    </g>
    <g
       id="g25586"
       transform="translate(195.4442,-51.08836)">
      <path
         id="path25578"
         style="fill:#d851b0;stroke:#ffffff;stroke-width:1.73756;stroke-linecap:square;stroke-dashoffset:9.31653"
         transform="matrix(1,0,0.02874185,0.99958687,0,0)"
         d="m -152.29943,235.42252 h 13.45308 c 2.48605,0 4.48745,2.0014 4.48745,4.48745 v 24.43167 c 0,2.48605 -2.0014,4.48745 -4.48745,4.48745 h -13.45308 c -2.48605,0 -4.48745,-2.0014 -4.48745,-4.48745 v -24.43167 c 0,-2.48605 2.0014,-4.48745 4.48745,-4.48745 z" />
      <path
         id="path25580"
         style="fill:#3948e9;stroke:#ffffff;stroke-width:1.73756;stroke-linecap:square;stroke-dashoffset:9.31653"
         transform="matrix(1,0,0.02874185,0.99958687,0,0)"
         d="m -115.37174,198.81784 h 13.45308 c 2.486048,0 4.48745,2.0014 4.48745,4.48745 v 24.43167 c 0,2.48605 -2.001402,4.48745 -4.48745,4.48745 h -13.45308 c -2.48605,0 -4.48745,-2.0014 -4.48745,-4.48745 v -24.43167 c 0,-2.48605 2.0014,-4.48745 4.48745,-4.48745 z" />
      <path
         id="path25582"
         style="fill:#faaa1b;stroke:#ffffff;stroke-width:1.73756;stroke-linecap:square;stroke-dashoffset:9.31653"
         transform="matrix(1,0,0.02874185,0.99958687,0,0)"
         d="m -142.40234,213.99539 h 13.45309 c 2.48604,0 4.48745,2.0014 4.48745,4.48745 v 24.43168 c 0,2.48604 -2.00141,4.48745 -4.48745,4.48745 h -13.45309 c -2.48604,0 -4.48745,-2.00141 -4.48745,-4.48745 v -24.43168 c 0,-2.48605 2.00141,-4.48745 4.48745,-4.48745 z" />
      <path
         id="path25584"
         style="fill:#20f3f3;stroke:#ffffff;stroke-width:1.73756;stroke-linecap:square;stroke-dashoffset:9.31653"
         transform="matrix(1,0,0.02874185,0.99958687,0,0)"
         d="m -125.07206,222.71255 h 13.45308 c 2.48605,0 4.48745,2.00141 4.48745,4.48746 v 24.43167 c 0,2.48605 -2.0014,4.48745 -4.48745,4.48745 h -13.45308 c -2.48605,0 -4.48745,-2.0014 -4.48745,-4.48745 v -24.43167 c 0,-2.48605 2.0014,-4.48746 4.48745,-4.48746 z" />
    </g>
    <g
       id="g17475"
       transform="matrix(0.91508041,0,0,0.91508041,183.303,-36.90283)"
       style="fill:#000000;fill-opacity:1">
      <g
         id="g17465"
         transform="translate(-907.16364,148.19373)"
         style="fill:#000000;fill-opacity:1;stroke:#000000;stroke-width:3.6;stroke-linecap:round;stroke-linejoin:round;stroke-miterlimit:4;stroke-dasharray:none;stroke-opacity:1">
        <g
           aria-label="4"
           transform="matrix(1.1127008,0,-0.06826013,0.89871419,0,0)"
           id="g17459"
           style="font-size:22.5569px;line-height:1.25;font-family:'Tw Cen MT Condensed Extra Bold';-inkscape-font-specification:'Tw Cen MT Condensed Extra Bold, Normal';fill:#000000;fill-opacity:1">
          <path
             d="m 694.21183,38.93671 h 3.42539 v 9.10867 h 1.14547 v 2.665415 h -1.14547 v 2.929754 h -3.05091 v -2.929754 h -4.71404 v -2.390062 z m 0.33043,4.438687 -2.13674,4.669983 h 2.18079 v -4.669983 z"
             id="path17457"
             style="fill:#000000;fill-opacity:1" />
        </g>
        <g
           aria-label="+"
           transform="matrix(1.1127008,0,-0.06826013,0.89871419,0,0)"
           id="g17463"
           style="font-size:14.3052px;line-height:1.25;font-family:'Franklin Gothic Heavy';-inkscape-font-specification:'Franklin Gothic Heavy, Normal';fill:#000000;fill-opacity:1;paint-order:stroke markers fill">
          <path
             d="m 688.23327,46.151564 v 1.767195 h -2.58444 v 2.682225 h -1.78116 v -2.682225 h -2.58444 v -1.767195 h 2.58444 v -2.682225 h 1.78116 v 2.682225 z"
             id="path17461"
             style="fill:#000000;fill-opacity:1" />
        </g>
      </g>
      <g
         aria-label="4"
         transform="matrix(1.1127008,0,-0.06826013,0.89871419,-907.16364,148.19373)"
         id="g17469"
         style="font-size:22.5569px;line-height:1.25;font-family:'Tw Cen MT Condensed Extra Bold';-inkscape-font-specification:'Tw Cen MT Condensed Extra Bold, Normal';fill:#000000;fill-opacity:1;stroke:#ffffff;stroke-width:1.32775;stroke-miterlimit:4;stroke-dasharray:none;stroke-opacity:1">
        <path
           d="m 694.21183,38.93671 h 3.42539 v 9.10867 h 1.14547 v 2.665415 h -1.14547 v 2.929754 h -3.05091 v -2.929754 h -4.71404 v -2.390062 z m 0.33043,4.438687 -2.13674,4.669983 h 2.18079 v -4.669983 z"
           id="path17467"
           style="fill:#000000;fill-opacity:1" />
      </g>
      <g
         aria-label="+"
         transform="matrix(1.2409985,0,-0.07613073,1.0023386,-994.64636,143.31974)"
         id="g17473"
         style="font-size:14.3052px;line-height:1.25;font-family:'Franklin Gothic Heavy';-inkscape-font-specification:'Franklin Gothic Heavy, Normal';fill:#000000;fill-opacity:1;stroke:#ffffff;stroke-width:0.781352;stroke-miterlimit:4;stroke-dasharray:none;stroke-opacity:1;paint-order:markers fill stroke">
        <path
           d="m 688.23327,46.151564 v 1.767195 h -2.58444 v 2.682225 h -1.78116 v -2.682225 h -2.58444 v -1.767195 h 2.58444 v -2.682225 h 1.78116 v 2.682225 z"
           id="path17471"
           style="fill:#000000;fill-opacity:1;stroke-width:0.781352;stroke-miterlimit:4;stroke-dasharray:none;paint-order:markers fill stroke" />
      </g>
    </g>
    <g
       id="g17615"
       transform="matrix(-0.91508041,0,0,-0.91508041,-32.4732,403.62086)"
       style="fill:#000000;fill-opacity:1">
      <g
         id="g17605"
         transform="translate(-907.16364,148.19373)"
         style="fill:#000000;fill-opacity:1;stroke:#000000;stroke-width:3.6;stroke-linecap:round;stroke-linejoin:round;stroke-miterlimit:4;stroke-dasharray:none;stroke-opacity:1">
        <g
           aria-label="4"
           transform="matrix(1.1127008,0,-0.06826013,0.89871419,0,0)"
           id="g17599"
           style="font-size:22.5569px;line-height:1.25;font-family:'Tw Cen MT Condensed Extra Bold';-inkscape-font-specification:'Tw Cen MT Condensed Extra Bold, Normal';fill:#000000;fill-opacity:1">
          <path
             d="m 694.21183,38.93671 h 3.42539 v 9.10867 h 1.14547 v 2.665415 h -1.14547 v 2.929754 h -3.05091 v -2.929754 h -4.71404 v -2.390062 z m 0.33043,4.438687 -2.13674,4.669983 h 2.18079 v -4.669983 z"
             id="path17597"
             style="fill:#000000;fill-opacity:1" />
        </g>
        <g
           aria-label="+"
           transform="matrix(1.1127008,0,-0.06826013,0.89871419,0,0)"
           id="g17603"
           style="font-size:14.3052px;line-height:1.25;font-family:'Franklin Gothic Heavy';-inkscape-font-specification:'Franklin Gothic Heavy, Normal';fill:#000000;fill-opacity:1;paint-order:stroke markers fill">
          <path
             d="m 688.23327,46.151564 v 1.767195 h -2.58444 v 2.682225 h -1.78116 v -2.682225 h -2.58444 v -1.767195 h 2.58444 v -2.682225 h 1.78116 v 2.682225 z"
             id="path17601"
             style="fill:#000000;fill-opacity:1" />
        </g>
      </g>
      <g
         aria-label="4"
         transform="matrix(1.1127008,0,-0.06826013,0.89871419,-907.16364,148.19373)"
         id="g17609"
         style="font-size:22.5569px;line-height:1.25;font-family:'Tw Cen MT Condensed Extra Bold';-inkscape-font-specification:'Tw Cen MT Condensed Extra Bold, Normal';fill:#000000;fill-opacity:1;stroke:#ffffff;stroke-width:1.32775;stroke-miterlimit:4;stroke-dasharray:none;stroke-opacity:1">
        <path
           d="m 694.21183,38.93671 h 3.42539 v 9.10867 h 1.14547 v 2.665415 h -1.14547 v 2.929754 h -3.05091 v -2.929754 h -4.71404 v -2.390062 z m 0.33043,4.438687 -2.13674,4.669983 h 2.18079 v -4.669983 z"
           id="path17607"
           style="fill:#000000;fill-opacity:1" />
      </g>
      <g
         aria-label="+"
         transform="matrix(1.2409985,0,-0.07613073,1.0023386,-994.64636,143.31974)"
         id="g17613"
         style="font-size:14.3052px;line-height:1.25;font-family:'Franklin Gothic Heavy';-inkscape-font-specification:'Franklin Gothic Heavy, Normal';fill:#000000;fill-opacity:1;stroke:#ffffff;stroke-width:0.781352;stroke-miterlimit:4;stroke-dasharray:none;stroke-opacity:1;paint-order:markers fill stroke">
        <path
           d="m 688.23327,46.151564 v 1.767195 h -2.58444 v 2.682225 h -1.78116 v -2.682225 h -2.58444 v -1.767195 h 2.58444 v -2.682225 h 1.78116 v 2.682225 z"
           id="path17611"
           style="fill:#000000;fill-opacity:1;stroke-width:0.781352;stroke-miterlimit:4;stroke-dasharray:none;paint-order:markers fill stroke" />
      </g>
    </g>
  </g>
</svg>
