<?xml version="1.0" encoding="UTF-8" standalone="no"?>
<!-- Created with Inkscape (http://www.inkscape.org/) -->

<svg
   width="80.6605mm"
   height="126.51947mm"
   viewBox="0 0 80.660499 126.51947"
   version="1.1"
   id="svg2720"
   inkscape:version="1.1.2 (b8e25be833, 2022-02-05)"
   sodipodi:docname="rojo_alt_4.svg"
   xmlns:inkscape="http://www.inkscape.org/namespaces/inkscape"
   xmlns:sodipodi="http://sodipodi.sourceforge.net/DTD/sodipodi-0.dtd"
   xmlns="http://www.w3.org/2000/svg"
   xmlns:svg="http://www.w3.org/2000/svg">
  <sodipodi:namedview
     id="namedview2722"
     pagecolor="#ffffff"
     bordercolor="#666666"
     borderopacity="1.0"
     inkscape:pageshadow="2"
     inkscape:pageopacity="0.0"
     inkscape:pagecheckerboard="0"
     inkscape:document-units="mm"
     showgrid="false"
     inkscape:zoom="0.74029882"
     inkscape:cx="223.55837"
     inkscape:cy="255.97771"
     inkscape:window-width="958"
     inkscape:window-height="1008"
     inkscape:window-x="953"
     inkscape:window-y="0"
     inkscape:window-maximized="0"
     inkscape:current-layer="layer1" />
  <defs
     id="defs2717" />
  <g
     inkscape:label="Capa 1"
     inkscape:groupmode="layer"
     id="layer1"
     transform="translate(-34.1271,-137.86085)">
    <path
       id="rect45252"
       style="stroke:#ffffff;stroke-width:1.3;stroke-linecap:round;stroke-linejoin:round;stroke-dashoffset:9.31653"
       d="m 42.809,138.51085 h 63.2967 c 4.4497,0 8.0319,3.58221 8.0319,8.03185 v 109.15577 c 0,4.44964 -3.5822,8.03185 -8.0319,8.03185 H 42.809 c -4.4497,0 -8.0319,-3.58221 -8.0319,-8.03185 V 146.5427 c 0,-4.44964 3.5822,-8.03185 8.0319,-8.03185 z" />
    <path
       id="rect45254"
       style="fill:#20f3f3;stroke-width:1.81997;stroke-linecap:round;stroke-linejoin:round;stroke-dashoffset:9.31653"
       d="m 44.6239,142.88732 h 59.6671 c 3.0438,0 5.4942,2.45043 5.4942,5.49424 v 105.4781 c 0,3.04381 -2.4504,5.49424 -5.4942,5.49424 H 44.6239 c -3.0438,0 -5.4942,-2.45043 -5.4942,-5.49424 v -105.4781 c 0,-3.04381 2.4504,-5.49424 5.4942,-5.49424 z" />
    <path
       id="ellipse45256"
       style="fill:none;fill-opacity:0;stroke:#000000;stroke-width:4.90276;stroke-linecap:round;stroke-linejoin:round;stroke-dashoffset:9.31653"
       d="m 100.02328,215.28478 a 29.227528,54.28476 28.987554 0 1 -51.873485,33.32002 29.227528,54.28476 28.987554 0 1 0.741435,-61.64846 29.227528,54.28476 28.987554 0 1 51.87348,-33.32002 29.227528,54.28476 28.987554 0 1 -0.74143,61.64846 z" />
    <g
       aria-label="4"
       transform="matrix(1.1127008,0,-0.06826013,0.89871419,-2541.2595,-704.5453)"
       id="text45260"
       style="font-size:75.0979px;line-height:1.25;font-family:'Tw Cen MT Condensed Extra Bold';-inkscape-font-specification:'Tw Cen MT Condensed Extra Bold, Normal';stroke:#ffffff;stroke-width:2.573">
      <path
         d="m 2412.7311,982.65359 h 11.404 v 30.32521 h 3.8136 v 8.8738 h -3.8136 v 9.754 h -10.1573 v -9.754 h -15.6943 v -7.9571 z m 1.1,14.77757 -7.1137,15.54764 h 7.2604 v -15.54764 z"
         id="path48022" />
    </g>
    <g
       aria-label="4"
       transform="matrix(1.1127008,0,-0.06826013,0.89871419,-2541.2595,-704.5453)"
       id="text45264"
       style="font-size:24.4557px;line-height:1.25;font-family:'Tw Cen MT Condensed Extra Bold';-inkscape-font-specification:'Tw Cen MT Condensed Extra Bold, Normal';stroke:#ffffff;stroke-width:1.138">
      <path
         d="m 2387.0024,948.71516 h 3.7137 v 9.87542 h 1.2419 v 2.88978 h -1.2419 v 3.17638 h -3.3077 v -3.17638 h -5.1108 v -2.59125 z m 0.3582,4.81232 -2.3166,5.0631 h 2.3644 v -5.0631 z"
         id="path48025" />
    </g>
    <g
       aria-label="4"
       transform="matrix(-1.1127008,0,0.06826013,-0.89871419,-2541.2595,-704.5453)"
       id="text45268"
       style="font-size:24.4557px;line-height:1.25;font-family:'Tw Cen MT Condensed Extra Bold';-inkscape-font-specification:'Tw Cen MT Condensed Extra Bold, Normal';stroke:#ffffff;stroke-width:1.138">
      <path
         d="m -2438.2923,-1066.9509 h 3.7138 v 9.8755 h 1.2419 v 2.8897 h -1.2419 v 3.1764 h -3.3078 v -3.1764 h -5.1108 v -2.5912 z m 0.3583,4.8124 -2.3166,5.0631 h 2.3643 v -5.0631 z"
         id="path48028" />
    </g>
  </g>
</svg>
