<?xml version="1.0" encoding="UTF-8" standalone="no"?>
<!-- Created with Inkscape (http://www.inkscape.org/) -->

<svg
   width="80.6604mm"
   height="126.51947mm"
   viewBox="0 0 80.6604 126.51947"
   version="1.1"
   id="svg2720"
   inkscape:version="1.1.2 (b8e25be833, 2022-02-05)"
   sodipodi:docname="rojo_alt_5.svg"
   xmlns:inkscape="http://www.inkscape.org/namespaces/inkscape"
   xmlns:sodipodi="http://sodipodi.sourceforge.net/DTD/sodipodi-0.dtd"
   xmlns="http://www.w3.org/2000/svg"
   xmlns:svg="http://www.w3.org/2000/svg">
  <sodipodi:namedview
     id="namedview2722"
     pagecolor="#ffffff"
     bordercolor="#666666"
     borderopacity="1.0"
     inkscape:pageshadow="2"
     inkscape:pageopacity="0.0"
     inkscape:pagecheckerboard="0"
     inkscape:document-units="mm"
     showgrid="false"
     inkscape:zoom="0.74029882"
     inkscape:cx="200.59467"
     inkscape:cy="246.52207"
     inkscape:window-width="958"
     inkscape:window-height="1008"
     inkscape:window-x="953"
     inkscape:window-y="0"
     inkscape:window-maximized="0"
     inkscape:current-layer="layer1" />
  <defs
     id="defs2717" />
  <g
     inkscape:label="Capa 1"
     inkscape:groupmode="layer"
     id="layer1"
     transform="translate(-40.259,-140.36285)">
    <path
       id="rect45180"
       style="stroke:#ffffff;stroke-width:1.3;stroke-linecap:round;stroke-linejoin:round;stroke-dashoffset:9.31653"
       d="m 48.9408,141.01285 h 63.2968 c 4.4496,0 8.0318,3.58221 8.0318,8.03185 v 109.15577 c 0,4.44964 -3.5822,8.03185 -8.0318,8.03185 H 48.9408 c -4.4496,0 -8.0318,-3.58221 -8.0318,-8.03185 V 149.0447 c 0,-4.44964 3.5822,-8.03185 8.0318,-8.03185 z" />
    <path
       id="rect45182"
       style="fill:#20f3f3;stroke-width:1.81997;stroke-linecap:round;stroke-linejoin:round;stroke-dashoffset:9.31653"
       d="m 50.7558,145.38932 h 59.667 c 3.0438,0 5.4943,2.45043 5.4943,5.49424 v 105.4781 c 0,3.04381 -2.4505,5.49424 -5.4943,5.49424 h -59.667 c -3.0439,0 -5.4943,-2.45043 -5.4943,-5.49424 v -105.4781 c 0,-3.04381 2.4504,-5.49424 5.4943,-5.49424 z" />
    <path
       id="ellipse45184"
       style="fill:none;fill-opacity:0;stroke:#000000;stroke-width:4.90276;stroke-linecap:round;stroke-linejoin:round;stroke-dashoffset:9.31653"
       d="m 106.15524,217.78691 a 29.227528,54.28476 28.987554 0 1 -51.873574,33.31997 29.227528,54.28476 28.987554 0 1 0.741435,-61.64845 29.227528,54.28476 28.987554 0 1 51.873489,-33.32002 29.227528,54.28476 28.987554 0 1 -0.74135,61.6485 z" />
    <g
       aria-label="5"
       transform="matrix(1.1127008,0,-0.06826013,0.89871419,-2620.8381,-702.0433)"
       id="text45188"
       style="font-size:75.0979px;line-height:1.25;font-family:'Tw Cen MT Condensed Extra Bold';-inkscape-font-specification:'Tw Cen MT Condensed Extra Bold, Normal';stroke:#ffffff;stroke-width:2.573">
      <path
         d="m 2481.7299,982.58025 h 20.7913 l -0.2201,9.82727 h -12.6141 l -1.0634,7.44378 q 7.0405,0.22 10.744,4.4003 3.7403,4.1436 3.7403,11.3673 0,7.9205 -4.3636,12.6141 -4.3636,4.657 -11.7708,4.657 -4.1435,0 -10.8173,-2.2002 l 1.4301,-9.3872 q 5.317,2.1268 7.9572,2.1268 3.3002,0 5.0969,-2.1635 1.7968,-2.1634 1.7968,-6.197 0,-3.4469 -2.3835,-5.317 -2.3468,-1.8701 -6.747,-1.8701 -1.9802,0 -5.1337,0.66 z"
         id="path47974" />
    </g>
    <g
       aria-label="5"
       transform="matrix(1.1127008,0,-0.06826013,0.89871419,-2620.8381,-702.0433)"
       id="text45192"
       style="font-size:24.4557px;line-height:1.25;font-family:'Tw Cen MT Condensed Extra Bold';-inkscape-font-specification:'Tw Cen MT Condensed Extra Bold, Normal';stroke:#ffffff;stroke-width:1.138">
      <path
         d="m 2461.4166,948.69127 h 6.7707 l -0.072,3.20026 h -4.1078 l -0.3463,2.42408 q 2.2928,0.0716 3.4988,1.43295 1.218,1.34936 1.218,3.70179 0,2.57931 -1.421,4.10779 -1.421,1.51654 -3.8331,1.51654 -1.3494,0 -3.5227,-0.71647 l 0.4657,-3.05697 q 1.7315,0.6926 2.5913,0.6926 1.0747,0 1.6598,-0.70454 0.5851,-0.70453 0.5851,-2.01807 0,-1.12248 -0.7762,-1.73148 -0.7642,-0.60901 -2.1972,-0.60901 -0.6448,0 -1.6717,0.21495 z"
         id="path47977" />
    </g>
    <g
       aria-label="5"
       transform="matrix(-1.1127008,0,0.06826013,-0.89871419,-2620.8381,-702.0433)"
       id="text45196"
       style="font-size:24.4557px;line-height:1.25;font-family:'Tw Cen MT Condensed Extra Bold';-inkscape-font-specification:'Tw Cen MT Condensed Extra Bold, Normal';stroke:#ffffff;stroke-width:1.138">
      <path
         d="m -2517.9367,-1066.9747 h 6.7707 l -0.072,3.2002 h -4.1077 l -0.3463,2.4241 q 2.2927,0.072 3.4987,1.4329 1.2181,1.3494 1.2181,3.7018 0,2.5793 -1.4211,4.1078 -1.421,1.5166 -3.8331,1.5166 -1.3494,0 -3.5227,-0.7165 l 0.4657,-3.057 q 1.7315,0.6926 2.5913,0.6926 1.0747,0 1.6598,-0.7045 0.5851,-0.7045 0.5851,-2.0181 0,-1.1225 -0.7761,-1.7315 -0.7643,-0.609 -2.1972,-0.609 -0.6449,0 -1.6718,0.215 z"
         id="path47980" />
    </g>
  </g>
</svg>
