<?xml version="1.0" encoding="UTF-8" standalone="no"?>
<!-- Created with Inkscape (http://www.inkscape.org/) -->

<svg
   width="80.6604mm"
   height="126.51947mm"
   viewBox="0 0 80.6604 126.51947"
   version="1.1"
   id="svg2720"
   inkscape:version="1.1.2 (b8e25be833, 2022-02-05)"
   sodipodi:docname="rojo_alt_0.svg"
   xmlns:inkscape="http://www.inkscape.org/namespaces/inkscape"
   xmlns:sodipodi="http://sodipodi.sourceforge.net/DTD/sodipodi-0.dtd"
   xmlns="http://www.w3.org/2000/svg"
   xmlns:svg="http://www.w3.org/2000/svg">
  <sodipodi:namedview
     id="namedview2722"
     pagecolor="#ffffff"
     bordercolor="#666666"
     borderopacity="1.0"
     inkscape:pageshadow="2"
     inkscape:pageopacity="0.0"
     inkscape:pagecheckerboard="0"
     inkscape:document-units="mm"
     showgrid="false"
     inkscape:zoom="0.74029882"
     inkscape:cx="241.11885"
     inkscape:cy="327.57043"
     inkscape:window-width="958"
     inkscape:window-height="1008"
     inkscape:window-x="953"
     inkscape:window-y="0"
     inkscape:window-maximized="0"
     inkscape:current-layer="layer1" />
  <defs
     id="defs2717" />
  <g
     inkscape:label="Capa 1"
     inkscape:groupmode="layer"
     id="layer1"
     transform="translate(-29.2569,-118.91785)">
    <path
       id="rect45270"
       style="stroke:#ffffff;stroke-width:1.3;stroke-linecap:round;stroke-linejoin:round;stroke-dashoffset:9.31653"
       d="m 37.9387,119.56785 h 63.2968 c 4.4496,0 8.0318,3.58221 8.0318,8.03185 v 109.15577 c 0,4.44964 -3.5822,8.03185 -8.0318,8.03185 H 37.9387 c -4.4496,0 -8.0318,-3.58221 -8.0318,-8.03185 V 127.5997 c 0,-4.44964 3.5822,-8.03185 8.0318,-8.03185 z" />
    <path
       id="rect45272"
       style="fill:#20f3f3;stroke-width:1.81997;stroke-linecap:round;stroke-linejoin:round;stroke-dashoffset:9.31653"
       d="m 39.7534,123.94432 h 59.6671 c 3.0438,0 5.4942,2.45043 5.4942,5.49424 v 105.4781 c 0,3.04381 -2.4504,5.49424 -5.4942,5.49424 H 39.7534 c -3.0438,0 -5.4942,-2.45043 -5.4942,-5.49424 v -105.4781 c 0,-3.04381 2.4504,-5.49424 5.4942,-5.49424 z" />
    <path
       id="ellipse45274"
       style="fill:none;fill-opacity:0;stroke:#000000;stroke-width:4.90276;stroke-linecap:round;stroke-linejoin:round;stroke-dashoffset:9.31653"
       d="m 95.153127,196.34185 a 29.227528,54.28476 28.987554 0 1 -51.87348,33.32 29.227528,54.28476 28.987554 0 1 0.74143,-61.64844 29.227528,54.28476 28.987554 0 1 51.873485,-33.32002 29.227528,54.28476 28.987554 0 1 -0.741435,61.64846 z" />
    <g
       aria-label="0"
       transform="matrix(1.1127008,0,-0.06826013,0.89871419,-2200.1129,-722.42995)"
       id="text45278"
       style="font-size:75.0979px;line-height:1.25;font-family:'Tw Cen MT Condensed Extra Bold';-inkscape-font-specification:'Tw Cen MT Condensed Extra Bold, Normal';stroke:#ffffff;stroke-width:2.573">
      <path
         d="m 2101.7619,980.19269 q 7.9572,0 12.0641,6.56373 4.1436,6.56373 4.1436,19.32448 0,12.4308 -4.2169,19.0312 -4.1803,6.6004 -11.9908,6.6004 -7.4071,0 -11.8073,-6.1604 -4.3636,-6.197 -4.3636,-19.9845 0,-12.10077 4.2169,-18.73784 4.2169,-6.63707 11.8074,-6.63707 z m -5.5003,25.30151 q 0,15.6943 5.427,15.6943 2.9335,0 4.2169,-3.4469 1.3201,-3.4835 1.3201,-11.0373 0,-8.32384 -1.3201,-12.10073 -1.2834,-3.81357 -4.2902,-3.81357 -5.3537,0 -5.3537,14.7042 z"
         id="path48034" />
    </g>
    <g
       aria-label="0"
       transform="matrix(1.1127008,0,-0.06826013,0.89871419,-2200.1129,-722.42995)"
       id="text45282"
       style="font-size:24.4557px;line-height:1.25;font-family:'Tw Cen MT Condensed Extra Bold';-inkscape-font-specification:'Tw Cen MT Condensed Extra Bold, Normal';stroke:#ffffff;stroke-width:1.138">
      <path
         d="m 2075.9838,947.1196 q 2.5913,0 3.9287,2.13749 1.3494,2.13748 1.3494,6.29304 0,4.04809 -1.3733,6.19751 -1.3613,2.14943 -3.9048,2.14943 -2.4121,0 -3.8451,-2.00613 -1.421,-2.01807 -1.421,-6.50799 0,-3.94061 1.3733,-6.10198 1.3732,-2.16137 3.845,-2.16137 z m -1.7912,8.23947 q 0,5.11086 1.7673,5.11086 0.9553,0 1.3733,-1.12248 0.4299,-1.13442 0.4299,-3.59432 0,-2.71067 -0.4299,-3.94061 -0.418,-1.2419 -1.3972,-1.2419 -1.7434,0 -1.7434,4.78845 z"
         id="path48037" />
    </g>
    <g
       aria-label="0"
       transform="matrix(-1.1127008,0,0.06826013,-0.89871419,-2200.1129,-722.42995)"
       id="text45286"
       style="font-size:24.4557px;line-height:1.25;font-family:'Tw Cen MT Condensed Extra Bold';-inkscape-font-specification:'Tw Cen MT Condensed Extra Bold, Normal';stroke:#ffffff;stroke-width:1.138">
      <path
         d="m -2127.2259,-1066.1912 q 2.5913,0 3.9287,2.1375 1.3493,2.1375 1.3493,6.293 0,4.0481 -1.3732,6.1976 -1.3613,2.1494 -3.9048,2.1494 -2.4121,0 -3.8451,-2.0062 -1.421,-2.018 -1.421,-6.5079 0,-3.9407 1.3732,-6.102 1.3733,-2.1614 3.8451,-2.1614 z m -1.7912,8.2395 q 0,5.1108 1.7673,5.1108 0.9553,0 1.3733,-1.1224 0.4298,-1.1345 0.4298,-3.5944 0,-2.7106 -0.4298,-3.9406 -0.418,-1.2419 -1.3972,-1.2419 -1.7434,0 -1.7434,4.7885 z"
         id="path48040" />
    </g>
  </g>
</svg>
