<?xml version="1.0" encoding="UTF-8" standalone="no"?>
<!-- Created with Inkscape (http://www.inkscape.org/) -->

<svg
   width="80.6605mm"
   height="126.51947mm"
   viewBox="0 0 80.660499 126.51947"
   version="1.1"
   id="svg2720"
   inkscape:version="1.1.2 (b8e25be833, 2022-02-05)"
   sodipodi:docname="rojo_alt_9.svg"
   xmlns:inkscape="http://www.inkscape.org/namespaces/inkscape"
   xmlns:sodipodi="http://sodipodi.sourceforge.net/DTD/sodipodi-0.dtd"
   xmlns="http://www.w3.org/2000/svg"
   xmlns:svg="http://www.w3.org/2000/svg">
  <sodipodi:namedview
     id="namedview2722"
     pagecolor="#ffffff"
     bordercolor="#666666"
     borderopacity="1.0"
     inkscape:pageshadow="2"
     inkscape:pageopacity="0.0"
     inkscape:pagecheckerboard="0"
     inkscape:document-units="mm"
     showgrid="false"
     inkscape:zoom="0.74029882"
     inkscape:cx="210.05031"
     inkscape:cy="277.59061"
     inkscape:window-width="958"
     inkscape:window-height="1008"
     inkscape:window-x="953"
     inkscape:window-y="0"
     inkscape:window-maximized="0"
     inkscape:current-layer="layer1" />
  <defs
     id="defs2717" />
  <g
     inkscape:label="Capa 1"
     inkscape:groupmode="layer"
     id="layer1"
     transform="translate(-37.9813,-132.1434)">
    <path
       id="rect45356"
       style="stroke:#ffffff;stroke-width:1.3;stroke-linecap:round;stroke-linejoin:round;stroke-dashoffset:9.31653"
       d="m 46.6632,132.7934 h 63.2967 c 4.4497,0 8.0319,3.58221 8.0319,8.03185 v 109.15577 c 0,4.44964 -3.5822,8.03185 -8.0319,8.03185 H 46.6632 c -4.4497,0 -8.0319,-3.58221 -8.0319,-8.03185 V 140.82525 c 0,-4.44964 3.5822,-8.03185 8.0319,-8.03185 z" />
    <path
       id="rect45358"
       style="fill:#20f3f3;stroke-width:1.81997;stroke-linecap:round;stroke-linejoin:round;stroke-dashoffset:9.31653"
       d="m 48.4779,137.16987 h 59.667 c 3.0439,0 5.4943,2.45043 5.4943,5.49424 v 105.4781 c 0,3.04381 -2.4504,5.49424 -5.4943,5.49424 h -59.667 c -3.0439,0 -5.4943,-2.45043 -5.4943,-5.49424 v -105.4781 c 0,-3.04381 2.4504,-5.49424 5.4943,-5.49424 z" />
    <path
       id="ellipse45360"
       style="fill:none;fill-opacity:0;stroke:#000000;stroke-width:4.90276;stroke-linecap:round;stroke-linejoin:round;stroke-dashoffset:9.31653"
       d="m 103.87743,209.56736 a 29.227528,54.28476 28.987554 0 1 -51.873483,33.32001 29.227528,54.28476 28.987554 0 1 0.741435,-61.64845 29.227528,54.28476 28.987554 0 1 51.873488,-33.32002 29.227528,54.28476 28.987554 0 1 -0.74144,61.64846 z" />
    <g
       id="g45384"
       transform="matrix(0.86688912,0,-0.0455676,0.83778828,-323.0344,118.31775)">
      <g
         aria-label="9"
         transform="matrix(1.1127008,0,-0.06826013,0.89871419,0,0)"
         id="text45380"
         style="font-size:75.0979px;line-height:1.25;font-family:'Tw Cen MT Condensed Extra Bold';-inkscape-font-specification:'Tw Cen MT Condensed Extra Bold, Normal';stroke:#ffffff;stroke-width:2.80798">
        <path
           d="m 426.12318,109.86892 3.15353,-7.37045 q -2.53016,0.77004 -4.40027,0.77004 -5.39033,0 -8.7272,-4.216919 -3.3002,-4.253592 -3.3002,-11.184014 0,-7.663799 4.29026,-12.357418 4.32693,-4.693619 11.33069,-4.693619 7.15044,0 11.40403,4.546943 4.29026,4.546944 4.29026,12.210743 0,2.860174 -0.99006,7.113766 -0.95339,4.253592 -2.45682,8.103828 -1.46675,3.81356 -8.3605,18.33445 h -11.62404 z m 7.37045,-22.478038 q 0,-3.190194 -1.35675,-5.096977 -1.32008,-1.943452 -3.52021,-1.943452 -2.2368,0 -3.74023,1.943452 -1.50342,1.943451 -1.50342,4.876963 0,3.446876 1.39341,5.500335 1.43009,2.016789 3.7769,2.016789 2.01679,0 3.48355,-2.126796 1.46675,-2.126796 1.46675,-5.170314 z"
           id="path48096" />
      </g>
      <path
         id="rect45382"
         style="stroke:#ffffff;stroke-width:2.41723;stroke-linecap:square;stroke-dashoffset:9.31653"
         d="m 451.99484,112.17763 h 32.92879 v 6.34426 h -32.92879 z" />
    </g>
    <g
       id="g45400"
       transform="matrix(0.29966215,0,-0.01575159,0.28960271,-85.7779,123.14265)"
       style="stroke:#ffffff;stroke-width:1.34085;stroke-miterlimit:4;stroke-dasharray:none;stroke-opacity:1">
      <g
         aria-label="9"
         transform="matrix(1.1127008,0,-0.06826013,0.89871419,0,0)"
         id="text45396"
         style="font-size:75.0979px;line-height:1.25;font-family:'Tw Cen MT Condensed Extra Bold';-inkscape-font-specification:'Tw Cen MT Condensed Extra Bold, Normal';stroke:#ffffff;stroke-width:1.34085;stroke-miterlimit:4;stroke-dasharray:none;stroke-opacity:1">
        <path
           d="m 426.12318,109.86892 3.15353,-7.37045 q -2.53016,0.77004 -4.40027,0.77004 -5.39033,0 -8.7272,-4.216919 -3.3002,-4.253592 -3.3002,-11.184014 0,-7.663799 4.29026,-12.357418 4.32693,-4.693619 11.33069,-4.693619 7.15044,0 11.40403,4.546943 4.29026,4.546944 4.29026,12.210743 0,2.860174 -0.99006,7.113766 -0.95339,4.253592 -2.45682,8.103828 -1.46675,3.81356 -8.3605,18.33445 h -11.62404 z m 7.37045,-22.478038 q 0,-3.190194 -1.35675,-5.096977 -1.32008,-1.943452 -3.52021,-1.943452 -2.2368,0 -3.74023,1.943452 -1.50342,1.943451 -1.50342,4.876963 0,3.446876 1.39341,5.500335 1.43009,2.016789 3.7769,2.016789 2.01679,0 3.48355,-2.126796 1.46675,-2.126796 1.46675,-5.170314 z"
           id="path48104"
           style="stroke:#ffffff;stroke-width:1.34085;stroke-miterlimit:4;stroke-dasharray:none;stroke-opacity:1" />
      </g>
      <path
         id="rect45398"
         style="stroke:#ffffff;stroke-width:1.34085;stroke-linecap:square;stroke-miterlimit:4;stroke-dasharray:none;stroke-dashoffset:9.31653;stroke-opacity:1"
         d="m 451.99484,112.17763 h 32.92879 v 6.34426 h -32.92879 z" />
    </g>
    <g
       id="g45408"
       transform="matrix(-0.29966215,0,0.01575159,-0.28960271,242.7869,268.16942)"
       style="stroke:#ffffff;stroke-width:1.34085;stroke-miterlimit:4;stroke-dasharray:none;stroke-opacity:1">
      <g
         aria-label="9"
         transform="matrix(1.1127008,0,-0.06826013,0.89871419,0,0)"
         id="text45404"
         style="font-size:75.0979px;line-height:1.25;font-family:'Tw Cen MT Condensed Extra Bold';-inkscape-font-specification:'Tw Cen MT Condensed Extra Bold, Normal';stroke:#ffffff;stroke-width:1.34085;stroke-miterlimit:4;stroke-dasharray:none;stroke-opacity:1">
        <path
           d="m 426.12318,109.86892 3.15353,-7.37045 q -2.53016,0.77004 -4.40027,0.77004 -5.39033,0 -8.7272,-4.216919 -3.3002,-4.253592 -3.3002,-11.184014 0,-7.663799 4.29026,-12.357418 4.32693,-4.693619 11.33069,-4.693619 7.15044,0 11.40403,4.546943 4.29026,4.546944 4.29026,12.210743 0,2.860174 -0.99006,7.113766 -0.95339,4.253592 -2.45682,8.103828 -1.46675,3.81356 -8.3605,18.33445 h -11.62404 z m 7.37045,-22.478038 q 0,-3.190194 -1.35675,-5.096977 -1.32008,-1.943452 -3.52021,-1.943452 -2.2368,0 -3.74023,1.943452 -1.50342,1.943451 -1.50342,4.876963 0,3.446876 1.39341,5.500335 1.43009,2.016789 3.7769,2.016789 2.01679,0 3.48355,-2.126796 1.46675,-2.126796 1.46675,-5.170314 z"
           id="path48108"
           style="stroke:#ffffff;stroke-width:1.34085;stroke-miterlimit:4;stroke-dasharray:none;stroke-opacity:1" />
      </g>
      <path
         id="rect45406"
         style="stroke:#ffffff;stroke-width:1.34085;stroke-linecap:square;stroke-miterlimit:4;stroke-dasharray:none;stroke-dashoffset:9.31653;stroke-opacity:1"
         d="m 451.99484,112.17763 h 32.92879 v 6.34426 h -32.92879 z" />
    </g>
  </g>
</svg>
