<?xml version="1.0" encoding="UTF-8" standalone="no"?>
<!-- Created with Inkscape (http://www.inkscape.org/) -->

<svg
   width="80.6604mm"
   height="126.51947mm"
   viewBox="0 0 80.6604 126.51947"
   version="1.1"
   id="svg2720"
   inkscape:version="1.1.2 (b8e25be833, 2022-02-05)"
   sodipodi:docname="rojo_alt_mas2.svg"
   xmlns:inkscape="http://www.inkscape.org/namespaces/inkscape"
   xmlns:sodipodi="http://sodipodi.sourceforge.net/DTD/sodipodi-0.dtd"
   xmlns="http://www.w3.org/2000/svg"
   xmlns:svg="http://www.w3.org/2000/svg">
  <sodipodi:namedview
     id="namedview2722"
     pagecolor="#ffffff"
     bordercolor="#666666"
     borderopacity="1.0"
     inkscape:pageshadow="2"
     inkscape:pageopacity="0.0"
     inkscape:pagecheckerboard="0"
     inkscape:document-units="mm"
     showgrid="false"
     inkscape:zoom="0.74029882"
     inkscape:cx="207.3487"
     inkscape:cy="282.99383"
     inkscape:window-width="958"
     inkscape:window-height="1008"
     inkscape:window-x="953"
     inkscape:window-y="0"
     inkscape:window-maximized="0"
     inkscape:current-layer="layer1" />
  <defs
     id="defs2717" />
  <g
     inkscape:label="Capa 1"
     inkscape:groupmode="layer"
     id="layer1"
     transform="translate(-38.7522,-130.71399)">
    <path
       id="rect45330"
       style="stroke:#ffffff;stroke-width:1.3;stroke-linecap:round;stroke-linejoin:round;stroke-dashoffset:9.31653"
       d="m 47.434,131.36399 h 63.2968 c 4.4496,0 8.0318,3.58221 8.0318,8.03185 v 109.15577 c 0,4.44964 -3.5822,8.03185 -8.0318,8.03185 H 47.434 c -4.4496,0 -8.0318,-3.58221 -8.0318,-8.03185 V 139.39584 c 0,-4.44964 3.5822,-8.03185 8.0318,-8.03185 z" />
    <path
       id="rect45332"
       style="fill:#20f3f3;stroke-width:1.81997;stroke-linecap:round;stroke-linejoin:round;stroke-dashoffset:9.31653"
       d="m 49.2487,135.74046 h 59.6671 c 3.0438,0 5.4942,2.45043 5.4942,5.49424 v 105.4781 c 0,3.04381 -2.4504,5.49424 -5.4942,5.49424 H 49.2487 c -3.0438,0 -5.4942,-2.45043 -5.4942,-5.49424 V 141.2347 c 0,-3.04381 2.4504,-5.49424 5.4942,-5.49424 z" />
    <path
       id="ellipse45334"
       style="fill:none;fill-opacity:0;stroke:#000000;stroke-width:4.90276;stroke-linecap:round;stroke-linejoin:round;stroke-dashoffset:9.31653"
       d="m 104.64816,208.13788 a 29.227528,54.28476 28.987554 0 1 -51.873483,33.32001 29.227528,54.28476 28.987554 0 1 0.741435,-61.64845 29.227528,54.28476 28.987554 0 1 51.873488,-33.32002 29.227528,54.28476 28.987554 0 1 -0.74144,61.64846 z" />
    <g
       id="g45344"
       transform="translate(-707.1919,105.49855)"
       style="stroke:#ffffff;stroke-width:0.9;stroke-miterlimit:4;stroke-dasharray:none;stroke-opacity:1;paint-order:markers fill stroke">
      <g
         aria-label="2"
         transform="matrix(1.1127008,0,-0.06826013,0.89871419,0,0)"
         id="text45338"
         style="font-size:22.5569px;line-height:1.25;font-family:'Tw Cen MT Condensed Extra Bold';-inkscape-font-specification:'Tw Cen MT Condensed Extra Bold, Normal';stroke:#ffffff;stroke-width:0.9;stroke-miterlimit:4;stroke-dasharray:none;stroke-opacity:1;paint-order:markers fill stroke">
        <path
           d="m 693.33071,44.388695 h -3.22714 q 0,-1.652117 0.13217,-2.588316 0.14318,-0.936199 0.57273,-1.652117 0.44057,-0.726931 1.33271,-1.156481 0.90316,-0.440565 2.13674,-0.440565 2.03761,0 3.12801,1.068369 1.09039,1.068369 1.09039,3.083951 0,1.035327 -0.41853,2.235865 -0.41854,1.189524 -1.25561,2.621358 l -1.80632,3.083951 h 2.9628 v 2.995839 h -8.39275 l 4.80215,-8.205513 q 0.88113,-1.475891 0.88113,-2.687443 0,-0.605777 -0.26434,-0.99127 -0.26434,-0.385494 -0.66085,-0.385494 -0.6278,0 -0.82605,0.506649 -0.18724,0.495635 -0.18724,1.971526 z"
           id="path48073"
           style="stroke:#ffffff;stroke-width:0.9;stroke-miterlimit:4;stroke-dasharray:none;stroke-opacity:1;paint-order:markers fill stroke" />
      </g>
      <g
         aria-label="+"
         transform="matrix(1.1127008,0,-0.06826013,0.89871419,0,0)"
         id="text45342"
         style="font-size:14.3052px;line-height:1.25;font-family:'Franklin Gothic Heavy';-inkscape-font-specification:'Franklin Gothic Heavy, Normal';stroke:#ffffff;stroke-width:0.9;stroke-miterlimit:4;stroke-dasharray:none;stroke-opacity:1;paint-order:markers fill stroke">
        <path
           d="m 688.23327,46.151564 v 1.767195 h -2.58444 v 2.682225 h -1.78116 v -2.682225 h -2.58444 v -1.767195 h 2.58444 v -2.682225 h 1.78116 v 2.682225 z"
           id="path48076"
           style="stroke:#ffffff;stroke-width:0.9;stroke-miterlimit:4;stroke-dasharray:none;stroke-opacity:1;paint-order:markers fill stroke" />
      </g>
    </g>
    <g
       id="g45354"
       transform="rotate(180,432.7312,141.02706)"
       style="stroke:#ffffff;stroke-width:0.9;stroke-miterlimit:4;stroke-dasharray:none;stroke-opacity:1;paint-order:markers fill stroke">
      <g
         aria-label="2"
         transform="matrix(1.1127008,0,-0.06826013,0.89871419,0,0)"
         id="text45348"
         style="font-size:22.5569px;line-height:1.25;font-family:'Tw Cen MT Condensed Extra Bold';-inkscape-font-specification:'Tw Cen MT Condensed Extra Bold, Normal';stroke:#ffffff;stroke-width:0.9;stroke-miterlimit:4;stroke-dasharray:none;stroke-opacity:1;paint-order:markers fill stroke">
        <path
           d="m 693.33071,44.388695 h -3.22714 q 0,-1.652117 0.13217,-2.588316 0.14318,-0.936199 0.57273,-1.652117 0.44057,-0.726931 1.33271,-1.156481 0.90316,-0.440565 2.13674,-0.440565 2.03761,0 3.12801,1.068369 1.09039,1.068369 1.09039,3.083951 0,1.035327 -0.41853,2.235865 -0.41854,1.189524 -1.25561,2.621358 l -1.80632,3.083951 h 2.9628 v 2.995839 h -8.39275 l 4.80215,-8.205513 q 0.88113,-1.475891 0.88113,-2.687443 0,-0.605777 -0.26434,-0.99127 -0.26434,-0.385494 -0.66085,-0.385494 -0.6278,0 -0.82605,0.506649 -0.18724,0.495635 -0.18724,1.971526 z"
           id="path48079"
           style="stroke:#ffffff;stroke-width:0.9;stroke-miterlimit:4;stroke-dasharray:none;stroke-opacity:1;paint-order:markers fill stroke" />
      </g>
      <g
         aria-label="+"
         transform="matrix(1.1127008,0,-0.06826013,0.89871419,0,0)"
         id="text45352"
         style="font-size:14.3052px;line-height:1.25;font-family:'Franklin Gothic Heavy';-inkscape-font-specification:'Franklin Gothic Heavy, Normal';stroke:#ffffff;stroke-width:0.9;stroke-miterlimit:4;stroke-dasharray:none;stroke-opacity:1;paint-order:markers fill stroke">
        <path
           d="m 688.23327,46.151564 v 1.767195 h -2.58444 v 2.682225 h -1.78116 v -2.682225 h -2.58444 v -1.767195 h 2.58444 v -2.682225 h 1.78116 v 2.682225 z"
           id="path48082"
           style="stroke:#ffffff;stroke-width:0.9;stroke-miterlimit:4;stroke-dasharray:none;stroke-opacity:1;paint-order:markers fill stroke" />
      </g>
    </g>
    <g
       id="g45414"
       transform="matrix(1.0785142,0,0,1.0785142,-769.7911,100.27475)">
      <path
         id="rect45410"
         style="stroke:#ffffff;stroke-width:1.76281;stroke-linecap:square;stroke-dashoffset:9.31653"
         transform="matrix(1,0,-0.06406288,0.99794586,0,0)"
         d="m 790.68476,65.580688 h 13.62242 c 2.52425,0 4.55641,2.032158 4.55641,4.556406 v 24.807099 c 0,2.524249 -2.03216,4.556406 -4.55641,4.556406 h -13.62242 c -2.52425,0 -4.5564,-2.032157 -4.5564,-4.556406 V 70.137094 c 0,-2.524248 2.03215,-4.556406 4.5564,-4.556406 z" />
      <path
         id="rect45412"
         style="stroke:#ffffff;stroke-width:1.76281;stroke-linecap:square;stroke-dashoffset:9.31653"
         transform="matrix(1,0,-0.06406288,0.99794586,0,0)"
         d="m 781.00056,74.61277 h 13.62242 c 2.52425,0 4.55641,2.032157 4.55641,4.556406 v 24.807094 c 0,2.52425 -2.03216,4.55641 -4.55641,4.55641 h -13.62242 c -2.52425,0 -4.55641,-2.03216 -4.55641,-4.55641 V 79.169176 c 0,-2.524249 2.03216,-4.556406 4.55641,-4.556406 z" />
    </g>
  </g>
</svg>
