<?xml version="1.0" encoding="UTF-8" standalone="no"?>
<!-- Created with Inkscape (http://www.inkscape.org/) -->

<svg
   width="80.6605mm"
   height="126.51947mm"
   viewBox="0 0 80.660499 126.51947"
   version="1.1"
   id="svg2720"
   inkscape:version="1.1.2 (b8e25be833, 2022-02-05)"
   sodipodi:docname="rojo_alt_1.svg"
   xmlns:inkscape="http://www.inkscape.org/namespaces/inkscape"
   xmlns:sodipodi="http://sodipodi.sourceforge.net/DTD/sodipodi-0.dtd"
   xmlns="http://www.w3.org/2000/svg"
   xmlns:svg="http://www.w3.org/2000/svg">
  <sodipodi:namedview
     id="namedview2722"
     pagecolor="#ffffff"
     bordercolor="#666666"
     borderopacity="1.0"
     inkscape:pageshadow="2"
     inkscape:pageopacity="0.0"
     inkscape:pagecheckerboard="0"
     inkscape:document-units="mm"
     showgrid="false"
     inkscape:zoom="0.74029882"
     inkscape:cx="254.62691"
     inkscape:cy="291.09867"
     inkscape:window-width="958"
     inkscape:window-height="1008"
     inkscape:window-x="953"
     inkscape:window-y="0"
     inkscape:window-maximized="0"
     inkscape:current-layer="layer1" />
  <defs
     id="defs2717" />
  <g
     inkscape:label="Capa 1"
     inkscape:groupmode="layer"
     id="layer1"
     transform="translate(-25.7389,-128.56786)">
    <path
       id="rect45198"
       style="stroke:#ffffff;stroke-width:1.3;stroke-linecap:round;stroke-linejoin:round;stroke-dashoffset:9.31653"
       d="m 34.4208,129.21786 h 63.2967 c 4.4497,0 8.0319,3.58221 8.0319,8.03185 v 109.15577 c 0,4.44964 -3.5822,8.03185 -8.0319,8.03185 H 34.4208 c -4.4497,0 -8.0319,-3.58221 -8.0319,-8.03185 V 137.24971 c 0,-4.44964 3.5822,-8.03185 8.0319,-8.03185 z" />
    <path
       id="rect45200"
       style="fill:#20f3f3;stroke-width:1.81997;stroke-linecap:round;stroke-linejoin:round;stroke-dashoffset:9.31653"
       d="m 36.2355,133.59433 h 59.667 c 3.0439,0 5.4943,2.45043 5.4943,5.49424 v 105.4781 c 0,3.04381 -2.4504,5.49424 -5.4943,5.49424 h -59.667 c -3.0438,0 -5.4943,-2.45043 -5.4943,-5.49424 v -105.4781 c 0,-3.04381 2.4505,-5.49424 5.4943,-5.49424 z" />
    <path
       id="ellipse45202"
       style="fill:none;fill-opacity:0;stroke:#000000;stroke-width:4.90276;stroke-linecap:round;stroke-linejoin:round;stroke-dashoffset:9.31653"
       d="m 91.635239,205.99194 a 29.227528,54.28476 28.987554 0 1 -51.873485,33.32002 29.227528,54.28476 28.987554 0 1 0.741348,-61.64851 29.227528,54.28476 28.987554 0 1 51.873572,-33.31997 29.227528,54.28476 28.987554 0 1 -0.741435,61.64846 z" />
    <g
       aria-label="1"
       transform="matrix(1.1127008,0,-0.06826013,0.89871419,-2289.3413,-712.77994)"
       id="text45206"
       style="font-size:75.0979px;line-height:1.25;font-family:'Tw Cen MT Condensed Extra Bold';-inkscape-font-specification:'Tw Cen MT Condensed Extra Bold, Normal';stroke:#ffffff;stroke-width:2.573">
      <path
         d="m 2168.3404,981.4761 h 16.831 v 48.953 h -10.5973 v -38.68571 h -6.2337 z"
         id="path47986" />
    </g>
    <g
       aria-label="1"
       transform="matrix(1.1127008,0,-0.06826013,0.89871419,-2289.3413,-712.77994)"
       id="text45210"
       style="font-size:24.4557px;line-height:1.25;font-family:'Tw Cen MT Condensed Extra Bold';-inkscape-font-specification:'Tw Cen MT Condensed Extra Bold, Normal';stroke:#ffffff;stroke-width:1.138">
      <path
         d="m 2149.6099,947.53754 h 5.481 v 15.94159 h -3.451 V 950.8811 h -2.03 z"
         id="path47989" />
    </g>
    <g
       aria-label="1"
       transform="matrix(-1.1127008,0,0.06826013,-0.89871419,-2289.3413,-712.77994)"
       id="text45214"
       style="font-size:24.4557px;line-height:1.25;font-family:'Tw Cen MT Condensed Extra Bold';-inkscape-font-specification:'Tw Cen MT Condensed Extra Bold, Normal';stroke:#ffffff;stroke-width:1.138">
      <path
         d="m -2207.6585,-1065.7731 h 5.4811 v 15.9416 h -3.451 v -12.5981 h -2.0301 z"
         id="path47992" />
    </g>
  </g>
</svg>
