<?xml version="1.0" encoding="UTF-8" standalone="no"?>
<!-- Created with Inkscape (http://www.inkscape.org/) -->

<svg
   width="80.6604mm"
   height="126.51947mm"
   viewBox="0 0 80.6604 126.51947"
   version="1.1"
   id="svg2720"
   inkscape:version="1.1.2 (b8e25be833, 2022-02-05)"
   sodipodi:docname="rojo_7.svg"
   xmlns:inkscape="http://www.inkscape.org/namespaces/inkscape"
   xmlns:sodipodi="http://sodipodi.sourceforge.net/DTD/sodipodi-0.dtd"
   xmlns="http://www.w3.org/2000/svg"
   xmlns:svg="http://www.w3.org/2000/svg">
  <sodipodi:namedview
     id="namedview2722"
     pagecolor="#ffffff"
     bordercolor="#666666"
     borderopacity="1.0"
     inkscape:pageshadow="2"
     inkscape:pageopacity="0.0"
     inkscape:pagecheckerboard="0"
     inkscape:document-units="mm"
     showgrid="false"
     inkscape:zoom="0.74029882"
     inkscape:cx="266.78416"
     inkscape:cy="292.44947"
     inkscape:window-width="958"
     inkscape:window-height="1008"
     inkscape:window-x="953"
     inkscape:window-y="0"
     inkscape:window-maximized="0"
     inkscape:current-layer="layer1" />
  <defs
     id="defs2717" />
  <g
     inkscape:label="Capa 1"
     inkscape:groupmode="layer"
     id="layer1"
     transform="translate(-21.7378,-99.61572)">
    <path
       id="rect43714"
       style="fill:#ffffff;stroke:#000000;stroke-width:1.3;stroke-linecap:round;stroke-linejoin:round;stroke-dashoffset:9.31653"
       d="m 30.4196,100.26572 h 63.2968 c 4.4496,0 8.0318,3.58221 8.0318,8.03185 v 109.15577 c 0,4.44964 -3.5822,8.03185 -8.0318,8.03185 H 30.4196 c -4.4496,0 -8.0318,-3.58221 -8.0318,-8.03185 V 108.29757 c 0,-4.44964 3.5822,-8.03185 8.0318,-8.03185 z" />
    <path
       id="rect43716"
       style="fill:#df0c0c;stroke-width:1.81997;stroke-linecap:round;stroke-linejoin:round;stroke-dashoffset:9.31653"
       d="m 32.2343,104.64217 h 59.6671 c 3.0438,0 5.4942,2.45043 5.4942,5.49424 v 105.4781 c 0,3.04381 -2.4504,5.49425 -5.4942,5.49425 H 32.2343 c -3.0438,0 -5.4942,-2.45044 -5.4942,-5.49425 v -105.4781 c 0,-3.04381 2.4504,-5.49424 5.4942,-5.49424 z" />
    <path
       id="ellipse43718"
       style="fill:none;fill-opacity:0;stroke:#ffffff;stroke-width:4.90276;stroke-linecap:round;stroke-linejoin:round;stroke-dashoffset:9.31653"
       d="m 87.633875,177.03968 a 29.227528,54.28476 28.987554 0 1 -51.873504,33.32005 29.227528,54.28476 28.987554 0 1 0.741455,-61.64849 29.227528,54.28476 28.987554 0 1 51.873455,-33.31996 29.227528,54.28476 28.987554 0 1 -0.741406,61.6484 z" />
    <g
       aria-label="7"
       transform="matrix(1.1127008,0,-0.06826013,0.89871419,-2810.5988,-86.173439)"
       id="text43722"
       style="font-size:75.0979px;line-height:1.25;font-family:'Tw Cen MT Condensed Extra Bold';-inkscape-font-specification:'Tw Cen MT Condensed Extra Bold, Normal';fill:#ffffff;stroke:#000000;stroke-width:2.573">
      <path
         d="m 2587.4672,252.03537 h 28.7851 l -18.4811,48.95297 h -11.2574 l 14.4843,-38.9057 h -13.5309 z"
         id="path47232" />
    </g>
    <g
       aria-label="7"
       transform="matrix(1.1127008,0,-0.06826013,0.89871419,-2810.5988,-86.173439)"
       id="text43726"
       style="font-size:24.4557px;line-height:1.25;font-family:'Tw Cen MT Condensed Extra Bold';-inkscape-font-specification:'Tw Cen MT Condensed Extra Bold, Normal';fill:#ffffff;stroke:#000000;stroke-width:1.138">
      <path
         d="m 2569.4044,218.09687 h 9.3739 l -6.0184,15.94158 h -3.666 l 4.7168,-12.66967 h -4.4063 z"
         id="path47235" />
    </g>
    <g
       aria-label="7"
       transform="matrix(-1.1127008,0,0.06826013,-0.89871419,-2810.5988,-86.173439)"
       id="text43730"
       style="font-size:24.4557px;line-height:1.25;font-family:'Tw Cen MT Condensed Extra Bold';-inkscape-font-specification:'Tw Cen MT Condensed Extra Bold, Normal';fill:#ffffff;stroke:#000000;stroke-width:1.138">
      <path
         d="m -2628.0976,-336.33257 h 9.3739 l -6.0184,15.94158 h -3.6659 l 4.7168,-12.66968 h -4.4064 z"
         id="path47238" />
    </g>
  </g>
</svg>
