<?xml version="1.0" encoding="UTF-8" standalone="no"?>
<!-- Created with Inkscape (http://www.inkscape.org/) -->

<svg
   width="80.6605mm"
   height="126.51948mm"
   viewBox="0 0 80.660499 126.51948"
   version="1.1"
   id="svg2720"
   inkscape:version="1.1.2 (b8e25be833, 2022-02-05)"
   sodipodi:docname="rojo_0.svg"
   xmlns:inkscape="http://www.inkscape.org/namespaces/inkscape"
   xmlns:sodipodi="http://sodipodi.sourceforge.net/DTD/sodipodi-0.dtd"
   xmlns="http://www.w3.org/2000/svg"
   xmlns:svg="http://www.w3.org/2000/svg">
  <sodipodi:namedview
     id="namedview2722"
     pagecolor="#ffffff"
     bordercolor="#666666"
     borderopacity="1.0"
     inkscape:pageshadow="2"
     inkscape:pageopacity="0.0"
     inkscape:pagecheckerboard="0"
     inkscape:document-units="mm"
     showgrid="false"
     inkscape:zoom="0.74029882"
     inkscape:cx="289.74786"
     inkscape:cy="218.15515"
     inkscape:window-width="958"
     inkscape:window-height="1008"
     inkscape:window-x="953"
     inkscape:window-y="0"
     inkscape:window-maximized="0"
     inkscape:current-layer="layer1" />
  <defs
     id="defs2717" />
  <g
     inkscape:label="Capa 1"
     inkscape:groupmode="layer"
     id="layer1"
     transform="translate(-15.2697,-119.27141)">
    <path
       id="rect43684"
       style="fill:#ffffff;stroke:#000000;stroke-width:1.3;stroke-linecap:round;stroke-linejoin:round;stroke-dashoffset:9.31653"
       d="m 23.9515,119.92141 h 63.2968 c 4.4497,0 8.0319,3.58221 8.0319,8.03185 v 109.15577 c 0,4.44964 -3.5822,8.03186 -8.0319,8.03186 H 23.9515 c -4.4496,0 -8.0318,-3.58221 -8.0318,-8.03186 V 127.95327 c 0,-4.44964 3.5822,-8.03185 8.0318,-8.03186 z" />
    <path
       id="rect43686"
       style="fill:#df0c0c;stroke-width:1.81997;stroke-linecap:round;stroke-linejoin:round;stroke-dashoffset:9.31653"
       d="m 25.7665,124.29786 h 59.6671 c 3.0438,0 5.4942,2.45044 5.4942,5.49424 v 105.4781 c 0,3.04381 -2.4504,5.49425 -5.4942,5.49425 H 25.7665 c -3.0438,0 -5.4943,-2.45044 -5.4943,-5.49425 V 129.7921 c 0,-3.04381 2.4505,-5.49424 5.4943,-5.49424 z" />
    <path
       id="ellipse43688"
       style="fill:none;fill-opacity:0;stroke:#ffffff;stroke-width:4.90276;stroke-linecap:round;stroke-linejoin:round;stroke-dashoffset:9.31653"
       d="m 81.166007,196.69539 a 29.227528,54.28476 28.987554 0 1 -51.873484,33.32002 29.227528,54.28476 28.987554 0 1 0.741435,-61.64845 29.227528,54.28476 28.987554 0 1 51.873484,-33.32002 29.227528,54.28476 28.987554 0 1 -0.741435,61.64845 z" />
    <g
       aria-label="0"
       transform="matrix(1.1127008,0,-0.06826013,0.89871419,-2217.0935,-66.517745)"
       id="text43692"
       style="font-size:75.0979px;line-height:1.25;font-family:'Tw Cen MT Condensed Extra Bold';-inkscape-font-specification:'Tw Cen MT Condensed Extra Bold, Normal';fill:#ffffff;stroke:#000000;stroke-width:2.573">
      <path
         d="m 2059.7036,250.75195 q 7.9571,0 12.0641,6.56374 4.1435,6.56373 4.1435,19.3245 0,12.43076 -4.2169,19.03116 -4.1802,6.6004 -11.9907,6.6004 -7.4071,0 -11.8074,-6.16037 -4.3636,-6.19704 -4.3636,-19.98455 0,-12.10074 4.2169,-18.73781 4.217,-6.63707 11.8074,-6.63707 z m -5.5003,25.30154 q 0,15.69429 5.427,15.69429 2.9335,0 4.2169,-3.44688 1.3201,-3.48354 1.3201,-11.03733 0,-8.32384 -1.3201,-12.10074 -1.2834,-3.81357 -4.2903,-3.81357 -5.3536,0 -5.3536,14.70423 z"
         id="path47214" />
    </g>
    <g
       aria-label="0"
       transform="matrix(1.1127008,0,-0.06826013,0.89871419,-2217.0935,-66.517745)"
       id="text43696"
       style="font-size:24.4557px;line-height:1.25;font-family:'Tw Cen MT Condensed Extra Bold';-inkscape-font-specification:'Tw Cen MT Condensed Extra Bold, Normal';fill:#ffffff;stroke:#000000;stroke-width:1.138">
      <path
         d="m 2033.9256,217.67891 q 2.5912,0 3.9287,2.13749 1.3493,2.13748 1.3493,6.29304 0,4.04809 -1.3732,6.19751 -1.3613,2.14943 -3.9048,2.14943 -2.4121,0 -3.8451,-2.00613 -1.421,-2.01807 -1.421,-6.50799 0,-3.94061 1.3732,-6.10198 1.3733,-2.16137 3.8451,-2.16137 z m -1.7912,8.23947 q 0,5.11086 1.7673,5.11086 0.9553,0 1.3732,-1.12248 0.4299,-1.13442 0.4299,-3.59432 0,-2.71066 -0.4299,-3.94061 -0.4179,-1.24189 -1.3971,-1.24189 -1.7434,0 -1.7434,4.78844 z"
         id="path47217" />
    </g>
    <g
       aria-label="0"
       transform="matrix(-1.1127008,0,0.06826013,-0.89871419,-2217.0935,-66.517745)"
       id="text43700"
       style="font-size:24.4557px;line-height:1.25;font-family:'Tw Cen MT Condensed Extra Bold';-inkscape-font-specification:'Tw Cen MT Condensed Extra Bold, Normal';fill:#ffffff;stroke:#000000;stroke-width:1.138">
      <path
         d="m -2085.1676,-336.75052 q 2.5913,0 3.9287,2.13749 1.3494,2.13748 1.3494,6.29304 0,4.04809 -1.3733,6.19752 -1.3613,2.14942 -3.9048,2.14942 -2.4121,0 -3.845,-2.00613 -1.421,-2.01807 -1.421,-6.50799 0,-3.94061 1.3732,-6.10198 1.3732,-2.16137 3.8451,-2.16137 z m -1.7911,8.23947 q 0,5.11086 1.7673,5.11086 0.9553,0 1.3732,-1.12248 0.4299,-1.13442 0.4299,-3.59432 0,-2.71066 -0.4299,-3.94061 -0.4179,-1.24189 -1.3971,-1.24189 -1.7434,0 -1.7434,4.78844 z"
         id="path47220" />
    </g>
  </g>
</svg>
