<?xml version="1.0" encoding="UTF-8" standalone="no"?>
<!-- Created with Inkscape (http://www.inkscape.org/) -->

<svg
   width="80.6605mm"
   height="126.51947mm"
   viewBox="0 0 80.660499 126.51947"
   version="1.1"
   id="svg2720"
   inkscape:version="1.1.2 (b8e25be833, 2022-02-05)"
   sodipodi:docname="rojo_x2.svg"
   xmlns:inkscape="http://www.inkscape.org/namespaces/inkscape"
   xmlns:sodipodi="http://sodipodi.sourceforge.net/DTD/sodipodi-0.dtd"
   xmlns="http://www.w3.org/2000/svg"
   xmlns:svg="http://www.w3.org/2000/svg">
  <sodipodi:namedview
     id="namedview2722"
     pagecolor="#ffffff"
     bordercolor="#666666"
     borderopacity="1.0"
     inkscape:pageshadow="2"
     inkscape:pageopacity="0.0"
     inkscape:pagecheckerboard="0"
     inkscape:document-units="mm"
     showgrid="false"
     inkscape:zoom="0.74029882"
     inkscape:cx="238.41724"
     inkscape:cy="253.2761"
     inkscape:window-width="958"
     inkscape:window-height="1008"
     inkscape:window-x="953"
     inkscape:window-y="0"
     inkscape:window-maximized="0"
     inkscape:current-layer="layer1" />
  <defs
     id="defs2717" />
  <g
     inkscape:label="Capa 1"
     inkscape:groupmode="layer"
     id="layer1"
     transform="translate(-29.6915,-109.98188)">
    <path
       id="rect43884"
       style="fill:#ffffff;stroke:#000000;stroke-width:1.3;stroke-linecap:round;stroke-linejoin:round;stroke-dashoffset:9.31653"
       d="m 38.3734,110.63188 h 63.2967 c 4.4497,0 8.0319,3.58221 8.0319,8.03185 V 227.8195 c 0,4.44964 -3.5822,8.03185 -8.0319,8.03185 H 38.3734 c -4.4497,0 -8.0319,-3.5822 -8.0319,-8.03185 V 118.66374 c 0,-4.44964 3.5822,-8.03185 8.0319,-8.03186 z" />
    <path
       id="rect43886"
       style="fill:#df0c0c;stroke-width:1.81997;stroke-linecap:round;stroke-linejoin:round;stroke-dashoffset:9.31653"
       d="m 40.1883,115.00833 h 59.6671 c 3.0438,0 5.4942,2.45044 5.4942,5.49424 v 105.4781 c 0,3.04381 -2.4504,5.49425 -5.4942,5.49425 H 40.1883 c -3.0438,0 -5.4942,-2.45044 -5.4942,-5.49425 v -105.4781 c 0,-3.04381 2.4504,-5.49424 5.4942,-5.49424 z" />
    <path
       id="ellipse43888"
       style="fill:none;fill-opacity:0;stroke:#ffffff;stroke-width:4.90276;stroke-linecap:round;stroke-linejoin:round;stroke-dashoffset:9.31653"
       d="m 95.587686,187.40576 a 29.227528,54.28476 28.987554 0 1 -51.873591,33.32 29.227528,54.28476 28.987554 0 1 0.741454,-61.64849 29.227528,54.28476 28.987554 0 1 51.873504,-33.32005 29.227528,54.28476 28.987554 0 1 -0.741367,61.64854 z" />
    <path
       id="rect43890"
       style="fill:#ffffff;stroke:#000000;stroke-width:2.18919;stroke-linecap:square;stroke-dashoffset:9.31653"
       d="m 62.066756,152.17625 h 16.9347 c 3.138,0 5.50236,2.52108 5.301329,5.65266 l -1.975627,30.77552 c -0.20103,3.13156 -2.88907,5.65264 -6.02707,5.65264 h -16.9347 c -3.138,0 -5.50246,-2.52108 -5.30143,-5.65264 l 1.975627,-30.77552 c 0.201031,-3.13158 2.889171,-5.65266 6.027171,-5.65266 z" />
    <g
       id="g43902"
       transform="translate(-712.8761,78.026835)"
       style="stroke:#000000;stroke-width:0.9;stroke-miterlimit:4;stroke-dasharray:none;stroke-opacity:1;paint-order:markers fill stroke">
      <g
         id="g43900"
         transform="matrix(0.91649407,0,0,1.0036017,62.70768,0.36857226)"
         style="stroke:#000000;stroke-width:0.938419;stroke-miterlimit:4;stroke-dasharray:none;stroke-opacity:1;paint-order:markers fill stroke">
        <g
           aria-label="2"
           transform="matrix(1.1127008,0,-0.06826013,0.89871419,0,0)"
           id="text43894"
           style="font-size:22.5569px;line-height:1.25;font-family:'Tw Cen MT Condensed Extra Bold';-inkscape-font-specification:'Tw Cen MT Condensed Extra Bold, Normal';fill:#ffffff;stroke:#000000;stroke-width:0.938419;stroke-miterlimit:4;stroke-dasharray:none;stroke-opacity:1;paint-order:markers fill stroke">
          <path
             d="m 691.42006,49.850224 h -3.22713 q 0,-1.652117 0.13217,-2.588316 0.14318,-0.9362 0.57273,-1.652117 0.44056,-0.726931 1.33271,-1.156482 0.90315,-0.440564 2.13673,-0.440564 2.03761,0 3.12801,1.068369 1.0904,1.068369 1.0904,3.083951 0,1.035326 -0.41854,2.235865 -0.41853,1.189524 -1.25561,2.621358 l -1.80631,3.083951 h 2.9628 v 2.995838 h -8.39276 l 4.80216,-8.205512 q 0.88112,-1.475891 0.88112,-2.687444 0,-0.605776 -0.26433,-0.99127 -0.26434,-0.385494 -0.66085,-0.385494 -0.62781,0 -0.82606,0.50665 -0.18724,0.495635 -0.18724,1.971526 z"
             id="path47313"
             style="stroke:#000000;stroke-width:0.938419;stroke-miterlimit:4;stroke-dasharray:none;stroke-opacity:1;paint-order:markers fill stroke" />
        </g>
        <g
           aria-label="x"
           transform="matrix(1.0577462,0,-0.16956392,0.94540637,0,0)"
           id="text43898"
           style="font-size:13.7398px;line-height:1.25;font-family:'Franklin Gothic Heavy';-inkscape-font-specification:'Franklin Gothic Heavy, Normal';fill:#ffffff;stroke:#000000;stroke-width:0.938419;stroke-miterlimit:4;stroke-dasharray:none;stroke-opacity:1;paint-order:markers fill stroke">
          <path
             d="m 726.75699,53.384506 h -3.019 l -1.25456,-2.173679 -1.33507,2.173679 h -2.17368 l 2.39507,-3.61609 -2.09988,-3.206848 h 2.97875 l 0.70443,1.274689 q 0.047,0.08721 0.11405,0.201266 0.0335,0.05367 0.0939,0.174431 0.0738,-0.114051 0.18114,-0.308608 0.0134,-0.03354 0.0738,-0.140887 l 0.69773,-1.200891 h 2.20722 l -1.99925,3.099506 z"
             id="path47316"
             style="stroke:#000000;stroke-width:0.938419;stroke-miterlimit:4;stroke-dasharray:none;stroke-opacity:1;paint-order:markers fill stroke" />
        </g>
      </g>
    </g>
    <g
       id="g43914"
       transform="rotate(180,426.18,133.19693)"
       style="stroke:#000000;stroke-width:0.9;stroke-miterlimit:4;stroke-dasharray:none;stroke-opacity:1;paint-order:markers fill stroke">
      <g
         id="g43912"
         transform="matrix(0.91649407,0,0,1.0036017,62.70768,0.36857226)"
         style="stroke:#000000;stroke-width:0.938419;stroke-miterlimit:4;stroke-dasharray:none;stroke-opacity:1;paint-order:markers fill stroke">
        <g
           aria-label="2"
           transform="matrix(1.1127008,0,-0.06826013,0.89871419,0,0)"
           id="text43906"
           style="font-size:22.5569px;line-height:1.25;font-family:'Tw Cen MT Condensed Extra Bold';-inkscape-font-specification:'Tw Cen MT Condensed Extra Bold, Normal';fill:#ffffff;stroke:#000000;stroke-width:0.938419;stroke-miterlimit:4;stroke-dasharray:none;stroke-opacity:1;paint-order:markers fill stroke">
          <path
             d="m 691.42006,49.850224 h -3.22713 q 0,-1.652117 0.13217,-2.588316 0.14318,-0.9362 0.57273,-1.652117 0.44056,-0.726931 1.33271,-1.156482 0.90315,-0.440564 2.13673,-0.440564 2.03761,0 3.12801,1.068369 1.0904,1.068369 1.0904,3.083951 0,1.035326 -0.41854,2.235865 -0.41853,1.189524 -1.25561,2.621358 l -1.80631,3.083951 h 2.9628 v 2.995838 h -8.39276 l 4.80216,-8.205512 q 0.88112,-1.475891 0.88112,-2.687444 0,-0.605776 -0.26433,-0.99127 -0.26434,-0.385494 -0.66085,-0.385494 -0.62781,0 -0.82606,0.50665 -0.18724,0.495635 -0.18724,1.971526 z"
             id="path47319"
             style="stroke:#000000;stroke-width:0.938419;stroke-miterlimit:4;stroke-dasharray:none;stroke-opacity:1;paint-order:markers fill stroke" />
        </g>
        <g
           aria-label="x"
           transform="matrix(1.0577462,0,-0.16956392,0.94540637,0,0)"
           id="text43910"
           style="font-size:13.7398px;line-height:1.25;font-family:'Franklin Gothic Heavy';-inkscape-font-specification:'Franklin Gothic Heavy, Normal';fill:#ffffff;stroke:#000000;stroke-width:0.938419;stroke-miterlimit:4;stroke-dasharray:none;stroke-opacity:1;paint-order:markers fill stroke">
          <path
             d="m 726.75699,53.384506 h -3.019 l -1.25456,-2.173679 -1.33507,2.173679 h -2.17368 l 2.39507,-3.61609 -2.09988,-3.206848 h 2.97875 l 0.70443,1.274689 q 0.047,0.08721 0.11405,0.201266 0.0335,0.05367 0.0939,0.174431 0.0738,-0.114051 0.18114,-0.308608 0.0134,-0.03354 0.0738,-0.140887 l 0.69773,-1.200891 h 2.20722 l -1.99925,3.099506 z"
             id="path47322"
             style="stroke:#000000;stroke-width:0.938419;stroke-miterlimit:4;stroke-dasharray:none;stroke-opacity:1;paint-order:markers fill stroke" />
        </g>
      </g>
    </g>
    <g
       aria-label="x2"
       transform="matrix(1.0729137,0,-0.06581934,0.93204142,-3496.7952,-75.807275)"
       id="text43918"
       style="font-size:21.7182px;line-height:1.25;font-family:'Tw Cen MT Condensed Extra Bold';-inkscape-font-specification:'Tw Cen MT Condensed Extra Bold, Normal';stroke:#000000;stroke-width:0.544;paint-order:markers fill stroke">
      <path
         d="m 3330.0356,264.53067 h 3.5207 q 1.1877,2.5345 1.3044,3.12836 h 0.042 q 0.1697,-0.81656 1.3256,-3.12836 h 3.5419 l -3.1284,4.90993 3.1496,4.8463 h -3.4571 q -1.0286,-2.19515 -1.4316,-3.25561 h -0.042 q -0.043,0.37116 -0.6151,1.60129 l -0.7741,1.65432 h -3.4041 l 3.0753,-4.80388 z"
         id="path47325" />
      <path
         d="m 3344.4472,265.37904 h -3.1071 q 0,-1.59069 0.1272,-2.49208 0.1379,-0.90139 0.5515,-1.59069 0.4241,-0.6999 1.2831,-1.11348 0.8696,-0.42418 2.0573,-0.42418 1.9619,0 3.0117,1.02864 1.0499,1.02865 1.0499,2.96929 0,0.99683 -0.403,2.15273 -0.403,1.1453 -1.2089,2.52389 l -1.7392,2.96929 h 2.8527 v 2.88445 h -8.0807 l 4.6236,-7.90042 q 0.8483,-1.42102 0.8483,-2.58752 0,-0.58326 -0.2545,-0.95442 -0.2545,-0.37116 -0.6363,-0.37116 -0.6044,0 -0.7953,0.48781 -0.1803,0.47721 -0.1803,1.89823 z"
         id="path47327" />
    </g>
  </g>
</svg>
