<?xml version="1.0" encoding="UTF-8" standalone="no"?>
<!-- Created with Inkscape (http://www.inkscape.org/) -->

<svg
   width="80.6605mm"
   height="126.51947mm"
   viewBox="0 0 80.660499 126.51947"
   version="1.1"
   id="svg2720"
   inkscape:version="1.1.2 (b8e25be833, 2022-02-05)"
   sodipodi:docname="rojo_4.svg"
   xmlns:inkscape="http://www.inkscape.org/namespaces/inkscape"
   xmlns:sodipodi="http://sodipodi.sourceforge.net/DTD/sodipodi-0.dtd"
   xmlns="http://www.w3.org/2000/svg"
   xmlns:svg="http://www.w3.org/2000/svg">
  <sodipodi:namedview
     id="namedview2722"
     pagecolor="#ffffff"
     bordercolor="#666666"
     borderopacity="1.0"
     inkscape:pageshadow="2"
     inkscape:pageopacity="0.0"
     inkscape:pagecheckerboard="0"
     inkscape:document-units="mm"
     showgrid="false"
     inkscape:zoom="0.74029882"
     inkscape:cx="239.76804"
     inkscape:cy="266.78416"
     inkscape:window-width="958"
     inkscape:window-height="1008"
     inkscape:window-x="953"
     inkscape:window-y="0"
     inkscape:window-maximized="0"
     inkscape:current-layer="layer1" />
  <defs
     id="defs2717" />
  <g
     inkscape:label="Capa 1"
     inkscape:groupmode="layer"
     id="layer1"
     transform="translate(-28.7176,-106.40575)">
    <path
       id="rect43666"
       style="fill:#ffffff;stroke:#000000;stroke-width:1.3;stroke-linecap:round;stroke-linejoin:round;stroke-dashoffset:9.31653"
       d="m 37.3994,107.05575 h 63.2968 c 4.4496,0 8.0319,3.58221 8.0319,8.03185 v 109.15577 c 0,4.44964 -3.5823,8.03185 -8.0319,8.03185 H 37.3994 c -4.4496,0 -8.0318,-3.58221 -8.0318,-8.03185 V 115.0876 c 0,-4.44964 3.5822,-8.03185 8.0318,-8.03185 z" />
    <path
       id="rect43668"
       style="fill:#df0c0c;stroke-width:1.81997;stroke-linecap:round;stroke-linejoin:round;stroke-dashoffset:9.31653"
       d="m 39.2144,111.43219 h 59.667 c 3.0439,0 5.4943,2.45043 5.4943,5.49424 v 105.4781 c 0,3.04381 -2.4504,5.49424 -5.4943,5.49424 h -59.667 c -3.0438,0 -5.4943,-2.45043 -5.4943,-5.49424 v -105.4781 c 0,-3.04381 2.4505,-5.49424 5.4943,-5.49424 z" />
    <path
       id="ellipse43670"
       style="fill:none;fill-opacity:0;stroke:#ffffff;stroke-width:4.90276;stroke-linecap:round;stroke-linejoin:round;stroke-dashoffset:9.31653"
       d="m 94.613931,183.82976 a 29.227528,54.28476 28.987554 0 1 -51.87347,33.31999 29.227528,54.28476 28.987554 0 1 0.74142,-61.64843 29.227528,54.28476 28.987554 0 1 51.873504,-33.32006 29.227528,54.28476 28.987554 0 1 -0.741454,61.6485 z" />
    <g
       aria-label="4"
       transform="matrix(1.1127008,0,-0.06826013,0.89871419,-2546.4874,-79.383407)"
       id="text43674"
       style="font-size:75.0979px;line-height:1.25;font-family:'Tw Cen MT Condensed Extra Bold';-inkscape-font-specification:'Tw Cen MT Condensed Extra Bold, Normal';fill:#ffffff;stroke:#000000;stroke-width:2.573">
      <path
         d="m 2367.747,252.03537 h 11.404 v 30.32517 h 3.8135 v 8.87388 h -3.8135 v 9.75392 h -10.1573 v -9.75392 h -15.6943 v -7.95715 z m 1.1,14.77756 -7.1137,15.54761 h 7.2604 v -15.54761 z"
         id="path47202" />
    </g>
    <g
       aria-label="4"
       transform="matrix(1.1127008,0,-0.06826013,0.89871419,-2546.4874,-79.383407)"
       id="text43678"
       style="font-size:24.4557px;line-height:1.25;font-family:'Tw Cen MT Condensed Extra Bold';-inkscape-font-specification:'Tw Cen MT Condensed Extra Bold, Normal';fill:#ffffff;stroke:#000000;stroke-width:1.138">
      <path
         d="m 2342.0183,218.09686 h 3.7137 v 9.87542 h 1.2419 v 2.88978 h -1.2419 v 3.17638 h -3.3077 v -3.17638 h -5.1109 v -2.59125 z m 0.3582,4.81232 -2.3166,5.0631 h 2.3644 v -5.0631 z"
         id="path47205" />
    </g>
    <g
       aria-label="4"
       transform="matrix(-1.1127008,0,0.06826013,-0.89871419,-2546.4874,-79.383407)"
       id="text43682"
       style="font-size:24.4557px;line-height:1.25;font-family:'Tw Cen MT Condensed Extra Bold';-inkscape-font-specification:'Tw Cen MT Condensed Extra Bold, Normal';fill:#ffffff;stroke:#000000;stroke-width:1.138">
      <path
         d="m -2393.3081,-336.33257 h 3.7137 v 9.87542 h 1.2419 v 2.88978 h -1.2419 v 3.17638 h -3.3077 v -3.17638 h -5.1109 v -2.59125 z m 0.3582,4.81232 -2.3166,5.0631 h 2.3644 v -5.0631 z"
         id="path47208" />
    </g>
  </g>
</svg>
