<?xml version="1.0" encoding="UTF-8" standalone="no"?>
<!-- Created with Inkscape (http://www.inkscape.org/) -->

<svg
   width="80.6604mm"
   height="126.51946mm"
   viewBox="0 0 80.6604 126.51946"
   version="1.1"
   id="svg2720"
   inkscape:version="1.1.2 (b8e25be833, 2022-02-05)"
   sodipodi:docname="rojo_8.svg"
   xmlns:inkscape="http://www.inkscape.org/namespaces/inkscape"
   xmlns:sodipodi="http://sodipodi.sourceforge.net/DTD/sodipodi-0.dtd"
   xmlns="http://www.w3.org/2000/svg"
   xmlns:svg="http://www.w3.org/2000/svg">
  <sodipodi:namedview
     id="namedview2722"
     pagecolor="#ffffff"
     bordercolor="#666666"
     borderopacity="1.0"
     inkscape:pageshadow="2"
     inkscape:pageopacity="0.0"
     inkscape:pagecheckerboard="0"
     inkscape:document-units="mm"
     showgrid="false"
     inkscape:zoom="0.74029882"
     inkscape:cx="208.69951"
     inkscape:cy="324.86881"
     inkscape:window-width="958"
     inkscape:window-height="1008"
     inkscape:window-x="953"
     inkscape:window-y="0"
     inkscape:window-maximized="0"
     inkscape:current-layer="layer1" />
  <defs
     id="defs2717" />
  <g
     inkscape:label="Capa 1"
     inkscape:groupmode="layer"
     id="layer1"
     transform="translate(-37.1621,-91.038295)">
    <path
       id="rect43732"
       style="fill:#ffffff;stroke:#000000;stroke-width:1.3;stroke-linecap:round;stroke-linejoin:round;stroke-dashoffset:9.31653"
       d="m 45.8439,91.688295 h 63.2968 c 4.4496,0 8.0318,3.58221 8.0318,8.03185 V 208.87591 c 0,4.44964 -3.5822,8.03185 -8.0318,8.03185 H 45.8439 c -4.4496,0 -8.0318,-3.5822 -8.0318,-8.03185 V 99.720145 c 0,-4.44964 3.5822,-8.03185 8.0318,-8.03185 z" />
    <path
       id="rect43734"
       style="fill:#df0c0c;stroke-width:1.81997;stroke-linecap:round;stroke-linejoin:round;stroke-dashoffset:9.31653"
       d="m 47.6586,96.064745 h 59.6671 c 3.0438,0 5.4942,2.45043 5.4942,5.494235 v 105.4781 c 0,3.04381 -2.4504,5.49425 -5.4942,5.49425 H 47.6586 c -3.0438,0 -5.4942,-2.45044 -5.4942,-5.49425 v -105.4781 c 0,-3.043805 2.4504,-5.494235 5.4942,-5.494235 z" />
    <path
       id="ellipse43736"
       style="fill:none;fill-opacity:0;stroke:#ffffff;stroke-width:4.90276;stroke-linecap:round;stroke-linejoin:round;stroke-dashoffset:9.31653"
       d="m 103.05833,168.4623 a 29.227528,54.28476 28.987554 0 1 -51.873589,33.32001 29.227528,54.28476 28.987554 0 1 0.741455,-61.64849 29.227528,54.28476 28.987554 0 1 51.873504,-33.32006 29.227528,54.28476 28.987554 0 1 -0.74137,61.64854 z" />
    <g
       aria-label="8"
       transform="matrix(1.1127008,0,-0.06826013,0.89871419,-2881.9433,-94.750865)"
       id="text43740"
       style="font-size:75.0979px;line-height:1.25;font-family:'Tw Cen MT Condensed Extra Bold';-inkscape-font-specification:'Tw Cen MT Condensed Extra Bold, Normal';fill:#ffffff;stroke:#000000;stroke-width:2.573;paint-order:markers fill stroke">
      <path
         d="m 2682.9754,274.25672 q 4.1803,1.79677 6.4538,5.46366 2.3101,3.66689 2.3101,8.28717 0,6.4904 -3.9969,10.3773 -3.9969,3.8869 -10.7073,3.8869 -6.8571,0 -10.854,-3.85023 -3.9603,-3.85023 -3.9603,-10.41397 0,-1.6501 0.2201,-3.08018 0.22,-1.46676 0.66,-2.7135 0.4767,-1.28341 1.1734,-2.38348 0.6967,-1.13674 1.6134,-2.09013 0.9534,-0.95339 2.2002,-1.76011 1.2834,-0.84338 2.6401,-1.6501 v -0.0733 h -0.073 q 0,-0.0733 -0.073,-0.0733 0,-0.0733 -0.073,-0.0733 -2.2001,-1.02673 -3.6669,-2.27347 -1.4301,-1.24674 -2.4568,-3.52021 -1.0267,-2.31015 -1.0267,-5.31699 0,-5.24366 3.8869,-8.7272 3.8869,-3.52022 9.7172,-3.52022 5.9404,0 9.7173,3.55689 3.7769,3.55688 3.7769,9.13055 0,3.66689 -1.8334,6.23371 -1.7968,2.56683 -5.6471,4.58362 z m -3.2268,-9.24057 q 0,-5.31699 -2.7869,-5.31699 -2.8601,0 -2.8601,4.73029 0,2.86018 0.66,4.07025 0.6967,1.1734 2.2735,1.1734 2.7135,0 2.7135,-4.65695 z m 1.1734,22.07468 q 0,-7.1871 -3.9603,-7.1871 -4.1435,0 -4.1435,6.6004 0,7.04043 4.2169,7.04043 3.8869,0 3.8869,-6.45373 z"
         id="path47244" />
    </g>
    <g
       aria-label="8"
       transform="matrix(1.1127008,0,-0.06826013,0.89871419,-2881.9433,-94.750865)"
       id="text43744"
       style="font-size:24.4557px;line-height:1.25;font-family:'Tw Cen MT Condensed Extra Bold';-inkscape-font-specification:'Tw Cen MT Condensed Extra Bold, Normal';fill:#ffffff;stroke:#000000;stroke-width:1.138">
      <path
         d="m 2653.0925,225.33327 q 1.3613,0.58513 2.1017,1.77925 0.7523,1.19413 0.7523,2.69873 0,2.1136 -1.3016,3.37937 -1.3016,1.26578 -3.4869,1.26578 -2.233,0 -3.5346,-1.25384 -1.2896,-1.25383 -1.2896,-3.39131 0,-0.53736 0.072,-1.00307 0.072,-0.47765 0.215,-0.88365 0.1552,-0.41795 0.3821,-0.77618 0.2269,-0.37018 0.5254,-0.68066 0.3105,-0.31047 0.7165,-0.57318 0.4179,-0.27465 0.8597,-0.53735 v -0.0239 h -0.024 q 0,-0.0239 -0.024,-0.0239 0,-0.0239 -0.024,-0.0239 -0.7165,-0.33436 -1.1941,-0.74036 -0.4657,-0.406 -0.8001,-1.14636 -0.3343,-0.7523 -0.3343,-1.73148 0,-1.7076 1.2657,-2.84202 1.2658,-1.14636 3.1645,-1.14636 1.9344,0 3.1644,1.1583 1.2299,1.1583 1.2299,2.97337 0,1.19413 -0.597,2.03002 -0.5851,0.83588 -1.839,1.49265 z m -1.0508,-3.00919 q 0,-1.73149 -0.9075,-1.73149 -0.9315,0 -0.9315,1.54043 0,0.93141 0.215,1.32548 0.2269,0.38212 0.7403,0.38212 0.8837,0 0.8837,-1.51654 z m 0.3821,7.18863 q 0,-2.34048 -1.2896,-2.34048 -1.3494,0 -1.3494,2.14942 0,2.29273 1.3732,2.29273 1.2658,0 1.2658,-2.10167 z"
         id="path47247" />
    </g>
    <g
       aria-label="8"
       transform="matrix(-1.1127008,0,0.06826013,-0.89871419,-2881.9433,-94.750865)"
       id="text43748"
       style="font-size:24.4557px;line-height:1.25;font-family:'Tw Cen MT Condensed Extra Bold';-inkscape-font-specification:'Tw Cen MT Condensed Extra Bold, Normal';fill:#ffffff;stroke:#000000;stroke-width:1.138">
      <path
         d="m -2700.3701,-329.09617 q 1.3613,0.58512 2.1016,1.77925 0.7523,1.19412 0.7523,2.69872 0,2.11361 -1.3016,3.37938 -1.3016,1.26577 -3.4868,1.26577 -2.233,0 -3.5346,-1.25383 -1.2897,-1.25383 -1.2897,-3.39132 0,-0.53735 0.072,-1.00306 0.072,-0.47765 0.2149,-0.88366 0.1553,-0.41794 0.3821,-0.77618 0.2269,-0.37018 0.5255,-0.68065 0.3104,-0.31047 0.7164,-0.57318 0.418,-0.27465 0.8598,-0.53736 v -0.0239 h -0.024 q 0,-0.0239 -0.024,-0.0239 0,-0.0239 -0.024,-0.0239 -0.7165,-0.33436 -1.1942,-0.74036 -0.4657,-0.40601 -0.8,-1.14636 -0.3344,-0.7523 -0.3344,-1.73149 0,-1.7076 1.2658,-2.84202 1.2658,-1.14636 3.1644,-1.14636 1.9345,0 3.1644,1.15831 1.23,1.1583 1.23,2.97337 0,1.19412 -0.5971,2.03001 -0.5851,0.83589 -1.8389,1.49266 z m -1.0508,-3.0092 q 0,-1.73148 -0.9076,-1.73148 -0.9314,0 -0.9314,1.54042 0,0.93142 0.2149,1.32548 0.2269,0.38212 0.7404,0.38212 0.8837,0 0.8837,-1.51654 z m 0.3821,7.18864 q 0,-2.34049 -1.2897,-2.34049 -1.3493,0 -1.3493,2.14943 0,2.29272 1.3732,2.29272 1.2658,0 1.2658,-2.10166 z"
         id="path47250" />
    </g>
  </g>
</svg>
