<?xml version="1.0" encoding="UTF-8" standalone="no"?>
<!-- Created with Inkscape (http://www.inkscape.org/) -->

<svg
   width="80.6605mm"
   height="126.51947mm"
   viewBox="0 0 80.660499 126.51947"
   version="1.1"
   id="svg2720"
   inkscape:version="1.1.2 (b8e25be833, 2022-02-05)"
   sodipodi:docname="rojo_cambio_sentido.svg"
   xmlns:inkscape="http://www.inkscape.org/namespaces/inkscape"
   xmlns:sodipodi="http://sodipodi.sourceforge.net/DTD/sodipodi-0.dtd"
   xmlns="http://www.w3.org/2000/svg"
   xmlns:svg="http://www.w3.org/2000/svg">
  <sodipodi:namedview
     id="namedview2722"
     pagecolor="#ffffff"
     bordercolor="#666666"
     borderopacity="1.0"
     inkscape:pageshadow="2"
     inkscape:pageopacity="0.0"
     inkscape:pagecheckerboard="0"
     inkscape:document-units="mm"
     showgrid="false"
     inkscape:zoom="0.74029882"
     inkscape:cx="239.76804"
     inkscape:cy="251.9253"
     inkscape:window-width="958"
     inkscape:window-height="1008"
     inkscape:window-x="953"
     inkscape:window-y="0"
     inkscape:window-maximized="0"
     inkscape:current-layer="layer1" />
  <defs
     id="defs2717" />
  <g
     inkscape:label="Capa 1"
     inkscape:groupmode="layer"
     id="layer1"
     transform="translate(-29.4461,-110.33967)">
    <path
       id="rect43848"
       style="fill:#ffffff;stroke:#000000;stroke-width:1.3;stroke-linecap:round;stroke-linejoin:round;stroke-dashoffset:9.31653"
       d="m 38.128,110.98967 h 63.2967 c 4.4497,0 8.0319,3.58221 8.0319,8.03185 v 109.15577 c 0,4.44964 -3.5822,8.03185 -8.0319,8.03185 H 38.128 c -4.4497,0 -8.0319,-3.58221 -8.0319,-8.03185 V 119.02152 c 0,-4.44964 3.5822,-8.03185 8.0319,-8.03185 z" />
    <path
       id="rect43850"
       style="fill:#df0c0c;stroke-width:1.81997;stroke-linecap:round;stroke-linejoin:round;stroke-dashoffset:9.31653"
       d="M 39.9429,115.36612 H 99.61 c 3.0438,0 5.4942,2.45043 5.4942,5.49424 v 105.4781 c 0,3.04381 -2.4504,5.49425 -5.4942,5.49425 H 39.9429 c -3.0438,0 -5.4942,-2.45044 -5.4942,-5.49425 v -105.4781 c 0,-3.04381 2.4504,-5.49424 5.4942,-5.49424 z" />
    <path
       id="ellipse43852"
       style="fill:none;fill-opacity:0;stroke:#ffffff;stroke-width:4.90276;stroke-linecap:round;stroke-linejoin:round;stroke-dashoffset:9.31653"
       d="m 95.342231,187.76356 a 29.227528,54.28476 28.987554 0 1 -51.873455,33.31997 29.227528,54.28476 28.987554 0 1 0.741318,-61.64846 29.227528,54.28476 28.987554 0 1 51.873591,-33.32 29.227528,54.28476 28.987554 0 1 -0.741454,61.64849 z" />
    <path
       style="fill:#ffffff;fill-opacity:1;stroke:#000000;stroke-width:2.794;stroke-linecap:square;stroke-miterlimit:4;stroke-dasharray:none;stroke-opacity:1;paint-order:markers fill stroke"
       d="m 69.4925,194.36412 c 0,-0.21683 -0.7646,-1.28742 -1.699,-2.37909 l -1.6989,-1.98486 4.383,-3.7278 c 4.869,-4.14109 6.3225,-6.3751 6.3742,-9.79666 0.035,-2.31656 -1.3818,-5.51586 -2.4426,-5.51586 -0.3071,0 -3.5748,2.65029 -7.2614,5.88953 -3.6867,3.23924 -6.9129,5.88953 -7.1694,5.88953 -0.2566,0 -1.274,-0.98543 -2.2609,-2.18985 -0.9869,-1.20442 -1.8751,-2.10908 -1.9738,-2.01036 -0.099,0.0987 -0.621,3.30174 -1.1605,7.11782 -0.5397,3.81608 -1.0879,7.42513 -1.2183,8.0201 l -0.2372,1.08175 h 8.1824 c 4.5003,0 8.1824,-0.17742 8.1824,-0.39425 z M 69.3677,172.0416 c 2.7973,-2.44596 5.9496,-5.19513 7.005,-6.10927 l 1.9189,-1.66207 2.1069,2.3272 c 1.1588,1.27996 2.1805,2.24425 2.2703,2.14285 0.2026,-0.22826 2.2151,-14.2895 2.2113,-15.44905 0,-0.76819 -0.7135,-0.84136 -8.1759,-0.84136 -4.4954,0 -8.1733,0.13604 -8.1733,0.30231 0,0.16627 0.7572,1.14047 1.6827,2.16489 0.9255,1.02441 1.6827,2.05106 1.6827,2.28142 0,0.23037 -1.9777,2.11029 -4.3948,4.17761 -5.0985,4.36045 -6.4281,6.616 -6.0738,10.30359 0.2034,2.11624 1.557,4.76002 2.4545,4.79397 0.2196,0.008 2.6881,-1.98613 5.4855,-4.43209 z"
       id="path43854"
       sodipodi:nodetypes="sscscssssssccsssscsscssssssss" />
    <path
       style="fill:#ffffff;fill-opacity:1;stroke:#000000;stroke-width:1.235;stroke-linecap:square;stroke-miterlimit:4;stroke-dasharray:none;stroke-opacity:1;paint-order:markers fill stroke"
       d="m 46.0955,136.15664 c 0,-0.0813 -0.2867,-0.4827 -0.637,-0.892 l -0.637,-0.74419 1.6433,-1.39767 c 1.8256,-1.55263 2.3705,-2.39023 2.3899,-3.67309 0.013,-0.86855 -0.5181,-2.06807 -0.9158,-2.06807 -0.1151,0 -1.3403,0.99368 -2.7225,2.20817 -1.3823,1.2145 -2.5918,2.20818 -2.688,2.20818 -0.096,0 -0.4776,-0.36947 -0.8477,-0.82105 -0.37,-0.45157 -0.703,-0.79076 -0.74,-0.75375 -0.037,0.037 -0.2329,1.23793 -0.4352,2.66871 -0.2023,1.43077 -0.4078,2.78392 -0.4567,3.00699 l -0.089,0.40559 h 3.0679 c 1.6872,0 3.0678,-0.0665 3.0678,-0.14782 z m -0.047,-8.36944 c 1.0488,-0.91707 2.2307,-1.94782 2.6264,-2.29056 l 0.7195,-0.62317 0.7899,0.87255 c 0.4345,0.4799 0.8175,0.84144 0.8512,0.80342 0.076,-0.0856 0.8305,-5.3576 0.8291,-5.79235 0,-0.28802 -0.2675,-0.31545 -3.0654,-0.31545 -1.6854,0 -3.0644,0.051 -3.0644,0.11334 0,0.0623 0.2839,0.4276 0.6309,0.81169 0.347,0.38408 0.6309,0.76901 0.6309,0.85538 0,0.0864 -0.7415,0.79121 -1.6478,1.56632 -1.9115,1.63487 -2.41,2.48055 -2.2772,3.86315 0.076,0.79345 0.5838,1.78469 0.9202,1.79741 0.082,0.003 1.0079,-0.74466 2.0567,-1.66173 z"
       id="path43856"
       sodipodi:nodetypes="sscscssssssccsssscsscssssssss" />
    <path
       style="fill:#ffffff;fill-opacity:1;stroke:#000000;stroke-width:1.235;stroke-linecap:square;stroke-miterlimit:4;stroke-dasharray:none;stroke-opacity:1;paint-order:markers fill stroke"
       d="m 92.9797,211.43513 c 0,0.0813 0.2866,0.4827 0.637,0.892 l 0.637,0.74419 -1.6434,1.39767 c -1.8255,1.55263 -2.3705,2.39023 -2.3899,3.67309 -0.013,0.86855 0.5181,2.06807 0.9158,2.06807 0.1152,0 1.3403,-0.99367 2.7226,-2.20817 1.3822,-1.2145 2.5918,-2.20818 2.688,-2.20818 0.096,0 0.4776,0.36947 0.8477,0.82105 0.37,0.45157 0.703,0.79076 0.74,0.75375 0.037,-0.037 0.2329,-1.23793 0.4352,-2.66871 0.2023,-1.43077 0.4078,-2.78392 0.4567,-3.00699 l 0.089,-0.40558 h -3.0679 c -1.6873,0 -3.0678,0.0665 -3.0678,0.14781 z m 0.047,8.36944 c -1.0489,0.91707 -2.2308,1.94782 -2.6265,2.29056 l -0.7194,0.62317 -0.79,-0.87255 c -0.4345,-0.47989 -0.8175,-0.84143 -0.8512,-0.80342 -0.076,0.0856 -0.8305,5.3576 -0.8291,5.79235 0,0.28803 0.2675,0.31546 3.0654,0.31546 1.6855,0 3.0645,-0.051 3.0645,-0.11335 0,-0.0623 -0.2839,-0.4276 -0.6309,-0.81169 -0.3471,-0.38408 -0.6309,-0.769 -0.6309,-0.85538 0,-0.0864 0.7415,-0.79121 1.6478,-1.56632 1.9115,-1.63487 2.41,-2.48055 2.2772,-3.86315 -0.076,-0.79345 -0.5838,-1.78468 -0.9203,-1.79741 -0.082,-0.003 -1.0078,0.74466 -2.0566,1.66173 z"
       id="path43858"
       sodipodi:nodetypes="sscscssssssccsssscsscssssssss" />
  </g>
</svg>
