<?xml version="1.0" encoding="UTF-8" standalone="no"?>
<!-- Created with Inkscape (http://www.inkscape.org/) -->

<svg
   width="80.6604mm"
   height="126.51947mm"
   viewBox="0 0 80.6604 126.51947"
   version="1.1"
   id="svg2720"
   inkscape:version="1.1.2 (b8e25be833, 2022-02-05)"
   sodipodi:docname="rojo_5.svg"
   xmlns:inkscape="http://www.inkscape.org/namespaces/inkscape"
   xmlns:sodipodi="http://sodipodi.sourceforge.net/DTD/sodipodi-0.dtd"
   xmlns="http://www.w3.org/2000/svg"
   xmlns:svg="http://www.w3.org/2000/svg">
  <sodipodi:namedview
     id="namedview2722"
     pagecolor="#ffffff"
     bordercolor="#666666"
     borderopacity="1.0"
     inkscape:pageshadow="2"
     inkscape:pageopacity="0.0"
     inkscape:pagecheckerboard="0"
     inkscape:document-units="mm"
     showgrid="false"
     inkscape:zoom="0.74029882"
     inkscape:cx="251.9253"
     inkscape:cy="280.29222"
     inkscape:window-width="958"
     inkscape:window-height="1008"
     inkscape:window-x="953"
     inkscape:window-y="0"
     inkscape:window-maximized="0"
     inkscape:current-layer="layer1" />
  <defs
     id="defs2717" />
  <g
     inkscape:label="Capa 1"
     inkscape:groupmode="layer"
     id="layer1"
     transform="translate(-25.5571,-102.83194)">
    <path
       id="rect43594"
       style="fill:#ffffff;stroke:#000000;stroke-width:1.3;stroke-linecap:round;stroke-linejoin:round;stroke-dashoffset:9.31653"
       d="m 34.2389,103.48194 h 63.2968 c 4.4496,0 8.0318,3.58221 8.0318,8.03185 v 109.15577 c 0,4.44964 -3.5822,8.03185 -8.0318,8.03185 H 34.2389 c -4.4496,0 -8.0318,-3.58221 -8.0318,-8.03185 V 111.51379 c 0,-4.44964 3.5822,-8.03185 8.0318,-8.03185 z" />
    <path
       id="rect43596"
       style="fill:#df0c0c;stroke-width:1.81997;stroke-linecap:round;stroke-linejoin:round;stroke-dashoffset:9.31653"
       d="m 36.0536,107.85839 h 59.6671 c 3.0438,0 5.4942,2.45043 5.4942,5.49424 v 105.4781 c 0,3.04381 -2.4504,5.49425 -5.4942,5.49425 H 36.0536 c -3.0438,0 -5.4942,-2.45044 -5.4942,-5.49425 v -105.4781 c 0,-3.04381 2.4504,-5.49424 5.4942,-5.49424 z" />
    <path
       id="ellipse43598"
       style="fill:none;fill-opacity:0;stroke:#ffffff;stroke-width:4.90276;stroke-linecap:round;stroke-linejoin:round;stroke-dashoffset:9.31653"
       d="m 91.453237,180.25603 a 29.227528,54.28476 28.987554 0 1 -51.873504,33.32005 29.227528,54.28476 28.987554 0 1 0.741367,-61.64854 29.227528,54.28476 28.987554 0 1 51.873591,-33.32 29.227528,54.28476 28.987554 0 1 -0.741454,61.64849 z" />
    <g
       aria-label="5"
       transform="matrix(1.1127008,0,-0.06826013,0.89871419,-2635.3586,-82.957224)"
       id="text43602"
       style="font-size:75.0979px;line-height:1.25;font-family:'Tw Cen MT Condensed Extra Bold';-inkscape-font-specification:'Tw Cen MT Condensed Extra Bold, Normal';fill:#ffffff;stroke:#000000;stroke-width:2.573">
      <path
         d="m 2436.7458,251.96206 h 20.7912 l -0.22,9.82726 h -12.6141 l -1.0634,7.44379 q 7.0404,0.22001 10.744,4.40027 3.7402,4.14358 3.7402,11.36735 0,7.92049 -4.3636,12.6141 -4.3636,4.65695 -11.7707,4.65695 -4.1436,0 -10.8173,-2.20013 l 1.4301,-9.38724 q 5.317,2.1268 7.9571,2.1268 3.3002,0 5.097,-2.16347 1.7968,-2.16346 1.7968,-6.19704 0,-3.44688 -2.3835,-5.31699 -2.3468,-1.87011 -6.7471,-1.87011 -1.9801,0 -5.1336,0.66004 z"
         id="path47154" />
    </g>
    <g
       aria-label="5"
       transform="matrix(1.1127008,0,-0.06826013,0.89871419,-2635.3586,-82.957224)"
       id="text43606"
       style="font-size:24.4557px;line-height:1.25;font-family:'Tw Cen MT Condensed Extra Bold';-inkscape-font-specification:'Tw Cen MT Condensed Extra Bold, Normal';fill:#ffffff;stroke:#000000;stroke-width:1.138">
      <path
         d="m 2416.4324,218.07299 h 6.7707 l -0.072,3.20026 h -4.1078 l -0.3463,2.42407 q 2.2927,0.0717 3.4988,1.43295 1.218,1.34936 1.218,3.70179 0,2.57932 -1.421,4.1078 -1.421,1.51654 -3.8332,1.51654 -1.3493,0 -3.5226,-0.71648 l 0.4657,-3.05696 q 1.7315,0.69259 2.5912,0.69259 1.0747,0 1.6599,-0.70453 0.5851,-0.70454 0.5851,-2.01808 0,-1.12247 -0.7762,-1.73148 -0.7642,-0.609 -2.1972,-0.609 -0.6448,0 -1.6718,0.21494 z"
         id="path47157" />
    </g>
    <g
       aria-label="5"
       transform="matrix(-1.1127008,0,0.06826013,-0.89871419,-2635.3586,-82.957224)"
       id="text43610"
       style="font-size:24.4557px;line-height:1.25;font-family:'Tw Cen MT Condensed Extra Bold';-inkscape-font-specification:'Tw Cen MT Condensed Extra Bold, Normal';fill:#ffffff;stroke:#000000;stroke-width:1.138">
      <path
         d="m -2472.9526,-336.35649 h 6.7707 l -0.072,3.20026 h -4.1078 l -0.3463,2.42408 q 2.2927,0.0716 3.4988,1.43295 1.218,1.34936 1.218,3.70179 0,2.57931 -1.421,4.10779 -1.421,1.51654 -3.8332,1.51654 -1.3493,0 -3.5226,-0.71647 l 0.4657,-3.05697 q 1.7315,0.6926 2.5912,0.6926 1.0747,0 1.6599,-0.70454 0.5851,-0.70453 0.5851,-2.01807 0,-1.12248 -0.7762,-1.73148 -0.7642,-0.60901 -2.1972,-0.60901 -0.6448,0 -1.6718,0.21495 z"
         id="path47160" />
    </g>
  </g>
</svg>
