<?xml version="1.0" encoding="UTF-8" standalone="no"?>
<!-- Created with Inkscape (http://www.inkscape.org/) -->

<svg
   width="80.6605mm"
   height="126.51947mm"
   viewBox="0 0 80.660499 126.51947"
   version="1.1"
   id="svg2720"
   inkscape:version="1.1.2 (b8e25be833, 2022-02-05)"
   sodipodi:docname="rojo_mas2.svg"
   xmlns:inkscape="http://www.inkscape.org/namespaces/inkscape"
   xmlns:sodipodi="http://sodipodi.sourceforge.net/DTD/sodipodi-0.dtd"
   xmlns="http://www.w3.org/2000/svg"
   xmlns:svg="http://www.w3.org/2000/svg">
  <sodipodi:namedview
     id="namedview2722"
     pagecolor="#ffffff"
     bordercolor="#666666"
     borderopacity="1.0"
     inkscape:pageshadow="2"
     inkscape:pageopacity="0.0"
     inkscape:pagecheckerboard="0"
     inkscape:document-units="mm"
     showgrid="false"
     inkscape:zoom="0.74029882"
     inkscape:cx="273.53819"
     inkscape:cy="207.3487"
     inkscape:window-width="958"
     inkscape:window-height="1008"
     inkscape:window-x="953"
     inkscape:window-y="0"
     inkscape:window-maximized="0"
     inkscape:current-layer="layer1" />
  <defs
     id="defs2717" />
  <g
     inkscape:label="Capa 1"
     inkscape:groupmode="layer"
     id="layer1"
     transform="translate(-20.4551,-122.1337)">
    <path
       id="rect43750"
       style="fill:#ffffff;stroke:#000000;stroke-width:1.3;stroke-linecap:round;stroke-linejoin:round;stroke-dashoffset:9.31653"
       d="m 29.137,122.7837 h 63.2967 c 4.4497,0 8.0319,3.58221 8.0319,8.03185 v 109.15577 c 0,4.44964 -3.5822,8.03185 -8.0319,8.03185 H 29.137 c -4.4497,0 -8.0319,-3.58221 -8.0319,-8.03185 V 130.81555 c 0,-4.44964 3.5822,-8.03185 8.0319,-8.03185 z" />
    <path
       id="rect43752"
       style="fill:#df0c0c;stroke-width:1.81997;stroke-linecap:round;stroke-linejoin:round;stroke-dashoffset:9.31653"
       d="M 30.9519,127.16015 H 90.619 c 3.0438,0 5.4942,2.45043 5.4942,5.49424 v 105.4781 c 0,3.04381 -2.4504,5.49425 -5.4942,5.49425 H 30.9519 c -3.0438,0 -5.4942,-2.45044 -5.4942,-5.49425 v -105.4781 c 0,-3.04381 2.4504,-5.49424 5.4942,-5.49424 z" />
    <path
       id="ellipse43754"
       style="fill:none;fill-opacity:0;stroke:#ffffff;stroke-width:4.90276;stroke-linecap:round;stroke-linejoin:round;stroke-dashoffset:9.31653"
       d="m 86.351279,199.55761 a 29.227528,54.28476 28.987554 0 1 -51.873455,33.31996 29.227528,54.28476 28.987554 0 1 0.741318,-61.64845 29.227528,54.28476 28.987554 0 1 51.873592,-33.32001 29.227528,54.28476 28.987554 0 1 -0.741455,61.6485 z" />
    <g
       id="g43764"
       transform="translate(-725.489,96.918237)"
       style="stroke:#000000;stroke-width:0.9;stroke-miterlimit:4;stroke-dasharray:none;stroke-opacity:1;paint-order:markers fill stroke">
      <g
         aria-label="2"
         transform="matrix(1.1127008,0,-0.06826013,0.89871419,0,0)"
         id="text43758"
         style="font-size:22.5569px;line-height:1.25;font-family:'Tw Cen MT Condensed Extra Bold';-inkscape-font-specification:'Tw Cen MT Condensed Extra Bold, Normal';fill:#ffffff;stroke:#000000;stroke-width:0.9;stroke-miterlimit:4;stroke-dasharray:none;stroke-opacity:1;paint-order:markers fill stroke">
        <path
           d="m 693.33071,44.388695 h -3.22714 q 0,-1.652117 0.13217,-2.588316 0.14318,-0.936199 0.57273,-1.652117 0.44057,-0.726931 1.33271,-1.156481 0.90316,-0.440565 2.13674,-0.440565 2.03761,0 3.12801,1.068369 1.09039,1.068369 1.09039,3.083951 0,1.035327 -0.41853,2.235865 -0.41854,1.189524 -1.25561,2.621358 l -1.80632,3.083951 h 2.9628 v 2.995839 h -8.39275 l 4.80215,-8.205513 q 0.88113,-1.475891 0.88113,-2.687443 0,-0.605777 -0.26434,-0.99127 -0.26434,-0.385494 -0.66085,-0.385494 -0.6278,0 -0.82605,0.506649 -0.18724,0.495635 -0.18724,1.971526 z"
           id="path47256"
           style="stroke:#000000;stroke-width:0.9;stroke-miterlimit:4;stroke-dasharray:none;stroke-opacity:1;paint-order:markers fill stroke" />
      </g>
      <g
         aria-label="+"
         transform="matrix(1.1127008,0,-0.06826013,0.89871419,0,0)"
         id="text43762"
         style="font-size:14.3052px;line-height:1.25;font-family:'Franklin Gothic Heavy';-inkscape-font-specification:'Franklin Gothic Heavy, Normal';fill:#ffffff;stroke:#000000;stroke-width:0.9;stroke-miterlimit:4;stroke-dasharray:none;stroke-opacity:1;paint-order:markers fill stroke">
        <path
           d="m 688.23327,46.151564 v 1.767195 h -2.58444 v 2.682225 h -1.78116 v -2.682225 h -2.58444 v -1.767195 h 2.58444 v -2.682225 h 1.78116 v 2.682225 z"
           id="path47259"
           style="stroke:#000000;stroke-width:0.9;stroke-miterlimit:4;stroke-dasharray:none;stroke-opacity:1;paint-order:markers fill stroke" />
      </g>
    </g>
    <g
       id="g43774"
       transform="rotate(180,423.58255,136.73689)"
       style="stroke:#000000;stroke-width:0.9;stroke-miterlimit:4;stroke-dasharray:none;stroke-opacity:1;paint-order:markers fill stroke">
      <g
         aria-label="2"
         transform="matrix(1.1127008,0,-0.06826013,0.89871419,0,0)"
         id="text43768"
         style="font-size:22.5569px;line-height:1.25;font-family:'Tw Cen MT Condensed Extra Bold';-inkscape-font-specification:'Tw Cen MT Condensed Extra Bold, Normal';fill:#ffffff;stroke:#000000;stroke-width:0.9;stroke-miterlimit:4;stroke-dasharray:none;stroke-opacity:1;paint-order:markers fill stroke">
        <path
           d="m 693.33071,44.388695 h -3.22714 q 0,-1.652117 0.13217,-2.588316 0.14318,-0.936199 0.57273,-1.652117 0.44057,-0.726931 1.33271,-1.156481 0.90316,-0.440565 2.13674,-0.440565 2.03761,0 3.12801,1.068369 1.09039,1.068369 1.09039,3.083951 0,1.035327 -0.41853,2.235865 -0.41854,1.189524 -1.25561,2.621358 l -1.80632,3.083951 h 2.9628 v 2.995839 h -8.39275 l 4.80215,-8.205513 q 0.88113,-1.475891 0.88113,-2.687443 0,-0.605777 -0.26434,-0.99127 -0.26434,-0.385494 -0.66085,-0.385494 -0.6278,0 -0.82605,0.506649 -0.18724,0.495635 -0.18724,1.971526 z"
           id="path47262"
           style="stroke:#000000;stroke-width:0.9;stroke-miterlimit:4;stroke-dasharray:none;stroke-opacity:1;paint-order:markers fill stroke" />
      </g>
      <g
         aria-label="+"
         transform="matrix(1.1127008,0,-0.06826013,0.89871419,0,0)"
         id="text43772"
         style="font-size:14.3052px;line-height:1.25;font-family:'Franklin Gothic Heavy';-inkscape-font-specification:'Franklin Gothic Heavy, Normal';fill:#ffffff;stroke:#000000;stroke-width:0.9;stroke-miterlimit:4;stroke-dasharray:none;stroke-opacity:1;paint-order:markers fill stroke">
        <path
           d="m 688.23327,46.151564 v 1.767195 h -2.58444 v 2.682225 h -1.78116 v -2.682225 h -2.58444 v -1.767195 h 2.58444 v -2.682225 h 1.78116 v 2.682225 z"
           id="path47265"
           style="stroke:#000000;stroke-width:0.9;stroke-miterlimit:4;stroke-dasharray:none;stroke-opacity:1;paint-order:markers fill stroke" />
      </g>
    </g>
    <path
       id="rect43830"
       style="fill:#ffffff;stroke:#000000;stroke-width:1.89926;stroke-linecap:square;stroke-dashoffset:9.31653"
       d="m 60.1454,162.27886 h 14.692 c 2.7224,0 4.7737,2.18721 4.5993,4.90405 l -1.714,26.69985 c -0.1744,2.71685 -2.5065,4.90406 -5.229,4.90406 H 57.8018 c -2.7225,0 -4.7738,-2.18721 -4.5994,-4.90406 l 1.714,-26.69985 c 0.1744,-2.71684 2.5066,-4.90405 5.229,-4.90405 z" />
    <path
       id="rect43832"
       style="fill:#ffffff;stroke:#000000;stroke-width:1.89926;stroke-linecap:square;stroke-dashoffset:9.31653"
       d="m 49.0768,172.00007 h 14.692 c 2.7224,0 4.7737,2.18721 4.5993,4.90406 l -1.714,26.69984 c -0.1744,2.71685 -2.5065,4.90406 -5.229,4.90406 H 46.7332 c -2.7225,0 -4.7738,-2.18721 -4.5994,-4.90406 l 1.714,-26.69984 c 0.1744,-2.71685 2.5066,-4.90406 5.229,-4.90406 z" />
  </g>
</svg>
