<?xml version="1.0" encoding="UTF-8" standalone="no"?>
<!-- Created with Inkscape (http://www.inkscape.org/) -->

<svg
   width="80.6605mm"
   height="126.51947mm"
   viewBox="0 0 80.660499 126.51947"
   version="1.1"
   id="svg2720"
   inkscape:version="1.1.2 (b8e25be833, 2022-02-05)"
   sodipodi:docname="rojo_rayosx.svg"
   xmlns:inkscape="http://www.inkscape.org/namespaces/inkscape"
   xmlns:sodipodi="http://sodipodi.sourceforge.net/DTD/sodipodi-0.dtd"
   xmlns="http://www.w3.org/2000/svg"
   xmlns:svg="http://www.w3.org/2000/svg">
  <sodipodi:namedview
     id="namedview2722"
     pagecolor="#ffffff"
     bordercolor="#666666"
     borderopacity="1.0"
     inkscape:pageshadow="2"
     inkscape:pageopacity="0.0"
     inkscape:pagecheckerboard="0"
     inkscape:document-units="mm"
     showgrid="false"
     inkscape:zoom="0.74029882"
     inkscape:cx="255.97771"
     inkscape:cy="345.1309"
     inkscape:window-width="958"
     inkscape:window-height="1008"
     inkscape:window-x="953"
     inkscape:window-y="0"
     inkscape:window-maximized="0"
     inkscape:current-layer="layer1" />
  <defs
     id="defs2717" />
  <g
     inkscape:label="Capa 1"
     inkscape:groupmode="layer"
     id="layer1"
     transform="translate(-24.9332,-85.67825)">
    <path
       id="rect43860"
       style="fill:#ffffff;stroke:#000000;stroke-width:1.3;stroke-linecap:round;stroke-linejoin:round;stroke-dashoffset:9.31653"
       d="m 33.6151,86.32825 h 63.2967 c 4.4497,0 8.0319,3.58221 8.0319,8.03185 v 109.15577 c 0,4.44964 -3.5822,8.03185 -8.0319,8.03185 H 33.6151 c -4.4497,0 -8.0319,-3.58221 -8.0319,-8.03185 V 94.3601 c 0,-4.44964 3.5822,-8.03185 8.0319,-8.03185 z" />
    <path
       id="rect43862"
       style="fill:#df0c0c;stroke-width:1.81997;stroke-linecap:round;stroke-linejoin:round;stroke-dashoffset:9.31653"
       d="m 35.43,90.7047 h 59.6671 c 3.0438,0 5.4942,2.45043 5.4942,5.49424 v 105.4781 c 0,3.04381 -2.4504,5.49425 -5.4942,5.49425 H 35.43 c -3.0438,0 -5.4942,-2.45044 -5.4942,-5.49425 V 96.19894 c 0,-3.04381 2.4504,-5.49424 5.4942,-5.49424 z" />
    <path
       id="ellipse43864"
       style="fill:none;fill-opacity:0;stroke:#ffffff;stroke-width:4.90276;stroke-linecap:round;stroke-linejoin:round;stroke-dashoffset:9.31653"
       d="m 90.829344,163.10225 a 29.227528,54.28476 28.987554 0 1 -51.873455,33.31996 29.227528,54.28476 28.987554 0 1 0.741405,-61.6484 29.227528,54.28476 28.987554 0 1 51.873505,-33.32006 29.227528,54.28476 28.987554 0 1 -0.741455,61.6485 z" />
    <g
       aria-label="X"
       transform="matrix(1.1127008,0,-0.06826013,0.89871419,-3326.9578,-100.11091)"
       id="text14369-2-3"
       style="font-size:24.9417px;line-height:1.25;font-family:'Tw Cen MT Condensed Extra Bold';-inkscape-font-specification:'Tw Cen MT Condensed Extra Bold, Normal';fill:#ffffff;stroke:#000000;stroke-width:0.854547">
      <path
         d="m 3035.3781,217.94357 h 4.092 q 1.571,3.82407 1.7171,4.38428 h 0.049 q 0.024,-0.1705 0.4628,-1.24221 l 1.2422,-3.14207 h 4.092 l -3.7753,7.75774 4.092,8.50064 h -4.092 q -1.9608,-4.59132 -2.046,-4.9445 h -0.049 q -0.2071,0.77943 -0.5481,1.54668 l -1.4979,3.39782 h -4.0311 l 4.0067,-8.45192 z"
         id="path56938" />
    </g>
    <g
       id="g46434"
       transform="translate(-3326.9578,-100.11091)">
      <path
         id="rect43832-7"
         style="fill:#ffffff;stroke:#000000;stroke-width:1.4502;stroke-linecap:square;stroke-miterlimit:4;stroke-dasharray:none;stroke-dashoffset:9.31653"
         d="m 3387.2195,224.29149 h 17.9864 c 3.3329,0 5.8441,2.67764 5.6307,6.00367 l -2.0983,32.68672 c -0.2135,3.32603 -3.0685,6.00369 -6.4015,6.00369 h -17.9863 c -3.3329,0 -5.8441,-2.67766 -5.6306,-6.00369 l 2.0983,-32.68672 c 0.2135,-3.32603 3.0684,-6.00367 6.4013,-6.00367 z" />
      <path
         id="path42323-4"
         style="fill:#ffffff;fill-opacity:1;stroke:#000000;stroke-width:2.97259;stroke-linecap:round;stroke-linejoin:round;stroke-miterlimit:4;stroke-dasharray:none;stroke-dashoffset:9.31653;stroke-opacity:1;paint-order:stroke markers fill"
         d="m 3390.7253,232.47989 c -8.4814,5e-5 -15.3568,6.87552 -15.357,15.35686 0.014,4.12474 1.6875,8.0703 4.6426,10.94808 l -0.08,-0.0538 -8.0884,13.76094 3.3943,2.16083 9.4987,-12.70178 c 1.8931,0.8117 3.9301,1.23428 5.99,1.24255 8.4813,-4e-5 15.3567,-6.8755 15.3567,-15.35683 0,-8.48133 -6.8756,-15.35681 -15.3567,-15.35686 z m 0,4.37372 c 6.0657,-2e-5 10.9831,4.91731 10.983,10.98314 0,6.06582 -4.9171,10.98314 -10.983,10.98312 -6.0658,2e-5 -10.9831,-4.9173 -10.9831,-10.98312 0,-6.06583 4.9173,-10.98316 10.9831,-10.98314 z"
         sodipodi:nodetypes="scccccccsssssss" />
      <path
         style="fill:none;stroke:#000000;stroke-width:1.65959;stroke-linecap:round;stroke-linejoin:miter;stroke-miterlimit:4;stroke-dasharray:none;stroke-opacity:1"
         d="m 3388.3102,241.30753 -4.5425,5.43308"
         id="path46023" />
      <path
         style="fill:none;stroke:#000000;stroke-width:1.65959;stroke-linecap:round;stroke-linejoin:miter;stroke-miterlimit:4;stroke-dasharray:none;stroke-opacity:1"
         d="m 3389.7354,243.71234 -2.8502,3.29546"
         id="path46123"
         sodipodi:nodetypes="cc" />
    </g>
    <g
       aria-label="X"
       transform="matrix(1.1127008,0,-0.06826013,-0.89871419,-3326.9578,-100.11091)"
       id="text46424"
       style="font-size:24.9417px;line-height:1.25;font-family:'Tw Cen MT Condensed Extra Bold';-inkscape-font-specification:'Tw Cen MT Condensed Extra Bold, Normal';fill:#ffffff;stroke:#000000;stroke-width:0.854547">
      <path
         d="m 3043.8646,-337.5371 h 4.092 q 1.5711,3.82407 1.7172,4.38428 h 0.049 q 0.024,-0.1705 0.4628,-1.24221 l 1.2422,-3.14207 h 4.092 l -3.7753,7.75774 4.092,8.50064 h -4.092 q -1.9608,-4.59132 -2.046,-4.94449 h -0.049 q -0.207,0.77942 -0.548,1.54667 l -1.498,3.39782 h -4.0311 l 4.0068,-8.45192 z"
         id="path56941" />
    </g>
  </g>
</svg>
