<?xml version="1.0" encoding="UTF-8" standalone="no"?>
<!-- Created with Inkscape (http://www.inkscape.org/) -->

<svg
   width="80.6605mm"
   height="126.51947mm"
   viewBox="0 0 80.660499 126.51947"
   version="1.1"
   id="svg2720"
   inkscape:version="1.1.2 (b8e25be833, 2022-02-05)"
   sodipodi:docname="rojo_mas4.svg"
   xmlns:inkscape="http://www.inkscape.org/namespaces/inkscape"
   xmlns:sodipodi="http://sodipodi.sourceforge.net/DTD/sodipodi-0.dtd"
   xmlns="http://www.w3.org/2000/svg"
   xmlns:svg="http://www.w3.org/2000/svg">
  <sodipodi:namedview
     id="namedview2722"
     pagecolor="#ffffff"
     bordercolor="#666666"
     borderopacity="1.0"
     inkscape:pageshadow="2"
     inkscape:pageopacity="0.0"
     inkscape:pagecheckerboard="0"
     inkscape:document-units="mm"
     showgrid="false"
     inkscape:zoom="0.74029882"
     inkscape:cx="269.48577"
     inkscape:cy="241.11885"
     inkscape:window-width="958"
     inkscape:window-height="1008"
     inkscape:window-x="953"
     inkscape:window-y="0"
     inkscape:window-maximized="0"
     inkscape:current-layer="layer1" />
  <defs
     id="defs2717" />
  <g
     inkscape:label="Capa 1"
     inkscape:groupmode="layer"
     id="layer1"
     transform="translate(-20.5747,-113.19541)">
    <path
       id="path13247"
       style="fill:#ffffff;stroke:#000000;stroke-width:1.3;stroke-linecap:round;stroke-linejoin:round;stroke-dashoffset:9.31653"
       d="m 29.2565,113.84541 h 63.2968 c 4.4496,0 8.0319,3.5822 8.0319,8.03185 v 109.15577 c 0,4.44964 -3.5823,8.03185 -8.0319,8.03185 H 29.2565 c -4.4496,0 -8.0318,-3.58221 -8.0318,-8.03185 V 121.87726 c 0,-4.44965 3.5822,-8.03185 8.0318,-8.03185 z" />
    <path
       id="path13249"
       style="fill:#df0c0c;fill-opacity:1;stroke-width:1.81997;stroke-linecap:round;stroke-linejoin:round;stroke-dashoffset:9.31653"
       d="m 31.0715,118.22187 h 59.6671 c 3.0438,0 5.4942,2.45044 5.4942,5.49425 v 105.4781 c 0,3.04381 -2.4504,5.49424 -5.4942,5.49424 H 31.0715 c -3.0438,0 -5.4943,-2.45043 -5.4943,-5.49424 v -105.4781 c 0,-3.04381 2.4505,-5.49425 5.4943,-5.49425 z" />
    <path
       id="path13251"
       style="fill:#ffffff;stroke:#ffffff;stroke-width:4.90276;stroke-linecap:round;stroke-linejoin:round;stroke-dashoffset:9.31653"
       d="m 86.4709,190.61939 a 29.227528,54.28476 28.987554 0 1 -51.8735,33.32001 29.227528,54.28476 28.987554 0 1 0.7415,-61.64845 29.227528,54.28476 28.987554 0 1 51.8734,-33.32002 29.227528,54.28476 28.987554 0 1 -0.7414,61.64846 z" />
    <g
       aria-label="4"
       transform="matrix(1.0182107,0,-0.06246351,0.82239575,-661.3172,91.15271)"
       id="g13255"
       style="font-size:22.5569px;line-height:1.25;font-family:'Tw Cen MT Condensed Extra Bold';-inkscape-font-specification:'Tw Cen MT Condensed Extra Bold, Normal';fill:none;fill-opacity:1;stroke:#ffffff;stroke-width:3.6;stroke-linecap:round;stroke-linejoin:round;stroke-miterlimit:4;stroke-dasharray:none;stroke-opacity:1">
      <path
         d="m 694.21183,38.93671 h 3.42539 v 9.10867 h 1.14547 v 2.665415 h -1.14547 v 2.929754 h -3.05091 v -2.929754 h -4.71404 v -2.390062 z m 0.33043,4.438687 -2.13674,4.669983 h 2.18079 v -4.669983 z"
         id="path13253"
         style="stroke:#ffffff;stroke-opacity:1" />
    </g>
    <g
       aria-label="+"
       transform="matrix(1.0182107,0,-0.06246351,0.82239575,-661.3172,91.15271)"
       id="g13259"
       style="font-size:14.3052px;line-height:1.25;font-family:'Franklin Gothic Heavy';-inkscape-font-specification:'Franklin Gothic Heavy, Normal';fill:none;fill-opacity:1;stroke:#ffffff;stroke-width:3.6;stroke-linecap:round;stroke-linejoin:round;stroke-miterlimit:4;stroke-dasharray:none;stroke-opacity:1;paint-order:stroke markers fill">
      <path
         d="m 688.23327,46.151564 v 1.767195 h -2.58444 v 2.682225 h -1.78116 v -2.682225 h -2.58444 v -1.767195 h 2.58444 v -2.682225 h 1.78116 v 2.682225 z"
         id="path13257"
         style="stroke:#ffffff;stroke-opacity:1" />
    </g>
    <g
       aria-label="4"
       transform="matrix(1.0182107,0,-0.06246351,0.82239575,-661.3172,91.15271)"
       id="g13265"
       style="font-size:22.5569px;line-height:1.25;font-family:'Tw Cen MT Condensed Extra Bold';-inkscape-font-specification:'Tw Cen MT Condensed Extra Bold, Normal';fill:#ffffff;fill-opacity:1;stroke:#000000;stroke-width:1.32775;stroke-miterlimit:4;stroke-dasharray:none;stroke-opacity:1">
      <path
         d="m 694.21183,38.93671 h 3.42539 v 9.10867 h 1.14547 v 2.665415 h -1.14547 v 2.929754 h -3.05091 v -2.929754 h -4.71404 v -2.390062 z m 0.33043,4.438687 -2.13674,4.669983 h 2.18079 v -4.669983 z"
         id="path13263"
         style="fill:#ffffff;fill-opacity:1;stroke:#000000;stroke-opacity:1" />
    </g>
    <g
       aria-label="+"
       transform="matrix(1.0182107,0,-0.06246351,0.82239575,-661.3172,91.15271)"
       id="g13269"
       style="font-size:14.3052px;line-height:1.25;font-family:'Franklin Gothic Heavy';-inkscape-font-specification:'Franklin Gothic Heavy, Normal';fill:#ffffff;fill-opacity:1;stroke:#000000;stroke-width:0.890632;stroke-linecap:butt;stroke-miterlimit:4;stroke-dasharray:none;stroke-opacity:1;paint-order:markers fill stroke">
      <path
         d="m 688.37263,46.116129 v 1.838065 h -2.68808 v 2.789793 h -1.8526 v -2.789793 h -2.68808 v -1.838065 h 2.68808 c 0,0.485022 0,0.736285 0,-2.789793 h 1.8526 v 2.789793 z"
         id="path13267"
         sodipodi:nodetypes="ccccccccccccc"
         style="fill:#ffffff;fill-opacity:1;stroke:#000000;stroke-width:0.92635;stroke-linecap:butt;stroke-linejoin:round;stroke-miterlimit:4;stroke-dasharray:none;stroke-opacity:1;paint-order:markers fill stroke" />
    </g>
    <g
       id="g13283"
       transform="matrix(-0.91508041,0,0,-0.91508041,783.2054,260.68514)"
       style="fill:#ffffff;fill-opacity:1;stroke:#ffffff;stroke-width:3.6;stroke-linecap:round;stroke-linejoin:round;stroke-miterlimit:4;stroke-dasharray:none;stroke-opacity:1">
      <g
         aria-label="4"
         transform="matrix(1.1127008,0,-0.06826013,0.89871419,0,0)"
         id="g13277"
         style="font-size:22.5569px;line-height:1.25;font-family:'Tw Cen MT Condensed Extra Bold';-inkscape-font-specification:'Tw Cen MT Condensed Extra Bold, Normal';fill:#ffffff;fill-opacity:1">
        <path
           d="m 694.21183,38.93671 h 3.42539 v 9.10867 h 1.14547 v 2.665415 h -1.14547 v 2.929754 h -3.05091 v -2.929754 h -4.71404 v -2.390062 z m 0.33043,4.438687 -2.13674,4.669983 h 2.18079 v -4.669983 z"
           id="path13275"
           style="fill:#ffffff;fill-opacity:1" />
      </g>
      <g
         aria-label="+"
         transform="matrix(1.1127008,0,-0.06826013,0.89871419,0,0)"
         id="g13281"
         style="font-size:14.3052px;line-height:1.25;font-family:'Franklin Gothic Heavy';-inkscape-font-specification:'Franklin Gothic Heavy, Normal';fill:#ffffff;fill-opacity:1;paint-order:stroke markers fill">
        <path
           d="m 688.23327,46.151564 v 1.767195 h -2.58444 v 2.682225 h -1.78116 v -2.682225 h -2.58444 v -1.767195 h 2.58444 v -2.682225 h 1.78116 v 2.682225 z"
           id="path13279"
           style="fill:#ffffff;fill-opacity:1" />
      </g>
    </g>
    <g
       aria-label="4"
       transform="matrix(-1.0182107,0,0.06246351,-0.82239575,783.2054,260.68514)"
       id="g13287"
       style="font-size:22.5569px;line-height:1.25;font-family:'Tw Cen MT Condensed Extra Bold';-inkscape-font-specification:'Tw Cen MT Condensed Extra Bold, Normal';fill:#ffffff;fill-opacity:1;stroke:#000000;stroke-width:1.32775;stroke-miterlimit:4;stroke-dasharray:none;stroke-opacity:1">
      <path
         d="m 694.21183,38.93671 h 3.42539 v 9.10867 h 1.14547 v 2.665415 h -1.14547 v 2.929754 h -3.05091 v -2.929754 h -4.71404 v -2.390062 z m 0.33043,4.438687 -2.13674,4.669983 h 2.18079 v -4.669983 z"
         id="path13285"
         style="fill:#ffffff;fill-opacity:1" />
    </g>
    <g
       aria-label="+"
       transform="matrix(-1.1117116,0,0.06819945,-0.89791519,846.9611,264.23721)"
       id="g13291"
       style="font-size:14.3052px;line-height:1.25;font-family:'Franklin Gothic Heavy';-inkscape-font-specification:'Franklin Gothic Heavy, Normal';fill:#ffffff;fill-opacity:1;stroke:#000000;stroke-width:0.890632;stroke-miterlimit:4;stroke-dasharray:none;stroke-opacity:1;paint-order:markers fill stroke">
      <path
         d="m 688.23327,46.151564 v 1.767195 h -2.58444 v 2.682225 h -1.78116 v -2.682225 h -2.58444 v -1.767195 h 2.58444 v -2.682225 h 1.78116 v 2.682225 z"
         id="path13289"
         style="fill:#ffffff;fill-opacity:1;stroke-width:0.890632;stroke-miterlimit:4;stroke-dasharray:none;paint-order:markers fill stroke" />
    </g>
    <path
       id="path13297"
       style="fill:#27ae4f;stroke:#000000;stroke-width:1.7372;stroke-linecap:square;stroke-dashoffset:9.31653"
       d="m 35.5667,176.72759 h 13.4531 c 2.4861,0 4.545,2.00057 4.6165,4.4856 l 0.7022,24.42157 c 0.071,2.48503 -1.8725,4.4856 -4.3585,4.4856 H 36.5269 c -2.486,0 -4.545,-2.00057 -4.6164,-4.4856 l -0.7022,-24.42157 c -0.071,-2.48503 1.8724,-4.4856 4.3584,-4.4856 z" />
    <path
       id="path13299"
       style="fill:#e9d600;stroke:#000000;stroke-width:1.7372;stroke-linecap:square;stroke-dashoffset:9.31653"
       d="m 71.4424,140.13803 h 13.453 c 2.4861,0 4.545,2.00058 4.6165,4.4856 l 0.7022,24.42158 c 0.071,2.48502 -1.8725,4.48559 -4.3585,4.48559 H 72.4025 c -2.486,0 -4.545,-2.00057 -4.6164,-4.48559 l -0.7022,-24.42158 c -0.072,-2.48502 1.8724,-4.4856 4.3585,-4.4856 z" />
    <path
       id="path13301"
       style="fill:#0555e4;stroke:#000000;stroke-width:1.7372;stroke-linecap:square;stroke-dashoffset:9.31653"
       d="m 44.848,155.30931 h 13.4531 c 2.486,0 4.5449,2.00058 4.6164,4.4856 l 0.7022,24.42158 c 0.072,2.48502 -1.8724,4.4856 -4.3585,4.4856 h -13.453 c -2.4861,0 -4.545,-2.00058 -4.6165,-4.4856 l -0.7022,-24.42158 c -0.071,-2.48502 1.8724,-4.4856 4.3585,-4.4856 z" />
    <path
       id="path13303"
       style="fill:#df0c0c;stroke:#000000;stroke-width:1.7372;stroke-linecap:square;stroke-dashoffset:9.31653"
       d="m 62.4288,164.02287 h 13.4531 c 2.486,0 4.545,2.00058 4.6164,4.48561 l 0.7022,24.42157 c 0.072,2.48503 -1.8724,4.4856 -4.3584,4.4856 H 63.389 c -2.4861,0 -4.545,-2.00057 -4.6164,-4.4856 l -0.7023,-24.42157 c -0.071,-2.48503 1.8725,-4.48561 4.3585,-4.48561 z" />
    <g
       id="g12149"
       transform="translate(-1746.076,-217.76259)">
      <g
         id="g12137"
         transform="matrix(-0.91508041,0,0,-0.91508041,2529.3714,478.44773)"
         style="fill:#ffffff;fill-opacity:1;stroke:#ffffff;stroke-width:3.6;stroke-linecap:round;stroke-linejoin:round;stroke-miterlimit:4;stroke-dasharray:none;stroke-opacity:1">
        <g
           aria-label="4"
           transform="matrix(1.1127008,0,-0.06826013,0.89871419,0,0)"
           id="g12131"
           style="font-size:22.5569px;line-height:1.25;font-family:'Tw Cen MT Condensed Extra Bold';-inkscape-font-specification:'Tw Cen MT Condensed Extra Bold, Normal';fill:#ffffff;fill-opacity:1">
          <path
             d="m 694.21183,38.93671 h 3.42539 v 9.10867 h 1.14547 v 2.665415 h -1.14547 v 2.929754 h -3.05091 v -2.929754 h -4.71404 v -2.390062 z m 0.33043,4.438687 -2.13674,4.669983 h 2.18079 v -4.669983 z"
             id="path12129"
             style="fill:#ffffff;fill-opacity:1" />
        </g>
        <g
           aria-label="+"
           transform="matrix(1.1127008,0,-0.06826013,0.89871419,0,0)"
           id="g12135"
           style="font-size:14.3052px;line-height:1.25;font-family:'Franklin Gothic Heavy';-inkscape-font-specification:'Franklin Gothic Heavy, Normal';fill:#ffffff;fill-opacity:1;paint-order:stroke markers fill">
          <path
             d="m 688.23327,46.151564 v 1.767195 h -2.58444 v 2.682225 h -1.78116 v -2.682225 h -2.58444 v -1.767195 h 2.58444 v -2.682225 h 1.78116 v 2.682225 z"
             id="path12133"
             style="fill:#ffffff;fill-opacity:1" />
        </g>
      </g>
      <g
         id="g12147"
         transform="matrix(-0.91508041,0,0,-0.91508041,2529.3714,478.44773)"
         style="fill:#ffffff;fill-opacity:1;stroke:#000000;stroke-width:1.32775;stroke-miterlimit:4;stroke-dasharray:none;stroke-opacity:1">
        <g
           aria-label="4"
           transform="matrix(1.1127008,0,-0.06826013,0.89871419,0,0)"
           id="g12141"
           style="font-size:22.5569px;line-height:1.25;font-family:'Tw Cen MT Condensed Extra Bold';-inkscape-font-specification:'Tw Cen MT Condensed Extra Bold, Normal';fill:#ffffff;fill-opacity:1">
          <path
             d="m 694.21183,38.93671 h 3.42539 v 9.10867 h 1.14547 v 2.665415 h -1.14547 v 2.929754 h -3.05091 v -2.929754 h -4.71404 v -2.390062 z m 0.33043,4.438687 -2.13674,4.669983 h 2.18079 v -4.669983 z"
             id="path12139"
             style="fill:#ffffff;fill-opacity:1" />
        </g>
        <g
           aria-label="+"
           transform="matrix(1.216381,0,-0.07462053,0.98245536,-70.696711,-3.9387795)"
           id="g12145"
           style="font-size:14.3052px;line-height:1.25;font-family:'Franklin Gothic Heavy';-inkscape-font-specification:'Franklin Gothic Heavy, Normal';fill:#ffffff;fill-opacity:1;stroke-width:0.781352;stroke-miterlimit:4;stroke-dasharray:none;paint-order:normal">
          <path
             d="m 688.23327,46.151564 v 1.767195 h -2.58444 v 2.682225 h -1.78116 v -2.682225 h -2.58444 v -1.767195 h 2.58444 v -2.682225 h 1.78116 v 2.682225 z"
             id="path12143"
             style="fill:#ffffff;fill-opacity:1;stroke-width:0.781352;stroke-miterlimit:4;stroke-dasharray:none;paint-order:normal" />
        </g>
      </g>
    </g>
  </g>
</svg>
