<?xml version="1.0" encoding="UTF-8" standalone="no"?>
<!-- Created with Inkscape (http://www.inkscape.org/) -->

<svg
   width="80.6604mm"
   height="126.51947mm"
   viewBox="0 0 80.6604 126.51947"
   version="1.1"
   id="svg2720"
   inkscape:version="1.1.2 (b8e25be833, 2022-02-05)"
   sodipodi:docname="rojo_6.svg"
   xmlns:inkscape="http://www.inkscape.org/namespaces/inkscape"
   xmlns:sodipodi="http://sodipodi.sourceforge.net/DTD/sodipodi-0.dtd"
   xmlns="http://www.w3.org/2000/svg"
   xmlns:svg="http://www.w3.org/2000/svg">
  <sodipodi:namedview
     id="namedview2722"
     pagecolor="#ffffff"
     bordercolor="#666666"
     borderopacity="1.0"
     inkscape:pageshadow="2"
     inkscape:pageopacity="0.0"
     inkscape:pagecheckerboard="0"
     inkscape:document-units="mm"
     showgrid="false"
     inkscape:zoom="0.74029882"
     inkscape:cx="311.36075"
     inkscape:cy="270.83658"
     inkscape:window-width="958"
     inkscape:window-height="1008"
     inkscape:window-x="953"
     inkscape:window-y="0"
     inkscape:window-maximized="0"
     inkscape:current-layer="layer1" />
  <defs
     id="defs2717" />
  <g
     inkscape:label="Capa 1"
     inkscape:groupmode="layer"
     id="layer1"
     transform="translate(-9.8875,-105.33394)">
    <path
       id="rect43708"
       style="fill:#ffffff;stroke:#000000;stroke-width:1.3;stroke-linecap:round;stroke-linejoin:round;stroke-dashoffset:9.31653"
       d="m 18.5693,105.98394 h 63.2968 c 4.4496,0 8.0318,3.58221 8.0318,8.03185 v 109.15577 c 0,4.44964 -3.5822,8.03185 -8.0318,8.03185 H 18.5693 c -4.4496,0 -8.0318,-3.58221 -8.0318,-8.03185 V 114.01579 c 0,-4.44964 3.5822,-8.03185 8.0318,-8.03185 z" />
    <path
       id="rect43710"
       style="fill:#df0c0c;stroke-width:1.81997;stroke-linecap:round;stroke-linejoin:round;stroke-dashoffset:9.31653"
       d="m 20.384,110.36039 h 59.6671 c 3.0438,0 5.4942,2.45043 5.4942,5.49424 v 105.4781 c 0,3.04381 -2.4504,5.49425 -5.4942,5.49425 H 20.384 c -3.0438,0 -5.4942,-2.45044 -5.4942,-5.49425 v -105.4781 c 0,-3.04381 2.4504,-5.49424 5.4942,-5.49424 z" />
    <path
       id="ellipse43712"
       style="fill:none;fill-opacity:0;stroke:#ffffff;stroke-width:4.90276;stroke-linecap:round;stroke-linejoin:round;stroke-dashoffset:9.31653"
       d="m 75.783806,182.75798 a 29.227528,54.28476 28.987554 0 1 -51.873592,33.32 29.227528,54.28476 28.987554 0 1 0.741454,-61.64849 29.227528,54.28476 28.987554 0 1 51.873456,-33.31996 29.227528,54.28476 28.987554 0 1 -0.741318,61.64845 z" />
    <g
       id="g43788"
       transform="matrix(-0.29966215,0,0.01575159,-0.28960271,214.1249,240.85512)"
       style="stroke:#000000;stroke-width:1.00139;stroke-miterlimit:4;stroke-dasharray:none;stroke-opacity:1;paint-order:markers fill stroke">
      <g
         aria-label="6"
         transform="matrix(1.1127008,0,-0.06826013,0.89871419,0,0)"
         id="text43784"
         style="font-size:75.0979px;line-height:1.25;font-family:'Tw Cen MT Condensed Extra Bold';-inkscape-font-specification:'Tw Cen MT Condensed Extra Bold, Normal';fill:#ffffff;stroke:#000000;stroke-width:1.00139;stroke-miterlimit:4;stroke-dasharray:none;stroke-opacity:1;paint-order:markers fill stroke">
        <path
           d="m 424.54642,72.099952 h 11.66071 q -6.27038,12.980789 -8.50718,18.444455 0.47669,-0.03667 1.57676,-0.293352 1.24674,-0.220013 2.12679,-0.220013 5.94037,0 9.27724,3.99691 3.33687,3.99691 3.33687,11.184018 0,7.88381 -4.32693,12.54076 -4.32693,4.65695 -11.58738,4.65695 -6.82041,0 -11.074,-4.62028 -4.25359,-4.65695 -4.25359,-12.13741 0,-9.203891 8.39717,-26.584948 z m 3.85024,40.702478 q 2.27347,0 3.66688,-1.94345 1.43009,-1.98013 1.43009,-5.13365 0,-3.04352 -1.46675,-5.09698 -1.46676,-2.090124 -3.55689,-2.090124 -2.20013,0 -3.63022,2.053454 -1.39342,2.05346 -1.39342,5.28033 0,3.11685 1.32008,5.02363 1.35675,1.90679 3.55689,1.90679 z"
           id="path47271"
           style="stroke:#000000;stroke-width:1.00139;stroke-miterlimit:4;stroke-dasharray:none;stroke-opacity:1;paint-order:markers fill stroke" />
      </g>
      <path
         id="rect43786"
         style="fill:#ffffff;stroke:#000000;stroke-width:1.00139;stroke-linecap:square;stroke-miterlimit:4;stroke-dasharray:none;stroke-dashoffset:9.31653;stroke-opacity:1;paint-order:markers fill stroke"
         d="m 451.99484,112.17763 h 32.92879 v 6.34426 h -32.92879 z" />
    </g>
    <g
       id="g43796"
       transform="matrix(0.86688912,0,-0.0455676,0.83778828,-353.9512,91.483278)"
       style="paint-order:markers fill stroke">
      <g
         aria-label="6"
         transform="matrix(1.1127008,0,-0.06826013,0.89871419,0,0)"
         id="text43792"
         style="font-size:75.0979px;line-height:1.25;font-family:'Tw Cen MT Condensed Extra Bold';-inkscape-font-specification:'Tw Cen MT Condensed Extra Bold, Normal';fill:#ffffff;stroke:#000000;stroke-width:2.80798;paint-order:markers fill stroke">
        <path
           d="m 424.54642,72.099952 h 11.66071 q -6.27038,12.980789 -8.50718,18.444455 0.47669,-0.03667 1.57676,-0.293352 1.24674,-0.220013 2.12679,-0.220013 5.94037,0 9.27724,3.99691 3.33687,3.99691 3.33687,11.184018 0,7.88381 -4.32693,12.54076 -4.32693,4.65695 -11.58738,4.65695 -6.82041,0 -11.074,-4.62028 -4.25359,-4.65695 -4.25359,-12.13741 0,-9.203891 8.39717,-26.584948 z m 3.85024,40.702478 q 2.27347,0 3.66688,-1.94345 1.43009,-1.98013 1.43009,-5.13365 0,-3.04352 -1.46675,-5.09698 -1.46676,-2.090124 -3.55689,-2.090124 -2.20013,0 -3.63022,2.053454 -1.39342,2.05346 -1.39342,5.28033 0,3.11685 1.32008,5.02363 1.35675,1.90679 3.55689,1.90679 z"
           id="path47275"
           style="paint-order:markers fill stroke" />
      </g>
      <path
         id="rect43794"
         style="fill:#ffffff;stroke:#000000;stroke-width:2.41723;stroke-linecap:square;stroke-dashoffset:9.31653;paint-order:markers fill stroke"
         d="m 451.99484,112.17763 h 32.92879 v 6.34426 h -32.92879 z" />
    </g>
    <g
       id="g43812"
       transform="matrix(0.29966215,0,-0.01575159,0.28960271,-114.3244,96.563858)"
       style="fill:#ffffff;fill-opacity:1;stroke:#000000;stroke-width:1.34085;stroke-miterlimit:4;stroke-dasharray:none;stroke-opacity:1;paint-order:markers fill stroke">
      <g
         aria-label="6"
         transform="matrix(1.1127008,0,-0.06826013,0.89871419,0,0)"
         id="text43808"
         style="font-size:75.0979px;line-height:1.25;font-family:'Tw Cen MT Condensed Extra Bold';-inkscape-font-specification:'Tw Cen MT Condensed Extra Bold, Normal';fill:#ffffff;fill-opacity:1;stroke:#000000;stroke-width:1.34085;stroke-miterlimit:4;stroke-dasharray:none;stroke-opacity:1;paint-order:markers fill stroke">
        <path
           d="m 424.54642,72.099952 h 11.66071 q -6.27038,12.980789 -8.50718,18.444455 0.47669,-0.03667 1.57676,-0.293352 1.24674,-0.220013 2.12679,-0.220013 5.94037,0 9.27724,3.99691 3.33687,3.99691 3.33687,11.184018 0,7.88381 -4.32693,12.54076 -4.32693,4.65695 -11.58738,4.65695 -6.82041,0 -11.074,-4.62028 -4.25359,-4.65695 -4.25359,-12.13741 0,-9.203891 8.39717,-26.584948 z m 3.85024,40.702478 q 2.27347,0 3.66688,-1.94345 1.43009,-1.98013 1.43009,-5.13365 0,-3.04352 -1.46675,-5.09698 -1.46676,-2.090124 -3.55689,-2.090124 -2.20013,0 -3.63022,2.053454 -1.39342,2.05346 -1.39342,5.28033 0,3.11685 1.32008,5.02363 1.35675,1.90679 3.55689,1.90679 z"
           id="path47283"
           style="fill:#ffffff;fill-opacity:1;stroke:#000000;stroke-width:1.34085;stroke-linejoin:miter;stroke-miterlimit:4;stroke-dasharray:none;stroke-opacity:1;paint-order:markers fill stroke" />
      </g>
      <path
         id="rect43810"
         style="fill:#ffffff;fill-opacity:1;stroke:#000000;stroke-width:1.34085;stroke-linecap:square;stroke-miterlimit:4;stroke-dasharray:none;stroke-dashoffset:9.31653;stroke-opacity:1;paint-order:markers fill stroke"
         d="m 451.99484,112.17763 h 32.92879 v 6.34426 h -32.92879 z" />
    </g>
  </g>
</svg>
