<?xml version="1.0" encoding="UTF-8" standalone="no"?>
<!-- Created with Inkscape (http://www.inkscape.org/) -->

<svg
   width="80.6605mm"
   height="126.51947mm"
   viewBox="0 0 80.660499 126.51947"
   version="1.1"
   id="svg2720"
   inkscape:version="1.1.2 (b8e25be833, 2022-02-05)"
   sodipodi:docname="rojo_2.svg"
   xmlns:inkscape="http://www.inkscape.org/namespaces/inkscape"
   xmlns:sodipodi="http://sodipodi.sourceforge.net/DTD/sodipodi-0.dtd"
   xmlns="http://www.w3.org/2000/svg"
   xmlns:svg="http://www.w3.org/2000/svg">
  <sodipodi:namedview
     id="namedview2722"
     pagecolor="#ffffff"
     bordercolor="#666666"
     borderopacity="1.0"
     inkscape:pageshadow="2"
     inkscape:pageopacity="0.0"
     inkscape:pagecheckerboard="0"
     inkscape:document-units="mm"
     showgrid="false"
     inkscape:zoom="0.74029882"
     inkscape:cx="261.38094"
     inkscape:cy="227.61079"
     inkscape:window-width="958"
     inkscape:window-height="1008"
     inkscape:window-x="953"
     inkscape:window-y="0"
     inkscape:window-maximized="0"
     inkscape:current-layer="layer1" />
  <defs
     id="defs2717" />
  <g
     inkscape:label="Capa 1"
     inkscape:groupmode="layer"
     id="layer1"
     transform="translate(-22.8871,-116.76999)">
    <path
       id="rect43630"
       style="fill:#ffffff;stroke:#000000;stroke-width:1.3;stroke-linecap:round;stroke-linejoin:round;stroke-dashoffset:9.31653"
       d="m 31.569,117.41999 h 63.2968 c 4.4496,0 8.0318,3.58221 8.0318,8.03185 v 109.15577 c 0,4.44964 -3.5822,8.03185 -8.0318,8.03185 H 31.569 c -4.4497,0 -8.0319,-3.58221 -8.0319,-8.03185 V 125.45184 c 0,-4.44964 3.5822,-8.03185 8.0319,-8.03185 z" />
    <path
       id="rect43632"
       style="fill:#df0c0c;stroke-width:1.81997;stroke-linecap:round;stroke-linejoin:round;stroke-dashoffset:9.31653"
       d="M 33.3839,121.79644 H 93.051 c 3.0438,0 5.4942,2.45043 5.4942,5.49424 v 105.4781 c 0,3.04381 -2.4504,5.49425 -5.4942,5.49425 H 33.3839 c -3.0438,0 -5.4942,-2.45044 -5.4942,-5.49425 v -105.4781 c 0,-3.04381 2.4504,-5.49424 5.4942,-5.49424 z" />
    <path
       id="ellipse43634"
       style="fill:none;fill-opacity:0;stroke:#ffffff;stroke-width:4.90276;stroke-linecap:round;stroke-linejoin:round;stroke-dashoffset:9.31653"
       d="M 88.783565,194.19407 A 29.227528,54.28476 28.987554 0 1 36.91008,227.51409 29.227528,54.28476 28.987554 0 1 37.651515,165.86563 29.227528,54.28476 28.987554 0 1 89.52501,132.5456 29.227528,54.28476 28.987554 0 1 88.783565,194.19407 Z" />
    <g
       aria-label="2"
       transform="matrix(1.1127008,0,-0.06826013,0.89871419,-2379.8386,-69.01917)"
       id="text43638"
       style="font-size:75.0979px;line-height:1.25;font-family:'Tw Cen MT Condensed Extra Bold';-inkscape-font-specification:'Tw Cen MT Condensed Extra Bold, Normal';fill:#ffffff;stroke:#000000;stroke-width:2.573">
      <path
         d="m 2209.8039,270.18647 h -10.744 q 0,-5.50034 0.4401,-8.61719 0.4767,-3.11686 1.9067,-5.50034 1.4668,-2.42014 4.437,-3.85023 3.0068,-1.46676 7.1137,-1.46676 6.7838,0 10.414,3.55689 3.6302,3.55688 3.6302,10.26729 0,3.44687 -1.3934,7.44378 -1.3934,3.96024 -4.1802,8.7272 l -6.0137,10.26729 h 9.8639 v 9.97394 h -27.9417 l 15.9876,-27.31833 q 2.9335,-4.91363 2.9335,-8.94721 0,-2.01679 -0.88,-3.3002 -0.8801,-1.28341 -2.2001,-1.28341 -2.0902,0 -2.7502,1.68677 -0.6234,1.6501 -0.6234,6.56373 z"
         id="path47178" />
    </g>
    <g
       aria-label="2"
       transform="matrix(1.1127008,0,-0.06826013,0.89871419,-2379.8386,-69.01917)"
       id="text43642"
       style="font-size:24.4557px;line-height:1.25;font-family:'Tw Cen MT Condensed Extra Bold';-inkscape-font-specification:'Tw Cen MT Condensed Extra Bold, Normal';fill:#ffffff;stroke:#000000;stroke-width:1.138">
      <path
         d="m 2186.0535,224.00778 h -3.4988 q 0,-1.79119 0.1433,-2.8062 0.1552,-1.015 0.6209,-1.79119 0.4777,-0.78812 1.4449,-1.25383 0.9792,-0.47765 2.3166,-0.47765 2.2091,0 3.3913,1.1583 1.1822,1.15831 1.1822,3.34356 0,1.12247 -0.4538,2.42407 -0.4537,1.28966 -1.3613,2.84202 l -1.9583,3.34355 h 3.2122 v 3.24803 h -9.0993 l 5.2064,-8.89624 q 0.9553,-1.60013 0.9553,-2.91367 0,-0.65677 -0.2866,-1.07471 -0.2866,-0.41795 -0.7164,-0.41795 -0.6807,0 -0.8956,0.5493 -0.203,0.53736 -0.203,2.13749 z"
         id="path47181" />
    </g>
    <g
       aria-label="2"
       transform="matrix(-1.1127008,0,0.06826013,-0.89871419,-2379.8386,-69.01917)"
       id="text43646"
       style="font-size:24.4557px;line-height:1.25;font-family:'Tw Cen MT Condensed Extra Bold';-inkscape-font-specification:'Tw Cen MT Condensed Extra Bold, Normal';fill:#ffffff;stroke:#000000;stroke-width:1.138">
      <path
         d="m -2239.2539,-330.42165 h -3.4988 q 0,-1.79119 0.1433,-2.8062 0.1552,-1.015 0.6209,-1.79118 0.4777,-0.78813 1.4449,-1.25384 0.9792,-0.47765 2.3166,-0.47765 2.2092,0 3.3914,1.15831 1.1821,1.1583 1.1821,3.34355 0,1.12248 -0.4537,2.42407 -0.4538,1.28966 -1.3613,2.84202 l -1.9584,3.34356 h 3.2122 v 3.24802 h -9.0992 l 5.2063,-8.89624 q 0.9553,-1.60013 0.9553,-2.91367 0,-0.65677 -0.2865,-1.07471 -0.2866,-0.41794 -0.7165,-0.41794 -0.6807,0 -0.8956,0.54929 -0.203,0.53736 -0.203,2.13749 z"
         id="path47184" />
    </g>
  </g>
</svg>
