<?xml version="1.0" encoding="UTF-8" standalone="no"?>
<!-- Created with Inkscape (http://www.inkscape.org/) -->

<svg
   width="80.6605mm"
   height="126.51947mm"
   viewBox="0 0 80.660499 126.51947"
   version="1.1"
   id="svg2720"
   inkscape:version="1.1.2 (b8e25be833, 2022-02-05)"
   sodipodi:docname="carta_reves.svg"
   xmlns:inkscape="http://www.inkscape.org/namespaces/inkscape"
   xmlns:sodipodi="http://sodipodi.sourceforge.net/DTD/sodipodi-0.dtd"
   xmlns="http://www.w3.org/2000/svg"
   xmlns:svg="http://www.w3.org/2000/svg">
  <sodipodi:namedview
     id="namedview2722"
     pagecolor="#ffffff"
     bordercolor="#666666"
     borderopacity="1.0"
     inkscape:pageshadow="2"
     inkscape:pageopacity="0.0"
     inkscape:pagecheckerboard="0"
     inkscape:document-units="mm"
     showgrid="false"
     inkscape:zoom="0.74029882"
     inkscape:cx="172.22775"
     inkscape:cy="315.41317"
     inkscape:window-width="958"
     inkscape:window-height="1008"
     inkscape:window-x="953"
     inkscape:window-y="0"
     inkscape:window-maximized="0"
     inkscape:current-layer="layer1" />
  <defs
     id="defs2717" />
  <g
     inkscape:label="Capa 1"
     inkscape:groupmode="layer"
     id="layer1"
     transform="translate(-45.9154,-93.63957)">
    <path
       id="rect45146"
       style="fill:#ffffff;stroke:#000000;stroke-width:1.3;stroke-linecap:round;stroke-linejoin:round;stroke-dashoffset:9.31653"
       d="m 54.5973,94.28957 h 63.2967 c 4.4497,0 8.0319,3.5822 8.0319,8.03185 v 109.15577 c 0,4.44964 -3.5822,8.03185 -8.0319,8.03185 H 54.5973 c -4.4497,0 -8.0319,-3.58221 -8.0319,-8.03185 V 102.32142 c 0,-4.44965 3.5822,-8.03185 8.0319,-8.03185 z" />
    <path
       id="rect45148"
       style="stroke-width:1.81997;stroke-linecap:round;stroke-linejoin:round;stroke-dashoffset:9.31653"
       d="m 56.4121,98.666 h 59.6671 c 3.0438,0 5.4942,2.45043 5.4942,5.49424 v 105.47811 c 0,3.0438 -2.4504,5.49424 -5.4942,5.49424 H 56.4121 c -3.0438,0 -5.4943,-2.45044 -5.4943,-5.49424 V 104.16024 c 0,-3.04381 2.4505,-5.49424 5.4943,-5.49424 z" />
    <path
       id="path45150"
       style="fill:#ff0000;fill-opacity:1;stroke:none;stroke-width:1.81997;stroke-linecap:round;stroke-linejoin:round;stroke-miterlimit:4;stroke-dasharray:none;stroke-dashoffset:9.31653;stroke-opacity:1"
       d="m 104.6802,107.35453 a 29.227528,54.284758 28.987554 0 0 -44.0004,35.38079 29.227528,54.284758 28.987554 0 0 -9.7617,25.87129 v 23.14896 a 29.227528,54.284758 28.987554 0 0 9.0201,12.62819 29.227528,54.284758 28.987554 0 0 51.8733,-33.31994 29.227528,54.284758 28.987554 0 0 9.7617,-25.80669 v -23.28592 a 29.227528,54.284758 28.987554 0 0 -9.0201,-12.55634 29.227528,54.284758 28.987554 0 0 -7.8729,-2.06034 z" />
    <g
       id="g45174"
       transform="matrix(0.34634314,-0.15701146,0.15701146,0.34634314,102.5236,-5.46763)"
       style="stroke:#000000;stroke-width:0.473346;stroke-miterlimit:4;stroke-dasharray:none;stroke-opacity:1">
      <g
         aria-label="UNO"
         transform="matrix(1.1127008,0,-0.06826013,0.89871419,0,0)"
         id="text45158"
         style="font-size:75.098px;line-height:1.25;font-family:'Tw Cen MT Condensed Extra Bold';-inkscape-font-specification:'Tw Cen MT Condensed Extra Bold, Normal';letter-spacing:-6.61458px;stroke:#000000;stroke-width:0.473346;stroke-linejoin:round;stroke-miterlimit:4;stroke-dasharray:none;stroke-opacity:1">
        <path
           d="m -222.87968,373.00478 h 11.40404 v 34.46881 q 0,2.42015 1.28342,3.85024 1.28341,1.39342 3.44688,1.39342 2.2368,0 3.52022,-1.50343 1.32008,-1.50342 1.32008,-4.14359 v -34.06545 h 11.3307 v 32.122 q 0,6.56374 -1.72344,10.52399 -1.72344,3.96024 -5.09698,5.83036 -3.33688,1.83345 -9.35058,1.83345 -8.87389,0 -12.50411,-4.54695 -3.63023,-4.54695 -3.63023,-15.36429 z"
           id="path47931"
           style="stroke:#000000;stroke-width:0.473346;stroke-miterlimit:4;stroke-dasharray:none;stroke-opacity:1" />
        <path
           d="m -187.14163,373.00478 h 11.2207 l 14.11755,28.23509 -0.40336,-5.28033 v -22.95476 h 11.11069 v 48.95304 h -11.40404 l -13.8242,-27.79506 0.29336,6.08705 v 21.70801 h -11.1107 z"
           id="path47933"
           style="stroke:#000000;stroke-width:0.473346;stroke-miterlimit:4;stroke-dasharray:none;stroke-opacity:1" />
        <path
           d="m -131.23566,423.1679 q -8.87388,0 -13.53084,-6.78375 -4.65695,-6.82043 -4.65695,-19.65456 0,-11.84407 4.65695,-18.44448 4.69363,-6.63708 13.05415,-6.63708 8.91055,0 13.60418,6.63708 4.73029,6.63708 4.73029,18.95785 0,12.32076 -4.65695,19.14119 -4.62029,6.78375 -13.20083,6.78375 z m -0.40335,-40.40918 q -6.01371,0 -6.01371,14.11755 0,9.09389 1.50343,12.13742 1.54009,3.04352 4.43694,3.04352 3.11686,0 4.76696,-3.04352 1.68677,-3.04353 1.68677,-11.91741 0,-14.33756 -6.38039,-14.33756 z"
           id="path47935"
           style="stroke:#000000;stroke-width:0.473346;stroke-miterlimit:4;stroke-dasharray:none;stroke-opacity:1" />
      </g>
      <g
         aria-label="UNO"
         transform="matrix(1.1127008,0,-0.06826013,0.89871419,0,0)"
         id="text45164"
         style="font-size:75.098px;line-height:1.25;font-family:'Tw Cen MT Condensed Extra Bold';-inkscape-font-specification:'Tw Cen MT Condensed Extra Bold, Normal';letter-spacing:-6.60665px;fill:#ffc700;stroke:#000000;stroke-width:0.473346;stroke-linejoin:round;stroke-miterlimit:4;stroke-dasharray:none;stroke-opacity:1;paint-order:markers fill stroke">
        <path
           d="m -224.8903,371.23836 h 11.40404 v 34.46881 q 0,2.42015 1.28342,3.85024 1.28341,1.39342 3.44688,1.39342 2.2368,0 3.52022,-1.50342 1.32008,-1.50343 1.32008,-4.1436 v -34.06545 h 11.3307 v 32.122 q 0,6.56374 -1.72344,10.52399 -1.72344,3.96024 -5.09698,5.83036 -3.33688,1.83345 -9.35058,1.83345 -8.87389,0 -12.50411,-4.54695 -3.63023,-4.54695 -3.63023,-15.36429 z"
           id="path47938"
           style="stroke:#000000;stroke-width:0.473346;stroke-miterlimit:4;stroke-dasharray:none;stroke-opacity:1;paint-order:markers fill stroke" />
        <path
           d="m -189.14432,371.23836 h 11.2207 l 14.11754,28.23509 -0.40336,-5.28033 v -22.95476 h 11.11069 v 48.95305 h -11.40404 l -13.82419,-27.79506 0.29335,6.08704 v 21.70802 h -11.11069 z"
           id="path47940"
           style="stroke:#000000;stroke-width:0.473346;stroke-miterlimit:4;stroke-dasharray:none;stroke-opacity:1;paint-order:markers fill stroke" />
        <path
           d="m -133.23041,421.40148 q -8.87389,0 -13.53084,-6.78375 -4.65696,-6.82043 -4.65696,-19.65456 0,-11.84407 4.65696,-18.44448 4.69362,-6.63708 13.05414,-6.63708 8.91055,0 13.60418,6.63708 4.73029,6.63708 4.73029,18.95785 0,12.32076 -4.65695,19.14119 -4.62029,6.78375 -13.20082,6.78375 z m -0.40336,-40.40918 q -6.01371,0 -6.01371,14.11755 0,9.0939 1.50343,12.13742 1.54009,3.04352 4.43694,3.04352 3.11686,0 4.76696,-3.04352 1.68677,-3.04352 1.68677,-11.91741 0,-14.33756 -6.38039,-14.33756 z"
           id="path47942"
           style="stroke:#000000;stroke-width:0.473346;stroke-miterlimit:4;stroke-dasharray:none;stroke-opacity:1;paint-order:markers fill stroke" />
      </g>
      <g
         aria-label="FOR ALL"
         transform="matrix(1.099919,0,-0.06747601,0.90915786,0,0)"
         id="text45168"
         style="font-size:46.1603px;line-height:1.25;font-family:'Tw Cen MT Condensed Extra Bold';-inkscape-font-specification:'Tw Cen MT Condensed Extra Bold, Normal';letter-spacing:-3.353px;stroke:#000000;stroke-width:0.473346;stroke-linejoin:round;stroke-miterlimit:4;stroke-dasharray:none;stroke-opacity:1">
        <path
           d="m -226.98565,423.59192 h 13.81654 v 6.44621 h -6.98716 v 5.49957 h 6.15321 v 6.24336 h -6.15321 v 11.9007 h -6.82938 z"
           id="path47945"
           style="stroke:#000000;stroke-width:0.473346;stroke-miterlimit:4;stroke-dasharray:none;stroke-opacity:1" />
        <path
           d="m -202.25479,454.42556 q -5.45449,0 -8.31697,-4.16976 -2.86248,-4.19229 -2.86248,-12.08101 0,-7.28017 2.86248,-11.33723 2.88502,-4.07959 8.02396,-4.07959 5.47702,0 8.36204,4.07959 2.90756,4.0796 2.90756,11.65278 0,7.57317 -2.86248,11.76546 -2.83994,4.16976 -8.11411,4.16976 z m -0.24793,-24.83821 q -3.69643,0 -3.69643,8.67759 0,5.58973 0.9241,7.46048 0.94665,1.87076 2.72725,1.87076 1.91583,0 2.93009,-1.87076 1.03681,-1.87075 1.03681,-7.32524 0,-8.81283 -3.92182,-8.81283 z"
           id="path47947"
           style="stroke:#000000;stroke-width:0.473346;stroke-miterlimit:4;stroke-dasharray:none;stroke-opacity:1" />
        <path
           d="m -189.55987,423.59192 h 7.95634 q 4.82339,0 7.61825,2.47931 2.79486,2.47931 2.79486,6.73922 0,2.18631 -1.05934,4.23738 -1.05934,2.02852 -3.08787,3.06533 l 5.45449,13.5686 h -7.21255 l -5.52211,-13.70384 h -0.11269 v 13.70384 h -6.82938 z m 6.82938,5.81511 v 7.14493 q 4.53038,-0.0901 4.53038,-3.17803 0,-2.09614 -1.05935,-2.99771 -1.0368,-0.90157 -3.47103,-0.96919 z"
           id="path47949"
           style="stroke:#000000;stroke-width:0.473346;stroke-miterlimit:4;stroke-dasharray:none;stroke-opacity:1" />
        <path
           d="m -140.36864,453.68176 h -7.09985 l -1.1495,-5.02624 h -7.21254 l -1.19458,5.02624 h -6.96462 l 7.97888,-30.08984 h 7.66333 z m -9.55662,-10.43565 q -1.53267,-6.71669 -2.299,-12.77973 h -0.0902 q -0.81141,6.24336 -2.27646,12.77973 z"
           id="path47951"
           style="stroke:#000000;stroke-width:0.473346;stroke-miterlimit:4;stroke-dasharray:none;stroke-opacity:1" />
        <path
           d="m -140.27314,423.59192 h 6.82938 v 23.12523 h 5.40941 v 6.96461 h -12.23879 z"
           id="path47953"
           style="stroke:#000000;stroke-width:0.473346;stroke-miterlimit:4;stroke-dasharray:none;stroke-opacity:1" />
        <path
           d="m -126.76681,423.59192 h 6.82938 v 23.12523 h 5.40941 v 6.96461 h -12.23879 z"
           id="path47955"
           style="stroke:#000000;stroke-width:0.473346;stroke-miterlimit:4;stroke-dasharray:none;stroke-opacity:1" />
      </g>
      <g
         aria-label="FOR ALL"
         transform="matrix(1.099919,0,-0.06747601,0.90915786,0,0)"
         id="text45172"
         style="font-size:46.1603px;line-height:1.25;font-family:'Tw Cen MT Condensed Extra Bold';-inkscape-font-specification:'Tw Cen MT Condensed Extra Bold, Normal';letter-spacing:-3.353px;fill:#ffc700;stroke:#000000;stroke-width:0.473346;stroke-linejoin:round;stroke-miterlimit:4;stroke-dasharray:none;stroke-opacity:1;paint-order:markers fill stroke">
        <path
           d="m -228.50307,421.84579 h 13.81653 v 6.44622 h -6.98715 v 5.49956 h 6.1532 v 6.24337 h -6.1532 v 11.9007 h -6.82938 z"
           id="path47958"
           style="stroke:#000000;stroke-width:0.473346;stroke-miterlimit:4;stroke-dasharray:none;stroke-opacity:1;paint-order:markers fill stroke" />
        <path
           d="m -203.77222,452.67943 q -5.45449,0 -8.31697,-4.16975 -2.86248,-4.19229 -2.86248,-12.08102 0,-7.28016 2.86248,-11.33722 2.88502,-4.0796 8.02396,-4.0796 5.47703,0 8.36205,4.0796 2.90756,4.0796 2.90756,11.65277 0,7.57318 -2.86248,11.76547 -2.83994,4.16975 -8.11412,4.16975 z m -0.24793,-24.83821 q -3.69643,0 -3.69643,8.6776 0,5.58972 0.92411,7.46048 0.94664,1.87075 2.72724,1.87075 1.91583,0 2.9301,-1.87075 1.0368,-1.87076 1.0368,-7.32525 0,-8.81283 -3.92182,-8.81283 z"
           id="path47960"
           style="stroke:#000000;stroke-width:0.473346;stroke-miterlimit:4;stroke-dasharray:none;stroke-opacity:1;paint-order:markers fill stroke" />
        <path
           d="m -191.0773,421.84579 h 7.95634 q 4.82339,0 7.61825,2.47932 2.79487,2.47931 2.79487,6.73922 0,2.1863 -1.05935,4.23737 -1.05934,2.02853 -3.08787,3.06533 l 5.45449,13.56861 h -7.21255 l -5.5221,-13.70384 h -0.1127 v 13.70384 h -6.82938 z m 6.82938,5.81512 v 7.14493 q 4.53038,-0.0902 4.53038,-3.17803 0,-2.09615 -1.05934,-2.99771 -1.03681,-0.90157 -3.47104,-0.96919 z"
           id="path47962"
           style="stroke:#000000;stroke-width:0.473346;stroke-miterlimit:4;stroke-dasharray:none;stroke-opacity:1;paint-order:markers fill stroke" />
        <path
           d="m -141.88606,451.93564 h -7.09985 l -1.1495,-5.02625 h -7.21255 l -1.19458,5.02625 h -6.96461 l 7.97888,-30.08985 h 7.66333 z m -9.55663,-10.43566 q -1.53266,-6.71668 -2.299,-12.77973 h -0.0901 q -0.81141,6.24336 -2.27646,12.77973 z"
           id="path47964"
           style="stroke:#000000;stroke-width:0.473346;stroke-miterlimit:4;stroke-dasharray:none;stroke-opacity:1;paint-order:markers fill stroke" />
        <path
           d="m -141.79056,421.84579 h 6.82938 v 23.12523 h 5.40941 v 6.96462 h -12.23879 z"
           id="path47966"
           style="stroke:#000000;stroke-width:0.473346;stroke-miterlimit:4;stroke-dasharray:none;stroke-opacity:1;paint-order:markers fill stroke" />
        <path
           d="m -128.28423,421.84579 h 6.82938 v 23.12523 h 5.40941 v 6.96462 h -12.23879 z"
           id="path47968"
           style="stroke:#000000;stroke-width:0.473346;stroke-miterlimit:4;stroke-dasharray:none;stroke-opacity:1;paint-order:markers fill stroke" />
      </g>
    </g>
  </g>
</svg>
