<?xml version="1.0" encoding="UTF-8" standalone="no"?>
<!-- Created with Inkscape (http://www.inkscape.org/) -->

<svg
   width="80.6604mm"
   height="126.51947mm"
   viewBox="0 0 80.6604 126.51947"
   version="1.1"
   id="svg2720"
   inkscape:version="1.1.2 (b8e25be833, 2022-02-05)"
   sodipodi:docname="comodin_cambio_color.svg"
   xmlns:inkscape="http://www.inkscape.org/namespaces/inkscape"
   xmlns:sodipodi="http://sodipodi.sourceforge.net/DTD/sodipodi-0.dtd"
   xmlns="http://www.w3.org/2000/svg"
   xmlns:svg="http://www.w3.org/2000/svg">
  <sodipodi:namedview
     id="namedview2722"
     pagecolor="#ffffff"
     bordercolor="#666666"
     borderopacity="1.0"
     inkscape:pageshadow="2"
     inkscape:pageopacity="0.0"
     inkscape:pagecheckerboard="0"
     inkscape:document-units="mm"
     showgrid="false"
     inkscape:zoom="0.74029882"
     inkscape:cx="153.31647"
     inkscape:cy="357.28815"
     inkscape:window-width="958"
     inkscape:window-height="1008"
     inkscape:window-x="953"
     inkscape:window-y="0"
     inkscape:window-maximized="0"
     inkscape:current-layer="layer1" />
  <defs
     id="defs2717" />
  <g
     inkscape:label="Capa 1"
     inkscape:groupmode="layer"
     id="layer1"
     transform="translate(-50.807,-82.55976)">
    <path
       id="rect45104"
       style="fill:#ffffff;stroke:#000000;stroke-width:1.3;stroke-linecap:round;stroke-linejoin:round;stroke-dashoffset:9.31653"
       d="m 59.4888,83.20976 h 63.2968 c 4.4496,0 8.0318,3.58221 8.0318,8.03185 v 109.15577 c 0,4.44964 -3.5822,8.03185 -8.0318,8.03185 H 59.4888 c -4.4496,0 -8.0318,-3.58221 -8.0318,-8.03185 V 91.24161 c 0,-4.44964 3.5822,-8.03185 8.0318,-8.03185 z" />
    <path
       id="rect45106"
       style="stroke-width:1.81997;stroke-linecap:round;stroke-linejoin:round;stroke-dashoffset:9.31653"
       d="m 61.3036,87.58621 h 59.6671 c 3.0438,0 5.4943,2.45043 5.4943,5.49424 v 105.4781 c 0,3.04381 -2.4505,5.49424 -5.4943,5.49424 H 61.3036 c -3.0438,0 -5.4942,-2.45043 -5.4942,-5.49424 V 93.08045 c 0,-3.04381 2.4504,-5.49424 5.4942,-5.49424 z" />
    <path
       id="ellipse45108"
       style="fill:none;fill-opacity:0;stroke:#ffffff;stroke-width:4.90276;stroke-linecap:round;stroke-linejoin:round;stroke-dashoffset:9.31653"
       d="m 116.70331,159.98378 a 29.227528,54.28476 28.987554 0 1 -51.873575,33.31997 29.227528,54.28476 28.987554 0 1 0.741435,-61.64846 29.227528,54.28476 28.987554 0 1 51.87348,-33.320013 29.227528,54.28476 28.987554 0 1 -0.74134,61.648503 z" />
    <g
       id="g45120"
       transform="translate(236.5293,57.47364)">
      <path
         id="path45110"
         style="fill:#df0c0c;fill-opacity:1;stroke:none;stroke-width:1.65086;stroke-linecap:round;stroke-linejoin:round;stroke-miterlimit:4;stroke-dasharray:none;stroke-dashoffset:9.31653;stroke-opacity:1;paint-order:markers stroke fill"
         d="m -479.83984,146.65039 a 110.46625,205.17075 28.987554 0 0 -166.30078,133.7207 110.46625,205.17075 28.987554 0 0 -24.3379,53.53516 h 236.96485 V 167.91992 a 110.46625,205.17075 28.987554 0 0 -16.57031,-13.48242 110.46625,205.17075 28.987554 0 0 -29.75586,-7.78711 z"
         transform="scale(0.26458333)" />
      <path
         id="path45112"
         style="fill:#e9d600;fill-opacity:1;stroke:none;stroke-width:1.65086;stroke-linecap:round;stroke-linejoin:round;stroke-miterlimit:4;stroke-dasharray:none;stroke-dashoffset:9.31653;stroke-opacity:1;paint-order:markers stroke fill"
         d="m -670.47852,333.90625 a 110.46625,205.17075 28.987554 0 0 21.53516,179.4668 110.46625,205.17075 28.987554 0 0 196.05859,-125.9336 110.46625,205.17075 28.987554 0 0 19.3711,-40.48047 v -13.05273 z"
         transform="scale(0.26458333)" />
      <path
         id="path45114"
         style="fill:#0555e4;fill-opacity:1;stroke:none;stroke-width:1.9467;stroke-linecap:round;stroke-linejoin:round;stroke-miterlimit:4;stroke-dasharray:none;stroke-dashoffset:9.31653;stroke-opacity:1;paint-order:markers stroke fill"
         d="m -480.88868,141.27642 -8.80273,23.69233 -68.51171,168.9375 h 129.69921 c 29.91874,-82.81104 21.14316,-155.79237 -21.58007,-179.46875 -1.18404,-0.61041 -30.8047,-13.16108 -30.8047,-13.16108 z"
         transform="scale(0.26458333)"
         sodipodi:nodetypes="cccccc" />
      <path
         id="path45116"
         style="fill:#27ae4f;fill-opacity:1;stroke:none;stroke-width:1.65086;stroke-linecap:round;stroke-linejoin:round;stroke-miterlimit:4;stroke-dasharray:none;stroke-dashoffset:9.31653;stroke-opacity:1;paint-order:markers stroke fill"
         d="m -558.20312,333.90625 -75.17774,185.38086 c 1.82859,0.44606 3.6918,0.81531 5.58789,1.10742 0.35628,0.0548 0.71371,0.10689 1.07227,0.15625 2.27849,0.29787 4.60178,0.4861 6.96679,0.56445 0.39469,0.0135 0.79053,0.0239 1.1875,0.0312 2.37957,0.045 4.79925,-0.0201 7.25586,-0.19531 0.37806,-0.03 0.75698,-0.0625 1.13672,-0.0977 2.50836,-0.20942 5.05314,-0.53248 7.63086,-0.96875 0.31853,-0.0582 0.63755,-0.11808 0.95703,-0.17969 2.67432,-0.47843 5.38202,-1.07768 8.11914,-1.79688 0.15421,-0.0432 0.30851,-0.0869 0.46289,-0.13086 2.80775,-0.756 5.64448,-1.63731 8.50586,-2.64257 0.10674,-0.035 0.21351,-0.0701 0.32032,-0.10547 2.84615,-1.01559 5.71479,-2.15288 8.60156,-3.41016 0.27522,-0.11609 0.55061,-0.23328 0.82617,-0.35156 2.77997,-1.2309 5.5749,-2.57202 8.38086,-4.02149 0.39107,-0.19841 0.78235,-0.39894 1.17383,-0.60156 2.74583,-1.44434 5.50031,-2.99126 8.25976,-4.63867 0.44325,-0.26304 0.88661,-0.52867 1.33008,-0.79688 2.73458,-1.66113 5.47211,-3.41971 8.20899,-5.27343 0.45512,-0.30859 0.9102,-0.61979 1.36523,-0.9336 2.74862,-1.89124 5.49462,-3.87715 8.23437,-5.95507 0.40577,-0.3105 0.81137,-0.623 1.2168,-0.9375 2.80278,-2.1522 5.59705,-4.39933 8.37891,-6.73829 0.29117,-0.24901 0.58219,-0.49901 0.87305,-0.75 2.89582,-2.45667 5.77618,-5.01134 8.63671,-7.66015 l 0.28711,-0.27149 c 2.89808,-2.69804 5.77392,-5.49115 8.62305,-8.375 0.14655,-0.14624 0.29304,-0.29273 0.43945,-0.43945 2.78728,-2.83808 5.54712,-5.7614 8.27539,-8.76562 0.28811,-0.31291 0.57588,-0.62671 0.86329,-0.94141 2.62407,-2.91184 5.21706,-5.89694 7.77539,-8.95117 0.3764,-0.44579 0.75206,-0.89306 1.12695,-1.3418 2.5071,-3.02252 4.97891,-6.10984 7.41211,-9.25781 0.38314,-0.49527 0.7653,-0.99202 1.14648,-1.49024 2.41551,-3.15684 4.79092,-6.3718 7.12305,-9.64062 0.35847,-0.50396 0.71589,-1.00918 1.07226,-1.51563 2.33629,-3.30729 4.62704,-6.66687 6.86915,-10.07422 0.30562,-0.46854 0.61031,-0.93794 0.91406,-1.4082 2.28962,-3.51043 4.52636,-7.06876 6.70703,-10.66992 0.16897,-0.28361 0.33759,-0.56746 0.50586,-0.85156 2.28691,-3.79953 4.51008,-7.64401 6.66601,-11.52735 3.63992,-6.57348 7.08261,-13.24956 10.3125,-19.99804 l 0.0195,-0.0391 0.0137,-0.0312 c 3.23019,-6.75081 6.24255,-13.56382 9.02344,-20.4082 l 0.002,-0.004 5.00976,-13.05273 z"
         transform="scale(0.26458333)"
         sodipodi:nodetypes="ccsccccccccccccccccccccccccccccccccccccccccccccccc" />
      <path
         id="ellipse45118"
         style="fill:none;fill-opacity:0;stroke:#ffffff;stroke-width:4.90276;stroke-linecap:round;stroke-linejoin:round;stroke-dashoffset:9.31653"
         transform="rotate(28.987554)"
         d="m -55.136379,147.73816 a 29.227528,54.28476 0 0 1 -29.227528,54.28476 29.227528,54.28476 0 0 1 -29.227523,-54.28476 29.227528,54.28476 0 0 1 29.227523,-54.28476 29.227528,54.28476 0 0 1 29.227528,54.28476 z" />
    </g>
    <g
       id="g45132"
       transform="matrix(0.16329502,0,0,0.16329502,90.329,86.27464)">
      <path
         id="path45122"
         style="fill:#df0c0c;fill-opacity:1;stroke:none;stroke-width:1.65086;stroke-linecap:round;stroke-linejoin:round;stroke-miterlimit:4;stroke-dasharray:none;stroke-dashoffset:9.31653;stroke-opacity:1;paint-order:markers stroke fill"
         d="m -479.83984,146.65039 a 110.46625,205.17075 28.987554 0 0 -166.30078,133.7207 110.46625,205.17075 28.987554 0 0 -24.3379,53.53516 h 236.96485 V 167.91992 a 110.46625,205.17075 28.987554 0 0 -16.57031,-13.48242 110.46625,205.17075 28.987554 0 0 -29.75586,-7.78711 z"
         transform="scale(0.26458333)" />
      <path
         id="path45124"
         style="fill:#e9d600;fill-opacity:1;stroke:none;stroke-width:1.65086;stroke-linecap:round;stroke-linejoin:round;stroke-miterlimit:4;stroke-dasharray:none;stroke-dashoffset:9.31653;stroke-opacity:1;paint-order:markers stroke fill"
         d="m -670.47852,333.90625 a 110.46625,205.17075 28.987554 0 0 21.53516,179.4668 110.46625,205.17075 28.987554 0 0 196.05859,-125.9336 110.46625,205.17075 28.987554 0 0 19.3711,-40.48047 v -13.05273 z"
         transform="scale(0.26458333)" />
      <path
         id="path45126"
         style="fill:#0555e4;fill-opacity:1;stroke:none;stroke-width:1.9467;stroke-linecap:round;stroke-linejoin:round;stroke-miterlimit:4;stroke-dasharray:none;stroke-dashoffset:9.31653;stroke-opacity:1;paint-order:markers stroke fill"
         d="m -480.88868,141.27642 -8.80273,23.69233 -68.51171,168.9375 h 129.69921 c 29.91874,-82.81104 21.14316,-155.79237 -21.58007,-179.46875 -1.18404,-0.61041 -30.8047,-13.16108 -30.8047,-13.16108 z"
         transform="scale(0.26458333)"
         sodipodi:nodetypes="cccccc" />
      <path
         id="path45128"
         style="fill:#27ae4f;fill-opacity:1;stroke:none;stroke-width:1.65086;stroke-linecap:round;stroke-linejoin:round;stroke-miterlimit:4;stroke-dasharray:none;stroke-dashoffset:9.31653;stroke-opacity:1;paint-order:markers stroke fill"
         d="m -558.20312,333.90625 -75.17774,185.38086 c 1.82859,0.44606 3.6918,0.81531 5.58789,1.10742 0.35628,0.0548 0.71371,0.10689 1.07227,0.15625 2.27849,0.29787 4.60178,0.4861 6.96679,0.56445 0.39469,0.0135 0.79053,0.0239 1.1875,0.0312 2.37957,0.045 4.79925,-0.0201 7.25586,-0.19531 0.37806,-0.03 0.75698,-0.0625 1.13672,-0.0977 2.50836,-0.20942 5.05314,-0.53248 7.63086,-0.96875 0.31853,-0.0582 0.63755,-0.11808 0.95703,-0.17969 2.67432,-0.47843 5.38202,-1.07768 8.11914,-1.79688 0.15421,-0.0432 0.30851,-0.0869 0.46289,-0.13086 2.80775,-0.756 5.64448,-1.63731 8.50586,-2.64257 0.10674,-0.035 0.21351,-0.0701 0.32032,-0.10547 2.84615,-1.01559 5.71479,-2.15288 8.60156,-3.41016 0.27522,-0.11609 0.55061,-0.23328 0.82617,-0.35156 2.77997,-1.2309 5.5749,-2.57202 8.38086,-4.02149 0.39107,-0.19841 0.78235,-0.39894 1.17383,-0.60156 2.74583,-1.44434 5.50031,-2.99126 8.25976,-4.63867 0.44325,-0.26304 0.88661,-0.52867 1.33008,-0.79688 2.73458,-1.66113 5.47211,-3.41971 8.20899,-5.27343 0.45512,-0.30859 0.9102,-0.61979 1.36523,-0.9336 2.74862,-1.89124 5.49462,-3.87715 8.23437,-5.95507 0.40577,-0.3105 0.81137,-0.623 1.2168,-0.9375 2.80278,-2.1522 5.59705,-4.39933 8.37891,-6.73829 0.29117,-0.24901 0.58219,-0.49901 0.87305,-0.75 2.89582,-2.45667 5.77618,-5.01134 8.63671,-7.66015 l 0.28711,-0.27149 c 2.89808,-2.69804 5.77392,-5.49115 8.62305,-8.375 0.14655,-0.14624 0.29304,-0.29273 0.43945,-0.43945 2.78728,-2.83808 5.54712,-5.7614 8.27539,-8.76562 0.28811,-0.31291 0.57588,-0.62671 0.86329,-0.94141 2.62407,-2.91184 5.21706,-5.89694 7.77539,-8.95117 0.3764,-0.44579 0.75206,-0.89306 1.12695,-1.3418 2.5071,-3.02252 4.97891,-6.10984 7.41211,-9.25781 0.38314,-0.49527 0.7653,-0.99202 1.14648,-1.49024 2.41551,-3.15684 4.79092,-6.3718 7.12305,-9.64062 0.35847,-0.50396 0.71589,-1.00918 1.07226,-1.51563 2.33629,-3.30729 4.62704,-6.66687 6.86915,-10.07422 0.30562,-0.46854 0.61031,-0.93794 0.91406,-1.4082 2.28962,-3.51043 4.52636,-7.06876 6.70703,-10.66992 0.16897,-0.28361 0.33759,-0.56746 0.50586,-0.85156 2.28691,-3.79953 4.51008,-7.64401 6.66601,-11.52735 3.63992,-6.57348 7.08261,-13.24956 10.3125,-19.99804 l 0.0195,-0.0391 0.0137,-0.0312 c 3.23019,-6.75081 6.24255,-13.56382 9.02344,-20.4082 l 0.002,-0.004 5.00976,-13.05273 z"
         transform="scale(0.26458333)"
         sodipodi:nodetypes="ccsccccccccccccccccccccccccccccccccccccccccccccccc" />
      <path
         id="ellipse45130"
         style="fill:none;fill-opacity:0;stroke:#ffffff;stroke-width:6.32076;stroke-linecap:round;stroke-linejoin:round;stroke-dashoffset:9.31653"
         transform="rotate(28.987554)"
         d="m -55.136379,147.73816 a 29.227528,54.28476 0 0 1 -29.227528,54.28476 29.227528,54.28476 0 0 1 -29.227523,-54.28476 29.227528,54.28476 0 0 1 29.227523,-54.28476 29.227528,54.28476 0 0 1 29.227528,54.28476 z" />
    </g>
    <g
       id="g45144"
       transform="matrix(-0.16329502,0,0,-0.16329502,91.4147,205.2831)">
      <path
         id="path45134"
         style="fill:#df0c0c;fill-opacity:1;stroke:none;stroke-width:1.65086;stroke-linecap:round;stroke-linejoin:round;stroke-miterlimit:4;stroke-dasharray:none;stroke-dashoffset:9.31653;stroke-opacity:1;paint-order:markers stroke fill"
         d="m -479.83984,146.65039 a 110.46625,205.17075 28.987554 0 0 -166.30078,133.7207 110.46625,205.17075 28.987554 0 0 -24.3379,53.53516 h 236.96485 V 167.91992 a 110.46625,205.17075 28.987554 0 0 -16.57031,-13.48242 110.46625,205.17075 28.987554 0 0 -29.75586,-7.78711 z"
         transform="scale(0.26458333)" />
      <path
         id="path45136"
         style="fill:#e9d600;fill-opacity:1;stroke:none;stroke-width:1.65086;stroke-linecap:round;stroke-linejoin:round;stroke-miterlimit:4;stroke-dasharray:none;stroke-dashoffset:9.31653;stroke-opacity:1;paint-order:markers stroke fill"
         d="m -670.47852,333.90625 a 110.46625,205.17075 28.987554 0 0 21.53516,179.4668 110.46625,205.17075 28.987554 0 0 196.05859,-125.9336 110.46625,205.17075 28.987554 0 0 19.3711,-40.48047 v -13.05273 z"
         transform="scale(0.26458333)" />
      <path
         id="path45138"
         style="fill:#0555e4;fill-opacity:1;stroke:none;stroke-width:1.9467;stroke-linecap:round;stroke-linejoin:round;stroke-miterlimit:4;stroke-dasharray:none;stroke-dashoffset:9.31653;stroke-opacity:1;paint-order:markers stroke fill"
         d="m -480.88868,141.27642 -8.80273,23.69233 -68.51171,168.9375 h 129.69921 c 29.91874,-82.81104 21.14316,-155.79237 -21.58007,-179.46875 -1.18404,-0.61041 -30.8047,-13.16108 -30.8047,-13.16108 z"
         transform="scale(0.26458333)"
         sodipodi:nodetypes="cccccc" />
      <path
         id="path45140"
         style="fill:#27ae4f;fill-opacity:1;stroke:none;stroke-width:1.65086;stroke-linecap:round;stroke-linejoin:round;stroke-miterlimit:4;stroke-dasharray:none;stroke-dashoffset:9.31653;stroke-opacity:1;paint-order:markers stroke fill"
         d="m -558.20312,333.90625 -75.17774,185.38086 c 1.82859,0.44606 3.6918,0.81531 5.58789,1.10742 0.35628,0.0548 0.71371,0.10689 1.07227,0.15625 2.27849,0.29787 4.60178,0.4861 6.96679,0.56445 0.39469,0.0135 0.79053,0.0239 1.1875,0.0312 2.37957,0.045 4.79925,-0.0201 7.25586,-0.19531 0.37806,-0.03 0.75698,-0.0625 1.13672,-0.0977 2.50836,-0.20942 5.05314,-0.53248 7.63086,-0.96875 0.31853,-0.0582 0.63755,-0.11808 0.95703,-0.17969 2.67432,-0.47843 5.38202,-1.07768 8.11914,-1.79688 0.15421,-0.0432 0.30851,-0.0869 0.46289,-0.13086 2.80775,-0.756 5.64448,-1.63731 8.50586,-2.64257 0.10674,-0.035 0.21351,-0.0701 0.32032,-0.10547 2.84615,-1.01559 5.71479,-2.15288 8.60156,-3.41016 0.27522,-0.11609 0.55061,-0.23328 0.82617,-0.35156 2.77997,-1.2309 5.5749,-2.57202 8.38086,-4.02149 0.39107,-0.19841 0.78235,-0.39894 1.17383,-0.60156 2.74583,-1.44434 5.50031,-2.99126 8.25976,-4.63867 0.44325,-0.26304 0.88661,-0.52867 1.33008,-0.79688 2.73458,-1.66113 5.47211,-3.41971 8.20899,-5.27343 0.45512,-0.30859 0.9102,-0.61979 1.36523,-0.9336 2.74862,-1.89124 5.49462,-3.87715 8.23437,-5.95507 0.40577,-0.3105 0.81137,-0.623 1.2168,-0.9375 2.80278,-2.1522 5.59705,-4.39933 8.37891,-6.73829 0.29117,-0.24901 0.58219,-0.49901 0.87305,-0.75 2.89582,-2.45667 5.77618,-5.01134 8.63671,-7.66015 l 0.28711,-0.27149 c 2.89808,-2.69804 5.77392,-5.49115 8.62305,-8.375 0.14655,-0.14624 0.29304,-0.29273 0.43945,-0.43945 2.78728,-2.83808 5.54712,-5.7614 8.27539,-8.76562 0.28811,-0.31291 0.57588,-0.62671 0.86329,-0.94141 2.62407,-2.91184 5.21706,-5.89694 7.77539,-8.95117 0.3764,-0.44579 0.75206,-0.89306 1.12695,-1.3418 2.5071,-3.02252 4.97891,-6.10984 7.41211,-9.25781 0.38314,-0.49527 0.7653,-0.99202 1.14648,-1.49024 2.41551,-3.15684 4.79092,-6.3718 7.12305,-9.64062 0.35847,-0.50396 0.71589,-1.00918 1.07226,-1.51563 2.33629,-3.30729 4.62704,-6.66687 6.86915,-10.07422 0.30562,-0.46854 0.61031,-0.93794 0.91406,-1.4082 2.28962,-3.51043 4.52636,-7.06876 6.70703,-10.66992 0.16897,-0.28361 0.33759,-0.56746 0.50586,-0.85156 2.28691,-3.79953 4.51008,-7.64401 6.66601,-11.52735 3.63992,-6.57348 7.08261,-13.24956 10.3125,-19.99804 l 0.0195,-0.0391 0.0137,-0.0312 c 3.23019,-6.75081 6.24255,-13.56382 9.02344,-20.4082 l 0.002,-0.004 5.00976,-13.05273 z"
         transform="scale(0.26458333)"
         sodipodi:nodetypes="ccsccccccccccccccccccccccccccccccccccccccccccccccc" />
      <path
         id="ellipse45142"
         style="fill:none;fill-opacity:0;stroke:#ffffff;stroke-width:6.32076;stroke-linecap:round;stroke-linejoin:round;stroke-dashoffset:9.31653"
         transform="rotate(28.987554)"
         d="m -55.136379,147.73816 a 29.227528,54.28476 0 0 1 -29.227528,54.28476 29.227528,54.28476 0 0 1 -29.227523,-54.28476 29.227528,54.28476 0 0 1 29.227523,-54.28476 29.227528,54.28476 0 0 1 29.227528,54.28476 z" />
    </g>
  </g>
</svg>
