<?xml version="1.0" encoding="UTF-8" standalone="no"?>
<!-- Created with Inkscape (http://www.inkscape.org/) -->

<svg
   width="80.6605mm"
   height="126.5195mm"
   viewBox="0 0 80.660499 126.5195"
   version="1.1"
   id="svg2720"
   inkscape:version="1.1.2 (b8e25be833, 2022-02-05)"
   sodipodi:docname="azul_alt_0.svg"
   xmlns:inkscape="http://www.inkscape.org/namespaces/inkscape"
   xmlns:sodipodi="http://sodipodi.sourceforge.net/DTD/sodipodi-0.dtd"
   xmlns="http://www.w3.org/2000/svg"
   xmlns:svg="http://www.w3.org/2000/svg">
  <sodipodi:namedview
     id="namedview2722"
     pagecolor="#ffffff"
     bordercolor="#666666"
     borderopacity="1.0"
     inkscape:pageshadow="2"
     inkscape:pageopacity="0.0"
     inkscape:pagecheckerboard="0"
     inkscape:document-units="mm"
     showgrid="false"
     inkscape:zoom="0.74029882"
     inkscape:cx="319.46559"
     inkscape:cy="226.25998"
     inkscape:window-width="958"
     inkscape:window-height="1008"
     inkscape:window-x="953"
     inkscape:window-y="0"
     inkscape:window-maximized="0"
     inkscape:current-layer="layer1" />
  <defs
     id="defs2717">
    <filter
       style="color-interpolation-filters:sRGB"
       inkscape:label="Invert"
       id="filter50808"
       x="-0.0081904726"
       y="-0.0051908861"
       width="1.0163809"
       height="1.0103818">
      <feColorMatrix
         values="1 0 0 0 0 0 1 0 0 0 0 0 1 0 0 -0.21 -0.72 -0.07 2 0 "
         result="color2"
         id="feColorMatrix50806" />
    </filter>
    <filter
       style="color-interpolation-filters:sRGB"
       inkscape:label="Invert"
       id="filter50804"
       x="0"
       y="0"
       width="1"
       height="1">
      <feColorMatrix
         values="1 0 0 0 0 0 1 0 0 0 0 0 1 0 0 -0.21 -0.72 -0.07 2 0 "
         result="color2"
         id="feColorMatrix50802" />
    </filter>
    <filter
       style="color-interpolation-filters:sRGB"
       inkscape:label="Invert"
       id="filter50800"
       x="-0.033412036"
       y="-0.02489306"
       width="1.0668241"
       height="1.0497861">
      <feColorMatrix
         values="1 0 0 0 0 0 1 0 0 0 0 0 1 0 0 -0.21 -0.72 -0.07 2 0 "
         result="color2"
         id="feColorMatrix50798" />
    </filter>
    <filter
       style="color-interpolation-filters:sRGB"
       inkscape:label="Invert"
       id="filter50796"
       x="-0.055072352"
       y="-0.026280202"
       width="1.110509"
       height="1.0525604">
      <feColorMatrix
         values="1 0 0 0 0 0 1 0 0 0 0 0 1 0 0 -0.21 -0.72 -0.07 2 0 "
         result="color2"
         id="feColorMatrix50794" />
    </filter>
    <filter
       style="color-interpolation-filters:sRGB"
       inkscape:label="Invert"
       id="filter50792"
       x="-0.038102195"
       y="-0.014397957"
       width="1.0566831"
       height="1.0439095">
      <feColorMatrix
         values="1 0 0 0 0 0 1 0 0 0 0 0 1 0 0 -0.21 -0.72 -0.07 2 0 "
         result="color2"
         id="feColorMatrix50790" />
    </filter>
    <filter
       style="color-interpolation-filters:sRGB"
       inkscape:label="Invert"
       id="filter50788"
       x="-0.055072408"
       y="-0.02628033"
       width="1.1105092"
       height="1.0525607">
      <feColorMatrix
         values="1 0 0 0 0 0 1 0 0 0 0 0 1 0 0 -0.21 -0.72 -0.07 2 0 "
         result="color2"
         id="feColorMatrix50786" />
    </filter>
  </defs>
  <g
     inkscape:label="Capa 1"
     inkscape:groupmode="layer"
     id="layer1"
     transform="translate(-10.5448,-145.7299)">
    <path
       id="rect45590"
       style="stroke:#ffffff;stroke-width:1.3;stroke-linecap:round;stroke-linejoin:round;stroke-dashoffset:9.31653"
       d="m 19.2267,146.3799 h 63.2967 c 4.4497,0 8.0319,3.5822 8.0319,8.0319 v 109.1557 c 0,4.4497 -3.5822,8.0319 -8.0319,8.0319 H 19.2267 c -4.4497,0 -8.0319,-3.5822 -8.0319,-8.0319 V 154.4118 c 0,-4.4497 3.5822,-8.0319 8.0319,-8.0319 z" />
    <path
       id="rect45592"
       style="fill:#faaa1b;stroke-width:1.81997;stroke-linecap:round;stroke-linejoin:round;stroke-dashoffset:9.31653"
       d="m 21.0413,150.7564 h 59.6671 c 3.0438,0 5.4943,2.4504 5.4943,5.4942 v 105.4781 c 0,3.0438 -2.4505,5.4943 -5.4943,5.4943 H 21.0413 c -3.0438,0 -5.4942,-2.4505 -5.4942,-5.4943 V 156.2506 c 0,-3.0438 2.4504,-5.4942 5.4942,-5.4942 z" />
    <path
       id="ellipse45594"
       style="fill:none;fill-opacity:0;stroke:#000000;stroke-width:4.90276;stroke-linecap:round;stroke-linejoin:round;stroke-dashoffset:9.31653"
       d="m 76.440941,223.1539 a 29.227528,54.28476 28.987554 0 1 -51.873485,33.32002 29.227528,54.28476 28.987554 0 1 0.741347,-61.64851 29.227528,54.28476 28.987554 0 1 51.873572,-33.31996 29.227528,54.28476 28.987554 0 1 -0.741434,61.64845 z" />
    <g
       aria-label="0"
       transform="matrix(1.1127008,0,-0.06826013,0.89871419,-2218.0425,-1151.4144)"
       id="text45598"
       style="font-size:75.0979px;line-height:1.25;font-family:'Tw Cen MT Condensed Extra Bold';-inkscape-font-specification:'Tw Cen MT Condensed Extra Bold, Normal';stroke:#ffffff;stroke-width:2.573">
      <path
         d="m 2132.1714,1487.3577 q 7.9571,0 12.064,6.5638 4.1436,6.5637 4.1436,19.3245 0,12.4307 -4.2169,19.0311 -4.1803,6.6004 -11.9907,6.6004 -7.4072,0 -11.8074,-6.1603 -4.3636,-6.1971 -4.3636,-19.9846 0,-12.1007 4.2169,-18.7378 4.2169,-6.6371 11.8074,-6.6371 z m -5.5004,25.3016 q 0,15.6943 5.427,15.6943 2.9335,0 4.2169,-3.4469 1.3201,-3.4836 1.3201,-11.0374 0,-8.3238 -1.3201,-12.1007 -1.2834,-3.8136 -4.2902,-3.8136 -5.3537,0 -5.3537,14.7043 z"
         id="path48210" />
    </g>
    <g
       aria-label="0"
       transform="matrix(1.1127008,0,-0.06826013,0.89871419,-2218.0425,-1151.4144)"
       id="text45602"
       style="font-size:24.4557px;line-height:1.25;font-family:'Tw Cen MT Condensed Extra Bold';-inkscape-font-specification:'Tw Cen MT Condensed Extra Bold, Normal';stroke:#ffffff;stroke-width:1.138">
      <path
         d="m 2106.3932,1454.2846 q 2.5913,0 3.9287,2.1375 1.3494,2.1375 1.3494,6.2931 0,4.0481 -1.3733,6.1975 -1.3613,2.1494 -3.9048,2.1494 -2.4121,0 -3.845,-2.0061 -1.4211,-2.0181 -1.4211,-6.508 0,-3.9406 1.3733,-6.102 1.3732,-2.1614 3.8451,-2.1614 z m -1.7912,8.2395 q 0,5.1109 1.7674,5.1109 0.9553,0 1.3732,-1.1225 0.4299,-1.1344 0.4299,-3.5943 0,-2.7107 -0.4299,-3.9406 -0.4179,-1.2419 -1.3971,-1.2419 -1.7435,0 -1.7435,4.7884 z"
         id="path48213" />
    </g>
    <g
       aria-label="0"
       transform="matrix(-1.1127008,0,0.06826013,-0.89871419,-2218.0425,-1151.4144)"
       id="text45606"
       style="font-size:24.4557px;line-height:1.25;font-family:'Tw Cen MT Condensed Extra Bold';-inkscape-font-specification:'Tw Cen MT Condensed Extra Bold, Normal';stroke:#ffffff;stroke-width:1.138">
      <path
         d="m -2157.6353,-1573.3562 q 2.5912,0 3.9286,2.1375 1.3494,2.1374 1.3494,6.293 0,4.0481 -1.3732,6.1975 -1.3613,2.1494 -3.9048,2.1494 -2.4122,0 -3.8451,-2.0061 -1.421,-2.0181 -1.421,-6.508 0,-3.9406 1.3732,-6.102 1.3733,-2.1613 3.8451,-2.1613 z m -1.7912,8.2394 q 0,5.1109 1.7673,5.1109 0.9553,0 1.3732,-1.1225 0.4299,-1.1344 0.4299,-3.5943 0,-2.7107 -0.4299,-3.9406 -0.4179,-1.2419 -1.3971,-1.2419 -1.7434,0 -1.7434,4.7884 z"
         id="path48216" />
    </g>
  </g>
</svg>
