<?xml version="1.0" encoding="UTF-8" standalone="no"?>
<!-- Created with Inkscape (http://www.inkscape.org/) -->

<svg
   width="80.6605mm"
   height="126.5195mm"
   viewBox="0 0 80.660499 126.5195"
   version="1.1"
   id="svg2720"
   inkscape:version="1.1.2 (b8e25be833, 2022-02-05)"
   sodipodi:docname="azul_alt_mas2.svg"
   xmlns:inkscape="http://www.inkscape.org/namespaces/inkscape"
   xmlns:sodipodi="http://sodipodi.sourceforge.net/DTD/sodipodi-0.dtd"
   xmlns="http://www.w3.org/2000/svg"
   xmlns:svg="http://www.w3.org/2000/svg">
  <sodipodi:namedview
     id="namedview2722"
     pagecolor="#ffffff"
     bordercolor="#666666"
     borderopacity="1.0"
     inkscape:pageshadow="2"
     inkscape:pageopacity="0.0"
     inkscape:pagecheckerboard="0"
     inkscape:document-units="mm"
     showgrid="false"
     inkscape:zoom="0.74029882"
     inkscape:cx="287.04625"
     inkscape:cy="262.73174"
     inkscape:window-width="958"
     inkscape:window-height="1008"
     inkscape:window-x="953"
     inkscape:window-y="0"
     inkscape:window-maximized="0"
     inkscape:current-layer="layer1" />
  <defs
     id="defs2717">
    <filter
       style="color-interpolation-filters:sRGB"
       inkscape:label="Invert"
       id="filter50808"
       x="-0.0081904726"
       y="-0.0051908861"
       width="1.0163809"
       height="1.0103818">
      <feColorMatrix
         values="1 0 0 0 0 0 1 0 0 0 0 0 1 0 0 -0.21 -0.72 -0.07 2 0 "
         result="color2"
         id="feColorMatrix50806" />
    </filter>
    <filter
       style="color-interpolation-filters:sRGB"
       inkscape:label="Invert"
       id="filter50804"
       x="0"
       y="0"
       width="1"
       height="1">
      <feColorMatrix
         values="1 0 0 0 0 0 1 0 0 0 0 0 1 0 0 -0.21 -0.72 -0.07 2 0 "
         result="color2"
         id="feColorMatrix50802" />
    </filter>
    <filter
       style="color-interpolation-filters:sRGB"
       inkscape:label="Invert"
       id="filter50800"
       x="-0.033412036"
       y="-0.02489306"
       width="1.0668241"
       height="1.0497861">
      <feColorMatrix
         values="1 0 0 0 0 0 1 0 0 0 0 0 1 0 0 -0.21 -0.72 -0.07 2 0 "
         result="color2"
         id="feColorMatrix50798" />
    </filter>
    <filter
       style="color-interpolation-filters:sRGB"
       inkscape:label="Invert"
       id="filter50796"
       x="-0.055072352"
       y="-0.026280202"
       width="1.110509"
       height="1.0525604">
      <feColorMatrix
         values="1 0 0 0 0 0 1 0 0 0 0 0 1 0 0 -0.21 -0.72 -0.07 2 0 "
         result="color2"
         id="feColorMatrix50794" />
    </filter>
    <filter
       style="color-interpolation-filters:sRGB"
       inkscape:label="Invert"
       id="filter50792"
       x="-0.038102195"
       y="-0.014397957"
       width="1.0566831"
       height="1.0439095">
      <feColorMatrix
         values="1 0 0 0 0 0 1 0 0 0 0 0 1 0 0 -0.21 -0.72 -0.07 2 0 "
         result="color2"
         id="feColorMatrix50790" />
    </filter>
    <filter
       style="color-interpolation-filters:sRGB"
       inkscape:label="Invert"
       id="filter50788"
       x="-0.055072408"
       y="-0.02628033"
       width="1.1105092"
       height="1.0525607">
      <feColorMatrix
         values="1 0 0 0 0 0 1 0 0 0 0 0 1 0 0 -0.21 -0.72 -0.07 2 0 "
         result="color2"
         id="feColorMatrix50786" />
    </filter>
  </defs>
  <g
     inkscape:label="Capa 1"
     inkscape:groupmode="layer"
     id="layer1"
     transform="translate(-19.683,-136.0821)">
    <path
       id="rect45650"
       style="stroke:#ffffff;stroke-width:1.3;stroke-linecap:round;stroke-linejoin:round;stroke-dashoffset:9.31653"
       d="m 28.3648,136.7321 h 63.2968 c 4.4497,0 8.0319,3.5822 8.0319,8.0319 v 109.1557 c 0,4.4497 -3.5822,8.0319 -8.0319,8.0319 H 28.3648 c -4.4496,0 -8.0318,-3.5822 -8.0318,-8.0319 V 144.764 c 0,-4.4497 3.5822,-8.0319 8.0318,-8.0319 z" />
    <path
       id="rect45652"
       style="fill:#faaa1b;stroke-width:1.81997;stroke-linecap:round;stroke-linejoin:round;stroke-dashoffset:9.31653"
       d="m 30.1795,141.1085 h 59.6671 c 3.0438,0 5.4943,2.4504 5.4943,5.4942 v 105.4781 c 0,3.0438 -2.4505,5.4943 -5.4943,5.4943 H 30.1795 c -3.0438,0 -5.4942,-2.4505 -5.4942,-5.4943 V 146.6027 c 0,-3.0438 2.4504,-5.4942 5.4942,-5.4942 z" />
    <path
       id="ellipse45654"
       style="fill:none;fill-opacity:0;stroke:#000000;stroke-width:4.90276;stroke-linecap:round;stroke-linejoin:round;stroke-dashoffset:9.31653"
       d="m 85.578958,213.50578 a 29.227528,54.28476 28.987554 0 1 -51.87348,33.32001 29.227528,54.28476 28.987554 0 1 0.74143,-61.64845 29.227528,54.28476 28.987554 0 1 51.873485,-33.32001 29.227528,54.28476 28.987554 0 1 -0.741435,61.64845 z" />
    <g
       id="g45664"
       transform="translate(-726.261,110.8665)"
       style="stroke:#ffffff;stroke-width:0.9;stroke-miterlimit:4;stroke-dasharray:none;stroke-opacity:1;paint-order:markers fill stroke">
      <g
         aria-label="2"
         transform="matrix(1.1127008,0,-0.06826013,0.89871419,0,0)"
         id="text45658"
         style="font-size:22.5569px;line-height:1.25;font-family:'Tw Cen MT Condensed Extra Bold';-inkscape-font-specification:'Tw Cen MT Condensed Extra Bold, Normal';stroke:#ffffff;stroke-width:0.9;stroke-miterlimit:4;stroke-dasharray:none;stroke-opacity:1;paint-order:markers fill stroke">
        <path
           d="m 693.33071,44.388695 h -3.22714 q 0,-1.652117 0.13217,-2.588316 0.14318,-0.936199 0.57273,-1.652117 0.44057,-0.726931 1.33271,-1.156481 0.90316,-0.440565 2.13674,-0.440565 2.03761,0 3.12801,1.068369 1.09039,1.068369 1.09039,3.083951 0,1.035327 -0.41853,2.235865 -0.41854,1.189524 -1.25561,2.621358 l -1.80632,3.083951 h 2.9628 v 2.995839 h -8.39275 l 4.80215,-8.205513 q 0.88113,-1.475891 0.88113,-2.687443 0,-0.605777 -0.26434,-0.99127 -0.26434,-0.385494 -0.66085,-0.385494 -0.6278,0 -0.82605,0.506649 -0.18724,0.495635 -0.18724,1.971526 z"
           id="path48249"
           style="stroke:#ffffff;stroke-width:0.9;stroke-miterlimit:4;stroke-dasharray:none;stroke-opacity:1;paint-order:markers fill stroke" />
      </g>
      <g
         aria-label="+"
         transform="matrix(1.1127008,0,-0.06826013,0.89871419,0,0)"
         id="text45662"
         style="font-size:14.3052px;line-height:1.25;font-family:'Franklin Gothic Heavy';-inkscape-font-specification:'Franklin Gothic Heavy, Normal';stroke:#ffffff;stroke-width:0.9;stroke-miterlimit:4;stroke-dasharray:none;stroke-opacity:1;paint-order:markers fill stroke">
        <path
           d="m 688.23327,46.151564 v 1.767195 h -2.58444 v 2.682225 h -1.78116 v -2.682225 h -2.58444 v -1.767195 h 2.58444 v -2.682225 h 1.78116 v 2.682225 z"
           id="path48252"
           style="stroke:#ffffff;stroke-width:0.9;stroke-miterlimit:4;stroke-dasharray:none;stroke-opacity:1;paint-order:markers fill stroke" />
      </g>
    </g>
    <g
       id="g45674"
       transform="rotate(180,423.19655,143.71105)"
       style="stroke:#ffffff;stroke-width:0.9;stroke-miterlimit:4;stroke-dasharray:none;stroke-opacity:1;paint-order:markers fill stroke">
      <g
         aria-label="2"
         transform="matrix(1.1127008,0,-0.06826013,0.89871419,0,0)"
         id="text45668"
         style="font-size:22.5569px;line-height:1.25;font-family:'Tw Cen MT Condensed Extra Bold';-inkscape-font-specification:'Tw Cen MT Condensed Extra Bold, Normal';stroke:#ffffff;stroke-width:0.9;stroke-miterlimit:4;stroke-dasharray:none;stroke-opacity:1;paint-order:markers fill stroke">
        <path
           d="m 693.33071,44.388695 h -3.22714 q 0,-1.652117 0.13217,-2.588316 0.14318,-0.936199 0.57273,-1.652117 0.44057,-0.726931 1.33271,-1.156481 0.90316,-0.440565 2.13674,-0.440565 2.03761,0 3.12801,1.068369 1.09039,1.068369 1.09039,3.083951 0,1.035327 -0.41853,2.235865 -0.41854,1.189524 -1.25561,2.621358 l -1.80632,3.083951 h 2.9628 v 2.995839 h -8.39275 l 4.80215,-8.205513 q 0.88113,-1.475891 0.88113,-2.687443 0,-0.605777 -0.26434,-0.99127 -0.26434,-0.385494 -0.66085,-0.385494 -0.6278,0 -0.82605,0.506649 -0.18724,0.495635 -0.18724,1.971526 z"
           id="path48255"
           style="stroke:#ffffff;stroke-width:0.9;stroke-miterlimit:4;stroke-dasharray:none;stroke-opacity:1;paint-order:markers fill stroke" />
      </g>
      <g
         aria-label="+"
         transform="matrix(1.1127008,0,-0.06826013,0.89871419,0,0)"
         id="text45672"
         style="font-size:14.3052px;line-height:1.25;font-family:'Franklin Gothic Heavy';-inkscape-font-specification:'Franklin Gothic Heavy, Normal';stroke:#ffffff;stroke-width:0.9;stroke-miterlimit:4;stroke-dasharray:none;stroke-opacity:1;paint-order:markers fill stroke">
        <path
           d="m 688.23327,46.151564 v 1.767195 h -2.58444 v 2.682225 h -1.78116 v -2.682225 h -2.58444 v -1.767195 h 2.58444 v -2.682225 h 1.78116 v 2.682225 z"
           id="path48258"
           style="stroke:#ffffff;stroke-width:0.9;stroke-miterlimit:4;stroke-dasharray:none;stroke-opacity:1;paint-order:markers fill stroke" />
      </g>
    </g>
    <g
       id="g45734"
       transform="matrix(1.0785142,0,0,1.0785142,-788.8602,105.6427)">
      <path
         id="rect45730"
         style="stroke:#ffffff;stroke-width:1.76281;stroke-linecap:square;stroke-dashoffset:9.31653"
         transform="matrix(1,0,-0.06406288,0.99794586,0,0)"
         d="m 790.68476,65.580688 h 13.62242 c 2.52425,0 4.55641,2.032158 4.55641,4.556406 v 24.807099 c 0,2.524249 -2.03216,4.556406 -4.55641,4.556406 h -13.62242 c -2.52425,0 -4.5564,-2.032157 -4.5564,-4.556406 V 70.137094 c 0,-2.524248 2.03215,-4.556406 4.5564,-4.556406 z" />
      <path
         id="rect45732"
         style="stroke:#ffffff;stroke-width:1.76281;stroke-linecap:square;stroke-dashoffset:9.31653"
         transform="matrix(1,0,-0.06406288,0.99794586,0,0)"
         d="m 781.00056,74.61277 h 13.62242 c 2.52425,0 4.55641,2.032157 4.55641,4.556406 v 24.807094 c 0,2.52425 -2.03216,4.55641 -4.55641,4.55641 h -13.62242 c -2.52425,0 -4.55641,-2.03216 -4.55641,-4.55641 V 79.169176 c 0,-2.524249 2.03216,-4.556406 4.55641,-4.556406 z" />
    </g>
  </g>
</svg>
