<?xml version="1.0" encoding="UTF-8" standalone="no"?>
<!-- Created with Inkscape (http://www.inkscape.org/) -->

<svg
   width="80.6604mm"
   height="126.5194mm"
   viewBox="0 0 80.6604 126.5194"
   version="1.1"
   id="svg2720"
   inkscape:version="1.1.2 (b8e25be833, 2022-02-05)"
   sodipodi:docname="azul_alt_4.svg"
   xmlns:inkscape="http://www.inkscape.org/namespaces/inkscape"
   xmlns:sodipodi="http://sodipodi.sourceforge.net/DTD/sodipodi-0.dtd"
   xmlns="http://www.w3.org/2000/svg"
   xmlns:svg="http://www.w3.org/2000/svg">
  <sodipodi:namedview
     id="namedview2722"
     pagecolor="#ffffff"
     bordercolor="#666666"
     borderopacity="1.0"
     inkscape:pageshadow="2"
     inkscape:pageopacity="0.0"
     inkscape:pagecheckerboard="0"
     inkscape:document-units="mm"
     showgrid="false"
     inkscape:zoom="0.74029882"
     inkscape:cx="392.40911"
     inkscape:cy="277.59061"
     inkscape:window-width="958"
     inkscape:window-height="1008"
     inkscape:window-x="953"
     inkscape:window-y="0"
     inkscape:window-maximized="0"
     inkscape:current-layer="layer1" />
  <defs
     id="defs2717">
    <filter
       style="color-interpolation-filters:sRGB"
       inkscape:label="Invert"
       id="filter50808"
       x="-0.0081904726"
       y="-0.0051908861"
       width="1.0163809"
       height="1.0103818">
      <feColorMatrix
         values="1 0 0 0 0 0 1 0 0 0 0 0 1 0 0 -0.21 -0.72 -0.07 2 0 "
         result="color2"
         id="feColorMatrix50806" />
    </filter>
    <filter
       style="color-interpolation-filters:sRGB"
       inkscape:label="Invert"
       id="filter50804"
       x="0"
       y="0"
       width="1"
       height="1">
      <feColorMatrix
         values="1 0 0 0 0 0 1 0 0 0 0 0 1 0 0 -0.21 -0.72 -0.07 2 0 "
         result="color2"
         id="feColorMatrix50802" />
    </filter>
    <filter
       style="color-interpolation-filters:sRGB"
       inkscape:label="Invert"
       id="filter50800"
       x="-0.033412036"
       y="-0.02489306"
       width="1.0668241"
       height="1.0497861">
      <feColorMatrix
         values="1 0 0 0 0 0 1 0 0 0 0 0 1 0 0 -0.21 -0.72 -0.07 2 0 "
         result="color2"
         id="feColorMatrix50798" />
    </filter>
    <filter
       style="color-interpolation-filters:sRGB"
       inkscape:label="Invert"
       id="filter50796"
       x="-0.055072352"
       y="-0.026280202"
       width="1.110509"
       height="1.0525604">
      <feColorMatrix
         values="1 0 0 0 0 0 1 0 0 0 0 0 1 0 0 -0.21 -0.72 -0.07 2 0 "
         result="color2"
         id="feColorMatrix50794" />
    </filter>
    <filter
       style="color-interpolation-filters:sRGB"
       inkscape:label="Invert"
       id="filter50792"
       x="-0.038102195"
       y="-0.014397957"
       width="1.0566831"
       height="1.0439095">
      <feColorMatrix
         values="1 0 0 0 0 0 1 0 0 0 0 0 1 0 0 -0.21 -0.72 -0.07 2 0 "
         result="color2"
         id="feColorMatrix50790" />
    </filter>
    <filter
       style="color-interpolation-filters:sRGB"
       inkscape:label="Invert"
       id="filter50788"
       x="-0.055072408"
       y="-0.02628033"
       width="1.1105092"
       height="1.0525607">
      <feColorMatrix
         values="1 0 0 0 0 0 1 0 0 0 0 0 1 0 0 -0.21 -0.72 -0.07 2 0 "
         result="color2"
         id="feColorMatrix50786" />
    </filter>
  </defs>
  <g
     inkscape:label="Capa 1"
     inkscape:groupmode="layer"
     id="layer1"
     transform="translate(8.5304,-132.1495)">
    <path
       id="rect45572"
       style="stroke:#ffffff;stroke-width:1.3;stroke-linecap:round;stroke-linejoin:round;stroke-dashoffset:9.31653"
       d="m 0.1514,132.7995 h 63.2968 c 4.4496,0 8.0318,3.5822 8.0318,8.0318 v 109.1558 c 0,4.4496 -3.5822,8.0318 -8.0318,8.0318 H 0.1514 c -4.4496,0 -8.0318,-3.5822 -8.0318,-8.0318 V 140.8313 c 0,-4.4496 3.5822,-8.0318 8.0318,-8.0318 z" />
    <path
       id="rect45574"
       style="fill:#faaa1b;stroke-width:1.81997;stroke-linecap:round;stroke-linejoin:round;stroke-dashoffset:9.31653"
       d="m 1.9663,137.1759 h 59.6671 c 3.0438,0 5.4943,2.4505 5.4943,5.4943 v 105.4781 c 0,3.0438 -2.4505,5.4942 -5.4943,5.4942 H 1.9663 c -3.0438,0 -5.4942,-2.4504 -5.4942,-5.4942 V 142.6702 c 0,-3.0438 2.4504,-5.4943 5.4942,-5.4943 z" />
    <path
       id="ellipse45576"
       style="fill:none;fill-opacity:0;stroke:#000000;stroke-width:4.90276;stroke-linecap:round;stroke-linejoin:round;stroke-dashoffset:9.31653"
       d="M 57.365677,209.57331 A 29.227528,54.28476 28.987554 0 1 5.4921046,242.89328 29.227528,54.28476 28.987554 0 1 6.2335395,181.24482 29.227528,54.28476 28.987554 0 1 58.107026,147.9248 29.227528,54.28476 28.987554 0 1 57.365677,209.57331 Z" />
    <g
       aria-label="4"
       transform="matrix(1.1127008,0,-0.06826013,0.89871419,-2583.1346,-1166.0532)"
       id="text45580"
       style="font-size:75.0979px;line-height:1.25;font-family:'Tw Cen MT Condensed Extra Bold';-inkscape-font-specification:'Tw Cen MT Condensed Extra Bold, Normal';stroke:#ffffff;stroke-width:2.573">
      <path
         d="m 2443.1405,1489.8188 h 11.404 v 30.3251 h 3.8136 v 8.8739 h -3.8136 v 9.7539 h -10.1573 v -9.7539 h -15.6942 v -7.9571 z m 1.1001,14.7775 -7.1138,15.5476 h 7.2604 v -15.5476 z"
         id="path48198" />
    </g>
    <g
       aria-label="4"
       transform="matrix(1.1127008,0,-0.06826013,0.89871419,-2583.1346,-1166.0532)"
       id="text45584"
       style="font-size:24.4557px;line-height:1.25;font-family:'Tw Cen MT Condensed Extra Bold';-inkscape-font-specification:'Tw Cen MT Condensed Extra Bold, Normal';stroke:#ffffff;stroke-width:1.138">
      <path
         d="m 2417.4121,1455.8802 h 3.7137 v 9.8754 h 1.2419 v 2.8898 h -1.2419 v 3.1764 h -3.3077 v -3.1764 h -5.1109 v -2.5913 z m 0.3582,4.8123 -2.3166,5.0631 h 2.3644 v -5.0631 z"
         id="path48201" />
    </g>
    <g
       aria-label="4"
       transform="matrix(-1.1127008,0,0.06826013,-0.89871419,-2583.1346,-1166.0532)"
       id="text45588"
       style="font-size:24.4557px;line-height:1.25;font-family:'Tw Cen MT Condensed Extra Bold';-inkscape-font-specification:'Tw Cen MT Condensed Extra Bold, Normal';stroke:#ffffff;stroke-width:1.138">
      <path
         d="m -2468.7019,-1574.1159 h 3.7137 v 9.8754 h 1.2419 v 2.8898 h -1.2419 v 3.1764 h -3.3077 v -3.1764 h -5.1109 v -2.5912 z m 0.3582,4.8123 -2.3166,5.0631 h 2.3644 v -5.0631 z"
         id="path48204" />
    </g>
  </g>
</svg>
