<?xml version="1.0" encoding="UTF-8" standalone="no"?>
<!-- Created with Inkscape (http://www.inkscape.org/) -->

<svg
   width="80.6605mm"
   height="126.5195mm"
   viewBox="0 0 80.660499 126.5195"
   version="1.1"
   id="svg2720"
   inkscape:version="1.1.2 (b8e25be833, 2022-02-05)"
   sodipodi:docname="azul_alt_5.svg"
   xmlns:inkscape="http://www.inkscape.org/namespaces/inkscape"
   xmlns:sodipodi="http://sodipodi.sourceforge.net/DTD/sodipodi-0.dtd"
   xmlns="http://www.w3.org/2000/svg"
   xmlns:svg="http://www.w3.org/2000/svg">
  <sodipodi:namedview
     id="namedview2722"
     pagecolor="#ffffff"
     bordercolor="#666666"
     borderopacity="1.0"
     inkscape:pageshadow="2"
     inkscape:pageopacity="0.0"
     inkscape:pagecheckerboard="0"
     inkscape:document-units="mm"
     showgrid="false"
     inkscape:zoom="0.74029882"
     inkscape:cx="347.83251"
     inkscape:cy="312.71156"
     inkscape:window-width="958"
     inkscape:window-height="1008"
     inkscape:window-x="953"
     inkscape:window-y="0"
     inkscape:window-maximized="0"
     inkscape:current-layer="layer1" />
  <defs
     id="defs2717">
    <filter
       style="color-interpolation-filters:sRGB"
       inkscape:label="Invert"
       id="filter50808"
       x="-0.0081904726"
       y="-0.0051908861"
       width="1.0163809"
       height="1.0103818">
      <feColorMatrix
         values="1 0 0 0 0 0 1 0 0 0 0 0 1 0 0 -0.21 -0.72 -0.07 2 0 "
         result="color2"
         id="feColorMatrix50806" />
    </filter>
    <filter
       style="color-interpolation-filters:sRGB"
       inkscape:label="Invert"
       id="filter50804"
       x="0"
       y="0"
       width="1"
       height="1">
      <feColorMatrix
         values="1 0 0 0 0 0 1 0 0 0 0 0 1 0 0 -0.21 -0.72 -0.07 2 0 "
         result="color2"
         id="feColorMatrix50802" />
    </filter>
    <filter
       style="color-interpolation-filters:sRGB"
       inkscape:label="Invert"
       id="filter50800"
       x="-0.033412036"
       y="-0.02489306"
       width="1.0668241"
       height="1.0497861">
      <feColorMatrix
         values="1 0 0 0 0 0 1 0 0 0 0 0 1 0 0 -0.21 -0.72 -0.07 2 0 "
         result="color2"
         id="feColorMatrix50798" />
    </filter>
    <filter
       style="color-interpolation-filters:sRGB"
       inkscape:label="Invert"
       id="filter50796"
       x="-0.055072352"
       y="-0.026280202"
       width="1.110509"
       height="1.0525604">
      <feColorMatrix
         values="1 0 0 0 0 0 1 0 0 0 0 0 1 0 0 -0.21 -0.72 -0.07 2 0 "
         result="color2"
         id="feColorMatrix50794" />
    </filter>
    <filter
       style="color-interpolation-filters:sRGB"
       inkscape:label="Invert"
       id="filter50792"
       x="-0.038102195"
       y="-0.014397957"
       width="1.0566831"
       height="1.0439095">
      <feColorMatrix
         values="1 0 0 0 0 0 1 0 0 0 0 0 1 0 0 -0.21 -0.72 -0.07 2 0 "
         result="color2"
         id="feColorMatrix50790" />
    </filter>
    <filter
       style="color-interpolation-filters:sRGB"
       inkscape:label="Invert"
       id="filter50788"
       x="-0.055072408"
       y="-0.02628033"
       width="1.1105092"
       height="1.0525607">
      <feColorMatrix
         values="1 0 0 0 0 0 1 0 0 0 0 0 1 0 0 -0.21 -0.72 -0.07 2 0 "
         result="color2"
         id="feColorMatrix50786" />
    </filter>
  </defs>
  <g
     inkscape:label="Capa 1"
     inkscape:groupmode="layer"
     id="layer1"
     transform="translate(-3.3199,-122.8573)">
    <path
       id="rect45500"
       style="stroke:#ffffff;stroke-width:1.3;stroke-linecap:round;stroke-linejoin:round;stroke-dashoffset:9.31653"
       d="m 12.0018,123.5073 h 63.2967 c 4.4497,0 8.0319,3.5822 8.0319,8.0318 v 109.1558 c 0,4.4496 -3.5822,8.0319 -8.0319,8.0319 H 12.0018 c -4.4497,0 -8.0319,-3.5823 -8.0319,-8.0319 V 131.5391 c 0,-4.4496 3.5822,-8.0318 8.0319,-8.0318 z" />
    <path
       id="rect45502"
       style="fill:#faaa1b;stroke-width:1.81997;stroke-linecap:round;stroke-linejoin:round;stroke-dashoffset:9.31653"
       d="m 13.8167,127.8836 h 59.6671 c 3.0438,0 5.4942,2.4505 5.4942,5.4943 V 238.856 c 0,3.0438 -2.4504,5.4942 -5.4942,5.4942 H 13.8167 c -3.0438,0 -5.4943,-2.4504 -5.4943,-5.4942 V 133.3779 c 0,-3.0438 2.4505,-5.4943 5.4943,-5.4943 z" />
    <path
       id="ellipse45504"
       style="fill:none;fill-opacity:0;stroke:#000000;stroke-width:4.90276;stroke-linecap:round;stroke-linejoin:round;stroke-dashoffset:9.31653"
       d="M 69.216014,200.28105 A 29.227528,54.28476 28.987554 0 1 17.34253,233.60107 29.227528,54.28476 28.987554 0 1 18.083964,171.95262 29.227528,54.28476 28.987554 0 1 69.957449,138.6326 29.227528,54.28476 28.987554 0 1 69.216014,200.28105 Z" />
    <g
       aria-label="5"
       transform="matrix(1.1127008,0,-0.06826013,0.89871419,-2656.9947,-1175.3455)"
       id="text45508"
       style="font-size:75.0979px;line-height:1.25;font-family:'Tw Cen MT Condensed Extra Bold';-inkscape-font-specification:'Tw Cen MT Condensed Extra Bold, Normal';stroke:#ffffff;stroke-width:2.573">
      <path
         d="m 2512.1393,1489.7454 h 20.7913 l -0.22,9.8273 h -12.6141 l -1.0634,7.4438 q 7.0404,0.22 10.744,4.4002 3.7402,4.1436 3.7402,11.3674 0,7.9205 -4.3636,12.6141 -4.3636,4.6569 -11.7707,4.6569 -4.1436,0 -10.8174,-2.2001 l 1.4301,-9.3872 q 5.317,2.1268 7.9572,2.1268 3.3002,0 5.097,-2.1635 1.7967,-2.1635 1.7967,-6.197 0,-3.4469 -2.3834,-5.317 -2.3469,-1.8701 -6.7471,-1.8701 -1.9801,0 -5.1337,0.66 z"
         id="path48150" />
    </g>
    <g
       aria-label="5"
       transform="matrix(1.1127008,0,-0.06826013,0.89871419,-2656.9947,-1175.3455)"
       id="text45512"
       style="font-size:24.4557px;line-height:1.25;font-family:'Tw Cen MT Condensed Extra Bold';-inkscape-font-specification:'Tw Cen MT Condensed Extra Bold, Normal';stroke:#ffffff;stroke-width:1.138">
      <path
         d="m 2491.8262,1455.8563 h 6.7707 l -0.072,3.2003 h -4.1078 l -0.3463,2.424 q 2.2927,0.072 3.4988,1.433 1.218,1.3494 1.218,3.7018 0,2.5793 -1.421,4.1078 -1.421,1.5165 -3.8332,1.5165 -1.3493,0 -3.5226,-0.7165 l 0.4657,-3.0569 q 1.7315,0.6926 2.5912,0.6926 1.0747,0 1.6599,-0.7046 0.5851,-0.7045 0.5851,-2.018 0,-1.1225 -0.7762,-1.7315 -0.7642,-0.609 -2.1972,-0.609 -0.6448,0 -1.6718,0.2149 z"
         id="path48153" />
    </g>
    <g
       aria-label="5"
       transform="matrix(-1.1127008,0,0.06826013,-0.89871419,-2656.9947,-1175.3455)"
       id="text45516"
       style="font-size:24.4557px;line-height:1.25;font-family:'Tw Cen MT Condensed Extra Bold';-inkscape-font-specification:'Tw Cen MT Condensed Extra Bold, Normal';stroke:#ffffff;stroke-width:1.138">
      <path
         d="m -2548.3461,-1574.1399 h 6.7707 l -0.072,3.2003 h -4.1078 l -0.3463,2.424 q 2.2928,0.072 3.4988,1.433 1.218,1.3493 1.218,3.7018 0,2.5793 -1.421,4.1078 -1.421,1.5165 -3.8331,1.5165 -1.3494,0 -3.5227,-0.7165 l 0.4657,-3.0569 q 1.7315,0.6926 2.5913,0.6926 1.0747,0 1.6598,-0.7046 0.5851,-0.7045 0.5851,-2.018 0,-1.1225 -0.7762,-1.7315 -0.7642,-0.609 -2.1971,-0.609 -0.6449,0 -1.6718,0.2149 z"
         id="path48156" />
    </g>
  </g>
</svg>
