<?xml version="1.0" encoding="UTF-8" standalone="no"?>
<!-- Created with Inkscape (http://www.inkscape.org/) -->

<svg
   width="80.6605mm"
   height="126.5194mm"
   viewBox="0 0 80.660499 126.5194"
   version="1.1"
   id="svg2720"
   inkscape:version="1.1.2 (b8e25be833, 2022-02-05)"
   sodipodi:docname="azul_alt_x2.svg"
   xmlns:inkscape="http://www.inkscape.org/namespaces/inkscape"
   xmlns:sodipodi="http://sodipodi.sourceforge.net/DTD/sodipodi-0.dtd"
   xmlns="http://www.w3.org/2000/svg"
   xmlns:svg="http://www.w3.org/2000/svg">
  <sodipodi:namedview
     id="namedview2722"
     pagecolor="#ffffff"
     bordercolor="#666666"
     borderopacity="1.0"
     inkscape:pageshadow="2"
     inkscape:pageopacity="0.0"
     inkscape:pagecheckerboard="0"
     inkscape:document-units="mm"
     showgrid="false"
     inkscape:zoom="0.74029882"
     inkscape:cx="174.92936"
     inkscape:cy="168.17533"
     inkscape:window-width="958"
     inkscape:window-height="1008"
     inkscape:window-x="953"
     inkscape:window-y="0"
     inkscape:window-maximized="0"
     inkscape:current-layer="layer1" />
  <defs
     id="defs2717">
    <filter
       style="color-interpolation-filters:sRGB"
       inkscape:label="Invert"
       id="filter50808"
       x="-0.0081904726"
       y="-0.0051908861"
       width="1.0163809"
       height="1.0103818">
      <feColorMatrix
         values="1 0 0 0 0 0 1 0 0 0 0 0 1 0 0 -0.21 -0.72 -0.07 2 0 "
         result="color2"
         id="feColorMatrix50806" />
    </filter>
    <filter
       style="color-interpolation-filters:sRGB"
       inkscape:label="Invert"
       id="filter50804"
       x="0"
       y="0"
       width="1"
       height="1">
      <feColorMatrix
         values="1 0 0 0 0 0 1 0 0 0 0 0 1 0 0 -0.21 -0.72 -0.07 2 0 "
         result="color2"
         id="feColorMatrix50802" />
    </filter>
    <filter
       style="color-interpolation-filters:sRGB"
       inkscape:label="Invert"
       id="filter50800"
       x="-0.033412036"
       y="-0.02489306"
       width="1.0668241"
       height="1.0497861">
      <feColorMatrix
         values="1 0 0 0 0 0 1 0 0 0 0 0 1 0 0 -0.21 -0.72 -0.07 2 0 "
         result="color2"
         id="feColorMatrix50798" />
    </filter>
    <filter
       style="color-interpolation-filters:sRGB"
       inkscape:label="Invert"
       id="filter50796"
       x="-0.055072352"
       y="-0.026280202"
       width="1.110509"
       height="1.0525604">
      <feColorMatrix
         values="1 0 0 0 0 0 1 0 0 0 0 0 1 0 0 -0.21 -0.72 -0.07 2 0 "
         result="color2"
         id="feColorMatrix50794" />
    </filter>
    <filter
       style="color-interpolation-filters:sRGB"
       inkscape:label="Invert"
       id="filter50792"
       x="-0.038102195"
       y="-0.014397957"
       width="1.0566831"
       height="1.0439095">
      <feColorMatrix
         values="1 0 0 0 0 0 1 0 0 0 0 0 1 0 0 -0.21 -0.72 -0.07 2 0 "
         result="color2"
         id="feColorMatrix50790" />
    </filter>
    <filter
       style="color-interpolation-filters:sRGB"
       inkscape:label="Invert"
       id="filter50788"
       x="-0.055072408"
       y="-0.02628033"
       width="1.1105092"
       height="1.0525607">
      <feColorMatrix
         values="1 0 0 0 0 0 1 0 0 0 0 0 1 0 0 -0.21 -0.72 -0.07 2 0 "
         result="color2"
         id="feColorMatrix50786" />
    </filter>
    <filter
       style="color-interpolation-filters:sRGB"
       inkscape:label="Invert"
       id="filter50736"
       x="-0.0081904726"
       y="-0.0051908847"
       width="1.0163809"
       height="1.0103818">
      <feColorMatrix
         values="1 0 0 0 0 0 1 0 0 0 0 0 1 0 0 -0.21 -0.72 -0.07 2 0 "
         result="color2"
         id="feColorMatrix50734" />
    </filter>
    <filter
       style="color-interpolation-filters:sRGB"
       inkscape:label="Invert"
       id="filter50732"
       x="0"
       y="0"
       width="1"
       height="1">
      <feColorMatrix
         values="1 0 0 0 0 0 1 0 0 0 0 0 1 0 0 -0.21 -0.72 -0.07 2 0 "
         result="color2"
         id="feColorMatrix50730" />
    </filter>
    <filter
       style="color-interpolation-filters:sRGB"
       inkscape:label="Invert"
       id="filter50728"
       x="-0.033412069"
       y="-0.024893068"
       width="1.0668241"
       height="1.0497861">
      <feColorMatrix
         values="1 0 0 0 0 0 1 0 0 0 0 0 1 0 0 -0.21 -0.72 -0.07 2 0 "
         result="color2"
         id="feColorMatrix50726" />
    </filter>
    <filter
       style="color-interpolation-filters:sRGB"
       inkscape:label="Invert"
       id="filter50724"
       x="-0.05507182"
       y="-0.02628017"
       width="1.1105084"
       height="1.0525603">
      <feColorMatrix
         values="1 0 0 0 0 0 1 0 0 0 0 0 1 0 0 -0.21 -0.72 -0.07 2 0 "
         result="color2"
         id="feColorMatrix50722" />
    </filter>
    <filter
       style="color-interpolation-filters:sRGB"
       inkscape:label="Invert"
       id="filter50720"
       x="-0.038102195"
       y="-0.014397957"
       width="1.0566831"
       height="1.0439095">
      <feColorMatrix
         values="1 0 0 0 0 0 1 0 0 0 0 0 1 0 0 -0.21 -0.72 -0.07 2 0 "
         result="color2"
         id="feColorMatrix50718" />
    </filter>
    <filter
       style="color-interpolation-filters:sRGB"
       inkscape:label="Invert"
       id="filter50716"
       x="-0.05507182"
       y="-0.02628017"
       width="1.1105082"
       height="1.0525603">
      <feColorMatrix
         values="1 0 0 0 0 0 1 0 0 0 0 0 1 0 0 -0.21 -0.72 -0.07 2 0 "
         result="color2"
         id="feColorMatrix50714" />
    </filter>
  </defs>
  <g
     inkscape:label="Capa 1"
     inkscape:groupmode="layer"
     id="layer1"
     transform="translate(-49.6274,-161.1013)">
    <path
       id="rect45784"
       style="stroke:#ffffff;stroke-width:1.3;stroke-linecap:round;stroke-linejoin:round;stroke-dashoffset:9.31653"
       d="m 58.3093,161.7513 h 63.2968 c 4.4496,0 8.0318,3.5822 8.0318,8.0318 v 109.1558 c 0,4.4496 -3.5822,8.0318 -8.0318,8.0318 H 58.3093 c -4.4497,0 -8.0319,-3.5822 -8.0319,-8.0318 V 169.7831 c 0,-4.4496 3.5822,-8.0318 8.0319,-8.0318 z" />
    <path
       id="rect45786"
       style="fill:#faaa1b;stroke-width:1.81997;stroke-linecap:round;stroke-linejoin:round;stroke-dashoffset:9.31653"
       d="m 60.124,166.1276 h 59.6671 c 3.0438,0 5.4942,2.4505 5.4942,5.4943 V 277.1 c 0,3.0438 -2.4504,5.4942 -5.4942,5.4942 H 60.124 c -3.0438,0 -5.4943,-2.4504 -5.4943,-5.4942 V 171.6219 c 0,-3.0438 2.4505,-5.4943 5.4943,-5.4943 z" />
    <path
       id="ellipse45788"
       style="fill:none;fill-opacity:0;stroke:#000000;stroke-width:4.90276;stroke-linecap:round;stroke-linejoin:round;stroke-dashoffset:9.31653"
       d="m 115.52304,238.52485 a 29.227528,54.28476 28.987554 0 1 -51.873485,33.32001 29.227528,54.28476 28.987554 0 1 0.741348,-61.6485 29.227528,54.28476 28.987554 0 1 51.873567,-33.31997 29.227528,54.28476 28.987554 0 1 -0.74143,61.64846 z" />
    <path
       id="rect45790"
       style="stroke:#ffffff;stroke-width:2.18919;stroke-linecap:square;stroke-dashoffset:9.31653"
       d="m 82.002575,203.29551 h 16.9347 c 3.137995,0 5.502355,2.52111 5.301325,5.65267 l -1.97563,30.77555 c -0.20102,3.13155 -2.889061,5.65256 -6.027061,5.65256 h -16.9347 c -3.138,0 -5.502464,-2.52101 -5.301435,-5.65256 l 1.975629,-30.77555 c 0.20103,-3.13156 2.889172,-5.65267 6.027172,-5.65267 z" />
    <g
       id="g45802"
       transform="translate(-692.9404,129.1461)"
       style="stroke:#ffffff;stroke-width:0.8;stroke-miterlimit:4;stroke-dasharray:none;stroke-opacity:1;paint-order:markers fill stroke">
      <g
         id="g45800"
         transform="matrix(0.91649407,0,0,1.0036017,62.70768,0.36857226)"
         style="stroke:#ffffff;stroke-width:0.834151;stroke-miterlimit:4;stroke-dasharray:none;stroke-opacity:1;paint-order:markers fill stroke">
        <g
           aria-label="2"
           transform="matrix(1.1127008,0,-0.06826013,0.89871419,0,0)"
           id="text45794"
           style="font-size:22.5569px;line-height:1.25;font-family:'Tw Cen MT Condensed Extra Bold';-inkscape-font-specification:'Tw Cen MT Condensed Extra Bold, Normal';stroke:#ffffff;stroke-width:0.834151;stroke-miterlimit:4;stroke-dasharray:none;stroke-opacity:1;paint-order:markers fill stroke">
          <path
             d="m 691.42006,49.850224 h -3.22713 q 0,-1.652117 0.13217,-2.588316 0.14318,-0.9362 0.57273,-1.652117 0.44056,-0.726931 1.33271,-1.156482 0.90315,-0.440564 2.13673,-0.440564 2.03761,0 3.12801,1.068369 1.0904,1.068369 1.0904,3.083951 0,1.035326 -0.41854,2.235865 -0.41853,1.189524 -1.25561,2.621358 l -1.80631,3.083951 h 2.9628 v 2.995838 h -8.39276 l 4.80216,-8.205512 q 0.88112,-1.475891 0.88112,-2.687444 0,-0.605776 -0.26433,-0.99127 -0.26434,-0.385494 -0.66085,-0.385494 -0.62781,0 -0.82606,0.50665 -0.18724,0.495635 -0.18724,1.971526 z"
             id="path48306"
             style="stroke:#ffffff;stroke-width:0.834151;stroke-miterlimit:4;stroke-dasharray:none;stroke-opacity:1;paint-order:markers fill stroke" />
        </g>
        <g
           aria-label="x"
           transform="matrix(1.0577462,0,-0.16956392,0.94540637,0,0)"
           id="text45798"
           style="font-size:13.7398px;line-height:1.25;font-family:'Franklin Gothic Heavy';-inkscape-font-specification:'Franklin Gothic Heavy, Normal';stroke:#ffffff;stroke-width:0.834151;stroke-miterlimit:4;stroke-dasharray:none;stroke-opacity:1;paint-order:markers fill stroke">
          <path
             d="m 726.75699,53.384506 h -3.019 l -1.25456,-2.173679 -1.33507,2.173679 h -2.17368 l 2.39507,-3.61609 -2.09988,-3.206848 h 2.97875 l 0.70443,1.274689 q 0.047,0.08721 0.11405,0.201266 0.0335,0.05367 0.0939,0.174431 0.0738,-0.114051 0.18114,-0.308608 0.0134,-0.03354 0.0738,-0.140887 l 0.69773,-1.200891 h 2.20722 l -1.99925,3.099506 z"
             id="path48309"
             style="stroke:#ffffff;stroke-width:0.834151;stroke-miterlimit:4;stroke-dasharray:none;stroke-opacity:1;paint-order:markers fill stroke" />
        </g>
      </g>
    </g>
    <g
       id="g45814"
       transform="rotate(180,436.14795,158.75656)"
       style="stroke:#ffffff;stroke-width:0.8;stroke-miterlimit:4;stroke-dasharray:none;stroke-opacity:1;paint-order:markers fill stroke">
      <g
         id="g45812"
         transform="matrix(0.91649407,0,0,1.0036017,62.70768,0.36857226)"
         style="stroke:#ffffff;stroke-width:0.834151;stroke-miterlimit:4;stroke-dasharray:none;stroke-opacity:1;paint-order:markers fill stroke">
        <g
           aria-label="2"
           transform="matrix(1.1127008,0,-0.06826013,0.89871419,0,0)"
           id="text45806"
           style="font-size:22.5569px;line-height:1.25;font-family:'Tw Cen MT Condensed Extra Bold';-inkscape-font-specification:'Tw Cen MT Condensed Extra Bold, Normal';stroke:#ffffff;stroke-width:0.834151;stroke-miterlimit:4;stroke-dasharray:none;stroke-opacity:1;paint-order:markers fill stroke">
          <path
             d="m 691.42006,49.850224 h -3.22713 q 0,-1.652117 0.13217,-2.588316 0.14318,-0.9362 0.57273,-1.652117 0.44056,-0.726931 1.33271,-1.156482 0.90315,-0.440564 2.13673,-0.440564 2.03761,0 3.12801,1.068369 1.0904,1.068369 1.0904,3.083951 0,1.035326 -0.41854,2.235865 -0.41853,1.189524 -1.25561,2.621358 l -1.80631,3.083951 h 2.9628 v 2.995838 h -8.39276 l 4.80216,-8.205512 q 0.88112,-1.475891 0.88112,-2.687444 0,-0.605776 -0.26433,-0.99127 -0.26434,-0.385494 -0.66085,-0.385494 -0.62781,0 -0.82606,0.50665 -0.18724,0.495635 -0.18724,1.971526 z"
             id="path48312"
             style="stroke:#ffffff;stroke-width:0.834151;stroke-miterlimit:4;stroke-dasharray:none;stroke-opacity:1;paint-order:markers fill stroke" />
        </g>
        <g
           aria-label="x"
           transform="matrix(1.0577462,0,-0.16956392,0.94540637,0,0)"
           id="text45810"
           style="font-size:13.7398px;line-height:1.25;font-family:'Franklin Gothic Heavy';-inkscape-font-specification:'Franklin Gothic Heavy, Normal';stroke:#ffffff;stroke-width:0.834151;stroke-miterlimit:4;stroke-dasharray:none;stroke-opacity:1;paint-order:markers fill stroke">
          <path
             d="m 726.75699,53.384506 h -3.019 l -1.25456,-2.173679 -1.33507,2.173679 h -2.17368 l 2.39507,-3.61609 -2.09988,-3.206848 h 2.97875 l 0.70443,1.274689 q 0.047,0.08721 0.11405,0.201266 0.0335,0.05367 0.0939,0.174431 0.0738,-0.114051 0.18114,-0.308608 0.0134,-0.03354 0.0738,-0.140887 l 0.69773,-1.200891 h 2.20722 l -1.99925,3.099506 z"
             id="path48315"
             style="stroke:#ffffff;stroke-width:0.834151;stroke-miterlimit:4;stroke-dasharray:none;stroke-opacity:1;paint-order:markers fill stroke" />
        </g>
      </g>
    </g>
    <g
       aria-label="x2"
       transform="matrix(1.0729137,0,-0.06581934,0.93204142,-3487.9003,-1139.2182)"
       id="text45818"
       style="font-size:21.7182px;line-height:1.25;font-family:'Tw Cen MT Condensed Extra Bold';-inkscape-font-specification:'Tw Cen MT Condensed Extra Bold, Normal';fill:#ffffff;stroke:#ffffff;stroke-width:0.544;paint-order:markers fill stroke">
      <path
         d="m 3413.684,1460.3254 h 3.5207 q 1.1878,2.5345 1.3044,3.1284 h 0.042 q 0.1697,-0.8166 1.3256,-3.1284 h 3.5419 l -3.1283,4.91 3.1495,4.8463 h -3.4571 q -1.0286,-2.1952 -1.4316,-3.2556 h -0.042 q -0.042,0.3711 -0.6151,1.6012 l -0.7741,1.6544 h -3.4041 l 3.0754,-4.8039 z"
         id="path48318" />
      <path
         d="m 3428.0957,1461.1738 h -3.1072 q 0,-1.5907 0.1273,-2.4921 0.1378,-0.9014 0.5514,-1.5907 0.4242,-0.6999 1.2832,-1.1134 0.8695,-0.4242 2.0572,-0.4242 1.9619,0 3.0118,1.0286 1.0498,1.0287 1.0498,2.9693 0,0.9968 -0.403,2.1527 -0.4029,1.1453 -1.2089,2.5239 l -1.7391,2.9693 h 2.8526 v 2.8845 h -8.0807 l 4.6236,-7.9005 q 0.8484,-1.421 0.8484,-2.5875 0,-0.5832 -0.2545,-0.9544 -0.2546,-0.3711 -0.6363,-0.3711 -0.6045,0 -0.7954,0.4878 -0.1802,0.4772 -0.1802,1.8982 z"
         id="path48320" />
    </g>
  </g>
</svg>
