<?xml version="1.0" encoding="UTF-8" standalone="no"?>
<!-- Created with Inkscape (http://www.inkscape.org/) -->

<svg
   width="80.6605mm"
   height="126.5195mm"
   viewBox="0 0 80.660499 126.5195"
   version="1.1"
   id="svg2720"
   inkscape:version="1.1.2 (b8e25be833, 2022-02-05)"
   sodipodi:docname="azul_alt_8.svg"
   xmlns:inkscape="http://www.inkscape.org/namespaces/inkscape"
   xmlns:sodipodi="http://sodipodi.sourceforge.net/DTD/sodipodi-0.dtd"
   xmlns="http://www.w3.org/2000/svg"
   xmlns:svg="http://www.w3.org/2000/svg">
  <sodipodi:namedview
     id="namedview2722"
     pagecolor="#ffffff"
     bordercolor="#666666"
     borderopacity="1.0"
     inkscape:pageshadow="2"
     inkscape:pageopacity="0.0"
     inkscape:pagecheckerboard="0"
     inkscape:document-units="mm"
     showgrid="false"
     inkscape:zoom="0.74029882"
     inkscape:cx="346.48171"
     inkscape:cy="284.34464"
     inkscape:window-width="958"
     inkscape:window-height="1008"
     inkscape:window-x="953"
     inkscape:window-y="0"
     inkscape:window-maximized="0"
     inkscape:current-layer="layer1" />
  <defs
     id="defs2717">
    <filter
       style="color-interpolation-filters:sRGB"
       inkscape:label="Invert"
       id="filter50808"
       x="-0.0081904726"
       y="-0.0051908861"
       width="1.0163809"
       height="1.0103818">
      <feColorMatrix
         values="1 0 0 0 0 0 1 0 0 0 0 0 1 0 0 -0.21 -0.72 -0.07 2 0 "
         result="color2"
         id="feColorMatrix50806" />
    </filter>
    <filter
       style="color-interpolation-filters:sRGB"
       inkscape:label="Invert"
       id="filter50804"
       x="0"
       y="0"
       width="1"
       height="1">
      <feColorMatrix
         values="1 0 0 0 0 0 1 0 0 0 0 0 1 0 0 -0.21 -0.72 -0.07 2 0 "
         result="color2"
         id="feColorMatrix50802" />
    </filter>
    <filter
       style="color-interpolation-filters:sRGB"
       inkscape:label="Invert"
       id="filter50800"
       x="-0.033412036"
       y="-0.02489306"
       width="1.0668241"
       height="1.0497861">
      <feColorMatrix
         values="1 0 0 0 0 0 1 0 0 0 0 0 1 0 0 -0.21 -0.72 -0.07 2 0 "
         result="color2"
         id="feColorMatrix50798" />
    </filter>
    <filter
       style="color-interpolation-filters:sRGB"
       inkscape:label="Invert"
       id="filter50796"
       x="-0.055072352"
       y="-0.026280202"
       width="1.110509"
       height="1.0525604">
      <feColorMatrix
         values="1 0 0 0 0 0 1 0 0 0 0 0 1 0 0 -0.21 -0.72 -0.07 2 0 "
         result="color2"
         id="feColorMatrix50794" />
    </filter>
    <filter
       style="color-interpolation-filters:sRGB"
       inkscape:label="Invert"
       id="filter50792"
       x="-0.038102195"
       y="-0.014397957"
       width="1.0566831"
       height="1.0439095">
      <feColorMatrix
         values="1 0 0 0 0 0 1 0 0 0 0 0 1 0 0 -0.21 -0.72 -0.07 2 0 "
         result="color2"
         id="feColorMatrix50790" />
    </filter>
    <filter
       style="color-interpolation-filters:sRGB"
       inkscape:label="Invert"
       id="filter50788"
       x="-0.055072408"
       y="-0.02628033"
       width="1.1105092"
       height="1.0525607">
      <feColorMatrix
         values="1 0 0 0 0 0 1 0 0 0 0 0 1 0 0 -0.21 -0.72 -0.07 2 0 "
         result="color2"
         id="feColorMatrix50786" />
    </filter>
  </defs>
  <g
     inkscape:label="Capa 1"
     inkscape:groupmode="layer"
     id="layer1"
     transform="translate(-3.8453,-130.3633)">
    <path
       id="rect45632"
       style="stroke:#ffffff;stroke-width:1.3;stroke-linecap:round;stroke-linejoin:round;stroke-dashoffset:9.31653"
       d="M 12.5272,131.0133 H 75.824 c 4.4496,0 8.0318,3.5822 8.0318,8.0319 v 109.1557 c 0,4.4497 -3.5822,8.0319 -8.0318,8.0319 H 12.5272 c -4.4496,0 -8.0319,-3.5822 -8.0319,-8.0319 V 139.0452 c 0,-4.4497 3.5823,-8.0319 8.0319,-8.0319 z" />
    <path
       id="rect45634"
       style="fill:#faaa1b;stroke-width:1.81997;stroke-linecap:round;stroke-linejoin:round;stroke-dashoffset:9.31653"
       d="M 14.3419,135.3897 H 74.009 c 3.0438,0 5.4942,2.4504 5.4942,5.4942 V 246.362 c 0,3.0438 -2.4504,5.4943 -5.4942,5.4943 H 14.3419 c -3.0438,0 -5.4943,-2.4505 -5.4943,-5.4943 V 140.8839 c 0,-3.0438 2.4505,-5.4942 5.4943,-5.4942 z" />
    <path
       id="ellipse45636"
       style="fill:none;fill-opacity:0;stroke:#000000;stroke-width:4.90276;stroke-linecap:round;stroke-linejoin:round;stroke-dashoffset:9.31653"
       d="m 69.741539,207.78707 a 29.227528,54.28476 28.987554 0 1 -51.873484,33.32002 29.227528,54.28476 28.987554 0 1 0.741435,-61.64846 29.227528,54.28476 28.987554 0 1 51.873484,-33.32001 29.227528,54.28476 28.987554 0 1 -0.741435,61.64845 z" />
    <g
       aria-label="8"
       transform="matrix(1.1127008,0,-0.06826013,0.89871419,-2915.7173,-1168.8978)"
       id="text45640"
       style="font-size:75.0979px;line-height:1.25;font-family:'Tw Cen MT Condensed Extra Bold';-inkscape-font-specification:'Tw Cen MT Condensed Extra Bold, Normal';stroke:#ffffff;stroke-width:2.573;paint-order:markers fill stroke">
      <path
         d="m 2759.3924,1513.2177 q 4.1803,1.7968 6.4538,5.4637 2.3101,3.6669 2.3101,8.2872 0,6.4903 -3.9969,10.3772 -3.9969,3.887 -10.7073,3.887 -6.8571,0 -10.854,-3.8503 -3.9603,-3.8502 -3.9603,-10.4139 0,-1.6501 0.2201,-3.0802 0.22,-1.4668 0.66,-2.7135 0.4767,-1.2834 1.1734,-2.3835 0.6967,-1.1367 1.6134,-2.0901 0.9534,-0.9534 2.2002,-1.7601 1.2834,-0.8434 2.6401,-1.6501 v -0.073 h -0.073 q 0,-0.073 -0.073,-0.073 0,-0.073 -0.073,-0.073 -2.2001,-1.0267 -3.6669,-2.2734 -1.4301,-1.2468 -2.4568,-3.5202 -1.0267,-2.3102 -1.0267,-5.317 0,-5.2437 3.8869,-8.7272 3.8869,-3.5202 9.7172,-3.5202 5.9404,0 9.7173,3.5568 3.7769,3.5569 3.7769,9.1306 0,3.6669 -1.8335,6.2337 -1.7967,2.5668 -5.647,4.5836 z m -3.2268,-9.2405 q 0,-5.317 -2.7869,-5.317 -2.8601,0 -2.8601,4.7303 0,2.8601 0.66,4.0702 0.6967,1.1734 2.2735,1.1734 2.7135,0 2.7135,-4.6569 z m 1.1734,22.0746 q 0,-7.1871 -3.9603,-7.1871 -4.1436,0 -4.1436,6.6004 0,7.0405 4.217,7.0405 3.8869,0 3.8869,-6.4538 z"
         id="path48237" />
    </g>
    <g
       aria-label="8"
       transform="matrix(1.1127008,0,-0.06826013,0.89871419,-2915.7173,-1168.8978)"
       id="text45644"
       style="font-size:24.4557px;line-height:1.25;font-family:'Tw Cen MT Condensed Extra Bold';-inkscape-font-specification:'Tw Cen MT Condensed Extra Bold, Normal';stroke:#ffffff;stroke-width:1.138">
      <path
         d="m 2729.5095,1464.2942 q 1.3613,0.5851 2.1017,1.7793 0.7523,1.1941 0.7523,2.6987 0,2.1136 -1.3016,3.3794 -1.3016,1.2657 -3.4869,1.2657 -2.233,0 -3.5346,-1.2538 -1.2896,-1.2538 -1.2896,-3.3913 0,-0.5374 0.072,-1.0031 0.072,-0.4776 0.215,-0.8836 0.1552,-0.418 0.3821,-0.7762 0.2269,-0.3702 0.5254,-0.6807 0.3105,-0.3104 0.7165,-0.5731 0.4179,-0.2747 0.8597,-0.5374 v -0.024 h -0.024 q 0,-0.024 -0.024,-0.024 0,-0.024 -0.024,-0.024 -0.7165,-0.3343 -1.1941,-0.7403 -0.4657,-0.406 -0.8001,-1.1464 -0.3344,-0.7523 -0.3344,-1.7315 0,-1.7076 1.2658,-2.842 1.2658,-1.1463 3.1645,-1.1463 1.9344,0 3.1644,1.1583 1.2299,1.1583 1.2299,2.9733 0,1.1942 -0.597,2.0301 -0.5851,0.8358 -1.839,1.4926 z m -1.0508,-3.0092 q 0,-1.7315 -0.9075,-1.7315 -0.9315,0 -0.9315,1.5405 0,0.9314 0.215,1.3254 0.2269,0.3822 0.7403,0.3822 0.8837,0 0.8837,-1.5166 z m 0.3821,7.1887 q 0,-2.3405 -1.2896,-2.3405 -1.3494,0 -1.3494,2.1494 0,2.2927 1.3732,2.2927 1.2658,0 1.2658,-2.1016 z"
         id="path48240" />
    </g>
    <g
       aria-label="8"
       transform="matrix(-1.1127008,0,0.06826013,-0.89871419,-2915.7173,-1168.8978)"
       id="text45648"
       style="font-size:24.4557px;line-height:1.25;font-family:'Tw Cen MT Condensed Extra Bold';-inkscape-font-specification:'Tw Cen MT Condensed Extra Bold, Normal';stroke:#ffffff;stroke-width:1.138">
      <path
         d="m -2776.7871,-1568.0571 q 1.3613,0.5851 2.1017,1.7792 0.7522,1.1942 0.7522,2.6988 0,2.1136 -1.3015,3.3793 -1.3016,1.2658 -3.4869,1.2658 -2.233,0 -3.5346,-1.2538 -1.2897,-1.2538 -1.2897,-3.3913 0,-0.5374 0.072,-1.0031 0.072,-0.4777 0.2149,-0.8837 0.1553,-0.4179 0.3821,-0.7761 0.2269,-0.3702 0.5255,-0.6807 0.3104,-0.3105 0.7164,-0.5732 0.418,-0.2746 0.8598,-0.5373 v -0.024 h -0.024 q 0,-0.024 -0.024,-0.024 0,-0.024 -0.024,-0.024 -0.7165,-0.3343 -1.1942,-0.7403 -0.4657,-0.406 -0.8,-1.1464 -0.3344,-0.7523 -0.3344,-1.7315 0,-1.7076 1.2658,-2.842 1.2658,-1.1464 3.1644,-1.1464 1.9345,0 3.1645,1.1583 1.2299,1.1583 1.2299,2.9734 0,1.1941 -0.5971,2.03 -0.5851,0.8359 -1.8389,1.4927 z m -1.0508,-3.0092 q 0,-1.7315 -0.9076,-1.7315 -0.9314,0 -0.9314,1.5404 0,0.9315 0.2149,1.3255 0.2269,0.3821 0.7404,0.3821 0.8837,0 0.8837,-1.5165 z m 0.3821,7.1886 q 0,-2.3405 -1.2897,-2.3405 -1.3493,0 -1.3493,2.1495 0,2.2927 1.3732,2.2927 1.2658,0 1.2658,-2.1017 z"
         id="path48243" />
    </g>
  </g>
</svg>
