<?xml version="1.0" encoding="UTF-8"?>
<svg width="437.5mm" height="706.81mm" version="1.1" viewBox="0 0 437.5 706.81" xmlns="http://www.w3.org/2000/svg" xmlns:xlink="http://www.w3.org/1999/xlink">
<defs>
<radialGradient id="a" cx="1948.5" cy="2000.3" r="193.33" gradientTransform="matrix(2.6498 -.0019789 .0023495 2.552 -5031.5 -4724.8)" gradientUnits="userSpaceOnUse">
<stop stop-color="#64c8ff" offset="0"/>
<stop stop-color="#007ec2" offset="1"/>
</radialGradient>
</defs>
<g transform="translate(81.15 182.21)">
<rect x="-81.15" y="-182.21" width="437.5" height="706.81" ry="0" fill="url(#a)" style="paint-order:stroke markers fill"/>
<g transform="matrix(.61557 0 0 .61557 -353.26 24.84)" fill="none" stroke="#fff" stroke-dashoffset="9.3165" stroke-linecap="square" stroke-opacity=".27711" stroke-width="3.2485">
<path transform="matrix(1 0 -.064063 .99795 0 0)" d="m790.68 65.581h13.622c2.5242 0 4.5564 2.0322 4.5564 4.5564v24.807c0 2.5242-2.0322 4.5564-4.5564 4.5564h-13.622c-2.5242 0-4.5564-2.0322-4.5564-4.5564v-24.807c0-2.5242 2.0322-4.5564 4.5564-4.5564z"/>
<path transform="matrix(1 0 -.064063 .99795 0 0)" d="m781 74.613h13.622c2.5242 0 4.5564 2.0322 4.5564 4.5564v24.807c0 2.5242-2.0322 4.5564-4.5564 4.5564h-13.622c-2.5242 0-4.5564-2.0322-4.5564-4.5564v-24.807c0-2.5242 2.0322-4.5564 4.5564-4.5564z"/>
</g>
<path d="m55.883-25.845a11.706 12.377 37.398 0 0-12.583 12.134 11.706 12.377 37.398 0 0 11.298 12.134 11.706 12.377 37.398 0 0 12.583-12.134 11.706 12.377 37.398 0 0-11.298-12.134zm-0.1845 3.4876a8.3414 8.8194 37.398 0 1 4.024 1.0762l-12.007 12.007a8.3414 8.8194 37.398 0 1-0.9835-4.4368 8.3414 8.8194 37.398 0 1 8.9664-8.6463zm7.0469 4.1769a8.3414 8.8194 37.398 0 1 1.0036 4.4694 8.3414 8.8194 37.398 0 1-8.9662 8.6461 8.3414 8.8194 37.398 0 1-4.0593-1.0935z" fill="none" stroke="#fff" stroke-dashoffset="9.3165" stroke-linecap="square" stroke-opacity=".27711" stroke-width="1.9976" style="paint-order:markers stroke fill"/>
<path d="m207.19-3.1371c0-0.1238-0.4364-0.7348-0.9698-1.3578l-0.9696-1.133 2.5016-2.1276c2.779-2.3636 3.6086-3.6386 3.6381-5.5916 0.02-1.3221-0.7887-3.1481-1.394-3.1481-0.1754 0-2.0404 1.5127-4.1446 3.3615-2.1041 1.8488-3.9455 3.3614-4.092 3.3614-0.1464 0-0.727-0.5624-1.2904-1.2498-0.5633-0.6874-1.0703-1.2039-1.1265-1.1475-0.056 0.056-0.3545 1.8845-0.6624 4.0626s-0.6209 4.2379-0.6953 4.5776l-0.1355 0.6173h4.6702c2.5685 0 4.6702-0.1012 4.6702-0.225zm-0.071-12.741c1.5965-1.3961 3.3957-2.9653 3.998-3.4869l1.0953-0.9488 1.2025 1.3283c0.6614 0.7305 1.2445 1.281 1.2958 1.223 0.1156-0.1302 1.2643-8.1558 1.262-8.8176 0-0.4384-0.4071-0.4802-4.6664-0.4802-2.5657 0-4.6648 0.078-4.6648 0.1725 0 0.095 0.4321 0.651 0.9604 1.2356 0.5282 0.5847 0.9603 1.1708 0.9603 1.3023 0 0.1314-1.1287 1.2044-2.5084 2.3843-2.9099 2.4887-3.6687 3.7762-3.4666 5.8809 0.1161 1.2078 0.8888 2.7168 1.4009 2.7361 0.1254 0.01 1.5343-1.1335 3.131-2.5295z" fill="none" stroke="#fff" stroke-linecap="square" stroke-opacity=".27711" stroke-width="1.9976" style="paint-order:markers stroke fill"/>
<path d="m269.33 88.893-1.3373-2.0179c4.2022-3.2843 9.8978-2.9799 12.956-0.7856l1.1173 0.6677-1.2399 1.8353 6.3199 0.7881-2.3403-6.2091-1.142 1.6404c-5.1171-3.2943-10.93-4.3545-16.944-0.019l-1.4008-2.0406-2.1184 6.6131zm0.2895-6.7847-0.5378-9.113-4.4932 2.0533 3.2959 8.1059zm16.5-7.9235-6.8173-2.2723-3.1337 9.1252s3.9406 0.7693 6.3493 2.1314zm-13.404 7.1276 0.5264-9.6354-3.5846 0.3119 0.4416 9.8323zm2.8136-0.2786s1.8938-6.7178 3.1091-9.6919l-4.701-0.6662-0.6552 10.52z" fill="none" stroke="#fff" stroke-linecap="round" stroke-linejoin="round" stroke-opacity=".27711" stroke-width="1.9976" style="paint-order:markers stroke fill"/>
<path d="m287.29-115.69a11.706 12.377 37.398 0 0-12.583 12.134 11.706 12.377 37.398 0 0 11.298 12.134 11.706 12.377 37.398 0 0 12.583-12.134 11.706 12.377 37.398 0 0-11.298-12.134zm-0.1845 3.4876a8.3414 8.8194 37.398 0 1 4.0239 1.0762l-12.007 12.007a8.3414 8.8194 37.398 0 1-0.9833-4.4369 8.3414 8.8194 37.398 0 1 8.9663-8.6462zm7.0468 4.1769a8.3414 8.8194 37.398 0 1 1.0038 4.4693 8.3414 8.8194 37.398 0 1-8.9663 8.6462 8.3414 8.8194 37.398 0 1-4.0594-1.0936z" fill="none" stroke="#fff" stroke-dashoffset="9.3165" stroke-linecap="square" stroke-opacity=".27711" stroke-width="1.9976" style="paint-order:markers stroke fill"/>
<path d="m-13.157 88.103c0-0.1237-0.4364-0.7348-0.9698-1.3579l-0.9696-1.1329 2.5017-2.1277c2.7789-2.3635 3.6085-3.6385 3.6381-5.5915 0.02-1.3222-0.7887-3.1482-1.3941-3.1482-0.1753 0-2.0404 1.5127-4.1446 3.3616-2.1041 1.8487-3.9455 3.3614-4.0919 3.3614s-0.7271-0.5624-1.2904-1.2499c-0.5633-0.6874-1.0703-1.2037-1.1267-1.1474-0.056 0.056-0.3544 1.8845-0.6623 4.0626-0.308 2.178-0.6209 4.2379-0.6953 4.5775l-0.1354 0.6174h4.6701c2.5685 0 4.6702-0.1013 4.6702-0.225zm-0.071-12.741c1.5966-1.3961 3.3957-2.9652 3.9981-3.4869l1.0952-0.9487 1.2026 1.3283c0.6614 0.7305 1.2445 1.2809 1.2957 1.223 0.1156-0.1302 1.2643-8.1558 1.262-8.8176 0-0.4384-0.407-0.4802-4.6663-0.4802-2.5658 0-4.665 0.078-4.665 0.1725 0 0.095 0.4323 0.651 0.9605 1.2357s0.9604 1.1706 0.9604 1.3021c0 0.1314-1.1288 1.2045-2.5085 2.3844-2.9099 2.4888-3.6687 3.7761-3.4665 5.8809 0.1161 1.2077 0.8886 2.7167 1.4009 2.7361 0.1253 0.01 1.5343-1.1335 3.1309-2.5296z" fill="none" stroke="#fff" stroke-linecap="square" stroke-opacity=".27711" stroke-width="1.9976" style="paint-order:markers stroke fill"/>
<g transform="matrix(.61557 0 0 .61557 -496.56 -154.22)" fill="none" stroke="#fff" stroke-dashoffset="9.3165" stroke-linecap="square" stroke-opacity=".27711" stroke-width="3.2485">
<path transform="matrix(1 0 -.064063 .99795 0 0)" d="m790.68 65.581h13.622c2.5242 0 4.5564 2.0322 4.5564 4.5564v24.807c0 2.5242-2.0322 4.5564-4.5564 4.5564h-13.622c-2.5242 0-4.5564-2.0322-4.5564-4.5564v-24.807c0-2.5242 2.0322-4.5564 4.5564-4.5564z"/>
<path transform="matrix(1 0 -.064063 .99795 0 0)" d="m781 74.613h13.622c2.5242 0 4.5564 2.0322 4.5564 4.5564v24.807c0 2.5242-2.0322 4.5564-4.5564 4.5564h-13.622c-2.5242 0-4.5564-2.0322-4.5564-4.5564v-24.807c0-2.5242 2.0322-4.5564 4.5564-4.5564z"/>
</g>
<path d="m127.38-92.868-1.3374-2.0179c4.2021-3.2843 9.8979-2.98 12.956-0.7856l1.1172 0.6676-1.2399 1.8354 6.32 0.7881-2.3403-6.2091-1.1421 1.6403c-5.1171-3.2942-10.93-4.3544-16.944-0.019l-1.4009-2.0406-2.1183 6.6133zm0.2894-6.7848-0.5378-9.1129-4.4931 2.0533 3.2958 8.106zm16.5-7.9235-6.8175-2.2723-3.1336 9.1252s3.9406 0.7694 6.3493 2.1314zm-13.404 7.1277 0.5263-9.6355-3.5845 0.3119 0.4416 9.8324zm2.8135-0.2786s1.8939-6.7179 3.1092-9.692l-4.7011-0.6662-0.6551 10.52z" fill="none" stroke="#fff" stroke-linecap="round" stroke-linejoin="round" stroke-opacity=".27711" stroke-width="1.9976" style="paint-order:markers stroke fill"/>
<path d="m49.21 179.42c0-0.1238-0.4364-0.7348-0.9698-1.3578l-0.9696-1.133 2.5017-2.1276c2.7789-2.3636 3.6085-3.6386 3.638-5.5916 0.02-1.3221-0.7886-3.1481-1.394-3.1481-0.1754 0-2.0404 1.5127-4.1446 3.3615-2.1041 1.8488-3.9455 3.3614-4.092 3.3614-0.1464 0-0.727-0.5624-1.2904-1.2498-0.5632-0.6874-1.0703-1.2039-1.1265-1.1475-0.056 0.056-0.3545 1.8845-0.6623 4.0626-0.308 2.1781-0.621 4.2379-0.6954 4.5776l-0.1355 0.6173h4.6702c2.5685 0 4.6702-0.1012 4.6702-0.225zm-0.071-12.741c1.5965-1.3961 3.3957-2.9653 3.9981-3.4869l1.0952-0.9488 1.2025 1.3283c0.6614 0.7305 1.2445 1.281 1.2958 1.223 0.1156-0.1302 1.2643-8.1558 1.262-8.8176 0-0.4384-0.4071-0.4802-4.6664-0.4802-2.5657 0-4.6648 0.078-4.6648 0.1725 0 0.095 0.4321 0.651 0.9604 1.2356 0.5282 0.5847 0.9604 1.1708 0.9604 1.3023 0 0.1314-1.1288 1.2044-2.5085 2.3843-2.9099 2.4887-3.6687 3.7762-3.4666 5.8809 0.1162 1.2078 0.8888 2.7168 1.4009 2.7361 0.1254 0.01 1.5343-1.1335 3.131-2.5295z" fill="none" stroke="#fff" stroke-linecap="square" stroke-opacity=".27711" stroke-width="1.9976" style="paint-order:markers stroke fill"/>
<g transform="matrix(.61557 0 0 .61557 -278.48 112.14)" fill="none" stroke="#fff" stroke-dashoffset="9.3165" stroke-linecap="square" stroke-opacity=".27711" stroke-width="3.2485">
<path transform="matrix(1 0 -.064063 .99795 0 0)" d="m790.68 65.581h13.622c2.5242 0 4.5564 2.0322 4.5564 4.5564v24.807c0 2.5242-2.0322 4.5564-4.5564 4.5564h-13.622c-2.5242 0-4.5564-2.0322-4.5564-4.5564v-24.807c0-2.5242 2.0322-4.5564 4.5564-4.5564z"/>
<path transform="matrix(1 0 -.064063 .99795 0 0)" d="m781 74.613h13.622c2.5242 0 4.5564 2.0322 4.5564 4.5564v24.807c0 2.5242-2.0322 4.5564-4.5564 4.5564h-13.622c-2.5242 0-4.5564-2.0322-4.5564-4.5564v-24.807c0-2.5242 2.0322-4.5564 4.5564-4.5564z"/>
</g>
<g transform="matrix(.61557 0 0 .61557 -352.56 376.48)" fill="none" stroke="#fff" stroke-dashoffset="9.3165" stroke-linecap="square" stroke-opacity=".27711" stroke-width="3.2485">
<path transform="matrix(1 0 -.064063 .99795 0 0)" d="m790.68 65.581h13.622c2.5242 0 4.5564 2.0322 4.5564 4.5564v24.807c0 2.5242-2.0322 4.5564-4.5564 4.5564h-13.622c-2.5242 0-4.5564-2.0322-4.5564-4.5564v-24.807c0-2.5242 2.0322-4.5564 4.5564-4.5564z"/>
<path transform="matrix(1 0 -.064063 .99795 0 0)" d="m781 74.613h13.622c2.5242 0 4.5564 2.0322 4.5564 4.5564v24.807c0 2.5242-2.0322 4.5564-4.5564 4.5564h-13.622c-2.5242 0-4.5564-2.0322-4.5564-4.5564v-24.807c0-2.5242 2.0322-4.5564 4.5564-4.5564z"/>
</g>
<path d="m56.591 325.79a11.706 12.377 37.398 0 0-12.583 12.134 11.706 12.377 37.398 0 0 11.298 12.134 11.706 12.377 37.398 0 0 12.583-12.134 11.706 12.377 37.398 0 0-11.298-12.134zm-0.1845 3.4876a8.3414 8.8194 37.398 0 1 4.0239 1.0762l-12.007 12.007a8.3414 8.8194 37.398 0 1-0.9834-4.4369 8.3414 8.8194 37.398 0 1 8.9664-8.6462zm7.0468 4.1769a8.3414 8.8194 37.398 0 1 1.0037 4.4693 8.3414 8.8194 37.398 0 1-8.9662 8.6461 8.3414 8.8194 37.398 0 1-4.0594-1.0934z" fill="none" stroke="#fff" stroke-dashoffset="9.3165" stroke-linecap="square" stroke-opacity=".27711" stroke-width="1.9976" style="paint-order:markers stroke fill"/>
<path d="m207.9 348.5c0-0.1239-0.4363-0.7349-0.9697-1.3579l-0.9696-1.1329 2.5016-2.1276c2.779-2.3636 3.6086-3.6387 3.638-5.5916 0.02-1.3222-0.7886-3.1481-1.394-3.1481-0.1753 0-2.0403 1.5126-4.1445 3.3614s-3.9456 3.3614-4.092 3.3614c-0.1465 0-0.7271-0.5623-1.2904-1.2497-0.5633-0.6875-1.0703-1.2039-1.1266-1.1475-0.056 0.056-0.3544 1.8845-0.6623 4.0625-0.308 2.1782-0.6209 4.2379-0.6953 4.5777l-0.1355 0.6173h4.6701c2.5686 0 4.6702-0.1013 4.6702-0.225zm-0.071-12.741c1.5965-1.3961 3.3958-2.9652 3.9981-3.4869l1.0953-0.9487 1.2024 1.3283c0.6615 0.7305 1.2445 1.2809 1.2959 1.223 0.1156-0.1303 1.2643-8.1558 1.262-8.8176 0-0.4384-0.4072-0.4802-4.6665-0.4802-2.5656 0-4.6647 0.078-4.6647 0.1725 0 0.095 0.4321 0.6509 0.9603 1.2356s0.9604 1.1708 0.9604 1.3023c0 0.1313-1.1288 1.2043-2.5084 2.3843-2.9099 2.4887-3.6688 3.7762-3.4667 5.8809 0.1162 1.2078 0.8888 2.7168 1.4009 2.7361 0.1255 0.01 1.5343-1.1336 3.131-2.5296z" fill="none" stroke="#fff" stroke-linecap="square" stroke-opacity=".27711" stroke-width="1.9976" style="paint-order:markers stroke fill"/>
<path d="m270.04 440.53-1.3373-2.0179c4.2021-3.2843 9.8978-2.98 12.956-0.7857l1.1173 0.6678-1.2399 1.8352 6.3198 0.7882-2.3403-6.2091-1.1419 1.6403c-5.1171-3.2942-10.93-4.3544-16.944-0.019l-1.4009-2.0407-2.1183 6.6132zm0.2895-6.7848-0.5379-9.1129-4.4932 2.0533 3.2959 8.1059zm16.5-7.9234-6.8174-2.2723-3.1336 9.1252s3.9406 0.7693 6.3492 2.1314zm-13.404 7.1276 0.5265-9.6354-3.5846 0.3118 0.4416 9.8323zm2.8136-0.2786s1.8939-6.7179 3.1092-9.6919l-4.701-0.6663-0.6552 10.52z" fill="none" stroke="#fff" stroke-linecap="round" stroke-linejoin="round" stroke-opacity=".27711" stroke-width="1.9976" style="paint-order:markers stroke fill"/>
<path d="m288 235.94a11.706 12.377 37.398 0 0-12.583 12.134 11.706 12.377 37.398 0 0 11.298 12.134 11.706 12.377 37.398 0 0 12.583-12.134 11.706 12.377 37.398 0 0-11.298-12.134zm-0.1845 3.4876a8.3414 8.8194 37.398 0 1 4.0239 1.0762l-12.007 12.007a8.3414 8.8194 37.398 0 1-0.9834-4.4369 8.3414 8.8194 37.398 0 1 8.9664-8.6462zm7.0468 4.1769a8.3414 8.8194 37.398 0 1 1.0037 4.4693 8.3414 8.8194 37.398 0 1-8.9663 8.6462 8.3414 8.8194 37.398 0 1-4.0593-1.0936z" fill="none" stroke="#fff" stroke-dashoffset="9.3165" stroke-linecap="square" stroke-opacity=".27711" stroke-width="1.9976" style="paint-order:markers stroke fill"/>
<path d="m-12.449 439.74c0-0.1238-0.4363-0.7349-0.9697-1.358l-0.9696-1.1328 2.5016-2.1277c2.779-2.3635 3.6086-3.6386 3.6381-5.5915 0.02-1.3222-0.7887-3.1482-1.3941-3.1482-0.1752 0-2.0403 1.5126-4.1445 3.3615-2.1042 1.8487-3.9456 3.3614-4.0919 3.3614-0.1465 0-0.7272-0.5623-1.2904-1.2498-0.5633-0.6875-1.0703-1.2037-1.1267-1.1474-0.056 0.056-0.3544 1.8845-0.6624 4.0625-0.308 2.1781-0.6208 4.2379-0.6952 4.5776l-0.1354 0.6174h4.6701c2.5685 0 4.6701-0.1014 4.6701-0.225zm-0.071-12.741c1.5966-1.3961 3.3958-2.9651 3.9981-3.4869l1.0953-0.9487 1.2025 1.3284c0.6615 0.7305 1.2445 1.2808 1.2958 1.223 0.1156-0.1303 1.2643-8.1558 1.262-8.8176 0-0.4384-0.4071-0.4802-4.6664-0.4802-2.5657 0-4.6649 0.078-4.6649 0.1725 0 0.095 0.4323 0.651 0.9604 1.2357 0.5282 0.5847 0.9604 1.1706 0.9604 1.3021 0 0.1314-1.1288 1.2044-2.5084 2.3844-2.9099 2.4888-3.6688 3.7761-3.4666 5.8809 0.1161 1.2077 0.8886 2.7167 1.4009 2.7361 0.1253 0.01 1.5343-1.1336 3.1309-2.5297z" fill="none" stroke="#fff" stroke-linecap="square" stroke-opacity=".27711" stroke-width="1.9976" style="paint-order:markers stroke fill"/>
<g transform="matrix(.61557 0 0 .61557 -495.86 197.42)" fill="none" stroke="#fff" stroke-dashoffset="9.3165" stroke-linecap="square" stroke-opacity=".27711" stroke-width="3.2485">
<path transform="matrix(1 0 -.064063 .99795 0 0)" d="m790.68 65.581h13.622c2.5242 0 4.5564 2.0322 4.5564 4.5564v24.807c0 2.5242-2.0322 4.5564-4.5564 4.5564h-13.622c-2.5242 0-4.5564-2.0322-4.5564-4.5564v-24.807c0-2.5242 2.0322-4.5564 4.5564-4.5564z"/>
<path transform="matrix(1 0 -.064063 .99795 0 0)" d="m781 74.613h13.622c2.5242 0 4.5564 2.0322 4.5564 4.5564v24.807c0 2.5242-2.0322 4.5564-4.5564 4.5564h-13.622c-2.5242 0-4.5564-2.0322-4.5564-4.5564v-24.807c0-2.5242 2.0322-4.5564 4.5564-4.5564z"/>
</g>
<path d="m128.09 258.77-1.3373-2.0178c4.2021-3.2843 9.8978-2.98 12.956-0.7857l1.1172 0.6677-1.2399 1.8354 6.3199 0.788-2.3403-6.2091-1.1421 1.6404c-5.1171-3.2943-10.93-4.3545-16.944-0.019l-1.401-2.0406-2.1183 6.6132zm0.2895-6.7847-0.5379-9.113-4.4931 2.0533 3.2958 8.106zm16.5-7.9235-6.8175-2.2723-3.1336 9.1252s3.9406 0.7694 6.3493 2.1314zm-13.404 7.1277 0.5264-9.6355-3.5845 0.3119 0.4416 9.8324zm2.8135-0.2786s1.8939-6.7179 3.1092-9.692l-4.7011-0.6662-0.6551 10.52z" fill="none" stroke="#fff" stroke-linecap="round" stroke-linejoin="round" stroke-opacity=".27711" stroke-width="1.9976" style="paint-order:markers stroke fill"/>
</g>
</svg>
