<?xml version="1.0" encoding="UTF-8" standalone="no"?>
<!-- Created with Inkscape (http://www.inkscape.org/) -->

<svg
   width="113.63406mm"
   height="113.63406mm"
   viewBox="0 0 113.63406 113.63406"
   version="1.1"
   id="svg5"
   inkscape:version="1.1 (c68e22c387, 2021-05-23)"
   sodipodi:docname="iconoAjustes.svg"
   xmlns:inkscape="http://www.inkscape.org/namespaces/inkscape"
   xmlns:sodipodi="http://sodipodi.sourceforge.net/DTD/sodipodi-0.dtd"
   xmlns="http://www.w3.org/2000/svg"
   xmlns:svg="http://www.w3.org/2000/svg">
  <sodipodi:namedview
     id="namedview7"
     pagecolor="#ffffff"
     bordercolor="#666666"
     borderopacity="1.0"
     inkscape:pageshadow="2"
     inkscape:pageopacity="0.0"
     inkscape:pagecheckerboard="0"
     inkscape:document-units="mm"
     showgrid="false"
     inkscape:zoom="0.74118967"
     inkscape:cx="474.23758"
     inkscape:cy="594.31481"
     inkscape:window-width="1600"
     inkscape:window-height="837"
     inkscape:window-x="-8"
     inkscape:window-y="79"
     inkscape:window-maximized="1"
     inkscape:current-layer="layer1" />
  <defs
     id="defs2" />
  <g
     inkscape:label="Capa 1"
     inkscape:groupmode="layer"
     id="layer1"
     transform="translate(20.384862,8.6047103)">
    <circle
       style="fill:#6bdb83;fill-opacity:1;stroke:#000000;stroke-width:4.94465;stroke-linecap:round;stroke-linejoin:round;stroke-miterlimit:4;stroke-dasharray:none;stroke-dashoffset:9.31653;stroke-opacity:1;paint-order:markers fill stroke"
       id="circle139907"
       cx="36.432171"
       cy="48.212322"
       r="54.344707" />
    <g
       id="g10"
       transform="matrix(-3.3092469,0,0,-3.3092469,89.3802,101.1603)"
       style="fill:#26a040;fill-opacity:1;stroke:#000000;stroke-width:1.02742;stroke-miterlimit:4;stroke-dasharray:none;stroke-opacity:1">
      <path
         class="st0"
         d="M 25.332,13.512 C 25.119,12.695 24.79,11.901 24.355,11.152 24.191,10.87 24.174,10.525 24.312,10.229 L 25.228,8.252 23.747,6.77 21.77,7.686 C 21.474,7.823 21.13,7.808 20.847,7.644 20.096,7.208 19.302,6.88 18.488,6.667 18.171,6.584 17.914,6.351 17.801,6.043 L 17.052,4 h -2.104 l -0.75,2.044 c -0.113,0.308 -0.37,0.541 -0.687,0.624 -0.814,0.212 -1.608,0.541 -2.36,0.977 -0.281,0.164 -0.627,0.18 -0.922,0.042 L 8.253,6.771 6.771,8.253 7.688,10.229 C 7.825,10.525 7.81,10.87 7.646,11.152 7.21,11.903 6.881,12.697 6.669,13.512 6.586,13.829 6.353,14.086 6.045,14.199 L 4,14.948 v 2.104 l 2.044,0.75 c 0.308,0.112 0.541,0.369 0.624,0.687 0.212,0.814 0.541,1.608 0.977,2.359 0.164,0.282 0.18,0.627 0.042,0.923 l -0.917,1.977 1.482,1.481 1.977,-0.916 c 0.296,-0.138 0.641,-0.122 0.923,0.043 0.749,0.435 1.542,0.764 2.36,0.977 0.317,0.083 0.574,0.315 0.687,0.623 L 14.948,28 h 2.104 l 0.75,-2.045 c 0.112,-0.308 0.369,-0.54 0.686,-0.623 0.818,-0.214 1.612,-0.542 2.359,-0.977 0.284,-0.163 0.629,-0.181 0.924,-0.043 l 1.977,0.916 1.481,-1.481 -0.916,-1.977 c -0.138,-0.297 -0.121,-0.642 0.043,-0.924 0.435,-0.747 0.763,-1.541 0.977,-2.359 0.083,-0.316 0.315,-0.573 0.623,-0.686 L 28,17.052 v -2.104 l -2.045,-0.75 C 25.647,14.086 25.415,13.83 25.332,13.512 Z M 16,21.36 c -2.956,0 -5.36,-2.404 -5.36,-5.36 0,-2.956 2.404,-5.36 5.36,-5.36 2.956,0 5.36,2.404 5.36,5.36 0,2.956 -2.404,5.36 -5.36,5.36 z"
         id="path4"
         style="fill:#26a040;fill-opacity:1;stroke:#000000;stroke-width:1.02742;stroke-miterlimit:4;stroke-dasharray:none;stroke-opacity:1" />
      <path
         class="st1"
         d="m 28,17.052 -2.045,0.75 c -0.308,0.112 -0.54,0.369 -0.623,0.686 -0.214,0.818 -0.542,1.612 -0.977,2.359 -0.164,0.282 -0.181,0.627 -0.043,0.924 l 0.916,1.977 -1.481,1.481 -1.977,-0.916 c -0.295,-0.138 -0.64,-0.12 -0.924,0.043 -0.747,0.435 -1.541,0.763 -2.359,0.977 -0.316,0.083 -0.573,0.315 -0.686,0.623 L 17.052,28 h -2.104 l -0.75,-2.045 C 14.085,25.647 13.829,25.415 13.511,25.332 12.694,25.119 11.9,24.79 11.151,24.355 10.869,24.19 10.524,24.174 10.228,24.312 L 8.251,25.228 6.769,23.747 7.686,21.77 C 7.823,21.474 7.808,21.129 7.644,20.847 7.208,20.096 6.879,19.302 6.667,18.488 6.584,18.171 6.351,17.914 6.043,17.801 L 4,17.052 v -2.104 l 2.044,-0.75 c 0.308,-0.113 0.541,-0.37 0.624,-0.687 0.212,-0.814 0.541,-1.608 0.977,-2.36 0.164,-0.282 0.18,-0.626 0.042,-0.923 L 6.771,8.253 8.253,6.771 10.229,7.687 c 0.295,0.138 0.641,0.122 0.922,-0.042 0.752,-0.436 1.546,-0.765 2.36,-0.977 0.317,-0.083 0.574,-0.316 0.687,-0.624 L 14.948,4 h 2.104 l 0.75,2.044 c 0.112,0.308 0.369,0.541 0.687,0.624 0.814,0.212 1.608,0.541 2.359,0.977 0.283,0.164 0.627,0.179 0.923,0.042 l 1.977,-0.916 1.481,1.482 -0.916,1.977 c -0.138,0.296 -0.121,0.641 0.043,0.923 0.435,0.749 0.764,1.542 0.977,2.36 0.083,0.317 0.315,0.574 0.623,0.687 L 28,14.948 Z"
         id="path6"
         style="fill:#26a040;fill-opacity:1;stroke:#000000;stroke-width:1.02742;stroke-miterlimit:4;stroke-dasharray:none;stroke-opacity:1"
         sodipodi:nodetypes="cccccccccccccccccccccccccsccccccccscccccccccccccc" />
    </g>
    <circle
       style="fill:#6bdb83;fill-opacity:1;stroke:#000000;stroke-width:3.4;stroke-linecap:round;stroke-linejoin:round;stroke-miterlimit:4;stroke-dasharray:none;stroke-dashoffset:9.31653;stroke-opacity:1;paint-order:markers fill stroke"
       id="path139825"
       cx="36.432171"
       cy="48.212322"
       r="18.5986" />
  </g>
</svg>
