<?xml version="1.0" encoding="UTF-8" standalone="no"?>
<!-- Created with Inkscape (http://www.inkscape.org/) -->

<svg
   width="80.6605mm"
   height="126.51947mm"
   viewBox="0 0 80.660499 126.51947"
   version="1.1"
   id="svg2720"
   inkscape:version="1.1.2 (b8e25be833, 2022-02-05)"
   sodipodi:docname="amarillo_3.svg"
   xmlns:inkscape="http://www.inkscape.org/namespaces/inkscape"
   xmlns:sodipodi="http://sodipodi.sourceforge.net/DTD/sodipodi-0.dtd"
   xmlns="http://www.w3.org/2000/svg"
   xmlns:svg="http://www.w3.org/2000/svg">
  <sodipodi:namedview
     id="namedview2722"
     pagecolor="#ffffff"
     bordercolor="#666666"
     borderopacity="1.0"
     inkscape:pageshadow="2"
     inkscape:pageopacity="0.0"
     inkscape:pagecheckerboard="0"
     inkscape:document-units="mm"
     showgrid="false"
     inkscape:zoom="0.74029882"
     inkscape:cx="178.98178"
     inkscape:cy="274.889"
     inkscape:window-width="958"
     inkscape:window-height="1008"
     inkscape:window-x="953"
     inkscape:window-y="0"
     inkscape:window-maximized="0"
     inkscape:current-layer="layer1" />
  <defs
     id="defs2717">
    <filter
       style="color-interpolation-filters:sRGB"
       inkscape:label="Invert"
       id="filter50808"
       x="-0.0081904726"
       y="-0.0051908861"
       width="1.0163809"
       height="1.0103818">
      <feColorMatrix
         values="1 0 0 0 0 0 1 0 0 0 0 0 1 0 0 -0.21 -0.72 -0.07 2 0 "
         result="color2"
         id="feColorMatrix50806" />
    </filter>
    <filter
       style="color-interpolation-filters:sRGB"
       inkscape:label="Invert"
       id="filter50804"
       x="0"
       y="0"
       width="1"
       height="1">
      <feColorMatrix
         values="1 0 0 0 0 0 1 0 0 0 0 0 1 0 0 -0.21 -0.72 -0.07 2 0 "
         result="color2"
         id="feColorMatrix50802" />
    </filter>
    <filter
       style="color-interpolation-filters:sRGB"
       inkscape:label="Invert"
       id="filter50800"
       x="-0.033412036"
       y="-0.02489306"
       width="1.0668241"
       height="1.0497861">
      <feColorMatrix
         values="1 0 0 0 0 0 1 0 0 0 0 0 1 0 0 -0.21 -0.72 -0.07 2 0 "
         result="color2"
         id="feColorMatrix50798" />
    </filter>
    <filter
       style="color-interpolation-filters:sRGB"
       inkscape:label="Invert"
       id="filter50796"
       x="-0.055072352"
       y="-0.026280202"
       width="1.110509"
       height="1.0525604">
      <feColorMatrix
         values="1 0 0 0 0 0 1 0 0 0 0 0 1 0 0 -0.21 -0.72 -0.07 2 0 "
         result="color2"
         id="feColorMatrix50794" />
    </filter>
    <filter
       style="color-interpolation-filters:sRGB"
       inkscape:label="Invert"
       id="filter50792"
       x="-0.038102195"
       y="-0.014397957"
       width="1.0566831"
       height="1.0439095">
      <feColorMatrix
         values="1 0 0 0 0 0 1 0 0 0 0 0 1 0 0 -0.21 -0.72 -0.07 2 0 "
         result="color2"
         id="feColorMatrix50790" />
    </filter>
    <filter
       style="color-interpolation-filters:sRGB"
       inkscape:label="Invert"
       id="filter50788"
       x="-0.055072408"
       y="-0.02628033"
       width="1.1105092"
       height="1.0525607">
      <feColorMatrix
         values="1 0 0 0 0 0 1 0 0 0 0 0 1 0 0 -0.21 -0.72 -0.07 2 0 "
         result="color2"
         id="feColorMatrix50786" />
    </filter>
    <filter
       style="color-interpolation-filters:sRGB"
       inkscape:label="Invert"
       id="filter50736"
       x="-0.0081904726"
       y="-0.0051908847"
       width="1.0163809"
       height="1.0103818">
      <feColorMatrix
         values="1 0 0 0 0 0 1 0 0 0 0 0 1 0 0 -0.21 -0.72 -0.07 2 0 "
         result="color2"
         id="feColorMatrix50734" />
    </filter>
    <filter
       style="color-interpolation-filters:sRGB"
       inkscape:label="Invert"
       id="filter50732"
       x="0"
       y="0"
       width="1"
       height="1">
      <feColorMatrix
         values="1 0 0 0 0 0 1 0 0 0 0 0 1 0 0 -0.21 -0.72 -0.07 2 0 "
         result="color2"
         id="feColorMatrix50730" />
    </filter>
    <filter
       style="color-interpolation-filters:sRGB"
       inkscape:label="Invert"
       id="filter50728"
       x="-0.033412069"
       y="-0.024893068"
       width="1.0668241"
       height="1.0497861">
      <feColorMatrix
         values="1 0 0 0 0 0 1 0 0 0 0 0 1 0 0 -0.21 -0.72 -0.07 2 0 "
         result="color2"
         id="feColorMatrix50726" />
    </filter>
    <filter
       style="color-interpolation-filters:sRGB"
       inkscape:label="Invert"
       id="filter50724"
       x="-0.05507182"
       y="-0.02628017"
       width="1.1105084"
       height="1.0525603">
      <feColorMatrix
         values="1 0 0 0 0 0 1 0 0 0 0 0 1 0 0 -0.21 -0.72 -0.07 2 0 "
         result="color2"
         id="feColorMatrix50722" />
    </filter>
    <filter
       style="color-interpolation-filters:sRGB"
       inkscape:label="Invert"
       id="filter50720"
       x="-0.038102195"
       y="-0.014397957"
       width="1.0566831"
       height="1.0439095">
      <feColorMatrix
         values="1 0 0 0 0 0 1 0 0 0 0 0 1 0 0 -0.21 -0.72 -0.07 2 0 "
         result="color2"
         id="feColorMatrix50718" />
    </filter>
    <filter
       style="color-interpolation-filters:sRGB"
       inkscape:label="Invert"
       id="filter50716"
       x="-0.05507182"
       y="-0.02628017"
       width="1.1105082"
       height="1.0525603">
      <feColorMatrix
         values="1 0 0 0 0 0 1 0 0 0 0 0 1 0 0 -0.21 -0.72 -0.07 2 0 "
         result="color2"
         id="feColorMatrix50714" />
    </filter>
    <filter
       style="color-interpolation-filters:sRGB"
       inkscape:label="Invert"
       id="filter50760"
       x="-0.0081904726"
       y="-0.0051908847"
       width="1.0163809"
       height="1.0103818">
      <feColorMatrix
         values="1 0 0 0 0 0 1 0 0 0 0 0 1 0 0 -0.21 -0.72 -0.07 2 0 "
         result="color2"
         id="feColorMatrix50758" />
    </filter>
    <filter
       style="color-interpolation-filters:sRGB"
       inkscape:label="Invert"
       id="filter50756"
       x="0"
       y="0"
       width="1"
       height="1">
      <feColorMatrix
         values="1 0 0 0 0 0 1 0 0 0 0 0 1 0 0 -0.21 -0.72 -0.07 2 0 "
         result="color2"
         id="feColorMatrix50754" />
    </filter>
    <filter
       style="color-interpolation-filters:sRGB"
       inkscape:label="Invert"
       id="filter50752"
       x="-0.033412069"
       y="-0.024893068"
       width="1.0668241"
       height="1.0497861">
      <feColorMatrix
         values="1 0 0 0 0 0 1 0 0 0 0 0 1 0 0 -0.21 -0.72 -0.07 2 0 "
         result="color2"
         id="feColorMatrix50750" />
    </filter>
    <filter
       style="color-interpolation-filters:sRGB"
       inkscape:label="Invert"
       id="filter50748"
       x="-0.055072408"
       y="-0.02628033"
       width="1.1105092"
       height="1.0525607">
      <feColorMatrix
         values="1 0 0 0 0 0 1 0 0 0 0 0 1 0 0 -0.21 -0.72 -0.07 2 0 "
         result="color2"
         id="feColorMatrix50746" />
    </filter>
    <filter
       style="color-interpolation-filters:sRGB"
       inkscape:label="Invert"
       id="filter50744"
       x="-0.038102195"
       y="-0.014397957"
       width="1.0566831"
       height="1.0439095">
      <feColorMatrix
         values="1 0 0 0 0 0 1 0 0 0 0 0 1 0 0 -0.21 -0.72 -0.07 2 0 "
         result="color2"
         id="feColorMatrix50742" />
    </filter>
    <filter
       style="color-interpolation-filters:sRGB"
       inkscape:label="Invert"
       id="filter50740"
       x="-0.055072129"
       y="-0.02628017"
       width="1.1105086"
       height="1.0525603">
      <feColorMatrix
         values="1 0 0 0 0 0 1 0 0 0 0 0 1 0 0 -0.21 -0.72 -0.07 2 0 "
         result="color2"
         id="feColorMatrix50738" />
    </filter>
  </defs>
  <g
     inkscape:label="Capa 1"
     inkscape:groupmode="layer"
     id="layer1"
     transform="translate(-50.9086,-132.87489)">
    <path
       id="rect43974"
       style="fill:#ffffff;stroke:#000000;stroke-width:1.3;stroke-linecap:round;stroke-linejoin:round;stroke-dashoffset:9.31653"
       d="m 59.5905,133.52489 h 63.2967 c 4.4497,0 8.0319,3.58221 8.0319,8.03185 v 109.15577 c 0,4.44964 -3.5822,8.03185 -8.0319,8.03185 H 59.5905 c -4.4497,0 -8.0319,-3.58221 -8.0319,-8.03185 V 141.55674 c 0,-4.44964 3.5822,-8.03185 8.0319,-8.03185 z" />
    <path
       id="rect43976"
       style="fill:#e9d600;stroke-width:1.81997;stroke-linecap:round;stroke-linejoin:round;stroke-dashoffset:9.31653"
       d="m 61.4051,137.90135 h 59.6671 c 3.0438,0 5.4943,2.45044 5.4943,5.49425 v 105.4781 c 0,3.04381 -2.4505,5.49424 -5.4943,5.49424 H 61.4051 c -3.0438,0 -5.4942,-2.45043 -5.4942,-5.49424 V 143.3956 c 0,-3.04381 2.4504,-5.49425 5.4942,-5.49425 z" />
    <path
       id="ellipse43978"
       style="fill:none;fill-opacity:0;stroke:#ffffff;stroke-width:4.90276;stroke-linecap:round;stroke-linejoin:round;stroke-dashoffset:9.31653"
       d="m 116.80472,210.29892 a 29.227528,54.28476 28.987554 0 1 -51.873567,33.31997 29.227528,54.28476 28.987554 0 1 0.741435,-61.64846 29.227528,54.28476 28.987554 0 1 51.873482,-33.32001 29.227528,54.28476 28.987554 0 1 -0.74135,61.6485 z" />
    <g
       aria-label="3"
       transform="matrix(1.1127008,0,-0.06826013,0.89871419,-2435.687,-202.78169)"
       id="text43982"
       style="font-size:75.0979px;line-height:1.25;font-family:'Tw Cen MT Condensed Extra Bold';-inkscape-font-specification:'Tw Cen MT Condensed Extra Bold, Normal';fill:#ffffff;stroke:#000000;stroke-width:2.573">
      <path
         d="m 2296.3623,433.71727 h -10.7073 q 0.073,-4.21693 0.7333,-6.56374 0.6968,-2.34681 2.3469,-4.58361 1.6867,-2.2368 4.4002,-3.59355 2.7135,-1.39342 5.867,-1.39342 5.6471,0 9.3139,4.07025 3.6669,4.03358 3.6669,10.26729 0,7.26044 -5.6103,11.40403 6.6004,3.4102 6.6004,12.17407 0,3.48355 -1.6501,6.96709 -1.6134,3.44688 -4.7303,5.02364 -3.1168,1.54009 -7.2971,1.54009 -6.2704,0 -10.2673,-3.66689 -3.9969,-3.70355 -4.2903,-10.15728 h 10.524 q 0.073,4.51027 3.5936,4.51027 3.4469,0 3.4469,-6.16037 0,-2.86017 -1.0268,-3.96024 -0.99,-1.13674 -3.5569,-1.13674 h -3.3735 v -10.15728 h 3.6669 q 2.3468,0 3.3369,-1.21008 1.0267,-1.24674 1.0267,-4.03357 0,-6.0137 -3.3736,-6.0137 -1.5767,0 -2.1267,1.24674 -0.5134,1.24674 -0.5134,4.40027 z"
         id="path47369" />
    </g>
    <g
       aria-label="3"
       transform="matrix(1.1127008,0,-0.06826013,0.89871419,-2435.687,-202.78169)"
       id="text43986"
       style="font-size:24.4557px;line-height:1.25;font-family:'Tw Cen MT Condensed Extra Bold';-inkscape-font-specification:'Tw Cen MT Condensed Extra Bold, Normal';fill:#ffffff;stroke:#000000;stroke-width:1.138">
      <path
         d="m 2271.9689,389.71456 h -3.4868 q 0.024,-1.37324 0.2388,-2.13748 0.2269,-0.76424 0.7642,-1.49266 0.5493,-0.72842 1.433,-1.17024 0.8836,-0.45377 1.9106,-0.45377 1.8389,0 3.0331,1.32548 1.1941,1.31354 1.1941,3.34355 0,2.36437 -1.827,3.71373 2.1494,1.11054 2.1494,3.9645 0,1.13442 -0.5374,2.26884 -0.5254,1.12248 -1.5404,1.63595 -1.015,0.50154 -2.3763,0.50154 -2.0419,0 -3.3435,-1.19413 -1.3016,-1.20607 -1.3972,-3.30773 h 3.4272 q 0.024,1.46878 1.1702,1.46878 1.1225,0 1.1225,-2.00614 0,-0.93141 -0.3344,-1.28965 -0.3224,-0.37018 -1.1583,-0.37018 h -1.0986 v -3.30773 h 1.1942 q 0.7642,0 1.0866,-0.39406 0.3344,-0.406 0.3344,-1.31354 0,-1.95837 -1.0986,-1.95837 -0.5135,0 -0.6926,0.40601 -0.1672,0.406 -0.1672,1.43295 z"
         id="path47372" />
    </g>
    <g
       aria-label="3"
       transform="matrix(-1.1127008,0,0.06826013,-0.89871419,-2435.687,-202.78169)"
       id="text43990"
       style="font-size:24.4557px;line-height:1.25;font-family:'Tw Cen MT Condensed Extra Bold';-inkscape-font-specification:'Tw Cen MT Condensed Extra Bold, Normal';fill:#ffffff;stroke:#000000;stroke-width:1.138">
      <path
         d="m -2324.5484,-498.23014 h -3.4869 q 0.024,-1.37325 0.2389,-2.13749 0.2268,-0.76424 0.7642,-1.49265 0.5493,-0.72842 1.4329,-1.17025 0.8837,-0.45376 1.9106,-0.45376 1.839,0 3.0331,1.32548 1.1942,1.31353 1.1942,3.34355 0,2.36437 -1.8271,3.71373 2.1495,1.11054 2.1495,3.9645 0,1.13442 -0.5374,2.26884 -0.5254,1.12248 -1.5404,1.63595 -1.015,0.50153 -2.3763,0.50153 -2.042,0 -3.3436,-1.19412 -1.3016,-1.20607 -1.3971,-3.30773 h 3.4271 q 0.024,1.46877 1.1703,1.46877 1.1225,0 1.1225,-2.00613 0,-0.93142 -0.3344,-1.28965 -0.3224,-0.37018 -1.1583,-0.37018 h -1.0986 v -3.30773 h 1.1941 q 0.7643,0 1.0867,-0.39406 0.3343,-0.40601 0.3343,-1.31354 0,-1.95837 -1.0986,-1.95837 -0.5134,0 -0.6925,0.406 -0.1672,0.40601 -0.1672,1.43295 z"
         id="path47375" />
    </g>
  </g>
</svg>
