<?xml version="1.0" encoding="UTF-8" standalone="no"?>
<!-- Created with Inkscape (http://www.inkscape.org/) -->

<svg
   width="80.6605mm"
   height="126.51947mm"
   viewBox="0 0 80.660499 126.51947"
   version="1.1"
   id="svg2720"
   inkscape:version="1.1.2 (b8e25be833, 2022-02-05)"
   sodipodi:docname="verde_rayosx.svg"
   xmlns:inkscape="http://www.inkscape.org/namespaces/inkscape"
   xmlns:sodipodi="http://sodipodi.sourceforge.net/DTD/sodipodi-0.dtd"
   xmlns="http://www.w3.org/2000/svg"
   xmlns:svg="http://www.w3.org/2000/svg">
  <sodipodi:namedview
     id="namedview2722"
     pagecolor="#ffffff"
     bordercolor="#666666"
     borderopacity="1.0"
     inkscape:pageshadow="2"
     inkscape:pageopacity="0.0"
     inkscape:pagecheckerboard="0"
     inkscape:document-units="mm"
     showgrid="false"
     inkscape:zoom="0.74029882"
     inkscape:cx="350.53413"
     inkscape:cy="250.57449"
     inkscape:window-width="958"
     inkscape:window-height="1008"
     inkscape:window-x="953"
     inkscape:window-y="0"
     inkscape:window-maximized="0"
     inkscape:current-layer="layer1" />
  <defs
     id="defs2717">
    <filter
       style="color-interpolation-filters:sRGB"
       inkscape:label="Invert"
       id="filter50808"
       x="-0.0081904726"
       y="-0.0051908861"
       width="1.0163809"
       height="1.0103818">
      <feColorMatrix
         values="1 0 0 0 0 0 1 0 0 0 0 0 1 0 0 -0.21 -0.72 -0.07 2 0 "
         result="color2"
         id="feColorMatrix50806" />
    </filter>
    <filter
       style="color-interpolation-filters:sRGB"
       inkscape:label="Invert"
       id="filter50804"
       x="0"
       y="0"
       width="1"
       height="1">
      <feColorMatrix
         values="1 0 0 0 0 0 1 0 0 0 0 0 1 0 0 -0.21 -0.72 -0.07 2 0 "
         result="color2"
         id="feColorMatrix50802" />
    </filter>
    <filter
       style="color-interpolation-filters:sRGB"
       inkscape:label="Invert"
       id="filter50800"
       x="-0.033412036"
       y="-0.02489306"
       width="1.0668241"
       height="1.0497861">
      <feColorMatrix
         values="1 0 0 0 0 0 1 0 0 0 0 0 1 0 0 -0.21 -0.72 -0.07 2 0 "
         result="color2"
         id="feColorMatrix50798" />
    </filter>
    <filter
       style="color-interpolation-filters:sRGB"
       inkscape:label="Invert"
       id="filter50796"
       x="-0.055072352"
       y="-0.026280202"
       width="1.110509"
       height="1.0525604">
      <feColorMatrix
         values="1 0 0 0 0 0 1 0 0 0 0 0 1 0 0 -0.21 -0.72 -0.07 2 0 "
         result="color2"
         id="feColorMatrix50794" />
    </filter>
    <filter
       style="color-interpolation-filters:sRGB"
       inkscape:label="Invert"
       id="filter50792"
       x="-0.038102195"
       y="-0.014397957"
       width="1.0566831"
       height="1.0439095">
      <feColorMatrix
         values="1 0 0 0 0 0 1 0 0 0 0 0 1 0 0 -0.21 -0.72 -0.07 2 0 "
         result="color2"
         id="feColorMatrix50790" />
    </filter>
    <filter
       style="color-interpolation-filters:sRGB"
       inkscape:label="Invert"
       id="filter50788"
       x="-0.055072408"
       y="-0.02628033"
       width="1.1105092"
       height="1.0525607">
      <feColorMatrix
         values="1 0 0 0 0 0 1 0 0 0 0 0 1 0 0 -0.21 -0.72 -0.07 2 0 "
         result="color2"
         id="feColorMatrix50786" />
    </filter>
    <filter
       style="color-interpolation-filters:sRGB"
       inkscape:label="Invert"
       id="filter50736"
       x="-0.0081904726"
       y="-0.0051908847"
       width="1.0163809"
       height="1.0103818">
      <feColorMatrix
         values="1 0 0 0 0 0 1 0 0 0 0 0 1 0 0 -0.21 -0.72 -0.07 2 0 "
         result="color2"
         id="feColorMatrix50734" />
    </filter>
    <filter
       style="color-interpolation-filters:sRGB"
       inkscape:label="Invert"
       id="filter50732"
       x="0"
       y="0"
       width="1"
       height="1">
      <feColorMatrix
         values="1 0 0 0 0 0 1 0 0 0 0 0 1 0 0 -0.21 -0.72 -0.07 2 0 "
         result="color2"
         id="feColorMatrix50730" />
    </filter>
    <filter
       style="color-interpolation-filters:sRGB"
       inkscape:label="Invert"
       id="filter50728"
       x="-0.033412069"
       y="-0.024893068"
       width="1.0668241"
       height="1.0497861">
      <feColorMatrix
         values="1 0 0 0 0 0 1 0 0 0 0 0 1 0 0 -0.21 -0.72 -0.07 2 0 "
         result="color2"
         id="feColorMatrix50726" />
    </filter>
    <filter
       style="color-interpolation-filters:sRGB"
       inkscape:label="Invert"
       id="filter50724"
       x="-0.05507182"
       y="-0.02628017"
       width="1.1105084"
       height="1.0525603">
      <feColorMatrix
         values="1 0 0 0 0 0 1 0 0 0 0 0 1 0 0 -0.21 -0.72 -0.07 2 0 "
         result="color2"
         id="feColorMatrix50722" />
    </filter>
    <filter
       style="color-interpolation-filters:sRGB"
       inkscape:label="Invert"
       id="filter50720"
       x="-0.038102195"
       y="-0.014397957"
       width="1.0566831"
       height="1.0439095">
      <feColorMatrix
         values="1 0 0 0 0 0 1 0 0 0 0 0 1 0 0 -0.21 -0.72 -0.07 2 0 "
         result="color2"
         id="feColorMatrix50718" />
    </filter>
    <filter
       style="color-interpolation-filters:sRGB"
       inkscape:label="Invert"
       id="filter50716"
       x="-0.05507182"
       y="-0.02628017"
       width="1.1105082"
       height="1.0525603">
      <feColorMatrix
         values="1 0 0 0 0 0 1 0 0 0 0 0 1 0 0 -0.21 -0.72 -0.07 2 0 "
         result="color2"
         id="feColorMatrix50714" />
    </filter>
  </defs>
  <g
     inkscape:label="Capa 1"
     inkscape:groupmode="layer"
     id="layer1"
     transform="translate(-4.0614,-139.30299)">
    <path
       id="path46781"
       style="fill:#ffffff;stroke:#000000;stroke-width:1.3;stroke-linecap:round;stroke-linejoin:round;stroke-dashoffset:9.31653"
       d="M 12.7433,139.95299 H 76.04 c 4.4497,0 8.0319,3.58221 8.0319,8.03185 v 109.15577 c 0,4.44964 -3.5822,8.03185 -8.0319,8.03185 H 12.7433 c -4.4497,0 -8.0319,-3.58221 -8.0319,-8.03185 V 147.98484 c 0,-4.44964 3.5822,-8.03185 8.0319,-8.03185 z" />
    <path
       id="path46783"
       style="fill:#27ae4f;fill-opacity:1;stroke-width:1.81997;stroke-linecap:round;stroke-linejoin:round;stroke-dashoffset:9.31653"
       d="m 14.5582,144.32944 h 59.6671 c 3.0438,0 5.4942,2.45043 5.4942,5.49424 v 105.4781 c 0,3.04381 -2.4504,5.49425 -5.4942,5.49425 H 14.5582 c -3.0438,0 -5.4942,-2.45044 -5.4942,-5.49425 v -105.4781 c 0,-3.04381 2.4504,-5.49424 5.4942,-5.49424 z" />
    <path
       id="path46785"
       style="fill:none;fill-opacity:0;stroke:#ffffff;stroke-width:4.90276;stroke-linecap:round;stroke-linejoin:round;stroke-dashoffset:9.31653"
       d="m 69.9575,216.72696 a 29.227528,54.28476 28.987554 0 1 -51.8734,33.31996 29.227528,54.28476 28.987554 0 1 0.7414,-61.6484 29.227528,54.28476 28.987554 0 1 51.8735,-33.32005 29.227528,54.28476 28.987554 0 1 -0.7415,61.64849 z" />
    <g
       aria-label="X"
       transform="matrix(1.1127008,0,-0.06826013,0.89871419,-3350.4755,-349.69867)"
       id="text46789"
       style="font-size:24.9417px;line-height:1.25;font-family:'Tw Cen MT Condensed Extra Bold';-inkscape-font-specification:'Tw Cen MT Condensed Extra Bold, Normal';fill:#ffffff;stroke:#000000;stroke-width:0.854547">
      <path
         d="m 3058.4533,555.32835 h 4.0919 q 1.5711,3.82407 1.7172,4.38428 h 0.049 q 0.024,-0.1705 0.4628,-1.24221 l 1.2422,-3.14207 h 4.092 l -3.7753,7.75774 4.092,8.50064 h -4.092 q -1.9608,-4.59132 -2.046,-4.9445 h -0.049 q -0.2071,0.77943 -0.5481,1.54668 l -1.4979,3.39782 h -4.0311 l 4.0067,-8.45192 z"
         id="path56950" />
    </g>
    <g
       id="g46799"
       transform="translate(-3347.8297,-46.48617)">
      <path
         id="path46791"
         style="fill:#ffffff;stroke:#000000;stroke-width:1.4502;stroke-linecap:square;stroke-miterlimit:4;stroke-dasharray:none;stroke-dashoffset:9.31653"
         d="m 3387.2195,224.29149 h 17.9864 c 3.3329,0 5.8441,2.67764 5.6307,6.00367 l -2.0983,32.68672 c -0.2135,3.32603 -3.0685,6.00369 -6.4015,6.00369 h -17.9863 c -3.3329,0 -5.8441,-2.67766 -5.6306,-6.00369 l 2.0983,-32.68672 c 0.2135,-3.32603 3.0684,-6.00367 6.4013,-6.00367 z" />
      <path
         id="path46793"
         style="fill:#ffffff;fill-opacity:1;stroke:#000000;stroke-width:2.97259;stroke-linecap:round;stroke-linejoin:round;stroke-miterlimit:4;stroke-dasharray:none;stroke-dashoffset:9.31653;stroke-opacity:1;paint-order:stroke markers fill"
         d="m 3390.7253,232.47989 c -8.4814,5e-5 -15.3568,6.87552 -15.357,15.35686 0.014,4.12474 1.6875,8.0703 4.6426,10.94808 l -0.08,-0.0538 -8.0884,13.76094 3.3943,2.16083 9.4987,-12.70178 c 1.8931,0.8117 3.9301,1.23428 5.99,1.24255 8.4813,-4e-5 15.3567,-6.8755 15.3567,-15.35683 0,-8.48133 -6.8756,-15.35681 -15.3567,-15.35686 z m 0,4.37372 c 6.0657,-2e-5 10.9831,4.91731 10.983,10.98314 0,6.06582 -4.9171,10.98314 -10.983,10.98312 -6.0658,2e-5 -10.9831,-4.9173 -10.9831,-10.98312 0,-6.06583 4.9173,-10.98316 10.9831,-10.98314 z"
         sodipodi:nodetypes="scccccccsssssss" />
      <path
         style="fill:none;stroke:#000000;stroke-width:1.65959;stroke-linecap:round;stroke-linejoin:miter;stroke-miterlimit:4;stroke-dasharray:none;stroke-opacity:1"
         d="m 3388.3102,241.30753 -4.5425,5.43308"
         id="path46795" />
      <path
         style="fill:none;stroke:#000000;stroke-width:1.65959;stroke-linecap:round;stroke-linejoin:miter;stroke-miterlimit:4;stroke-dasharray:none;stroke-opacity:1"
         d="m 3389.7354,243.71234 -2.8502,3.29546"
         id="path46797"
         sodipodi:nodetypes="cc" />
    </g>
    <g
       aria-label="X"
       transform="matrix(1.1127008,0,-0.06826013,-0.89871419,-3350.4755,-349.69867)"
       id="text46803"
       style="font-size:24.9417px;line-height:1.25;font-family:'Tw Cen MT Condensed Extra Bold';-inkscape-font-specification:'Tw Cen MT Condensed Extra Bold, Normal';fill:#ffffff;stroke:#000000;stroke-width:0.854547">
      <path
         d="m 3025.5453,-674.9219 h 4.092 q 1.571,3.82407 1.7172,4.38429 h 0.049 q 0.024,-0.1705 0.4628,-1.24222 l 1.2422,-3.14207 h 4.092 l -3.7754,7.75775 4.092,8.50064 h -4.092 q -1.9607,-4.59132 -2.046,-4.9445 h -0.049 q -0.207,0.77943 -0.548,1.54668 l -1.498,3.39782 h -4.0311 l 4.0068,-8.45193 z"
         id="path56953" />
    </g>
  </g>
</svg>
