<?xml version="1.0" encoding="UTF-8" standalone="no"?>
<!-- Created with Inkscape (http://www.inkscape.org/) -->

<svg
   width="80.6605mm"
   height="126.51946mm"
   viewBox="0 0 80.660499 126.51946"
   version="1.1"
   id="svg2720"
   inkscape:version="1.1.2 (b8e25be833, 2022-02-05)"
   sodipodi:docname="verde_8.svg"
   xmlns:inkscape="http://www.inkscape.org/namespaces/inkscape"
   xmlns:sodipodi="http://sodipodi.sourceforge.net/DTD/sodipodi-0.dtd"
   xmlns="http://www.w3.org/2000/svg"
   xmlns:svg="http://www.w3.org/2000/svg">
  <sodipodi:namedview
     id="namedview2722"
     pagecolor="#ffffff"
     bordercolor="#666666"
     borderopacity="1.0"
     inkscape:pageshadow="2"
     inkscape:pageopacity="0.0"
     inkscape:pagecheckerboard="0"
     inkscape:document-units="mm"
     showgrid="false"
     inkscape:zoom="0.74029882"
     inkscape:cx="281.64303"
     inkscape:cy="327.57043"
     inkscape:window-width="958"
     inkscape:window-height="1008"
     inkscape:window-x="953"
     inkscape:window-y="0"
     inkscape:window-maximized="0"
     inkscape:current-layer="layer1" />
  <defs
     id="defs2717">
    <filter
       style="color-interpolation-filters:sRGB"
       inkscape:label="Invert"
       id="filter50808"
       x="-0.0081904726"
       y="-0.0051908861"
       width="1.0163809"
       height="1.0103818">
      <feColorMatrix
         values="1 0 0 0 0 0 1 0 0 0 0 0 1 0 0 -0.21 -0.72 -0.07 2 0 "
         result="color2"
         id="feColorMatrix50806" />
    </filter>
    <filter
       style="color-interpolation-filters:sRGB"
       inkscape:label="Invert"
       id="filter50804"
       x="0"
       y="0"
       width="1"
       height="1">
      <feColorMatrix
         values="1 0 0 0 0 0 1 0 0 0 0 0 1 0 0 -0.21 -0.72 -0.07 2 0 "
         result="color2"
         id="feColorMatrix50802" />
    </filter>
    <filter
       style="color-interpolation-filters:sRGB"
       inkscape:label="Invert"
       id="filter50800"
       x="-0.033412036"
       y="-0.02489306"
       width="1.0668241"
       height="1.0497861">
      <feColorMatrix
         values="1 0 0 0 0 0 1 0 0 0 0 0 1 0 0 -0.21 -0.72 -0.07 2 0 "
         result="color2"
         id="feColorMatrix50798" />
    </filter>
    <filter
       style="color-interpolation-filters:sRGB"
       inkscape:label="Invert"
       id="filter50796"
       x="-0.055072352"
       y="-0.026280202"
       width="1.110509"
       height="1.0525604">
      <feColorMatrix
         values="1 0 0 0 0 0 1 0 0 0 0 0 1 0 0 -0.21 -0.72 -0.07 2 0 "
         result="color2"
         id="feColorMatrix50794" />
    </filter>
    <filter
       style="color-interpolation-filters:sRGB"
       inkscape:label="Invert"
       id="filter50792"
       x="-0.038102195"
       y="-0.014397957"
       width="1.0566831"
       height="1.0439095">
      <feColorMatrix
         values="1 0 0 0 0 0 1 0 0 0 0 0 1 0 0 -0.21 -0.72 -0.07 2 0 "
         result="color2"
         id="feColorMatrix50790" />
    </filter>
    <filter
       style="color-interpolation-filters:sRGB"
       inkscape:label="Invert"
       id="filter50788"
       x="-0.055072408"
       y="-0.02628033"
       width="1.1105092"
       height="1.0525607">
      <feColorMatrix
         values="1 0 0 0 0 0 1 0 0 0 0 0 1 0 0 -0.21 -0.72 -0.07 2 0 "
         result="color2"
         id="feColorMatrix50786" />
    </filter>
    <filter
       style="color-interpolation-filters:sRGB"
       inkscape:label="Invert"
       id="filter50736"
       x="-0.0081904726"
       y="-0.0051908847"
       width="1.0163809"
       height="1.0103818">
      <feColorMatrix
         values="1 0 0 0 0 0 1 0 0 0 0 0 1 0 0 -0.21 -0.72 -0.07 2 0 "
         result="color2"
         id="feColorMatrix50734" />
    </filter>
    <filter
       style="color-interpolation-filters:sRGB"
       inkscape:label="Invert"
       id="filter50732"
       x="0"
       y="0"
       width="1"
       height="1">
      <feColorMatrix
         values="1 0 0 0 0 0 1 0 0 0 0 0 1 0 0 -0.21 -0.72 -0.07 2 0 "
         result="color2"
         id="feColorMatrix50730" />
    </filter>
    <filter
       style="color-interpolation-filters:sRGB"
       inkscape:label="Invert"
       id="filter50728"
       x="-0.033412069"
       y="-0.024893068"
       width="1.0668241"
       height="1.0497861">
      <feColorMatrix
         values="1 0 0 0 0 0 1 0 0 0 0 0 1 0 0 -0.21 -0.72 -0.07 2 0 "
         result="color2"
         id="feColorMatrix50726" />
    </filter>
    <filter
       style="color-interpolation-filters:sRGB"
       inkscape:label="Invert"
       id="filter50724"
       x="-0.05507182"
       y="-0.02628017"
       width="1.1105084"
       height="1.0525603">
      <feColorMatrix
         values="1 0 0 0 0 0 1 0 0 0 0 0 1 0 0 -0.21 -0.72 -0.07 2 0 "
         result="color2"
         id="feColorMatrix50722" />
    </filter>
    <filter
       style="color-interpolation-filters:sRGB"
       inkscape:label="Invert"
       id="filter50720"
       x="-0.038102195"
       y="-0.014397957"
       width="1.0566831"
       height="1.0439095">
      <feColorMatrix
         values="1 0 0 0 0 0 1 0 0 0 0 0 1 0 0 -0.21 -0.72 -0.07 2 0 "
         result="color2"
         id="feColorMatrix50718" />
    </filter>
    <filter
       style="color-interpolation-filters:sRGB"
       inkscape:label="Invert"
       id="filter50716"
       x="-0.05507182"
       y="-0.02628017"
       width="1.1105082"
       height="1.0525603">
      <feColorMatrix
         values="1 0 0 0 0 0 1 0 0 0 0 0 1 0 0 -0.21 -0.72 -0.07 2 0 "
         result="color2"
         id="feColorMatrix50714" />
    </filter>
  </defs>
  <g
     inkscape:label="Capa 1"
     inkscape:groupmode="layer"
     id="layer1"
     transform="translate(-22.0088,-118.93017)">
    <path
       id="rect44372"
       style="fill:#ffffff;stroke:#000000;stroke-width:1.3;stroke-linecap:round;stroke-linejoin:round;stroke-dashoffset:9.31653"
       d="m 30.6906,119.58017 h 63.2968 c 4.4497,0 8.0319,3.5822 8.0319,8.03185 v 109.15576 c 0,4.44965 -3.5822,8.03185 -8.0319,8.03185 H 30.6906 c -4.4496,0 -8.0318,-3.5822 -8.0318,-8.03185 V 127.61202 c 0,-4.44965 3.5822,-8.03185 8.0318,-8.03185 z" />
    <path
       id="rect44374"
       style="fill:#27ae4f;stroke-width:1.81997;stroke-linecap:round;stroke-linejoin:round;stroke-dashoffset:9.31653"
       d="m 32.5056,123.9566 h 59.6671 c 3.0438,0 5.4942,2.45043 5.4942,5.49424 v 105.4781 c 0,3.04381 -2.4504,5.49424 -5.4942,5.49424 H 32.5056 c -3.0438,0 -5.4943,-2.45043 -5.4943,-5.49424 v -105.4781 c 0,-3.04381 2.4505,-5.49424 5.4943,-5.49424 z" />
    <path
       id="ellipse44376"
       style="fill:none;fill-opacity:0;stroke:#ffffff;stroke-width:4.90276;stroke-linecap:round;stroke-linejoin:round;stroke-dashoffset:9.31653"
       d="m 87.904943,196.35402 a 29.227528,54.28476 28.987554 0 1 -51.873484,33.32002 29.227528,54.28476 28.987554 0 1 0.741435,-61.64846 29.227528,54.28476 28.987554 0 1 51.873475,-33.32 29.227528,54.28476 28.987554 0 1 -0.741426,61.64844 z" />
    <g
       aria-label="8"
       transform="matrix(1.1127008,0,-0.06826013,0.89871419,-2898.3334,-369.18616)"
       id="text44380"
       style="font-size:75.0979px;line-height:1.25;font-family:'Tw Cen MT Condensed Extra Bold';-inkscape-font-specification:'Tw Cen MT Condensed Extra Bold, Normal';fill:#ffffff;stroke:#000000;stroke-width:2.573;paint-order:markers fill stroke">
      <path
         d="m 2704.7237,610.65637 q 4.1803,1.79678 6.4538,5.46367 2.3101,3.66689 2.3101,8.28717 0,6.4904 -3.9969,10.3773 -3.9969,3.8869 -10.7073,3.8869 -6.8571,0 -10.854,-3.85023 -3.9603,-3.85024 -3.9603,-10.41397 0,-1.6501 0.22,-3.08019 0.2201,-1.46675 0.6601,-2.71349 0.4767,-1.28342 1.1734,-2.38348 0.6967,-1.13674 1.6134,-2.09013 0.9534,-0.95339 2.2002,-1.76011 1.2834,-0.84338 2.6401,-1.6501 v -0.0733 h -0.073 q 0,-0.0733 -0.073,-0.0733 0,-0.0733 -0.073,-0.0733 -2.2001,-1.02673 -3.6669,-2.27347 -1.4301,-1.24674 -2.4568,-3.52022 -1.0267,-2.31014 -1.0267,-5.31699 0,-5.24365 3.8869,-8.72719 3.8869,-3.52022 9.7172,-3.52022 5.9404,0 9.7173,3.55689 3.7769,3.55688 3.7769,9.13055 0,3.66689 -1.8335,6.23371 -1.7967,2.56683 -5.647,4.58361 z m -3.2268,-9.24056 q 0,-5.31699 -2.7869,-5.31699 -2.8601,0 -2.8601,4.73029 0,2.86017 0.66,4.07025 0.6967,1.1734 2.2735,1.1734 2.7135,0 2.7135,-4.65695 z m 1.1734,22.07468 q 0,-7.18711 -3.9603,-7.18711 -4.1436,0 -4.1436,6.60041 0,7.04042 4.217,7.04042 3.8869,0 3.8869,-6.45372 z"
         id="path47596" />
    </g>
    <g
       aria-label="8"
       transform="matrix(1.1127008,0,-0.06826013,0.89871419,-2898.3334,-369.18616)"
       id="text44384"
       style="font-size:24.4557px;line-height:1.25;font-family:'Tw Cen MT Condensed Extra Bold';-inkscape-font-specification:'Tw Cen MT Condensed Extra Bold, Normal';fill:#ffffff;stroke:#000000;stroke-width:1.138">
      <path
         d="m 2674.8411,561.73293 q 1.3613,0.58512 2.1016,1.77925 0.7523,1.19413 0.7523,2.69872 0,2.11361 -1.3016,3.37938 -1.3016,1.26577 -3.4868,1.26577 -2.233,0 -3.5346,-1.25383 -1.2897,-1.25383 -1.2897,-3.39132 0,-0.53735 0.072,-1.00306 0.072,-0.47765 0.2149,-0.88365 0.1552,-0.41795 0.3821,-0.77619 0.2269,-0.37018 0.5254,-0.68065 0.3105,-0.31047 0.7165,-0.57318 0.418,-0.27465 0.8598,-0.53736 v -0.0239 h -0.024 q 0,-0.0239 -0.024,-0.0239 0,-0.0239 -0.024,-0.0239 -0.7164,-0.33436 -1.1941,-0.74036 -0.4657,-0.406 -0.8001,-1.14636 -0.3343,-0.7523 -0.3343,-1.73148 0,-1.7076 1.2658,-2.84202 1.2657,-1.14637 3.1644,-1.14637 1.9345,0 3.1644,1.15831 1.23,1.1583 1.23,2.97337 0,1.19413 -0.5971,2.03001 -0.5851,0.83589 -1.8389,1.49266 z m -1.0509,-3.0092 q 0,-1.73148 -0.9075,-1.73148 -0.9314,0 -0.9314,1.54042 0,0.93142 0.2149,1.32548 0.2269,0.38212 0.7404,0.38212 0.8836,0 0.8836,-1.51654 z m 0.3822,7.18864 q 0,-2.34048 -1.2897,-2.34048 -1.3494,0 -1.3494,2.14942 0,2.29272 1.3733,2.29272 1.2658,0 1.2658,-2.10166 z"
         id="path47599" />
    </g>
    <g
       aria-label="8"
       transform="matrix(-1.1127008,0,0.06826013,-0.89871419,-2898.3334,-369.18616)"
       id="text44388"
       style="font-size:24.4557px;line-height:1.25;font-family:'Tw Cen MT Condensed Extra Bold';-inkscape-font-specification:'Tw Cen MT Condensed Extra Bold, Normal';fill:#ffffff;stroke:#000000;stroke-width:1.138">
      <path
         d="m -2722.1187,-665.49583 q 1.3613,0.58512 2.1017,1.77925 0.7523,1.19413 0.7523,2.69872 0,2.11361 -1.3016,3.37938 -1.3016,1.26577 -3.4868,1.26577 -2.2331,0 -3.5347,-1.25383 -1.2896,-1.25383 -1.2896,-3.39132 0,-0.53735 0.072,-1.00306 0.072,-0.47765 0.215,-0.88365 0.1552,-0.41795 0.3821,-0.77619 0.2269,-0.37018 0.5254,-0.68065 0.3105,-0.31047 0.7165,-0.57318 0.4179,-0.27465 0.8598,-0.53736 v -0.0239 h -0.024 q 0,-0.0239 -0.024,-0.0239 0,-0.0239 -0.024,-0.0239 -0.7165,-0.33436 -1.1941,-0.74036 -0.4657,-0.406 -0.8001,-1.14636 -0.3343,-0.7523 -0.3343,-1.73148 0,-1.7076 1.2657,-2.84202 1.2658,-1.14637 3.1645,-1.14637 1.9345,0 3.1644,1.15831 1.23,1.1583 1.23,2.97337 0,1.19413 -0.5971,2.03001 -0.5851,0.83589 -1.839,1.49266 z m -1.0508,-3.0092 q 0,-1.73148 -0.9075,-1.73148 -0.9314,0 -0.9314,1.54042 0,0.93142 0.2149,1.32548 0.2269,0.38212 0.7404,0.38212 0.8836,0 0.8836,-1.51654 z m 0.3821,7.18864 q 0,-2.34048 -1.2896,-2.34048 -1.3494,0 -1.3494,2.14942 0,2.29272 1.3733,2.29272 1.2657,0 1.2657,-2.10166 z"
         id="path47602" />
    </g>
  </g>
</svg>
