<?xml version="1.0" encoding="UTF-8" standalone="no"?>
<!-- Created with Inkscape (http://www.inkscape.org/) -->

<svg
   width="80.6605mm"
   height="126.51946mm"
   viewBox="0 0 80.660499 126.51946"
   version="1.1"
   id="svg2720"
   inkscape:version="1.1.2 (b8e25be833, 2022-02-05)"
   sodipodi:docname="verde_6.svg"
   xmlns:inkscape="http://www.inkscape.org/namespaces/inkscape"
   xmlns:sodipodi="http://sodipodi.sourceforge.net/DTD/sodipodi-0.dtd"
   xmlns="http://www.w3.org/2000/svg"
   xmlns:svg="http://www.w3.org/2000/svg">
  <sodipodi:namedview
     id="namedview2722"
     pagecolor="#ffffff"
     bordercolor="#666666"
     borderopacity="1.0"
     inkscape:pageshadow="2"
     inkscape:pageopacity="0.0"
     inkscape:pagecheckerboard="0"
     inkscape:document-units="mm"
     showgrid="false"
     inkscape:zoom="0.74029882"
     inkscape:cx="257.32852"
     inkscape:cy="14.183462"
     inkscape:window-width="958"
     inkscape:window-height="1008"
     inkscape:window-x="953"
     inkscape:window-y="0"
     inkscape:window-maximized="0"
     inkscape:current-layer="layer1" />
  <defs
     id="defs2717">
    <filter
       style="color-interpolation-filters:sRGB"
       inkscape:label="Invert"
       id="filter50808"
       x="-0.0081904726"
       y="-0.0051908861"
       width="1.0163809"
       height="1.0103818">
      <feColorMatrix
         values="1 0 0 0 0 0 1 0 0 0 0 0 1 0 0 -0.21 -0.72 -0.07 2 0 "
         result="color2"
         id="feColorMatrix50806" />
    </filter>
    <filter
       style="color-interpolation-filters:sRGB"
       inkscape:label="Invert"
       id="filter50804"
       x="0"
       y="0"
       width="1"
       height="1">
      <feColorMatrix
         values="1 0 0 0 0 0 1 0 0 0 0 0 1 0 0 -0.21 -0.72 -0.07 2 0 "
         result="color2"
         id="feColorMatrix50802" />
    </filter>
    <filter
       style="color-interpolation-filters:sRGB"
       inkscape:label="Invert"
       id="filter50800"
       x="-0.033412036"
       y="-0.02489306"
       width="1.0668241"
       height="1.0497861">
      <feColorMatrix
         values="1 0 0 0 0 0 1 0 0 0 0 0 1 0 0 -0.21 -0.72 -0.07 2 0 "
         result="color2"
         id="feColorMatrix50798" />
    </filter>
    <filter
       style="color-interpolation-filters:sRGB"
       inkscape:label="Invert"
       id="filter50796"
       x="-0.055072352"
       y="-0.026280202"
       width="1.110509"
       height="1.0525604">
      <feColorMatrix
         values="1 0 0 0 0 0 1 0 0 0 0 0 1 0 0 -0.21 -0.72 -0.07 2 0 "
         result="color2"
         id="feColorMatrix50794" />
    </filter>
    <filter
       style="color-interpolation-filters:sRGB"
       inkscape:label="Invert"
       id="filter50792"
       x="-0.038102195"
       y="-0.014397957"
       width="1.0566831"
       height="1.0439095">
      <feColorMatrix
         values="1 0 0 0 0 0 1 0 0 0 0 0 1 0 0 -0.21 -0.72 -0.07 2 0 "
         result="color2"
         id="feColorMatrix50790" />
    </filter>
    <filter
       style="color-interpolation-filters:sRGB"
       inkscape:label="Invert"
       id="filter50788"
       x="-0.055072408"
       y="-0.02628033"
       width="1.1105092"
       height="1.0525607">
      <feColorMatrix
         values="1 0 0 0 0 0 1 0 0 0 0 0 1 0 0 -0.21 -0.72 -0.07 2 0 "
         result="color2"
         id="feColorMatrix50786" />
    </filter>
    <filter
       style="color-interpolation-filters:sRGB"
       inkscape:label="Invert"
       id="filter50736"
       x="-0.0081904726"
       y="-0.0051908847"
       width="1.0163809"
       height="1.0103818">
      <feColorMatrix
         values="1 0 0 0 0 0 1 0 0 0 0 0 1 0 0 -0.21 -0.72 -0.07 2 0 "
         result="color2"
         id="feColorMatrix50734" />
    </filter>
    <filter
       style="color-interpolation-filters:sRGB"
       inkscape:label="Invert"
       id="filter50732"
       x="0"
       y="0"
       width="1"
       height="1">
      <feColorMatrix
         values="1 0 0 0 0 0 1 0 0 0 0 0 1 0 0 -0.21 -0.72 -0.07 2 0 "
         result="color2"
         id="feColorMatrix50730" />
    </filter>
    <filter
       style="color-interpolation-filters:sRGB"
       inkscape:label="Invert"
       id="filter50728"
       x="-0.033412069"
       y="-0.024893068"
       width="1.0668241"
       height="1.0497861">
      <feColorMatrix
         values="1 0 0 0 0 0 1 0 0 0 0 0 1 0 0 -0.21 -0.72 -0.07 2 0 "
         result="color2"
         id="feColorMatrix50726" />
    </filter>
    <filter
       style="color-interpolation-filters:sRGB"
       inkscape:label="Invert"
       id="filter50724"
       x="-0.05507182"
       y="-0.02628017"
       width="1.1105084"
       height="1.0525603">
      <feColorMatrix
         values="1 0 0 0 0 0 1 0 0 0 0 0 1 0 0 -0.21 -0.72 -0.07 2 0 "
         result="color2"
         id="feColorMatrix50722" />
    </filter>
    <filter
       style="color-interpolation-filters:sRGB"
       inkscape:label="Invert"
       id="filter50720"
       x="-0.038102195"
       y="-0.014397957"
       width="1.0566831"
       height="1.0439095">
      <feColorMatrix
         values="1 0 0 0 0 0 1 0 0 0 0 0 1 0 0 -0.21 -0.72 -0.07 2 0 "
         result="color2"
         id="feColorMatrix50718" />
    </filter>
    <filter
       style="color-interpolation-filters:sRGB"
       inkscape:label="Invert"
       id="filter50716"
       x="-0.05507182"
       y="-0.02628017"
       width="1.1105082"
       height="1.0525603">
      <feColorMatrix
         values="1 0 0 0 0 0 1 0 0 0 0 0 1 0 0 -0.21 -0.72 -0.07 2 0 "
         result="color2"
         id="feColorMatrix50714" />
    </filter>
  </defs>
  <g
     inkscape:label="Capa 1"
     inkscape:groupmode="layer"
     id="layer1"
     transform="translate(-28.33,-201.84674)">
    <path
       id="rect44348"
       style="fill:#ffffff;stroke:#000000;stroke-width:1.3;stroke-linecap:round;stroke-linejoin:round;stroke-dashoffset:9.31653"
       d="m 37.0118,202.49674 h 63.2968 c 4.4497,0 8.0319,3.5822 8.0319,8.03185 v 109.15576 c 0,4.44965 -3.5822,8.03185 -8.0319,8.03185 H 37.0118 c -4.4496,0 -8.0318,-3.5822 -8.0318,-8.03185 V 210.52859 c 0,-4.44965 3.5822,-8.03185 8.0318,-8.03185 z" />
    <path
       id="rect44350"
       style="fill:#27ae4f;stroke-width:1.81997;stroke-linecap:round;stroke-linejoin:round;stroke-dashoffset:9.31653"
       d="m 38.8268,206.87317 h 59.6671 c 3.0438,0 5.4942,2.45043 5.4942,5.49424 v 105.4781 c 0,3.04381 -2.4504,5.49424 -5.4942,5.49424 H 38.8268 c -3.0438,0 -5.4943,-2.45043 -5.4943,-5.49424 v -105.4781 c 0,-3.04381 2.4505,-5.49424 5.4943,-5.49424 z" />
    <path
       id="ellipse44352"
       style="fill:none;fill-opacity:0;stroke:#ffffff;stroke-width:4.90276;stroke-linecap:round;stroke-linejoin:round;stroke-dashoffset:9.31653"
       d="m 94.226159,279.27068 a 29.227528,54.28476 28.987554 0 1 -51.873485,33.32002 29.227528,54.28476 28.987554 0 1 0.741435,-61.64846 29.227528,54.28476 28.987554 0 1 51.873485,-33.32002 29.227528,54.28476 28.987554 0 1 -0.741435,61.64846 z" />
    <g
       id="g44428"
       transform="matrix(-0.29966215,0,0.01575159,-0.28960271,232.5675,337.36788)"
       style="stroke:#000000;stroke-width:1.00139;stroke-miterlimit:4;stroke-dasharray:none;stroke-opacity:1">
      <g
         aria-label="6"
         transform="matrix(1.1127008,0,-0.06826013,0.89871419,0,0)"
         id="text44424"
         style="font-size:75.0979px;line-height:1.25;font-family:'Tw Cen MT Condensed Extra Bold';-inkscape-font-specification:'Tw Cen MT Condensed Extra Bold, Normal';fill:#ffffff;stroke:#000000;stroke-width:1.00139;stroke-miterlimit:4;stroke-dasharray:none;stroke-opacity:1">
        <path
           d="m 424.54642,72.099952 h 11.66071 q -6.27038,12.980789 -8.50718,18.444455 0.47669,-0.03667 1.57676,-0.293352 1.24674,-0.220013 2.12679,-0.220013 5.94037,0 9.27724,3.99691 3.33687,3.99691 3.33687,11.184018 0,7.88381 -4.32693,12.54076 -4.32693,4.65695 -11.58738,4.65695 -6.82041,0 -11.074,-4.62028 -4.25359,-4.65695 -4.25359,-12.13741 0,-9.203891 8.39717,-26.584948 z m 3.85024,40.702478 q 2.27347,0 3.66688,-1.94345 1.43009,-1.98013 1.43009,-5.13365 0,-3.04352 -1.46675,-5.09698 -1.46676,-2.090124 -3.55689,-2.090124 -2.20013,0 -3.63022,2.053454 -1.39342,2.05346 -1.39342,5.28033 0,3.11685 1.32008,5.02363 1.35675,1.90679 3.55689,1.90679 z"
           id="path47623"
           style="stroke:#000000;stroke-width:1.00139;stroke-miterlimit:4;stroke-dasharray:none;stroke-opacity:1" />
      </g>
      <path
         id="rect44426"
         style="fill:#ffffff;stroke:#000000;stroke-width:1.00139;stroke-linecap:square;stroke-miterlimit:4;stroke-dasharray:none;stroke-dashoffset:9.31653;stroke-opacity:1"
         d="m 451.99484,112.17763 h 32.92879 v 6.34426 h -32.92879 z" />
    </g>
    <g
       id="g44436"
       transform="matrix(0.86688912,0,-0.0455676,0.83778828,-335.5086,187.99604)">
      <g
         aria-label="6"
         transform="matrix(1.1127008,0,-0.06826013,0.89871419,0,0)"
         id="text44432"
         style="font-size:75.0979px;line-height:1.25;font-family:'Tw Cen MT Condensed Extra Bold';-inkscape-font-specification:'Tw Cen MT Condensed Extra Bold, Normal';fill:#ffffff;stroke:#000000;stroke-width:2.80798">
        <path
           d="m 424.54642,72.099952 h 11.66071 q -6.27038,12.980789 -8.50718,18.444455 0.47669,-0.03667 1.57676,-0.293352 1.24674,-0.220013 2.12679,-0.220013 5.94037,0 9.27724,3.99691 3.33687,3.99691 3.33687,11.184018 0,7.88381 -4.32693,12.54076 -4.32693,4.65695 -11.58738,4.65695 -6.82041,0 -11.074,-4.62028 -4.25359,-4.65695 -4.25359,-12.13741 0,-9.203891 8.39717,-26.584948 z m 3.85024,40.702478 q 2.27347,0 3.66688,-1.94345 1.43009,-1.98013 1.43009,-5.13365 0,-3.04352 -1.46675,-5.09698 -1.46676,-2.090124 -3.55689,-2.090124 -2.20013,0 -3.63022,2.053454 -1.39342,2.05346 -1.39342,5.28033 0,3.11685 1.32008,5.02363 1.35675,1.90679 3.55689,1.90679 z"
           id="path47627" />
      </g>
      <path
         id="rect44434"
         style="fill:#ffffff;stroke:#000000;stroke-width:2.41723;stroke-linecap:square;stroke-dashoffset:9.31653"
         d="m 451.99484,112.17763 h 32.92879 v 6.34426 h -32.92879 z" />
    </g>
    <g
       id="g44452"
       transform="matrix(0.29966215,0,-0.01575159,0.28960271,-95.8818,193.07662)"
       style="stroke:#000000;stroke-width:1.00139;stroke-miterlimit:4;stroke-dasharray:none;stroke-opacity:1">
      <g
         aria-label="6"
         transform="matrix(1.1127008,0,-0.06826013,0.89871419,0,0)"
         id="text44448"
         style="font-size:75.0979px;line-height:1.25;font-family:'Tw Cen MT Condensed Extra Bold';-inkscape-font-specification:'Tw Cen MT Condensed Extra Bold, Normal';fill:#ffffff;stroke:#000000;stroke-width:1.00139;stroke-miterlimit:4;stroke-dasharray:none;stroke-opacity:1">
        <path
           d="m 424.54642,72.099952 h 11.66071 q -6.27038,12.980789 -8.50718,18.444455 0.47669,-0.03667 1.57676,-0.293352 1.24674,-0.220013 2.12679,-0.220013 5.94037,0 9.27724,3.99691 3.33687,3.99691 3.33687,11.184018 0,7.88381 -4.32693,12.54076 -4.32693,4.65695 -11.58738,4.65695 -6.82041,0 -11.074,-4.62028 -4.25359,-4.65695 -4.25359,-12.13741 0,-9.203891 8.39717,-26.584948 z m 3.85024,40.702478 q 2.27347,0 3.66688,-1.94345 1.43009,-1.98013 1.43009,-5.13365 0,-3.04352 -1.46675,-5.09698 -1.46676,-2.090124 -3.55689,-2.090124 -2.20013,0 -3.63022,2.053454 -1.39342,2.05346 -1.39342,5.28033 0,3.11685 1.32008,5.02363 1.35675,1.90679 3.55689,1.90679 z"
           id="path47635"
           style="stroke:#000000;stroke-width:1.00139;stroke-miterlimit:4;stroke-dasharray:none;stroke-opacity:1" />
      </g>
      <path
         id="rect44450"
         style="fill:#ffffff;stroke:#000000;stroke-width:1.00139;stroke-linecap:square;stroke-miterlimit:4;stroke-dasharray:none;stroke-dashoffset:9.31653;stroke-opacity:1"
         d="m 451.99484,112.17763 h 32.92879 v 6.34426 h -32.92879 z" />
    </g>
  </g>
</svg>
