<?xml version="1.0" encoding="UTF-8" standalone="no"?>
<!-- Created with Inkscape (http://www.inkscape.org/) -->

<svg
   width="80.6605mm"
   height="126.51946mm"
   viewBox="0 0 80.660499 126.51946"
   version="1.1"
   id="svg2720"
   inkscape:version="1.1.2 (b8e25be833, 2022-02-05)"
   sodipodi:docname="verde_0.svg"
   xmlns:inkscape="http://www.inkscape.org/namespaces/inkscape"
   xmlns:sodipodi="http://sodipodi.sourceforge.net/DTD/sodipodi-0.dtd"
   xmlns="http://www.w3.org/2000/svg"
   xmlns:svg="http://www.w3.org/2000/svg">
  <sodipodi:namedview
     id="namedview2722"
     pagecolor="#ffffff"
     bordercolor="#666666"
     borderopacity="1.0"
     inkscape:pageshadow="2"
     inkscape:pageopacity="0.0"
     inkscape:pagecheckerboard="0"
     inkscape:document-units="mm"
     showgrid="false"
     inkscape:zoom="0.74029882"
     inkscape:cx="151.96566"
     inkscape:cy="172.22775"
     inkscape:window-width="958"
     inkscape:window-height="1008"
     inkscape:window-x="953"
     inkscape:window-y="0"
     inkscape:window-maximized="0"
     inkscape:current-layer="layer1" />
  <defs
     id="defs2717">
    <filter
       style="color-interpolation-filters:sRGB"
       inkscape:label="Invert"
       id="filter50808"
       x="-0.0081904726"
       y="-0.0051908861"
       width="1.0163809"
       height="1.0103818">
      <feColorMatrix
         values="1 0 0 0 0 0 1 0 0 0 0 0 1 0 0 -0.21 -0.72 -0.07 2 0 "
         result="color2"
         id="feColorMatrix50806" />
    </filter>
    <filter
       style="color-interpolation-filters:sRGB"
       inkscape:label="Invert"
       id="filter50804"
       x="0"
       y="0"
       width="1"
       height="1">
      <feColorMatrix
         values="1 0 0 0 0 0 1 0 0 0 0 0 1 0 0 -0.21 -0.72 -0.07 2 0 "
         result="color2"
         id="feColorMatrix50802" />
    </filter>
    <filter
       style="color-interpolation-filters:sRGB"
       inkscape:label="Invert"
       id="filter50800"
       x="-0.033412036"
       y="-0.02489306"
       width="1.0668241"
       height="1.0497861">
      <feColorMatrix
         values="1 0 0 0 0 0 1 0 0 0 0 0 1 0 0 -0.21 -0.72 -0.07 2 0 "
         result="color2"
         id="feColorMatrix50798" />
    </filter>
    <filter
       style="color-interpolation-filters:sRGB"
       inkscape:label="Invert"
       id="filter50796"
       x="-0.055072352"
       y="-0.026280202"
       width="1.110509"
       height="1.0525604">
      <feColorMatrix
         values="1 0 0 0 0 0 1 0 0 0 0 0 1 0 0 -0.21 -0.72 -0.07 2 0 "
         result="color2"
         id="feColorMatrix50794" />
    </filter>
    <filter
       style="color-interpolation-filters:sRGB"
       inkscape:label="Invert"
       id="filter50792"
       x="-0.038102195"
       y="-0.014397957"
       width="1.0566831"
       height="1.0439095">
      <feColorMatrix
         values="1 0 0 0 0 0 1 0 0 0 0 0 1 0 0 -0.21 -0.72 -0.07 2 0 "
         result="color2"
         id="feColorMatrix50790" />
    </filter>
    <filter
       style="color-interpolation-filters:sRGB"
       inkscape:label="Invert"
       id="filter50788"
       x="-0.055072408"
       y="-0.02628033"
       width="1.1105092"
       height="1.0525607">
      <feColorMatrix
         values="1 0 0 0 0 0 1 0 0 0 0 0 1 0 0 -0.21 -0.72 -0.07 2 0 "
         result="color2"
         id="feColorMatrix50786" />
    </filter>
    <filter
       style="color-interpolation-filters:sRGB"
       inkscape:label="Invert"
       id="filter50736"
       x="-0.0081904726"
       y="-0.0051908847"
       width="1.0163809"
       height="1.0103818">
      <feColorMatrix
         values="1 0 0 0 0 0 1 0 0 0 0 0 1 0 0 -0.21 -0.72 -0.07 2 0 "
         result="color2"
         id="feColorMatrix50734" />
    </filter>
    <filter
       style="color-interpolation-filters:sRGB"
       inkscape:label="Invert"
       id="filter50732"
       x="0"
       y="0"
       width="1"
       height="1">
      <feColorMatrix
         values="1 0 0 0 0 0 1 0 0 0 0 0 1 0 0 -0.21 -0.72 -0.07 2 0 "
         result="color2"
         id="feColorMatrix50730" />
    </filter>
    <filter
       style="color-interpolation-filters:sRGB"
       inkscape:label="Invert"
       id="filter50728"
       x="-0.033412069"
       y="-0.024893068"
       width="1.0668241"
       height="1.0497861">
      <feColorMatrix
         values="1 0 0 0 0 0 1 0 0 0 0 0 1 0 0 -0.21 -0.72 -0.07 2 0 "
         result="color2"
         id="feColorMatrix50726" />
    </filter>
    <filter
       style="color-interpolation-filters:sRGB"
       inkscape:label="Invert"
       id="filter50724"
       x="-0.05507182"
       y="-0.02628017"
       width="1.1105084"
       height="1.0525603">
      <feColorMatrix
         values="1 0 0 0 0 0 1 0 0 0 0 0 1 0 0 -0.21 -0.72 -0.07 2 0 "
         result="color2"
         id="feColorMatrix50722" />
    </filter>
    <filter
       style="color-interpolation-filters:sRGB"
       inkscape:label="Invert"
       id="filter50720"
       x="-0.038102195"
       y="-0.014397957"
       width="1.0566831"
       height="1.0439095">
      <feColorMatrix
         values="1 0 0 0 0 0 1 0 0 0 0 0 1 0 0 -0.21 -0.72 -0.07 2 0 "
         result="color2"
         id="feColorMatrix50718" />
    </filter>
    <filter
       style="color-interpolation-filters:sRGB"
       inkscape:label="Invert"
       id="filter50716"
       x="-0.05507182"
       y="-0.02628017"
       width="1.1105082"
       height="1.0525603">
      <feColorMatrix
         values="1 0 0 0 0 0 1 0 0 0 0 0 1 0 0 -0.21 -0.72 -0.07 2 0 "
         result="color2"
         id="feColorMatrix50714" />
    </filter>
  </defs>
  <g
     inkscape:label="Capa 1"
     inkscape:groupmode="layer"
     id="layer1"
     transform="translate(-55.8712,-160.02968)">
    <path
       id="rect44330"
       style="fill:#ffffff;stroke:#000000;stroke-width:1.3;stroke-linecap:round;stroke-linejoin:round;stroke-dashoffset:9.31653"
       d="m 64.5531,160.67968 h 63.2967 c 4.4497,0 8.0319,3.5822 8.0319,8.03185 v 109.15576 c 0,4.44965 -3.5822,8.03185 -8.0319,8.03185 H 64.5531 c -4.4497,0 -8.0319,-3.5822 -8.0319,-8.03185 V 168.71153 c 0,-4.44965 3.5822,-8.03185 8.0319,-8.03185 z" />
    <path
       id="rect44332"
       style="fill:#27ae4f;stroke-width:1.81997;stroke-linecap:round;stroke-linejoin:round;stroke-dashoffset:9.31653"
       d="m 66.368,165.05614 h 59.6671 c 3.0438,0 5.4942,2.45043 5.4942,5.49424 v 105.4781 c 0,3.04381 -2.4504,5.49424 -5.4942,5.49424 H 66.368 c -3.0438,0 -5.4943,-2.45043 -5.4943,-5.49424 v -105.4781 c 0,-3.04381 2.4505,-5.49424 5.4943,-5.49424 z" />
    <path
       id="ellipse44334"
       style="fill:none;fill-opacity:0;stroke:#ffffff;stroke-width:4.90276;stroke-linecap:round;stroke-linejoin:round;stroke-dashoffset:9.31653"
       d="m 121.76766,237.45377 a 29.227528,54.28476 28.987554 0 1 -51.873487,33.32002 29.227528,54.28476 28.987554 0 1 0.741435,-61.64846 29.227528,54.28476 28.987554 0 1 51.873482,-33.32001 29.227528,54.28476 28.987554 0 1 -0.74143,61.64845 z" />
    <g
       aria-label="0"
       transform="matrix(1.1127008,0,-0.06826013,0.89871419,-2177.7288,-328.08662)"
       id="text44338"
       style="font-size:75.0979px;line-height:1.25;font-family:'Tw Cen MT Condensed Extra Bold';-inkscape-font-specification:'Tw Cen MT Condensed Extra Bold, Normal';fill:#ffffff;stroke:#000000;stroke-width:2.573">
      <path
         d="m 2081.4521,587.15161 q 7.9572,0 12.0641,6.56373 4.1436,6.56374 4.1436,19.32451 0,12.43076 -4.2169,19.03116 -4.1803,6.6004 -11.9908,6.6004 -7.4071,0 -11.8074,-6.16037 -4.3636,-6.19705 -4.3636,-19.98455 0,-12.10074 4.217,-18.73781 4.2169,-6.63707 11.8073,-6.63707 z m -5.5003,25.30154 q 0,15.69429 5.427,15.69429 2.9335,0 4.2169,-3.44688 1.3201,-3.48354 1.3201,-11.03734 0,-8.32384 -1.3201,-12.10073 -1.2834,-3.81357 -4.2903,-3.81357 -5.3536,0 -5.3536,14.70423 z"
         id="path47569" />
    </g>
    <g
       aria-label="0"
       transform="matrix(1.1127008,0,-0.06826013,0.89871419,-2177.7288,-328.08662)"
       id="text44342"
       style="font-size:24.4557px;line-height:1.25;font-family:'Tw Cen MT Condensed Extra Bold';-inkscape-font-specification:'Tw Cen MT Condensed Extra Bold, Normal';fill:#ffffff;stroke:#000000;stroke-width:1.138">
      <path
         d="m 2055.674,554.07858 q 2.5913,0 3.9287,2.13749 1.3493,2.13749 1.3493,6.29304 0,4.04809 -1.3732,6.19752 -1.3613,2.14942 -3.9048,2.14942 -2.4121,0 -3.8451,-2.00613 -1.421,-2.01807 -1.421,-6.50798 0,-3.94062 1.3732,-6.10199 1.3733,-2.16137 3.8451,-2.16137 z m -1.7912,8.23947 q 0,5.11086 1.7673,5.11086 0.9553,0 1.3733,-1.12248 0.4298,-1.13442 0.4298,-3.59431 0,-2.71067 -0.4298,-3.94062 -0.418,-1.24189 -1.3972,-1.24189 -1.7434,0 -1.7434,4.78844 z"
         id="path47572" />
    </g>
    <g
       aria-label="0"
       transform="matrix(-1.1127008,0,0.06826013,-0.89871419,-2177.7288,-328.08662)"
       id="text44346"
       style="font-size:24.4557px;line-height:1.25;font-family:'Tw Cen MT Condensed Extra Bold';-inkscape-font-specification:'Tw Cen MT Condensed Extra Bold, Normal';fill:#ffffff;stroke:#000000;stroke-width:1.138">
      <path
         d="m -2106.9161,-673.15018 q 2.5913,0 3.9287,2.13749 1.3493,2.13749 1.3493,6.29304 0,4.04809 -1.3732,6.19752 -1.3613,2.14942 -3.9048,2.14942 -2.4121,0 -3.8451,-2.00613 -1.421,-2.01807 -1.421,-6.50798 0,-3.94062 1.3733,-6.10199 1.3732,-2.16137 3.845,-2.16137 z m -1.7912,8.23947 q 0,5.11086 1.7673,5.11086 0.9553,0 1.3733,-1.12248 0.4299,-1.13441 0.4299,-3.59431 0,-2.71067 -0.4299,-3.94062 -0.418,-1.24189 -1.3972,-1.24189 -1.7434,0 -1.7434,4.78844 z"
         id="path47575" />
    </g>
  </g>
</svg>
