<?xml version="1.0" encoding="UTF-8"?>
<svg width="121.33mm" height="121.33mm" version="1.1" viewBox="0 0 121.33 121.33" xmlns="http://www.w3.org/2000/svg">
<g transform="translate(-43.486 -104.15)">
<g transform="translate(-4871.4 -787.41)">
<g transform="matrix(2.415 0 0 2.415 4987.9 749.27)">
<path d="m-28.933 84.628a24.026 24.026 0 0 0 24.004 23.437 24.026 24.026 0 0 0 24.004-23.437z" fill="#feea09" style="paint-order:markers stroke fill"/>
<path d="m-5.1504 84.628-8.7895 21.674a24.026 24.026 0 0 0 9.0114 1.763 24.026 24.026 0 0 0 24.004-23.437z" fill="#27ae4f" style="paint-order:markers stroke fill"/>
<path d="m-4.9285 60.012a24.026 24.026 0 0 0-24.026 24.026 24.026 24.026 0 0 0 0.02204 0.58908h48.008a24.026 24.026 0 0 0 0.02203-0.58908 24.026 24.026 0 0 0-24.026-24.026z" fill="#df0c0c" style="paint-order:markers stroke fill"/>
<path d="m4.1155 61.78-9.2658 22.848h24.226a24.026 24.026 0 0 0 0.022032-0.58908 24.026 24.026 0 0 0-14.982-22.259z" fill="#0555e4" style="paint-order:markers stroke fill"/>
</g>
<circle cx="4975.5" cy="952.22" r="58.024" fill="none" stroke="#000" stroke-dashoffset="9.3165" stroke-linecap="round" stroke-linejoin="round" stroke-width="5.2794" style="paint-order:markers fill stroke"/>
</g>
</g>
</svg>
