<?xml version="1.0" encoding="UTF-8" standalone="no"?>
<!-- Created with Inkscape (http://www.inkscape.org/) -->

<svg
   width="80.6605mm"
   height="126.5194mm"
   viewBox="0 0 80.660499 126.5194"
   version="1.1"
   id="svg2720"
   inkscape:version="1.1.2 (b8e25be833, 2022-02-05)"
   sodipodi:docname="verde_alt_saltar.svg"
   xmlns:inkscape="http://www.inkscape.org/namespaces/inkscape"
   xmlns:sodipodi="http://sodipodi.sourceforge.net/DTD/sodipodi-0.dtd"
   xmlns="http://www.w3.org/2000/svg"
   xmlns:svg="http://www.w3.org/2000/svg">
  <sodipodi:namedview
     id="namedview2722"
     pagecolor="#ffffff"
     bordercolor="#666666"
     borderopacity="1.0"
     inkscape:pageshadow="2"
     inkscape:pageopacity="0.0"
     inkscape:pagecheckerboard="0"
     inkscape:document-units="mm"
     showgrid="false"
     inkscape:zoom="0.74029882"
     inkscape:cx="250.57449"
     inkscape:cy="319.46559"
     inkscape:window-width="958"
     inkscape:window-height="1008"
     inkscape:window-x="953"
     inkscape:window-y="0"
     inkscape:window-maximized="0"
     inkscape:current-layer="layer1" />
  <defs
     id="defs2717">
    <filter
       style="color-interpolation-filters:sRGB"
       inkscape:label="Invert"
       id="filter50808"
       x="-0.0081904726"
       y="-0.0051908861"
       width="1.0163809"
       height="1.0103818">
      <feColorMatrix
         values="1 0 0 0 0 0 1 0 0 0 0 0 1 0 0 -0.21 -0.72 -0.07 2 0 "
         result="color2"
         id="feColorMatrix50806" />
    </filter>
    <filter
       style="color-interpolation-filters:sRGB"
       inkscape:label="Invert"
       id="filter50804"
       x="0"
       y="0"
       width="1"
       height="1">
      <feColorMatrix
         values="1 0 0 0 0 0 1 0 0 0 0 0 1 0 0 -0.21 -0.72 -0.07 2 0 "
         result="color2"
         id="feColorMatrix50802" />
    </filter>
    <filter
       style="color-interpolation-filters:sRGB"
       inkscape:label="Invert"
       id="filter50800"
       x="-0.033412036"
       y="-0.02489306"
       width="1.0668241"
       height="1.0497861">
      <feColorMatrix
         values="1 0 0 0 0 0 1 0 0 0 0 0 1 0 0 -0.21 -0.72 -0.07 2 0 "
         result="color2"
         id="feColorMatrix50798" />
    </filter>
    <filter
       style="color-interpolation-filters:sRGB"
       inkscape:label="Invert"
       id="filter50796"
       x="-0.055072352"
       y="-0.026280202"
       width="1.110509"
       height="1.0525604">
      <feColorMatrix
         values="1 0 0 0 0 0 1 0 0 0 0 0 1 0 0 -0.21 -0.72 -0.07 2 0 "
         result="color2"
         id="feColorMatrix50794" />
    </filter>
    <filter
       style="color-interpolation-filters:sRGB"
       inkscape:label="Invert"
       id="filter50792"
       x="-0.038102195"
       y="-0.014397957"
       width="1.0566831"
       height="1.0439095">
      <feColorMatrix
         values="1 0 0 0 0 0 1 0 0 0 0 0 1 0 0 -0.21 -0.72 -0.07 2 0 "
         result="color2"
         id="feColorMatrix50790" />
    </filter>
    <filter
       style="color-interpolation-filters:sRGB"
       inkscape:label="Invert"
       id="filter50788"
       x="-0.055072408"
       y="-0.02628033"
       width="1.1105092"
       height="1.0525607">
      <feColorMatrix
         values="1 0 0 0 0 0 1 0 0 0 0 0 1 0 0 -0.21 -0.72 -0.07 2 0 "
         result="color2"
         id="feColorMatrix50786" />
    </filter>
    <filter
       style="color-interpolation-filters:sRGB"
       inkscape:label="Invert"
       id="filter50736"
       x="-0.0081904726"
       y="-0.0051908847"
       width="1.0163809"
       height="1.0103818">
      <feColorMatrix
         values="1 0 0 0 0 0 1 0 0 0 0 0 1 0 0 -0.21 -0.72 -0.07 2 0 "
         result="color2"
         id="feColorMatrix50734" />
    </filter>
    <filter
       style="color-interpolation-filters:sRGB"
       inkscape:label="Invert"
       id="filter50732"
       x="0"
       y="0"
       width="1"
       height="1">
      <feColorMatrix
         values="1 0 0 0 0 0 1 0 0 0 0 0 1 0 0 -0.21 -0.72 -0.07 2 0 "
         result="color2"
         id="feColorMatrix50730" />
    </filter>
    <filter
       style="color-interpolation-filters:sRGB"
       inkscape:label="Invert"
       id="filter50728"
       x="-0.033412069"
       y="-0.024893068"
       width="1.0668241"
       height="1.0497861">
      <feColorMatrix
         values="1 0 0 0 0 0 1 0 0 0 0 0 1 0 0 -0.21 -0.72 -0.07 2 0 "
         result="color2"
         id="feColorMatrix50726" />
    </filter>
    <filter
       style="color-interpolation-filters:sRGB"
       inkscape:label="Invert"
       id="filter50724"
       x="-0.05507182"
       y="-0.02628017"
       width="1.1105084"
       height="1.0525603">
      <feColorMatrix
         values="1 0 0 0 0 0 1 0 0 0 0 0 1 0 0 -0.21 -0.72 -0.07 2 0 "
         result="color2"
         id="feColorMatrix50722" />
    </filter>
    <filter
       style="color-interpolation-filters:sRGB"
       inkscape:label="Invert"
       id="filter50720"
       x="-0.038102195"
       y="-0.014397957"
       width="1.0566831"
       height="1.0439095">
      <feColorMatrix
         values="1 0 0 0 0 0 1 0 0 0 0 0 1 0 0 -0.21 -0.72 -0.07 2 0 "
         result="color2"
         id="feColorMatrix50718" />
    </filter>
    <filter
       style="color-interpolation-filters:sRGB"
       inkscape:label="Invert"
       id="filter50716"
       x="-0.05507182"
       y="-0.02628017"
       width="1.1105082"
       height="1.0525603">
      <feColorMatrix
         values="1 0 0 0 0 0 1 0 0 0 0 0 1 0 0 -0.21 -0.72 -0.07 2 0 "
         result="color2"
         id="feColorMatrix50714" />
    </filter>
  </defs>
  <g
     inkscape:label="Capa 1"
     inkscape:groupmode="layer"
     id="layer1"
     transform="translate(-31.4059,-121.0787)">
    <path
       id="rect46672"
       style="stroke:#ffffff;stroke-width:1.3;stroke-linecap:round;stroke-linejoin:round;stroke-dashoffset:9.31653"
       d="m 40.0878,121.7287 h 63.2967 c 4.4497,0 8.0319,3.5822 8.0319,8.0318 v 109.1558 c 0,4.4496 -3.5822,8.0318 -8.0319,8.0318 H 40.0878 c -4.4497,0 -8.0319,-3.5822 -8.0319,-8.0318 V 129.7605 c 0,-4.4496 3.5822,-8.0318 8.0319,-8.0318 z" />
    <path
       id="rect46674"
       style="fill:#d851b0;stroke-width:1.81997;stroke-linecap:round;stroke-linejoin:round;stroke-dashoffset:9.31653"
       d="m 41.9027,126.1051 h 59.6671 c 3.0438,0 5.4942,2.4505 5.4942,5.4943 v 105.4781 c 0,3.0438 -2.4504,5.4942 -5.4942,5.4942 H 41.9027 c -3.0438,0 -5.4942,-2.4504 -5.4942,-5.4942 V 131.5994 c 0,-3.0438 2.4504,-5.4943 5.4942,-5.4943 z" />
    <path
       id="ellipse46676"
       style="fill:none;fill-opacity:0;stroke:#000000;stroke-width:4.90276;stroke-linecap:round;stroke-linejoin:round;stroke-dashoffset:9.31653"
       d="m 97.302084,198.50238 a 29.227528,54.28476 28.987554 0 1 -51.873485,33.32001 29.227528,54.28476 28.987554 0 1 0.741435,-61.64845 29.227528,54.28476 28.987554 0 1 51.873485,-33.32002 29.227528,54.28476 28.987554 0 1 -0.741435,61.64846 z" />
    <path
       id="path46678"
       style="fill:#000000;fill-opacity:1;stroke:#ffffff;stroke-width:2.351;stroke-linecap:square;stroke-linejoin:miter;stroke-miterlimit:4;stroke-dasharray:none;stroke-dashoffset:9.31653;stroke-opacity:1;paint-order:markers fill stroke"
       d="m 73.0606,162.9544 a 20.509995,21.685378 37.398247 0 0 -22.0464,21.2592 20.509995,21.685378 37.398247 0 0 19.7955,21.2592 20.509995,21.685378 37.398247 0 0 22.0464,-21.2592 20.509995,21.685378 37.398247 0 0 -19.7955,-21.2592 z m -0.3233,6.1106 a 14.614681,15.452216 37.398295 0 1 7.0501,1.8855 l -21.0368,21.0368 a 14.614681,15.452216 37.398295 0 1 -1.7228,-7.7737 14.614681,15.452216 37.398295 0 1 15.7095,-15.1486 z m 12.3466,7.3181 a 14.614681,15.452216 37.398295 0 1 1.7586,7.8305 14.614681,15.452216 37.398295 0 1 -15.7095,15.1486 14.614681,15.452216 37.398295 0 1 -7.1124,-1.9158 z" />
    <path
       id="path46680"
       style="fill:#000000;fill-opacity:1;stroke:#ffffff;stroke-width:0.863;stroke-linecap:square;stroke-linejoin:miter;stroke-miterlimit:4;stroke-dasharray:none;stroke-dashoffset:9.31653;stroke-opacity:1;paint-order:markers fill stroke"
       d="m 48.4142,130.4839 a 7.4231573,7.8485621 37.398247 0 0 -7.9792,7.6944 7.4231573,7.8485621 37.398247 0 0 7.1645,7.6943 7.4231573,7.8485621 37.398247 0 0 7.9793,-7.6943 7.4231573,7.8485621 37.398247 0 0 -7.1646,-7.6944 z m -0.117,2.2116 a 5.2894734,5.5926013 37.398295 0 1 2.5516,0.6825 l -7.6138,7.6138 a 5.2894734,5.5926013 37.398295 0 1 -0.6235,-2.8135 5.2894734,5.5926013 37.398295 0 1 5.6857,-5.4828 z m 4.4686,2.6487 a 5.2894734,5.5926013 37.398295 0 1 0.6365,2.8341 5.2894734,5.5926013 37.398295 0 1 -5.6858,5.4827 5.2894734,5.5926013 37.398295 0 1 -2.5741,-0.6934 z" />
    <path
       id="path46682"
       style="fill:#000000;fill-opacity:1;stroke:#ffffff;stroke-width:0.863;stroke-linecap:square;stroke-linejoin:miter;stroke-miterlimit:4;stroke-dasharray:none;stroke-dashoffset:9.31653;stroke-opacity:1;paint-order:markers fill stroke"
       d="m 94.9851,223.0207 a 7.4231573,7.8485621 37.398247 0 0 -7.9792,7.6943 7.4231573,7.8485621 37.398247 0 0 7.1645,7.6944 7.4231573,7.8485621 37.398247 0 0 7.9793,-7.6944 7.4231573,7.8485621 37.398247 0 0 -7.1646,-7.6943 z m -0.117,2.2116 a 5.2894734,5.5926013 37.398295 0 1 2.5516,0.6824 l -7.6138,7.6139 a 5.2894734,5.5926013 37.398295 0 1 -0.6236,-2.8136 5.2894734,5.5926013 37.398295 0 1 5.6858,-5.4827 z m 4.4686,2.6487 a 5.2894734,5.5926013 37.398295 0 1 0.6365,2.834 5.2894734,5.5926013 37.398295 0 1 -5.6858,5.4828 5.2894734,5.5926013 37.398295 0 1 -2.5741,-0.6934 z" />
  </g>
</svg>
