<?xml version="1.0" encoding="UTF-8" standalone="no"?>
<!-- Created with Inkscape (http://www.inkscape.org/) -->

<svg
   width="80.6605mm"
   height="126.5195mm"
   viewBox="0 0 80.660499 126.5195"
   version="1.1"
   id="svg2720"
   inkscape:version="1.1.2 (b8e25be833, 2022-02-05)"
   sodipodi:docname="verde_alt_5.svg"
   xmlns:inkscape="http://www.inkscape.org/namespaces/inkscape"
   xmlns:sodipodi="http://sodipodi.sourceforge.net/DTD/sodipodi-0.dtd"
   xmlns="http://www.w3.org/2000/svg"
   xmlns:svg="http://www.w3.org/2000/svg">
  <sodipodi:namedview
     id="namedview2722"
     pagecolor="#ffffff"
     bordercolor="#666666"
     borderopacity="1.0"
     inkscape:pageshadow="2"
     inkscape:pageopacity="0.0"
     inkscape:pagecheckerboard="0"
     inkscape:document-units="mm"
     showgrid="false"
     inkscape:zoom="0.74029882"
     inkscape:cx="166.82453"
     inkscape:cy="366.7438"
     inkscape:window-width="958"
     inkscape:window-height="1008"
     inkscape:window-x="953"
     inkscape:window-y="0"
     inkscape:window-maximized="0"
     inkscape:current-layer="layer1" />
  <defs
     id="defs2717">
    <filter
       style="color-interpolation-filters:sRGB"
       inkscape:label="Invert"
       id="filter50808"
       x="-0.0081904726"
       y="-0.0051908861"
       width="1.0163809"
       height="1.0103818">
      <feColorMatrix
         values="1 0 0 0 0 0 1 0 0 0 0 0 1 0 0 -0.21 -0.72 -0.07 2 0 "
         result="color2"
         id="feColorMatrix50806" />
    </filter>
    <filter
       style="color-interpolation-filters:sRGB"
       inkscape:label="Invert"
       id="filter50804"
       x="0"
       y="0"
       width="1"
       height="1">
      <feColorMatrix
         values="1 0 0 0 0 0 1 0 0 0 0 0 1 0 0 -0.21 -0.72 -0.07 2 0 "
         result="color2"
         id="feColorMatrix50802" />
    </filter>
    <filter
       style="color-interpolation-filters:sRGB"
       inkscape:label="Invert"
       id="filter50800"
       x="-0.033412036"
       y="-0.02489306"
       width="1.0668241"
       height="1.0497861">
      <feColorMatrix
         values="1 0 0 0 0 0 1 0 0 0 0 0 1 0 0 -0.21 -0.72 -0.07 2 0 "
         result="color2"
         id="feColorMatrix50798" />
    </filter>
    <filter
       style="color-interpolation-filters:sRGB"
       inkscape:label="Invert"
       id="filter50796"
       x="-0.055072352"
       y="-0.026280202"
       width="1.110509"
       height="1.0525604">
      <feColorMatrix
         values="1 0 0 0 0 0 1 0 0 0 0 0 1 0 0 -0.21 -0.72 -0.07 2 0 "
         result="color2"
         id="feColorMatrix50794" />
    </filter>
    <filter
       style="color-interpolation-filters:sRGB"
       inkscape:label="Invert"
       id="filter50792"
       x="-0.038102195"
       y="-0.014397957"
       width="1.0566831"
       height="1.0439095">
      <feColorMatrix
         values="1 0 0 0 0 0 1 0 0 0 0 0 1 0 0 -0.21 -0.72 -0.07 2 0 "
         result="color2"
         id="feColorMatrix50790" />
    </filter>
    <filter
       style="color-interpolation-filters:sRGB"
       inkscape:label="Invert"
       id="filter50788"
       x="-0.055072408"
       y="-0.02628033"
       width="1.1105092"
       height="1.0525607">
      <feColorMatrix
         values="1 0 0 0 0 0 1 0 0 0 0 0 1 0 0 -0.21 -0.72 -0.07 2 0 "
         result="color2"
         id="feColorMatrix50786" />
    </filter>
    <filter
       style="color-interpolation-filters:sRGB"
       inkscape:label="Invert"
       id="filter50736"
       x="-0.0081904726"
       y="-0.0051908847"
       width="1.0163809"
       height="1.0103818">
      <feColorMatrix
         values="1 0 0 0 0 0 1 0 0 0 0 0 1 0 0 -0.21 -0.72 -0.07 2 0 "
         result="color2"
         id="feColorMatrix50734" />
    </filter>
    <filter
       style="color-interpolation-filters:sRGB"
       inkscape:label="Invert"
       id="filter50732"
       x="0"
       y="0"
       width="1"
       height="1">
      <feColorMatrix
         values="1 0 0 0 0 0 1 0 0 0 0 0 1 0 0 -0.21 -0.72 -0.07 2 0 "
         result="color2"
         id="feColorMatrix50730" />
    </filter>
    <filter
       style="color-interpolation-filters:sRGB"
       inkscape:label="Invert"
       id="filter50728"
       x="-0.033412069"
       y="-0.024893068"
       width="1.0668241"
       height="1.0497861">
      <feColorMatrix
         values="1 0 0 0 0 0 1 0 0 0 0 0 1 0 0 -0.21 -0.72 -0.07 2 0 "
         result="color2"
         id="feColorMatrix50726" />
    </filter>
    <filter
       style="color-interpolation-filters:sRGB"
       inkscape:label="Invert"
       id="filter50724"
       x="-0.05507182"
       y="-0.02628017"
       width="1.1105084"
       height="1.0525603">
      <feColorMatrix
         values="1 0 0 0 0 0 1 0 0 0 0 0 1 0 0 -0.21 -0.72 -0.07 2 0 "
         result="color2"
         id="feColorMatrix50722" />
    </filter>
    <filter
       style="color-interpolation-filters:sRGB"
       inkscape:label="Invert"
       id="filter50720"
       x="-0.038102195"
       y="-0.014397957"
       width="1.0566831"
       height="1.0439095">
      <feColorMatrix
         values="1 0 0 0 0 0 1 0 0 0 0 0 1 0 0 -0.21 -0.72 -0.07 2 0 "
         result="color2"
         id="feColorMatrix50718" />
    </filter>
    <filter
       style="color-interpolation-filters:sRGB"
       inkscape:label="Invert"
       id="filter50716"
       x="-0.05507182"
       y="-0.02628017"
       width="1.1105082"
       height="1.0525603">
      <feColorMatrix
         values="1 0 0 0 0 0 1 0 0 0 0 0 1 0 0 -0.21 -0.72 -0.07 2 0 "
         result="color2"
         id="feColorMatrix50714" />
    </filter>
  </defs>
  <g
     inkscape:label="Capa 1"
     inkscape:groupmode="layer"
     id="layer1"
     transform="translate(-53.2283,-108.5684)">
    <path
       id="rect46436"
       style="stroke:#ffffff;stroke-width:1.3;stroke-linecap:round;stroke-linejoin:round;stroke-dashoffset:9.31653"
       d="m 61.9102,109.2184 h 63.2967 c 4.4497,0 8.0319,3.5822 8.0319,8.0319 V 226.406 c 0,4.4497 -3.5822,8.0319 -8.0319,8.0319 H 61.9102 c -4.4497,0 -8.0319,-3.5822 -8.0319,-8.0319 V 117.2503 c 0,-4.4497 3.5822,-8.0319 8.0319,-8.0319 z" />
    <path
       id="rect46438"
       style="fill:#d851b0;stroke-width:1.81997;stroke-linecap:round;stroke-linejoin:round;stroke-dashoffset:9.31653"
       d="m 63.7249,113.5949 h 59.667 c 3.0439,0 5.4943,2.4504 5.4943,5.4942 v 105.4781 c 0,3.0438 -2.4504,5.4943 -5.4943,5.4943 h -59.667 c -3.0438,0 -5.4943,-2.4505 -5.4943,-5.4943 V 119.0891 c 0,-3.0438 2.4505,-5.4942 5.4943,-5.4942 z" />
    <path
       id="ellipse46440"
       style="fill:none;fill-opacity:0;stroke:#000000;stroke-width:4.90276;stroke-linecap:round;stroke-linejoin:round;stroke-dashoffset:9.31653"
       d="m 119.12474,185.99253 a 29.227528,54.28476 28.987554 0 1 -51.873567,33.31997 29.227528,54.28476 28.987554 0 1 0.741435,-61.64846 29.227528,54.28476 28.987554 0 1 51.873482,-33.32002 29.227528,54.28476 28.987554 0 1 -0.74135,61.64851 z" />
    <g
       aria-label="5"
       transform="matrix(1.1127008,0,-0.06826013,0.89871419,-2607.6998,-1033.3531)"
       id="text46444"
       style="font-size:75.0979px;line-height:1.25;font-family:'Tw Cen MT Condensed Extra Bold';-inkscape-font-specification:'Tw Cen MT Condensed Extra Bold, Normal';stroke:#ffffff;stroke-width:2.573">
      <path
         d="m 2502.0229,1315.8509 h 20.7912 l -0.22,9.8272 H 2509.98 l -1.0634,7.4438 q 7.0404,0.22 10.744,4.4003 3.7402,4.1436 3.7402,11.3674 0,7.9204 -4.3636,12.6141 -4.3636,4.6569 -11.7707,4.6569 -4.1436,0 -10.8173,-2.2001 l 1.4301,-9.3873 q 5.317,2.1268 7.9571,2.1268 3.3002,0 5.097,-2.1634 1.7968,-2.1635 1.7968,-6.1971 0,-3.4469 -2.3835,-5.317 -2.3468,-1.8701 -6.7471,-1.8701 -1.9801,0 -5.1336,0.6601 z"
         id="path48605" />
    </g>
    <g
       aria-label="5"
       transform="matrix(1.1127008,0,-0.06826013,0.89871419,-2607.6998,-1033.3531)"
       id="text46448"
       style="font-size:24.4557px;line-height:1.25;font-family:'Tw Cen MT Condensed Extra Bold';-inkscape-font-specification:'Tw Cen MT Condensed Extra Bold, Normal';stroke:#ffffff;stroke-width:1.138">
      <path
         d="m 2481.7098,1281.9618 h 6.7707 l -0.072,3.2002 h -4.1078 l -0.3463,2.4241 q 2.2928,0.072 3.4988,1.433 1.218,1.3493 1.218,3.7018 0,2.5793 -1.421,4.1078 -1.421,1.5165 -3.8331,1.5165 -1.3494,0 -3.5227,-0.7165 l 0.4657,-3.0569 q 1.7315,0.6925 2.5913,0.6925 1.0747,0 1.6598,-0.7045 0.5851,-0.7045 0.5851,-2.0181 0,-1.1224 -0.7761,-1.7314 -0.7643,-0.609 -2.1972,-0.609 -0.6449,0 -1.6718,0.2149 z"
         id="path48608" />
    </g>
    <g
       aria-label="5"
       transform="matrix(-1.1127008,0,0.06826013,-0.89871419,-2607.6998,-1033.3531)"
       id="text46452"
       style="font-size:24.4557px;line-height:1.25;font-family:'Tw Cen MT Condensed Extra Bold';-inkscape-font-specification:'Tw Cen MT Condensed Extra Bold, Normal';stroke:#ffffff;stroke-width:1.138">
      <path
         d="m -2538.2297,-1400.2452 h 6.7707 l -0.072,3.2002 h -4.1078 l -0.3463,2.4241 q 2.2927,0.072 3.4988,1.4329 1.218,1.3494 1.218,3.7018 0,2.5793 -1.421,4.1078 -1.421,1.5166 -3.8332,1.5166 -1.3493,0 -3.5226,-0.7165 l 0.4657,-3.057 q 1.7315,0.6926 2.5912,0.6926 1.0747,0 1.6599,-0.7045 0.5851,-0.7046 0.5851,-2.0181 0,-1.1225 -0.7762,-1.7315 -0.7642,-0.609 -2.1972,-0.609 -0.6448,0 -1.6718,0.215 z"
         id="path48611" />
    </g>
  </g>
</svg>
