<?xml version="1.0" encoding="UTF-8" standalone="no"?>
<!-- Created with Inkscape (http://www.inkscape.org/) -->

<svg
   width="80.6605mm"
   height="126.51951mm"
   viewBox="0 0 80.660499 126.51951"
   version="1.1"
   id="svg2720"
   inkscape:version="1.1.2 (b8e25be833, 2022-02-05)"
   sodipodi:docname="verde_alt_rayosx.svg"
   xmlns:inkscape="http://www.inkscape.org/namespaces/inkscape"
   xmlns:sodipodi="http://sodipodi.sourceforge.net/DTD/sodipodi-0.dtd"
   xmlns="http://www.w3.org/2000/svg"
   xmlns:svg="http://www.w3.org/2000/svg">
  <sodipodi:namedview
     id="namedview2722"
     pagecolor="#ffffff"
     bordercolor="#666666"
     borderopacity="1.0"
     inkscape:pageshadow="2"
     inkscape:pageopacity="0.0"
     inkscape:pagecheckerboard="0"
     inkscape:document-units="mm"
     showgrid="false"
     inkscape:zoom="0.74029882"
     inkscape:cx="255.97771"
     inkscape:cy="366.7438"
     inkscape:window-width="958"
     inkscape:window-height="1008"
     inkscape:window-x="953"
     inkscape:window-y="0"
     inkscape:window-maximized="0"
     inkscape:current-layer="layer1" />
  <defs
     id="defs2717">
    <filter
       style="color-interpolation-filters:sRGB"
       inkscape:label="Invert"
       id="filter50808"
       x="-0.0081904726"
       y="-0.0051908861"
       width="1.0163809"
       height="1.0103818">
      <feColorMatrix
         values="1 0 0 0 0 0 1 0 0 0 0 0 1 0 0 -0.21 -0.72 -0.07 2 0 "
         result="color2"
         id="feColorMatrix50806" />
    </filter>
    <filter
       style="color-interpolation-filters:sRGB"
       inkscape:label="Invert"
       id="filter50804"
       x="0"
       y="0"
       width="1"
       height="1">
      <feColorMatrix
         values="1 0 0 0 0 0 1 0 0 0 0 0 1 0 0 -0.21 -0.72 -0.07 2 0 "
         result="color2"
         id="feColorMatrix50802" />
    </filter>
    <filter
       style="color-interpolation-filters:sRGB"
       inkscape:label="Invert"
       id="filter50800"
       x="-0.033412036"
       y="-0.02489306"
       width="1.0668241"
       height="1.0497861">
      <feColorMatrix
         values="1 0 0 0 0 0 1 0 0 0 0 0 1 0 0 -0.21 -0.72 -0.07 2 0 "
         result="color2"
         id="feColorMatrix50798" />
    </filter>
    <filter
       style="color-interpolation-filters:sRGB"
       inkscape:label="Invert"
       id="filter50796"
       x="-0.055072352"
       y="-0.026280202"
       width="1.110509"
       height="1.0525604">
      <feColorMatrix
         values="1 0 0 0 0 0 1 0 0 0 0 0 1 0 0 -0.21 -0.72 -0.07 2 0 "
         result="color2"
         id="feColorMatrix50794" />
    </filter>
    <filter
       style="color-interpolation-filters:sRGB"
       inkscape:label="Invert"
       id="filter50792"
       x="-0.038102195"
       y="-0.014397957"
       width="1.0566831"
       height="1.0439095">
      <feColorMatrix
         values="1 0 0 0 0 0 1 0 0 0 0 0 1 0 0 -0.21 -0.72 -0.07 2 0 "
         result="color2"
         id="feColorMatrix50790" />
    </filter>
    <filter
       style="color-interpolation-filters:sRGB"
       inkscape:label="Invert"
       id="filter50788"
       x="-0.055072408"
       y="-0.02628033"
       width="1.1105092"
       height="1.0525607">
      <feColorMatrix
         values="1 0 0 0 0 0 1 0 0 0 0 0 1 0 0 -0.21 -0.72 -0.07 2 0 "
         result="color2"
         id="feColorMatrix50786" />
    </filter>
    <filter
       style="color-interpolation-filters:sRGB"
       inkscape:label="Invert"
       id="filter50736"
       x="-0.0081904726"
       y="-0.0051908847"
       width="1.0163809"
       height="1.0103818">
      <feColorMatrix
         values="1 0 0 0 0 0 1 0 0 0 0 0 1 0 0 -0.21 -0.72 -0.07 2 0 "
         result="color2"
         id="feColorMatrix50734" />
    </filter>
    <filter
       style="color-interpolation-filters:sRGB"
       inkscape:label="Invert"
       id="filter50732"
       x="0"
       y="0"
       width="1"
       height="1">
      <feColorMatrix
         values="1 0 0 0 0 0 1 0 0 0 0 0 1 0 0 -0.21 -0.72 -0.07 2 0 "
         result="color2"
         id="feColorMatrix50730" />
    </filter>
    <filter
       style="color-interpolation-filters:sRGB"
       inkscape:label="Invert"
       id="filter50728"
       x="-0.033412069"
       y="-0.024893068"
       width="1.0668241"
       height="1.0497861">
      <feColorMatrix
         values="1 0 0 0 0 0 1 0 0 0 0 0 1 0 0 -0.21 -0.72 -0.07 2 0 "
         result="color2"
         id="feColorMatrix50726" />
    </filter>
    <filter
       style="color-interpolation-filters:sRGB"
       inkscape:label="Invert"
       id="filter50724"
       x="-0.05507182"
       y="-0.02628017"
       width="1.1105084"
       height="1.0525603">
      <feColorMatrix
         values="1 0 0 0 0 0 1 0 0 0 0 0 1 0 0 -0.21 -0.72 -0.07 2 0 "
         result="color2"
         id="feColorMatrix50722" />
    </filter>
    <filter
       style="color-interpolation-filters:sRGB"
       inkscape:label="Invert"
       id="filter50720"
       x="-0.038102195"
       y="-0.014397957"
       width="1.0566831"
       height="1.0439095">
      <feColorMatrix
         values="1 0 0 0 0 0 1 0 0 0 0 0 1 0 0 -0.21 -0.72 -0.07 2 0 "
         result="color2"
         id="feColorMatrix50718" />
    </filter>
    <filter
       style="color-interpolation-filters:sRGB"
       inkscape:label="Invert"
       id="filter50716"
       x="-0.05507182"
       y="-0.02628017"
       width="1.1105082"
       height="1.0525603">
      <feColorMatrix
         values="1 0 0 0 0 0 1 0 0 0 0 0 1 0 0 -0.21 -0.72 -0.07 2 0 "
         result="color2"
         id="feColorMatrix50714" />
    </filter>
    <filter
       style="color-interpolation-filters:sRGB"
       inkscape:label="Invert"
       id="filter50760"
       x="-0.0081904723"
       y="-0.0051908846"
       width="1.0163809"
       height="1.0103818">
      <feColorMatrix
         values="1 0 0 0 0 0 1 0 0 0 0 0 1 0 0 -0.21 -0.72 -0.07 2 0 "
         result="color2"
         id="feColorMatrix50758" />
    </filter>
    <filter
       style="color-interpolation-filters:sRGB"
       inkscape:label="Invert"
       id="filter50756"
       x="0"
       y="0"
       width="1"
       height="1">
      <feColorMatrix
         values="1 0 0 0 0 0 1 0 0 0 0 0 1 0 0 -0.21 -0.72 -0.07 2 0 "
         result="color2"
         id="feColorMatrix50754" />
    </filter>
    <filter
       style="color-interpolation-filters:sRGB"
       inkscape:label="Invert"
       id="filter50752"
       x="-0.033412069"
       y="-0.024893067"
       width="1.0668241"
       height="1.0497861">
      <feColorMatrix
         values="1 0 0 0 0 0 1 0 0 0 0 0 1 0 0 -0.21 -0.72 -0.07 2 0 "
         result="color2"
         id="feColorMatrix50750" />
    </filter>
    <filter
       style="color-interpolation-filters:sRGB"
       inkscape:label="Invert"
       id="filter50748"
       x="-0.055072407"
       y="-0.026280331"
       width="1.1105091"
       height="1.0525607">
      <feColorMatrix
         values="1 0 0 0 0 0 1 0 0 0 0 0 1 0 0 -0.21 -0.72 -0.07 2 0 "
         result="color2"
         id="feColorMatrix50746" />
    </filter>
    <filter
       style="color-interpolation-filters:sRGB"
       inkscape:label="Invert"
       id="filter50744"
       x="-0.038102193"
       y="-0.014397957"
       width="1.0566831"
       height="1.0439096">
      <feColorMatrix
         values="1 0 0 0 0 0 1 0 0 0 0 0 1 0 0 -0.21 -0.72 -0.07 2 0 "
         result="color2"
         id="feColorMatrix50742" />
    </filter>
    <filter
       style="color-interpolation-filters:sRGB"
       inkscape:label="Invert"
       id="filter50740"
       x="-0.055072127"
       y="-0.02628017"
       width="1.1105086"
       height="1.0525603">
      <feColorMatrix
         values="1 0 0 0 0 0 1 0 0 0 0 0 1 0 0 -0.21 -0.72 -0.07 2 0 "
         result="color2"
         id="feColorMatrix50738" />
    </filter>
  </defs>
  <g
     inkscape:label="Capa 1"
     inkscape:groupmode="layer"
     id="layer1"
     transform="translate(-30.0884,-108.5701)">
    <path
       id="path50666"
       style="fill:#000000;stroke:#ffffff;stroke-width:1.3;stroke-linecap:round;stroke-linejoin:round;stroke-dashoffset:9.31653;filter:url(#filter50760)"
       d="m 38.7703,109.2201 h 63.2967 c 4.4497,0 8.0319,3.5823 8.0319,8.0319 v 109.1558 c 0,4.4496 -3.5822,8.0318 -8.0319,8.0318 H 38.7703 c -4.4497,0 -8.0319,-3.5822 -8.0319,-8.0318 V 117.252 c 0,-4.4496 3.5822,-8.0319 8.0319,-8.0319 z" />
    <path
       id="path50668"
       style="fill:#d851b0;fill-opacity:1;stroke-width:1.81997;stroke-linecap:round;stroke-linejoin:round;stroke-dashoffset:9.31653;filter:url(#filter50756)"
       d="m 40.5852,113.5966 h 59.6671 c 3.0438,0 5.4942,2.4504 5.4942,5.4942 v 105.4781 c 0,3.0438 -2.4504,5.4943 -5.4942,5.4943 H 40.5852 c -3.0438,0 -5.4942,-2.4505 -5.4942,-5.4943 V 119.0908 c 0,-3.0438 2.4504,-5.4942 5.4942,-5.4942 z" />
    <path
       id="path50670"
       style="fill:none;fill-opacity:0;stroke:#000000;stroke-width:4.90276;stroke-linecap:round;stroke-linejoin:round;stroke-dashoffset:9.31653;filter:url(#filter50752)"
       d="m 95.9845,185.9941 a 29.227528,54.28476 28.987554 0 1 -51.8734,33.32 29.227528,54.28476 28.987554 0 1 0.7414,-61.6484 29.227528,54.28476 28.987554 0 1 51.8735,-33.3201 29.227528,54.28476 28.987554 0 1 -0.7415,61.6485 z" />
    <g
       aria-label="X"
       transform="matrix(1.1127008,0,-0.06826013,0.89871419,-3331.932,-1037.4869)"
       id="text50674"
       style="font-size:24.9417px;line-height:1.25;font-family:'Tw Cen MT Condensed Extra Bold';-inkscape-font-specification:'Tw Cen MT Condensed Extra Bold, Normal';stroke:#ffffff;stroke-width:0.854547;filter:url(#filter50748)">
      <path
         d="m 3110.0294,1286.4344 h 4.092 q 1.5711,3.824 1.7172,4.3842 h 0.049 q 0.024,-0.1705 0.4628,-1.2422 l 1.2422,-3.142 h 4.092 l -3.7753,7.7577 4.092,8.5006 h -4.092 q -1.9608,-4.5913 -2.046,-4.9444 h -0.049 q -0.207,0.7794 -0.548,1.5466 l -1.498,3.3978 h -4.0311 l 4.0068,-8.4519 z"
         id="path56974" />
    </g>
    <g
       id="g50684"
       transform="translate(-3321.8026,-77.21901)"
       style="filter:url(#filter50744)">
      <path
         id="path50676"
         style="fill:#000000;stroke:#ffffff;stroke-width:1.4502;stroke-linecap:square;stroke-miterlimit:4;stroke-dasharray:none;stroke-dashoffset:9.31653"
         d="m 3387.2195,224.29149 h 17.9864 c 3.3329,0 5.8441,2.67764 5.6307,6.00367 l -2.0983,32.68672 c -0.2135,3.32603 -3.0685,6.00369 -6.4015,6.00369 h -17.9863 c -3.3329,0 -5.8441,-2.67766 -5.6306,-6.00369 l 2.0983,-32.68672 c 0.2135,-3.32603 3.0684,-6.00367 6.4013,-6.00367 z" />
      <path
         id="path50678"
         style="fill:#000000;fill-opacity:1;stroke:#ffffff;stroke-width:2.97259;stroke-linecap:round;stroke-linejoin:round;stroke-miterlimit:4;stroke-dasharray:none;stroke-dashoffset:9.31653;stroke-opacity:1;paint-order:stroke markers fill"
         d="m 3390.7253,232.47989 c -8.4814,5e-5 -15.3568,6.87552 -15.357,15.35686 0.014,4.12474 1.6875,8.0703 4.6426,10.94808 l -0.08,-0.0538 -8.0884,13.76094 3.3943,2.16083 9.4987,-12.70178 c 1.8931,0.8117 3.9301,1.23428 5.99,1.24255 8.4813,-4e-5 15.3567,-6.8755 15.3567,-15.35683 0,-8.48133 -6.8756,-15.35681 -15.3567,-15.35686 z m 0,4.37372 c 6.0657,-2e-5 10.9831,4.91731 10.983,10.98314 0,6.06582 -4.9171,10.98314 -10.983,10.98312 -6.0658,2e-5 -10.9831,-4.9173 -10.9831,-10.98312 0,-6.06583 4.9173,-10.98316 10.9831,-10.98314 z"
         sodipodi:nodetypes="scccccccsssssss" />
      <path
         style="fill:none;stroke:#ffffff;stroke-width:1.65959;stroke-linecap:round;stroke-linejoin:miter;stroke-miterlimit:4;stroke-dasharray:none;stroke-opacity:1"
         d="m 3388.3102,241.30753 -4.5425,5.43308"
         id="path50680" />
      <path
         style="fill:none;stroke:#ffffff;stroke-width:1.65959;stroke-linecap:round;stroke-linejoin:miter;stroke-miterlimit:4;stroke-dasharray:none;stroke-opacity:1"
         d="m 3389.7354,243.71234 -2.8502,3.29546"
         id="path50682"
         sodipodi:nodetypes="cc" />
    </g>
    <g
       aria-label="X"
       transform="matrix(1.1127008,0,-0.06826013,-0.89871419,-3331.932,-1037.4869)"
       id="text50688"
       style="font-size:24.9417px;line-height:1.25;font-family:'Tw Cen MT Condensed Extra Bold';-inkscape-font-specification:'Tw Cen MT Condensed Extra Bold, Normal';stroke:#ffffff;stroke-width:0.854547;filter:url(#filter50740)">
      <path
         d="m 2987.4203,-1406.0279 h 4.092 q 1.571,3.8241 1.7172,4.3843 h 0.049 q 0.024,-0.1705 0.4628,-1.2422 l 1.2422,-3.1421 h 4.092 l -3.7754,7.7577 4.092,8.5007 h -4.092 q -1.9607,-4.5914 -2.046,-4.9445 h -0.049 q -0.207,0.7794 -0.548,1.5466 l -1.498,3.3979 h -4.0311 l 4.0068,-8.452 z"
         id="path56977" />
    </g>
  </g>
</svg>
