<?xml version="1.0" encoding="UTF-8" standalone="no"?>
<!-- Created with Inkscape (http://www.inkscape.org/) -->

<svg
   width="80.6604mm"
   height="126.5194mm"
   viewBox="0 0 80.6604 126.5194"
   version="1.1"
   id="svg2720"
   inkscape:version="1.1.2 (b8e25be833, 2022-02-05)"
   sodipodi:docname="verde_alt_cambio_sentido.svg"
   xmlns:inkscape="http://www.inkscape.org/namespaces/inkscape"
   xmlns:sodipodi="http://sodipodi.sourceforge.net/DTD/sodipodi-0.dtd"
   xmlns="http://www.w3.org/2000/svg"
   xmlns:svg="http://www.w3.org/2000/svg">
  <sodipodi:namedview
     id="namedview2722"
     pagecolor="#ffffff"
     bordercolor="#666666"
     borderopacity="1.0"
     inkscape:pageshadow="2"
     inkscape:pageopacity="0.0"
     inkscape:pagecheckerboard="0"
     inkscape:document-units="mm"
     showgrid="false"
     inkscape:zoom="0.74029882"
     inkscape:cx="243.82046"
     inkscape:cy="342.42929"
     inkscape:window-width="958"
     inkscape:window-height="1008"
     inkscape:window-x="953"
     inkscape:window-y="0"
     inkscape:window-maximized="0"
     inkscape:current-layer="layer1" />
  <defs
     id="defs2717">
    <filter
       style="color-interpolation-filters:sRGB"
       inkscape:label="Invert"
       id="filter50808"
       x="-0.0081904726"
       y="-0.0051908861"
       width="1.0163809"
       height="1.0103818">
      <feColorMatrix
         values="1 0 0 0 0 0 1 0 0 0 0 0 1 0 0 -0.21 -0.72 -0.07 2 0 "
         result="color2"
         id="feColorMatrix50806" />
    </filter>
    <filter
       style="color-interpolation-filters:sRGB"
       inkscape:label="Invert"
       id="filter50804"
       x="0"
       y="0"
       width="1"
       height="1">
      <feColorMatrix
         values="1 0 0 0 0 0 1 0 0 0 0 0 1 0 0 -0.21 -0.72 -0.07 2 0 "
         result="color2"
         id="feColorMatrix50802" />
    </filter>
    <filter
       style="color-interpolation-filters:sRGB"
       inkscape:label="Invert"
       id="filter50800"
       x="-0.033412036"
       y="-0.02489306"
       width="1.0668241"
       height="1.0497861">
      <feColorMatrix
         values="1 0 0 0 0 0 1 0 0 0 0 0 1 0 0 -0.21 -0.72 -0.07 2 0 "
         result="color2"
         id="feColorMatrix50798" />
    </filter>
    <filter
       style="color-interpolation-filters:sRGB"
       inkscape:label="Invert"
       id="filter50796"
       x="-0.055072352"
       y="-0.026280202"
       width="1.110509"
       height="1.0525604">
      <feColorMatrix
         values="1 0 0 0 0 0 1 0 0 0 0 0 1 0 0 -0.21 -0.72 -0.07 2 0 "
         result="color2"
         id="feColorMatrix50794" />
    </filter>
    <filter
       style="color-interpolation-filters:sRGB"
       inkscape:label="Invert"
       id="filter50792"
       x="-0.038102195"
       y="-0.014397957"
       width="1.0566831"
       height="1.0439095">
      <feColorMatrix
         values="1 0 0 0 0 0 1 0 0 0 0 0 1 0 0 -0.21 -0.72 -0.07 2 0 "
         result="color2"
         id="feColorMatrix50790" />
    </filter>
    <filter
       style="color-interpolation-filters:sRGB"
       inkscape:label="Invert"
       id="filter50788"
       x="-0.055072408"
       y="-0.02628033"
       width="1.1105092"
       height="1.0525607">
      <feColorMatrix
         values="1 0 0 0 0 0 1 0 0 0 0 0 1 0 0 -0.21 -0.72 -0.07 2 0 "
         result="color2"
         id="feColorMatrix50786" />
    </filter>
    <filter
       style="color-interpolation-filters:sRGB"
       inkscape:label="Invert"
       id="filter50736"
       x="-0.0081904726"
       y="-0.0051908847"
       width="1.0163809"
       height="1.0103818">
      <feColorMatrix
         values="1 0 0 0 0 0 1 0 0 0 0 0 1 0 0 -0.21 -0.72 -0.07 2 0 "
         result="color2"
         id="feColorMatrix50734" />
    </filter>
    <filter
       style="color-interpolation-filters:sRGB"
       inkscape:label="Invert"
       id="filter50732"
       x="0"
       y="0"
       width="1"
       height="1">
      <feColorMatrix
         values="1 0 0 0 0 0 1 0 0 0 0 0 1 0 0 -0.21 -0.72 -0.07 2 0 "
         result="color2"
         id="feColorMatrix50730" />
    </filter>
    <filter
       style="color-interpolation-filters:sRGB"
       inkscape:label="Invert"
       id="filter50728"
       x="-0.033412069"
       y="-0.024893068"
       width="1.0668241"
       height="1.0497861">
      <feColorMatrix
         values="1 0 0 0 0 0 1 0 0 0 0 0 1 0 0 -0.21 -0.72 -0.07 2 0 "
         result="color2"
         id="feColorMatrix50726" />
    </filter>
    <filter
       style="color-interpolation-filters:sRGB"
       inkscape:label="Invert"
       id="filter50724"
       x="-0.05507182"
       y="-0.02628017"
       width="1.1105084"
       height="1.0525603">
      <feColorMatrix
         values="1 0 0 0 0 0 1 0 0 0 0 0 1 0 0 -0.21 -0.72 -0.07 2 0 "
         result="color2"
         id="feColorMatrix50722" />
    </filter>
    <filter
       style="color-interpolation-filters:sRGB"
       inkscape:label="Invert"
       id="filter50720"
       x="-0.038102195"
       y="-0.014397957"
       width="1.0566831"
       height="1.0439095">
      <feColorMatrix
         values="1 0 0 0 0 0 1 0 0 0 0 0 1 0 0 -0.21 -0.72 -0.07 2 0 "
         result="color2"
         id="feColorMatrix50718" />
    </filter>
    <filter
       style="color-interpolation-filters:sRGB"
       inkscape:label="Invert"
       id="filter50716"
       x="-0.05507182"
       y="-0.02628017"
       width="1.1105082"
       height="1.0525603">
      <feColorMatrix
         values="1 0 0 0 0 0 1 0 0 0 0 0 1 0 0 -0.21 -0.72 -0.07 2 0 "
         result="color2"
         id="feColorMatrix50714" />
    </filter>
  </defs>
  <g
     inkscape:label="Capa 1"
     inkscape:groupmode="layer"
     id="layer1"
     transform="translate(-33.249,-115.0031)">
    <path
       id="rect46684"
       style="stroke:#ffffff;stroke-width:1.3;stroke-linecap:round;stroke-linejoin:round;stroke-dashoffset:9.31653"
       d="m 41.9308,115.6531 h 63.2968 c 4.4496,0 8.0318,3.5822 8.0318,8.0318 v 109.1558 c 0,4.4496 -3.5822,8.0318 -8.0318,8.0318 H 41.9308 c -4.4496,0 -8.0318,-3.5822 -8.0318,-8.0318 V 123.6849 c 0,-4.4496 3.5822,-8.0318 8.0318,-8.0318 z" />
    <path
       id="rect46686"
       style="fill:#d851b0;stroke-width:1.81997;stroke-linecap:round;stroke-linejoin:round;stroke-dashoffset:9.31653"
       d="m 43.7458,120.0295 h 59.667 c 3.0438,0 5.4943,2.4505 5.4943,5.4943 v 105.4781 c 0,3.0438 -2.4505,5.4942 -5.4943,5.4942 h -59.667 c -3.0439,0 -5.4943,-2.4504 -5.4943,-5.4942 V 125.5238 c 0,-3.0438 2.4504,-5.4943 5.4943,-5.4943 z" />
    <path
       id="ellipse46688"
       style="fill:none;fill-opacity:0;stroke:#000000;stroke-width:4.90276;stroke-linecap:round;stroke-linejoin:round;stroke-dashoffset:9.31653"
       d="m 99.145256,192.42678 a 29.227528,54.28476 28.987554 0 1 -51.873485,33.32002 29.227528,54.28476 28.987554 0 1 0.741348,-61.6485 29.227528,54.28476 28.987554 0 1 51.873572,-33.31997 29.227528,54.28476 28.987554 0 1 -0.741435,61.64845 z" />
    <path
       style="fill:#000000;fill-opacity:1;stroke:#ffffff;stroke-width:2.794;stroke-linecap:square;stroke-miterlimit:4;stroke-dasharray:none;stroke-opacity:1;paint-order:markers fill stroke"
       d="m 73.2955,199.0276 c 0,-0.2169 -0.7646,-1.2874 -1.699,-2.3791 l -1.6989,-1.9849 4.383,-3.7278 c 4.869,-4.1411 6.3225,-6.3751 6.3742,-9.7966 0.035,-2.3166 -1.3818,-5.5159 -2.4426,-5.5159 -0.3071,0 -3.5747,2.6503 -7.2614,5.8895 -3.6867,3.2393 -6.9129,5.8896 -7.1693,5.8896 -0.2566,0 -1.274,-0.9855 -2.261,-2.1899 -0.9868,-1.2044 -1.8751,-2.1091 -1.9738,-2.0103 -0.099,0.099 -0.621,3.3017 -1.1605,7.1178 -0.5396,3.8161 -1.0878,7.4251 -1.2182,8.0201 l -0.2373,1.0817 h 8.1824 c 4.5003,0 8.1824,-0.1774 8.1824,-0.3942 z m -0.1248,-22.3225 c 2.7974,-2.446 5.9496,-5.1952 7.005,-6.1093 l 1.9189,-1.6621 2.1069,2.3272 c 1.1589,1.28 2.1805,2.2443 2.2704,2.1429 0.2025,-0.2283 2.215,-14.2895 2.2112,-15.4491 0,-0.7682 -0.7135,-0.8413 -8.1759,-0.8413 -4.4953,0 -8.1733,0.136 -8.1733,0.3023 0,0.1662 0.7572,1.1404 1.6828,2.1649 0.9255,1.0244 1.6827,2.051 1.6827,2.2814 0,0.2303 -1.9777,2.1103 -4.3949,4.1776 -5.0984,4.3604 -6.428,6.616 -6.0738,10.3036 0.2035,2.1162 1.557,4.76 2.4545,4.7939 0.2196,0.01 2.6882,-1.9861 5.4855,-4.432 z"
       id="path46690"
       sodipodi:nodetypes="sscscssssssccsssscsscssssssss" />
    <path
       style="fill:#000000;fill-opacity:1;stroke:#ffffff;stroke-width:2.335;stroke-linecap:square;stroke-miterlimit:4;stroke-dasharray:none;stroke-opacity:1;paint-order:markers stroke fill"
       d="m 49.8985,140.8201 c 0,-0.081 -0.2866,-0.4827 -0.637,-0.892 l -0.6369,-0.7442 1.6433,-1.3977 c 1.8255,-1.5526 2.3705,-2.3902 2.3898,-3.6731 0.013,-0.8685 -0.5181,-2.068 -0.9158,-2.068 -0.1151,0 -1.3402,0.9937 -2.7225,2.2081 -1.3822,1.2145 -2.5918,2.2082 -2.688,2.2082 -0.096,0 -0.4776,-0.3694 -0.8477,-0.821 -0.37,-0.4516 -0.703,-0.7908 -0.74,-0.7538 -0.037,0.037 -0.2329,1.238 -0.4352,2.6687 -0.2023,1.4308 -0.4078,2.784 -0.4567,3.007 l -0.089,0.4056 h 3.0679 c 1.6873,0 3.0678,-0.066 3.0678,-0.1478 z m -0.047,-8.3694 c 1.0489,-0.9171 2.2307,-1.9479 2.6264,-2.2906 l 0.7195,-0.6232 0.7899,0.8726 c 0.4345,0.4799 0.8176,0.8414 0.8512,0.8034 0.076,-0.086 0.8306,-5.3576 0.8291,-5.7924 0,-0.288 -0.2675,-0.3154 -3.0654,-0.3154 -1.6854,0 -3.0644,0.051 -3.0644,0.1133 0,0.062 0.2839,0.4276 0.6309,0.8117 0.347,0.3841 0.6309,0.769 0.6309,0.8554 0,0.086 -0.7415,0.7912 -1.6477,1.5663 -1.9116,1.6349 -2.4101,2.4806 -2.2773,3.8632 0.076,0.7934 0.5838,1.7847 0.9203,1.7974 0.082,0 1.0078,-0.7447 2.0566,-1.6617 z"
       id="path46692"
       sodipodi:nodetypes="sscscssssssccsssscsscssssssss" />
    <path
       style="fill:#000000;fill-opacity:1;stroke:#ffffff;stroke-width:2.335;stroke-linecap:square;stroke-miterlimit:4;stroke-dasharray:none;stroke-opacity:1;paint-order:markers stroke fill"
       d="m 96.7827,216.0986 c 0,0.081 0.2866,0.4827 0.637,0.892 l 0.637,0.7442 -1.6434,1.3976 c -1.8255,1.5527 -2.3705,2.3903 -2.3898,3.6731 -0.013,0.8686 0.518,2.0681 0.9158,2.0681 0.1151,0 1.3402,-0.9937 2.7225,-2.2082 1.3822,-1.2145 2.5918,-2.2081 2.688,-2.2081 0.096,0 0.4776,0.3694 0.8477,0.821 0.37,0.4516 0.703,0.7908 0.74,0.7538 0.037,-0.037 0.2329,-1.238 0.4351,-2.6688 0.2024,-1.4307 0.4079,-2.7839 0.4568,-3.0069 l 0.089,-0.4056 h -3.0679 c -1.6873,0 -3.0678,0.067 -3.0678,0.1478 z m 0.047,8.3694 c -1.0488,0.9171 -2.2307,1.9478 -2.6264,2.2906 l -0.7194,0.6232 -0.79,-0.8726 c -0.4345,-0.4799 -0.8175,-0.8414 -0.8512,-0.8034 -0.076,0.086 -0.8305,5.3576 -0.8291,5.7923 0,0.2881 0.2675,0.3155 3.0654,0.3155 1.6854,0 3.0644,-0.051 3.0644,-0.1134 0,-0.062 -0.2839,-0.4276 -0.6309,-0.8116 -0.347,-0.3841 -0.6309,-0.769 -0.6309,-0.8554 0,-0.086 0.7415,-0.7912 1.6478,-1.5663 1.9115,-1.6349 2.41,-2.4806 2.2772,-3.8632 -0.076,-0.7934 -0.5838,-1.7847 -0.9202,-1.7974 -0.082,0 -1.0079,0.7447 -2.0567,1.6617 z"
       id="path46694"
       sodipodi:nodetypes="sscscssssssccsssscsscssssssss" />
  </g>
</svg>
