<?xml version="1.0" encoding="UTF-8" standalone="no"?>
<!-- Created with Inkscape (http://www.inkscape.org/) -->

<svg
   width="80.6605mm"
   height="126.51943mm"
   viewBox="0 0 80.660499 126.51943"
   version="1.1"
   id="svg2720"
   inkscape:version="1.1.2 (b8e25be833, 2022-02-05)"
   sodipodi:docname="amarillo_alt_8.svg"
   xmlns:inkscape="http://www.inkscape.org/namespaces/inkscape"
   xmlns:sodipodi="http://sodipodi.sourceforge.net/DTD/sodipodi-0.dtd"
   xmlns="http://www.w3.org/2000/svg"
   xmlns:svg="http://www.w3.org/2000/svg">
  <sodipodi:namedview
     id="namedview2722"
     pagecolor="#ffffff"
     bordercolor="#666666"
     borderopacity="1.0"
     inkscape:pageshadow="2"
     inkscape:pageopacity="0.0"
     inkscape:pagecheckerboard="0"
     inkscape:document-units="mm"
     showgrid="false"
     inkscape:zoom="0.74029882"
     inkscape:cx="224.90918"
     inkscape:cy="274.889"
     inkscape:window-width="958"
     inkscape:window-height="1008"
     inkscape:window-x="953"
     inkscape:window-y="0"
     inkscape:window-maximized="0"
     inkscape:current-layer="layer1" />
  <defs
     id="defs2717">
    <filter
       style="color-interpolation-filters:sRGB"
       inkscape:label="Invert"
       id="filter50808"
       x="-0.0081904726"
       y="-0.0051908861"
       width="1.0163809"
       height="1.0103818">
      <feColorMatrix
         values="1 0 0 0 0 0 1 0 0 0 0 0 1 0 0 -0.21 -0.72 -0.07 2 0 "
         result="color2"
         id="feColorMatrix50806" />
    </filter>
    <filter
       style="color-interpolation-filters:sRGB"
       inkscape:label="Invert"
       id="filter50804"
       x="0"
       y="0"
       width="1"
       height="1">
      <feColorMatrix
         values="1 0 0 0 0 0 1 0 0 0 0 0 1 0 0 -0.21 -0.72 -0.07 2 0 "
         result="color2"
         id="feColorMatrix50802" />
    </filter>
    <filter
       style="color-interpolation-filters:sRGB"
       inkscape:label="Invert"
       id="filter50800"
       x="-0.033412036"
       y="-0.02489306"
       width="1.0668241"
       height="1.0497861">
      <feColorMatrix
         values="1 0 0 0 0 0 1 0 0 0 0 0 1 0 0 -0.21 -0.72 -0.07 2 0 "
         result="color2"
         id="feColorMatrix50798" />
    </filter>
    <filter
       style="color-interpolation-filters:sRGB"
       inkscape:label="Invert"
       id="filter50796"
       x="-0.055072352"
       y="-0.026280202"
       width="1.110509"
       height="1.0525604">
      <feColorMatrix
         values="1 0 0 0 0 0 1 0 0 0 0 0 1 0 0 -0.21 -0.72 -0.07 2 0 "
         result="color2"
         id="feColorMatrix50794" />
    </filter>
    <filter
       style="color-interpolation-filters:sRGB"
       inkscape:label="Invert"
       id="filter50792"
       x="-0.038102195"
       y="-0.014397957"
       width="1.0566831"
       height="1.0439095">
      <feColorMatrix
         values="1 0 0 0 0 0 1 0 0 0 0 0 1 0 0 -0.21 -0.72 -0.07 2 0 "
         result="color2"
         id="feColorMatrix50790" />
    </filter>
    <filter
       style="color-interpolation-filters:sRGB"
       inkscape:label="Invert"
       id="filter50788"
       x="-0.055072408"
       y="-0.02628033"
       width="1.1105092"
       height="1.0525607">
      <feColorMatrix
         values="1 0 0 0 0 0 1 0 0 0 0 0 1 0 0 -0.21 -0.72 -0.07 2 0 "
         result="color2"
         id="feColorMatrix50786" />
    </filter>
    <filter
       style="color-interpolation-filters:sRGB"
       inkscape:label="Invert"
       id="filter50736"
       x="-0.0081904726"
       y="-0.0051908847"
       width="1.0163809"
       height="1.0103818">
      <feColorMatrix
         values="1 0 0 0 0 0 1 0 0 0 0 0 1 0 0 -0.21 -0.72 -0.07 2 0 "
         result="color2"
         id="feColorMatrix50734" />
    </filter>
    <filter
       style="color-interpolation-filters:sRGB"
       inkscape:label="Invert"
       id="filter50732"
       x="0"
       y="0"
       width="1"
       height="1">
      <feColorMatrix
         values="1 0 0 0 0 0 1 0 0 0 0 0 1 0 0 -0.21 -0.72 -0.07 2 0 "
         result="color2"
         id="feColorMatrix50730" />
    </filter>
    <filter
       style="color-interpolation-filters:sRGB"
       inkscape:label="Invert"
       id="filter50728"
       x="-0.033412069"
       y="-0.024893068"
       width="1.0668241"
       height="1.0497861">
      <feColorMatrix
         values="1 0 0 0 0 0 1 0 0 0 0 0 1 0 0 -0.21 -0.72 -0.07 2 0 "
         result="color2"
         id="feColorMatrix50726" />
    </filter>
    <filter
       style="color-interpolation-filters:sRGB"
       inkscape:label="Invert"
       id="filter50724"
       x="-0.05507182"
       y="-0.02628017"
       width="1.1105084"
       height="1.0525603">
      <feColorMatrix
         values="1 0 0 0 0 0 1 0 0 0 0 0 1 0 0 -0.21 -0.72 -0.07 2 0 "
         result="color2"
         id="feColorMatrix50722" />
    </filter>
    <filter
       style="color-interpolation-filters:sRGB"
       inkscape:label="Invert"
       id="filter50720"
       x="-0.038102195"
       y="-0.014397957"
       width="1.0566831"
       height="1.0439095">
      <feColorMatrix
         values="1 0 0 0 0 0 1 0 0 0 0 0 1 0 0 -0.21 -0.72 -0.07 2 0 "
         result="color2"
         id="feColorMatrix50718" />
    </filter>
    <filter
       style="color-interpolation-filters:sRGB"
       inkscape:label="Invert"
       id="filter50716"
       x="-0.05507182"
       y="-0.02628017"
       width="1.1105082"
       height="1.0525603">
      <feColorMatrix
         values="1 0 0 0 0 0 1 0 0 0 0 0 1 0 0 -0.21 -0.72 -0.07 2 0 "
         result="color2"
         id="feColorMatrix50714" />
    </filter>
    <filter
       style="color-interpolation-filters:sRGB"
       inkscape:label="Invert"
       id="filter50760"
       x="-0.0081904726"
       y="-0.0051908847"
       width="1.0163809"
       height="1.0103818">
      <feColorMatrix
         values="1 0 0 0 0 0 1 0 0 0 0 0 1 0 0 -0.21 -0.72 -0.07 2 0 "
         result="color2"
         id="feColorMatrix50758" />
    </filter>
    <filter
       style="color-interpolation-filters:sRGB"
       inkscape:label="Invert"
       id="filter50756"
       x="0"
       y="0"
       width="1"
       height="1">
      <feColorMatrix
         values="1 0 0 0 0 0 1 0 0 0 0 0 1 0 0 -0.21 -0.72 -0.07 2 0 "
         result="color2"
         id="feColorMatrix50754" />
    </filter>
    <filter
       style="color-interpolation-filters:sRGB"
       inkscape:label="Invert"
       id="filter50752"
       x="-0.033412069"
       y="-0.024893068"
       width="1.0668241"
       height="1.0497861">
      <feColorMatrix
         values="1 0 0 0 0 0 1 0 0 0 0 0 1 0 0 -0.21 -0.72 -0.07 2 0 "
         result="color2"
         id="feColorMatrix50750" />
    </filter>
    <filter
       style="color-interpolation-filters:sRGB"
       inkscape:label="Invert"
       id="filter50748"
       x="-0.055072408"
       y="-0.02628033"
       width="1.1105092"
       height="1.0525607">
      <feColorMatrix
         values="1 0 0 0 0 0 1 0 0 0 0 0 1 0 0 -0.21 -0.72 -0.07 2 0 "
         result="color2"
         id="feColorMatrix50746" />
    </filter>
    <filter
       style="color-interpolation-filters:sRGB"
       inkscape:label="Invert"
       id="filter50744"
       x="-0.038102195"
       y="-0.014397957"
       width="1.0566831"
       height="1.0439095">
      <feColorMatrix
         values="1 0 0 0 0 0 1 0 0 0 0 0 1 0 0 -0.21 -0.72 -0.07 2 0 "
         result="color2"
         id="feColorMatrix50742" />
    </filter>
    <filter
       style="color-interpolation-filters:sRGB"
       inkscape:label="Invert"
       id="filter50740"
       x="-0.055072129"
       y="-0.02628017"
       width="1.1105086"
       height="1.0525603">
      <feColorMatrix
         values="1 0 0 0 0 0 1 0 0 0 0 0 1 0 0 -0.21 -0.72 -0.07 2 0 "
         result="color2"
         id="feColorMatrix50738" />
    </filter>
  </defs>
  <g
     inkscape:label="Capa 1"
     inkscape:groupmode="layer"
     id="layer1"
     transform="translate(-40.0452,-132.8794)">
    <path
       id="rect46248"
       style="stroke:#ffffff;stroke-width:1.3;stroke-linecap:round;stroke-linejoin:round;stroke-dashoffset:9.31653"
       d="m 48.7271,133.5294 h 63.2968 c 4.4496,0 8.0318,3.5822 8.0318,8.03185 v 109.15578 c 0,4.4496 -3.5822,8.0318 -8.0318,8.0318 H 48.7271 c -4.4497,0 -8.0319,-3.5822 -8.0319,-8.0318 V 141.56125 c 0,-4.44965 3.5822,-8.03185 8.0319,-8.03185 z" />
    <path
       id="rect46250"
       style="fill:#3948e9;stroke-width:1.81997;stroke-linecap:round;stroke-linejoin:round;stroke-dashoffset:9.31653"
       d="m 50.542,137.90586 h 59.6671 c 3.0438,0 5.4943,2.45043 5.4943,5.49427 v 105.4781 c 0,3.0438 -2.4505,5.4942 -5.4943,5.4942 H 50.542 c -3.0438,0 -5.4942,-2.4504 -5.4942,-5.4942 v -105.4781 c 0,-3.04384 2.4504,-5.49427 5.4942,-5.49427 z" />
    <path
       id="ellipse46252"
       style="fill:none;fill-opacity:0;stroke:#000000;stroke-width:4.90276;stroke-linecap:round;stroke-linejoin:round;stroke-dashoffset:9.31653"
       d="m 105.9419,210.30341 a 29.227528,54.28476 28.987554 0 1 -51.873487,33.32002 29.227528,54.28476 28.987554 0 1 0.741348,-61.64851 29.227528,54.28476 28.987554 0 1 51.873569,-33.31997 29.227528,54.28476 28.987554 0 1 -0.74143,61.64846 z" />
    <g
       aria-label="8"
       transform="matrix(1.1127008,0,-0.06826013,0.89871419,-2878.1114,-857.64077)"
       id="text46256"
       style="font-size:75.0979px;line-height:1.25;font-family:'Tw Cen MT Condensed Extra Bold';-inkscape-font-specification:'Tw Cen MT Condensed Extra Bold, Normal';stroke:#ffffff;stroke-width:2.573;paint-order:markers fill stroke">
      <path
         d="m 2737.0543,1169.6811 q 4.1803,1.7968 6.4537,5.4637 2.3102,3.6668 2.3102,8.2871 0,6.4904 -3.9969,10.3773 -3.997,3.8869 -10.7074,3.8869 -6.857,0 -10.854,-3.8502 -3.9602,-3.8502 -3.9602,-10.414 0,-1.6501 0.22,-3.0802 0.22,-1.4667 0.6601,-2.7135 0.4767,-1.2834 1.1734,-2.3834 0.6967,-1.1368 1.6134,-2.0902 0.9534,-0.9534 2.2001,-1.7601 1.2834,-0.8434 2.6402,-1.6501 v -0.073 h -0.073 q 0,-0.073 -0.073,-0.073 0,-0.073 -0.073,-0.073 -2.2002,-1.0267 -3.6669,-2.2735 -1.4301,-1.2467 -2.4568,-3.5202 -1.0268,-2.3101 -1.0268,-5.317 0,-5.2436 3.8869,-8.7272 3.8869,-3.5202 9.7173,-3.5202 5.9404,0 9.7173,3.5569 3.7769,3.5569 3.7769,9.1306 0,3.6669 -1.8335,6.2337 -1.7968,2.5668 -5.647,4.5836 z m -3.2269,-9.2406 q 0,-5.317 -2.7868,-5.317 -2.8602,0 -2.8602,4.7303 0,2.8602 0.6601,4.0703 0.6967,1.1734 2.2734,1.1734 2.7135,0 2.7135,-4.657 z m 1.1734,22.0747 q 0,-7.1871 -3.9602,-7.1871 -4.1436,0 -4.1436,6.6004 0,7.0404 4.2169,7.0404 3.8869,0 3.8869,-6.4537 z"
         id="path48516" />
    </g>
    <g
       aria-label="8"
       transform="matrix(1.1127008,0,-0.06826013,0.89871419,-2878.1114,-857.64077)"
       id="text46260"
       style="font-size:24.4557px;line-height:1.25;font-family:'Tw Cen MT Condensed Extra Bold';-inkscape-font-specification:'Tw Cen MT Condensed Extra Bold, Normal';stroke:#ffffff;stroke-width:1.138">
      <path
         d="m 2707.1714,1120.758 q 1.3613,0.5851 2.1016,1.7792 0.7523,1.1941 0.7523,2.6987 0,2.1136 -1.3016,3.3794 -1.3015,1.2658 -3.4868,1.2658 -2.233,0 -3.5346,-1.2539 -1.2897,-1.2538 -1.2897,-3.3913 0,-0.5373 0.072,-1.003 0.072,-0.4777 0.2149,-0.8837 0.1553,-0.4179 0.3821,-0.7762 0.2269,-0.3702 0.5255,-0.6806 0.3104,-0.3105 0.7164,-0.5732 0.418,-0.2747 0.8598,-0.5374 v -0.024 h -0.024 q 0,-0.024 -0.024,-0.024 0,-0.024 -0.024,-0.024 -0.7165,-0.3344 -1.1942,-0.7404 -0.4657,-0.406 -0.8,-1.1463 -0.3344,-0.7523 -0.3344,-1.7315 0,-1.7076 1.2658,-2.842 1.2658,-1.1464 3.1644,-1.1464 1.9345,0 3.1645,1.1583 1.2299,1.1583 1.2299,2.9734 0,1.1941 -0.5971,2.03 -0.5851,0.8359 -1.8389,1.4927 z m -1.0508,-3.0092 q 0,-1.7315 -0.9076,-1.7315 -0.9314,0 -0.9314,1.5404 0,0.9314 0.2149,1.3255 0.2269,0.3821 0.7404,0.3821 0.8837,0 0.8837,-1.5165 z m 0.3821,7.1886 q 0,-2.3405 -1.2897,-2.3405 -1.3493,0 -1.3493,2.1494 0,2.2928 1.3732,2.2928 1.2658,0 1.2658,-2.1017 z"
         id="path48519" />
    </g>
    <g
       aria-label="8"
       transform="matrix(-1.1127008,0,0.06826013,-0.89871419,-2878.1114,-857.64077)"
       id="text46264"
       style="font-size:24.4557px;line-height:1.25;font-family:'Tw Cen MT Condensed Extra Bold';-inkscape-font-specification:'Tw Cen MT Condensed Extra Bold, Normal';stroke:#ffffff;stroke-width:1.138">
      <path
         d="m -2754.449,-1224.5206 q 1.3613,0.5851 2.1017,1.7792 0.7523,1.1942 0.7523,2.6988 0,2.1136 -1.3016,3.3793 -1.3016,1.2658 -3.4869,1.2658 -2.233,0 -3.5346,-1.2538 -1.2896,-1.2539 -1.2896,-3.3913 0,-0.5374 0.072,-1.0031 0.072,-0.4777 0.215,-0.8837 0.1552,-0.4179 0.3821,-0.7761 0.2269,-0.3702 0.5254,-0.6807 0.3105,-0.3105 0.7165,-0.5732 0.4179,-0.2746 0.8597,-0.5373 v -0.024 h -0.024 q 0,-0.024 -0.024,-0.024 0,-0.024 -0.024,-0.024 -0.7165,-0.3343 -1.1941,-0.7403 -0.4657,-0.406 -0.8001,-1.1464 -0.3344,-0.7523 -0.3344,-1.7315 0,-1.7076 1.2658,-2.842 1.2658,-1.1464 3.1645,-1.1464 1.9344,0 3.1644,1.1583 1.2299,1.1583 1.2299,2.9734 0,1.1941 -0.597,2.03 -0.5851,0.8359 -1.839,1.4927 z m -1.0508,-3.0092 q 0,-1.7315 -0.9075,-1.7315 -0.9315,0 -0.9315,1.5404 0,0.9315 0.215,1.3255 0.2269,0.3821 0.7403,0.3821 0.8837,0 0.8837,-1.5165 z m 0.3821,7.1886 q 0,-2.3405 -1.2896,-2.3405 -1.3494,0 -1.3494,2.1495 0,2.2927 1.3732,2.2927 1.2658,0 1.2658,-2.1017 z"
         id="path48522" />
    </g>
  </g>
</svg>
