<?xml version="1.0" encoding="UTF-8" standalone="no"?>
<!-- Created with Inkscape (http://www.inkscape.org/) -->

<svg
   width="80.6605mm"
   height="126.51943mm"
   viewBox="0 0 80.660499 126.51943"
   version="1.1"
   id="svg2720"
   inkscape:version="1.1.2 (b8e25be833, 2022-02-05)"
   sodipodi:docname="amarillo_alt_0.svg"
   xmlns:inkscape="http://www.inkscape.org/namespaces/inkscape"
   xmlns:sodipodi="http://sodipodi.sourceforge.net/DTD/sodipodi-0.dtd"
   xmlns="http://www.w3.org/2000/svg"
   xmlns:svg="http://www.w3.org/2000/svg">
  <sodipodi:namedview
     id="namedview2722"
     pagecolor="#ffffff"
     bordercolor="#666666"
     borderopacity="1.0"
     inkscape:pageshadow="2"
     inkscape:pageopacity="0.0"
     inkscape:pagecheckerboard="0"
     inkscape:document-units="mm"
     showgrid="false"
     inkscape:zoom="0.74029882"
     inkscape:cx="219.50596"
     inkscape:cy="308.65914"
     inkscape:window-width="958"
     inkscape:window-height="1008"
     inkscape:window-x="953"
     inkscape:window-y="0"
     inkscape:window-maximized="0"
     inkscape:current-layer="layer1" />
  <defs
     id="defs2717">
    <filter
       style="color-interpolation-filters:sRGB"
       inkscape:label="Invert"
       id="filter50808"
       x="-0.0081904726"
       y="-0.0051908861"
       width="1.0163809"
       height="1.0103818">
      <feColorMatrix
         values="1 0 0 0 0 0 1 0 0 0 0 0 1 0 0 -0.21 -0.72 -0.07 2 0 "
         result="color2"
         id="feColorMatrix50806" />
    </filter>
    <filter
       style="color-interpolation-filters:sRGB"
       inkscape:label="Invert"
       id="filter50804"
       x="0"
       y="0"
       width="1"
       height="1">
      <feColorMatrix
         values="1 0 0 0 0 0 1 0 0 0 0 0 1 0 0 -0.21 -0.72 -0.07 2 0 "
         result="color2"
         id="feColorMatrix50802" />
    </filter>
    <filter
       style="color-interpolation-filters:sRGB"
       inkscape:label="Invert"
       id="filter50800"
       x="-0.033412036"
       y="-0.02489306"
       width="1.0668241"
       height="1.0497861">
      <feColorMatrix
         values="1 0 0 0 0 0 1 0 0 0 0 0 1 0 0 -0.21 -0.72 -0.07 2 0 "
         result="color2"
         id="feColorMatrix50798" />
    </filter>
    <filter
       style="color-interpolation-filters:sRGB"
       inkscape:label="Invert"
       id="filter50796"
       x="-0.055072352"
       y="-0.026280202"
       width="1.110509"
       height="1.0525604">
      <feColorMatrix
         values="1 0 0 0 0 0 1 0 0 0 0 0 1 0 0 -0.21 -0.72 -0.07 2 0 "
         result="color2"
         id="feColorMatrix50794" />
    </filter>
    <filter
       style="color-interpolation-filters:sRGB"
       inkscape:label="Invert"
       id="filter50792"
       x="-0.038102195"
       y="-0.014397957"
       width="1.0566831"
       height="1.0439095">
      <feColorMatrix
         values="1 0 0 0 0 0 1 0 0 0 0 0 1 0 0 -0.21 -0.72 -0.07 2 0 "
         result="color2"
         id="feColorMatrix50790" />
    </filter>
    <filter
       style="color-interpolation-filters:sRGB"
       inkscape:label="Invert"
       id="filter50788"
       x="-0.055072408"
       y="-0.02628033"
       width="1.1105092"
       height="1.0525607">
      <feColorMatrix
         values="1 0 0 0 0 0 1 0 0 0 0 0 1 0 0 -0.21 -0.72 -0.07 2 0 "
         result="color2"
         id="feColorMatrix50786" />
    </filter>
    <filter
       style="color-interpolation-filters:sRGB"
       inkscape:label="Invert"
       id="filter50736"
       x="-0.0081904726"
       y="-0.0051908847"
       width="1.0163809"
       height="1.0103818">
      <feColorMatrix
         values="1 0 0 0 0 0 1 0 0 0 0 0 1 0 0 -0.21 -0.72 -0.07 2 0 "
         result="color2"
         id="feColorMatrix50734" />
    </filter>
    <filter
       style="color-interpolation-filters:sRGB"
       inkscape:label="Invert"
       id="filter50732"
       x="0"
       y="0"
       width="1"
       height="1">
      <feColorMatrix
         values="1 0 0 0 0 0 1 0 0 0 0 0 1 0 0 -0.21 -0.72 -0.07 2 0 "
         result="color2"
         id="feColorMatrix50730" />
    </filter>
    <filter
       style="color-interpolation-filters:sRGB"
       inkscape:label="Invert"
       id="filter50728"
       x="-0.033412069"
       y="-0.024893068"
       width="1.0668241"
       height="1.0497861">
      <feColorMatrix
         values="1 0 0 0 0 0 1 0 0 0 0 0 1 0 0 -0.21 -0.72 -0.07 2 0 "
         result="color2"
         id="feColorMatrix50726" />
    </filter>
    <filter
       style="color-interpolation-filters:sRGB"
       inkscape:label="Invert"
       id="filter50724"
       x="-0.05507182"
       y="-0.02628017"
       width="1.1105084"
       height="1.0525603">
      <feColorMatrix
         values="1 0 0 0 0 0 1 0 0 0 0 0 1 0 0 -0.21 -0.72 -0.07 2 0 "
         result="color2"
         id="feColorMatrix50722" />
    </filter>
    <filter
       style="color-interpolation-filters:sRGB"
       inkscape:label="Invert"
       id="filter50720"
       x="-0.038102195"
       y="-0.014397957"
       width="1.0566831"
       height="1.0439095">
      <feColorMatrix
         values="1 0 0 0 0 0 1 0 0 0 0 0 1 0 0 -0.21 -0.72 -0.07 2 0 "
         result="color2"
         id="feColorMatrix50718" />
    </filter>
    <filter
       style="color-interpolation-filters:sRGB"
       inkscape:label="Invert"
       id="filter50716"
       x="-0.05507182"
       y="-0.02628017"
       width="1.1105082"
       height="1.0525603">
      <feColorMatrix
         values="1 0 0 0 0 0 1 0 0 0 0 0 1 0 0 -0.21 -0.72 -0.07 2 0 "
         result="color2"
         id="feColorMatrix50714" />
    </filter>
    <filter
       style="color-interpolation-filters:sRGB"
       inkscape:label="Invert"
       id="filter50760"
       x="-0.0081904726"
       y="-0.0051908847"
       width="1.0163809"
       height="1.0103818">
      <feColorMatrix
         values="1 0 0 0 0 0 1 0 0 0 0 0 1 0 0 -0.21 -0.72 -0.07 2 0 "
         result="color2"
         id="feColorMatrix50758" />
    </filter>
    <filter
       style="color-interpolation-filters:sRGB"
       inkscape:label="Invert"
       id="filter50756"
       x="0"
       y="0"
       width="1"
       height="1">
      <feColorMatrix
         values="1 0 0 0 0 0 1 0 0 0 0 0 1 0 0 -0.21 -0.72 -0.07 2 0 "
         result="color2"
         id="feColorMatrix50754" />
    </filter>
    <filter
       style="color-interpolation-filters:sRGB"
       inkscape:label="Invert"
       id="filter50752"
       x="-0.033412069"
       y="-0.024893068"
       width="1.0668241"
       height="1.0497861">
      <feColorMatrix
         values="1 0 0 0 0 0 1 0 0 0 0 0 1 0 0 -0.21 -0.72 -0.07 2 0 "
         result="color2"
         id="feColorMatrix50750" />
    </filter>
    <filter
       style="color-interpolation-filters:sRGB"
       inkscape:label="Invert"
       id="filter50748"
       x="-0.055072408"
       y="-0.02628033"
       width="1.1105092"
       height="1.0525607">
      <feColorMatrix
         values="1 0 0 0 0 0 1 0 0 0 0 0 1 0 0 -0.21 -0.72 -0.07 2 0 "
         result="color2"
         id="feColorMatrix50746" />
    </filter>
    <filter
       style="color-interpolation-filters:sRGB"
       inkscape:label="Invert"
       id="filter50744"
       x="-0.038102195"
       y="-0.014397957"
       width="1.0566831"
       height="1.0439095">
      <feColorMatrix
         values="1 0 0 0 0 0 1 0 0 0 0 0 1 0 0 -0.21 -0.72 -0.07 2 0 "
         result="color2"
         id="feColorMatrix50742" />
    </filter>
    <filter
       style="color-interpolation-filters:sRGB"
       inkscape:label="Invert"
       id="filter50740"
       x="-0.055072129"
       y="-0.02628017"
       width="1.1105086"
       height="1.0525603">
      <feColorMatrix
         values="1 0 0 0 0 0 1 0 0 0 0 0 1 0 0 -0.21 -0.72 -0.07 2 0 "
         result="color2"
         id="feColorMatrix50738" />
    </filter>
  </defs>
  <g
     inkscape:label="Capa 1"
     inkscape:groupmode="layer"
     id="layer1"
     transform="translate(-41.0268,-123.94276)">
    <path
       id="rect46206"
       style="stroke:#ffffff;stroke-width:1.3;stroke-linecap:round;stroke-linejoin:round;stroke-dashoffset:9.31653"
       d="m 49.7086,124.59276 h 63.2968 c 4.4497,0 8.0319,3.5822 8.0319,8.03185 v 109.15578 c 0,4.4496 -3.5822,8.0318 -8.0319,8.0318 H 49.7086 c -4.4496,0 -8.0318,-3.5822 -8.0318,-8.0318 V 132.62461 c 0,-4.44965 3.5822,-8.03185 8.0318,-8.03185 z" />
    <path
       id="rect46208"
       style="fill:#3948e9;stroke-width:1.81997;stroke-linecap:round;stroke-linejoin:round;stroke-dashoffset:9.31653"
       d="m 51.5236,128.96922 h 59.6671 c 3.0438,0 5.4942,2.45043 5.4942,5.49424 v 105.47813 c 0,3.0438 -2.4504,5.4942 -5.4942,5.4942 H 51.5236 c -3.0438,0 -5.4943,-2.4504 -5.4943,-5.4942 V 134.46346 c 0,-3.04381 2.4505,-5.49424 5.4943,-5.49424 z" />
    <path
       id="ellipse46210"
       style="fill:none;fill-opacity:0;stroke:#000000;stroke-width:4.90276;stroke-linecap:round;stroke-linejoin:round;stroke-dashoffset:9.31653"
       d="m 106.92313,201.36674 a 29.227528,54.28476 28.987554 0 1 -51.873485,33.32002 29.227528,54.28476 28.987554 0 1 0.741435,-61.64846 29.227528,54.28476 28.987554 0 1 51.87348,-33.32002 29.227528,54.28476 28.987554 0 1 -0.74143,61.64846 z" />
    <g
       aria-label="0"
       transform="matrix(1.1127008,0,-0.06826013,0.89871419,-2186.1545,-864.46071)"
       id="text46214"
       style="font-size:75.0979px;line-height:1.25;font-family:'Tw Cen MT Condensed Extra Bold';-inkscape-font-specification:'Tw Cen MT Condensed Extra Bold, Normal';stroke:#ffffff;stroke-width:2.573">
      <path
         d="m 2109.8332,1143.8211 q 7.9572,0 12.0641,6.5637 4.1436,6.5638 4.1436,19.3245 0,12.4308 -4.2169,19.0312 -4.1803,6.6004 -11.9908,6.6004 -7.4071,0 -11.8074,-6.1604 -4.3636,-6.197 -4.3636,-19.9845 0,-12.1008 4.217,-18.7378 4.2169,-6.6371 11.8074,-6.6371 z m -5.5003,25.3015 q 0,15.6943 5.427,15.6943 2.9335,0 4.2169,-3.4468 1.3201,-3.4836 1.3201,-11.0374 0,-8.3238 -1.3201,-12.1007 -1.2834,-3.8136 -4.2902,-3.8136 -5.3537,0 -5.3537,14.7042 z"
         id="path48489" />
    </g>
    <g
       aria-label="0"
       transform="matrix(1.1127008,0,-0.06826013,0.89871419,-2186.1545,-864.46071)"
       id="text46218"
       style="font-size:24.4557px;line-height:1.25;font-family:'Tw Cen MT Condensed Extra Bold';-inkscape-font-specification:'Tw Cen MT Condensed Extra Bold, Normal';stroke:#ffffff;stroke-width:1.138">
      <path
         d="m 2084.0551,1110.7484 q 2.5913,0 3.9287,2.1375 1.3493,2.1375 1.3493,6.293 0,4.0481 -1.3732,6.1975 -1.3613,2.1495 -3.9048,2.1495 -2.4121,0 -3.8451,-2.0062 -1.421,-2.0181 -1.421,-6.508 0,-3.9406 1.3733,-6.1019 1.3732,-2.1614 3.845,-2.1614 z m -1.7912,8.2395 q 0,5.1108 1.7673,5.1108 0.9553,0 1.3733,-1.1225 0.4299,-1.1344 0.4299,-3.5943 0,-2.7107 -0.4299,-3.9406 -0.418,-1.2419 -1.3972,-1.2419 -1.7434,0 -1.7434,4.7885 z"
         id="path48492" />
    </g>
    <g
       aria-label="0"
       transform="matrix(-1.1127008,0,0.06826013,-0.89871419,-2186.1545,-864.46071)"
       id="text46222"
       style="font-size:24.4557px;line-height:1.25;font-family:'Tw Cen MT Condensed Extra Bold';-inkscape-font-specification:'Tw Cen MT Condensed Extra Bold, Normal';stroke:#ffffff;stroke-width:1.138">
      <path
         d="m -2135.2972,-1229.8197 q 2.5913,0 3.9287,2.1375 1.3493,2.1374 1.3493,6.293 0,4.0481 -1.3732,6.1975 -1.3613,2.1494 -3.9048,2.1494 -2.4121,0 -3.8451,-2.0061 -1.421,-2.0181 -1.421,-6.508 0,-3.9406 1.3733,-6.102 1.3732,-2.1613 3.845,-2.1613 z m -1.7912,8.2394 q 0,5.1109 1.7673,5.1109 0.9553,0 1.3733,-1.1225 0.4299,-1.1344 0.4299,-3.5943 0,-2.7107 -0.4299,-3.9406 -0.418,-1.2419 -1.3972,-1.2419 -1.7434,0 -1.7434,4.7884 z"
         id="path48495" />
    </g>
  </g>
</svg>
