<?xml version="1.0" encoding="UTF-8" standalone="no"?>
<!-- Created with Inkscape (http://www.inkscape.org/) -->

<svg
   width="80.6604mm"
   height="126.51945mm"
   viewBox="0 0 80.6604 126.51945"
   version="1.1"
   id="svg2720"
   inkscape:version="1.1.2 (b8e25be833, 2022-02-05)"
   sodipodi:docname="amarillo_alt_x2.svg"
   xmlns:inkscape="http://www.inkscape.org/namespaces/inkscape"
   xmlns:sodipodi="http://sodipodi.sourceforge.net/DTD/sodipodi-0.dtd"
   xmlns="http://www.w3.org/2000/svg"
   xmlns:svg="http://www.w3.org/2000/svg">
  <sodipodi:namedview
     id="namedview2722"
     pagecolor="#ffffff"
     bordercolor="#666666"
     borderopacity="1.0"
     inkscape:pageshadow="2"
     inkscape:pageopacity="0.0"
     inkscape:pagecheckerboard="0"
     inkscape:document-units="mm"
     showgrid="false"
     inkscape:zoom="0.74029882"
     inkscape:cx="269.48577"
     inkscape:cy="299.2035"
     inkscape:window-width="958"
     inkscape:window-height="1008"
     inkscape:window-x="953"
     inkscape:window-y="0"
     inkscape:window-maximized="0"
     inkscape:current-layer="layer1" />
  <defs
     id="defs2717">
    <filter
       style="color-interpolation-filters:sRGB"
       inkscape:label="Invert"
       id="filter50808"
       x="-0.0081904726"
       y="-0.0051908861"
       width="1.0163809"
       height="1.0103818">
      <feColorMatrix
         values="1 0 0 0 0 0 1 0 0 0 0 0 1 0 0 -0.21 -0.72 -0.07 2 0 "
         result="color2"
         id="feColorMatrix50806" />
    </filter>
    <filter
       style="color-interpolation-filters:sRGB"
       inkscape:label="Invert"
       id="filter50804"
       x="0"
       y="0"
       width="1"
       height="1">
      <feColorMatrix
         values="1 0 0 0 0 0 1 0 0 0 0 0 1 0 0 -0.21 -0.72 -0.07 2 0 "
         result="color2"
         id="feColorMatrix50802" />
    </filter>
    <filter
       style="color-interpolation-filters:sRGB"
       inkscape:label="Invert"
       id="filter50800"
       x="-0.033412036"
       y="-0.02489306"
       width="1.0668241"
       height="1.0497861">
      <feColorMatrix
         values="1 0 0 0 0 0 1 0 0 0 0 0 1 0 0 -0.21 -0.72 -0.07 2 0 "
         result="color2"
         id="feColorMatrix50798" />
    </filter>
    <filter
       style="color-interpolation-filters:sRGB"
       inkscape:label="Invert"
       id="filter50796"
       x="-0.055072352"
       y="-0.026280202"
       width="1.110509"
       height="1.0525604">
      <feColorMatrix
         values="1 0 0 0 0 0 1 0 0 0 0 0 1 0 0 -0.21 -0.72 -0.07 2 0 "
         result="color2"
         id="feColorMatrix50794" />
    </filter>
    <filter
       style="color-interpolation-filters:sRGB"
       inkscape:label="Invert"
       id="filter50792"
       x="-0.038102195"
       y="-0.014397957"
       width="1.0566831"
       height="1.0439095">
      <feColorMatrix
         values="1 0 0 0 0 0 1 0 0 0 0 0 1 0 0 -0.21 -0.72 -0.07 2 0 "
         result="color2"
         id="feColorMatrix50790" />
    </filter>
    <filter
       style="color-interpolation-filters:sRGB"
       inkscape:label="Invert"
       id="filter50788"
       x="-0.055072408"
       y="-0.02628033"
       width="1.1105092"
       height="1.0525607">
      <feColorMatrix
         values="1 0 0 0 0 0 1 0 0 0 0 0 1 0 0 -0.21 -0.72 -0.07 2 0 "
         result="color2"
         id="feColorMatrix50786" />
    </filter>
    <filter
       style="color-interpolation-filters:sRGB"
       inkscape:label="Invert"
       id="filter50736"
       x="-0.0081904726"
       y="-0.0051908847"
       width="1.0163809"
       height="1.0103818">
      <feColorMatrix
         values="1 0 0 0 0 0 1 0 0 0 0 0 1 0 0 -0.21 -0.72 -0.07 2 0 "
         result="color2"
         id="feColorMatrix50734" />
    </filter>
    <filter
       style="color-interpolation-filters:sRGB"
       inkscape:label="Invert"
       id="filter50732"
       x="0"
       y="0"
       width="1"
       height="1">
      <feColorMatrix
         values="1 0 0 0 0 0 1 0 0 0 0 0 1 0 0 -0.21 -0.72 -0.07 2 0 "
         result="color2"
         id="feColorMatrix50730" />
    </filter>
    <filter
       style="color-interpolation-filters:sRGB"
       inkscape:label="Invert"
       id="filter50728"
       x="-0.033412069"
       y="-0.024893068"
       width="1.0668241"
       height="1.0497861">
      <feColorMatrix
         values="1 0 0 0 0 0 1 0 0 0 0 0 1 0 0 -0.21 -0.72 -0.07 2 0 "
         result="color2"
         id="feColorMatrix50726" />
    </filter>
    <filter
       style="color-interpolation-filters:sRGB"
       inkscape:label="Invert"
       id="filter50724"
       x="-0.05507182"
       y="-0.02628017"
       width="1.1105084"
       height="1.0525603">
      <feColorMatrix
         values="1 0 0 0 0 0 1 0 0 0 0 0 1 0 0 -0.21 -0.72 -0.07 2 0 "
         result="color2"
         id="feColorMatrix50722" />
    </filter>
    <filter
       style="color-interpolation-filters:sRGB"
       inkscape:label="Invert"
       id="filter50720"
       x="-0.038102195"
       y="-0.014397957"
       width="1.0566831"
       height="1.0439095">
      <feColorMatrix
         values="1 0 0 0 0 0 1 0 0 0 0 0 1 0 0 -0.21 -0.72 -0.07 2 0 "
         result="color2"
         id="feColorMatrix50718" />
    </filter>
    <filter
       style="color-interpolation-filters:sRGB"
       inkscape:label="Invert"
       id="filter50716"
       x="-0.05507182"
       y="-0.02628017"
       width="1.1105082"
       height="1.0525603">
      <feColorMatrix
         values="1 0 0 0 0 0 1 0 0 0 0 0 1 0 0 -0.21 -0.72 -0.07 2 0 "
         result="color2"
         id="feColorMatrix50714" />
    </filter>
    <filter
       style="color-interpolation-filters:sRGB"
       inkscape:label="Invert"
       id="filter50760"
       x="-0.0081904726"
       y="-0.0051908847"
       width="1.0163809"
       height="1.0103818">
      <feColorMatrix
         values="1 0 0 0 0 0 1 0 0 0 0 0 1 0 0 -0.21 -0.72 -0.07 2 0 "
         result="color2"
         id="feColorMatrix50758" />
    </filter>
    <filter
       style="color-interpolation-filters:sRGB"
       inkscape:label="Invert"
       id="filter50756"
       x="0"
       y="0"
       width="1"
       height="1">
      <feColorMatrix
         values="1 0 0 0 0 0 1 0 0 0 0 0 1 0 0 -0.21 -0.72 -0.07 2 0 "
         result="color2"
         id="feColorMatrix50754" />
    </filter>
    <filter
       style="color-interpolation-filters:sRGB"
       inkscape:label="Invert"
       id="filter50752"
       x="-0.033412069"
       y="-0.024893068"
       width="1.0668241"
       height="1.0497861">
      <feColorMatrix
         values="1 0 0 0 0 0 1 0 0 0 0 0 1 0 0 -0.21 -0.72 -0.07 2 0 "
         result="color2"
         id="feColorMatrix50750" />
    </filter>
    <filter
       style="color-interpolation-filters:sRGB"
       inkscape:label="Invert"
       id="filter50748"
       x="-0.055072408"
       y="-0.02628033"
       width="1.1105092"
       height="1.0525607">
      <feColorMatrix
         values="1 0 0 0 0 0 1 0 0 0 0 0 1 0 0 -0.21 -0.72 -0.07 2 0 "
         result="color2"
         id="feColorMatrix50746" />
    </filter>
    <filter
       style="color-interpolation-filters:sRGB"
       inkscape:label="Invert"
       id="filter50744"
       x="-0.038102195"
       y="-0.014397957"
       width="1.0566831"
       height="1.0439095">
      <feColorMatrix
         values="1 0 0 0 0 0 1 0 0 0 0 0 1 0 0 -0.21 -0.72 -0.07 2 0 "
         result="color2"
         id="feColorMatrix50742" />
    </filter>
    <filter
       style="color-interpolation-filters:sRGB"
       inkscape:label="Invert"
       id="filter50740"
       x="-0.055072129"
       y="-0.02628017"
       width="1.1105086"
       height="1.0525603">
      <feColorMatrix
         values="1 0 0 0 0 0 1 0 0 0 0 0 1 0 0 -0.21 -0.72 -0.07 2 0 "
         result="color2"
         id="feColorMatrix50738" />
    </filter>
    <filter
       style="color-interpolation-filters:sRGB"
       inkscape:label="Invert"
       id="filter50784"
       x="-0.0081904726"
       y="-0.0051908866"
       width="1.0163809"
       height="1.0103818">
      <feColorMatrix
         values="1 0 0 0 0 0 1 0 0 0 0 0 1 0 0 -0.21 -0.72 -0.07 2 0 "
         result="color2"
         id="feColorMatrix50782" />
    </filter>
    <filter
       style="color-interpolation-filters:sRGB"
       inkscape:label="Invert"
       id="filter50780"
       x="0"
       y="0"
       width="1"
       height="1">
      <feColorMatrix
         values="1 0 0 0 0 0 1 0 0 0 0 0 1 0 0 -0.21 -0.72 -0.07 2 0 "
         result="color2"
         id="feColorMatrix50778" />
    </filter>
    <filter
       style="color-interpolation-filters:sRGB"
       inkscape:label="Invert"
       id="filter50776"
       x="-0.033412069"
       y="-0.024893068"
       width="1.0668241"
       height="1.0497861">
      <feColorMatrix
         values="1 0 0 0 0 0 1 0 0 0 0 0 1 0 0 -0.21 -0.72 -0.07 2 0 "
         result="color2"
         id="feColorMatrix50774" />
    </filter>
    <filter
       style="color-interpolation-filters:sRGB"
       inkscape:label="Invert"
       id="filter50772"
       x="-0.05507182"
       y="-0.02628017"
       width="1.1105084"
       height="1.0525603">
      <feColorMatrix
         values="1 0 0 0 0 0 1 0 0 0 0 0 1 0 0 -0.21 -0.72 -0.07 2 0 "
         result="color2"
         id="feColorMatrix50770" />
    </filter>
    <filter
       style="color-interpolation-filters:sRGB"
       inkscape:label="Invert"
       id="filter50768"
       x="-0.038102195"
       y="-0.014397957"
       width="1.0566831"
       height="1.0439095">
      <feColorMatrix
         values="1 0 0 0 0 0 1 0 0 0 0 0 1 0 0 -0.21 -0.72 -0.07 2 0 "
         result="color2"
         id="feColorMatrix50766" />
    </filter>
    <filter
       style="color-interpolation-filters:sRGB"
       inkscape:label="Invert"
       id="filter50764"
       x="-0.05507182"
       y="-0.02628017"
       width="1.1105082"
       height="1.0525603">
      <feColorMatrix
         values="1 0 0 0 0 0 1 0 0 0 0 0 1 0 0 -0.21 -0.72 -0.07 2 0 "
         result="color2"
         id="feColorMatrix50762" />
    </filter>
  </defs>
  <g
     inkscape:label="Capa 1"
     inkscape:groupmode="layer"
     id="layer1"
     transform="translate(-28.6431,-126.44765)">
    <path
       id="rect46400"
       style="stroke:#ffffff;stroke-width:1.3;stroke-linecap:round;stroke-linejoin:round;stroke-dashoffset:9.31653"
       d="m 37.3249,127.09765 h 63.2968 c 4.4496,0 8.0318,3.58221 8.0318,8.03185 v 109.1558 c 0,4.4496 -3.5822,8.0318 -8.0318,8.0318 H 37.3249 c -4.4496,0 -8.0318,-3.5822 -8.0318,-8.0318 V 135.1295 c 0,-4.44964 3.5822,-8.03185 8.0318,-8.03185 z" />
    <path
       id="rect46402"
       style="fill:#3948e9;stroke-width:1.81997;stroke-linecap:round;stroke-linejoin:round;stroke-dashoffset:9.31653"
       d="m 39.1396,131.47412 h 59.6671 c 3.0438,0 5.4942,2.45043 5.4942,5.49428 v 105.4781 c 0,3.0438 -2.4504,5.4942 -5.4942,5.4942 H 39.1396 c -3.0438,0 -5.4942,-2.4504 -5.4942,-5.4942 V 136.9684 c 0,-3.04385 2.4504,-5.49428 5.4942,-5.49428 z" />
    <path
       id="ellipse46404"
       style="fill:none;fill-opacity:0;stroke:#000000;stroke-width:4.90276;stroke-linecap:round;stroke-linejoin:round;stroke-dashoffset:9.31653"
       d="M 94.538869,203.87151 A 29.227528,54.28476 28.987554 0 1 42.665297,237.19147 29.227528,54.28476 28.987554 0 1 43.406732,175.54302 29.227528,54.28476 28.987554 0 1 95.280217,142.223 29.227528,54.28476 28.987554 0 1 94.538869,203.87151 Z" />
    <path
       id="rect46406"
       style="stroke:#ffffff;stroke-width:2.18919;stroke-linecap:square;stroke-dashoffset:9.31653"
       d="m 61.017911,168.64211 h 16.9347 c 3.138,0 5.502365,2.52102 5.301335,5.65257 l -1.975628,30.77555 c -0.20103,3.13156 -2.889072,5.65267 -6.027072,5.65267 h -16.9347 c -3.138,0 -5.502458,-2.52111 -5.301428,-5.65267 l 1.975628,-30.77555 c 0.20103,-3.13155 2.889165,-5.65257 6.027165,-5.65257 z" />
    <g
       id="g46418"
       transform="translate(-713.9249,94.49263)"
       style="stroke:#ffffff;stroke-width:0.8;stroke-miterlimit:4;stroke-dasharray:none;stroke-opacity:1;paint-order:markers fill stroke">
      <g
         id="g46416"
         transform="matrix(0.91649407,0,0,1.0036017,62.70768,0.36857226)"
         style="stroke:#ffffff;stroke-width:0.834151;stroke-miterlimit:4;stroke-dasharray:none;stroke-opacity:1;paint-order:markers fill stroke">
        <g
           aria-label="2"
           transform="matrix(1.1127008,0,-0.06826013,0.89871419,0,0)"
           id="text46410"
           style="font-size:22.5569px;line-height:1.25;font-family:'Tw Cen MT Condensed Extra Bold';-inkscape-font-specification:'Tw Cen MT Condensed Extra Bold, Normal';stroke:#ffffff;stroke-width:0.834151;stroke-miterlimit:4;stroke-dasharray:none;stroke-opacity:1;paint-order:markers fill stroke">
          <path
             d="m 691.42006,49.850224 h -3.22713 q 0,-1.652117 0.13217,-2.588316 0.14318,-0.9362 0.57273,-1.652117 0.44056,-0.726931 1.33271,-1.156482 0.90315,-0.440564 2.13673,-0.440564 2.03761,0 3.12801,1.068369 1.0904,1.068369 1.0904,3.083951 0,1.035326 -0.41854,2.235865 -0.41853,1.189524 -1.25561,2.621358 l -1.80631,3.083951 h 2.9628 v 2.995838 h -8.39276 l 4.80216,-8.205512 q 0.88112,-1.475891 0.88112,-2.687444 0,-0.605776 -0.26433,-0.99127 -0.26434,-0.385494 -0.66085,-0.385494 -0.62781,0 -0.82606,0.50665 -0.18724,0.495635 -0.18724,1.971526 z"
             id="path48585"
             style="stroke:#ffffff;stroke-width:0.834151;stroke-miterlimit:4;stroke-dasharray:none;stroke-opacity:1;paint-order:markers fill stroke" />
        </g>
        <g
           aria-label="x"
           transform="matrix(1.0577462,0,-0.16956392,0.94540637,0,0)"
           id="text46414"
           style="font-size:13.7398px;line-height:1.25;font-family:'Franklin Gothic Heavy';-inkscape-font-specification:'Franklin Gothic Heavy, Normal';stroke:#ffffff;stroke-width:0.834151;stroke-miterlimit:4;stroke-dasharray:none;stroke-opacity:1;paint-order:markers fill stroke">
          <path
             d="m 726.75699,53.384506 h -3.019 l -1.25456,-2.173679 -1.33507,2.173679 h -2.17368 l 2.39507,-3.61609 -2.09988,-3.206848 h 2.97875 l 0.70443,1.274689 q 0.047,0.08721 0.11405,0.201266 0.0335,0.05367 0.0939,0.174431 0.0738,-0.114051 0.18114,-0.308608 0.0134,-0.03354 0.0738,-0.140887 l 0.69773,-1.200891 h 2.20722 l -1.99925,3.099506 z"
             id="path48588"
             style="stroke:#ffffff;stroke-width:0.834151;stroke-miterlimit:4;stroke-dasharray:none;stroke-opacity:1;paint-order:markers fill stroke" />
        </g>
      </g>
    </g>
    <g
       id="g46430"
       transform="rotate(180,425.65565,141.42979)"
       style="stroke:#ffffff;stroke-width:0.8;stroke-miterlimit:4;stroke-dasharray:none;stroke-opacity:1;paint-order:markers fill stroke">
      <g
         id="g46428"
         transform="matrix(0.91649407,0,0,1.0036017,62.70768,0.36857226)"
         style="stroke:#ffffff;stroke-width:0.834151;stroke-miterlimit:4;stroke-dasharray:none;stroke-opacity:1;paint-order:markers fill stroke">
        <g
           aria-label="2"
           transform="matrix(1.1127008,0,-0.06826013,0.89871419,0,0)"
           id="text46422"
           style="font-size:22.5569px;line-height:1.25;font-family:'Tw Cen MT Condensed Extra Bold';-inkscape-font-specification:'Tw Cen MT Condensed Extra Bold, Normal';stroke:#ffffff;stroke-width:0.834151;stroke-miterlimit:4;stroke-dasharray:none;stroke-opacity:1;paint-order:markers fill stroke">
          <path
             d="m 691.42006,49.850224 h -3.22713 q 0,-1.652117 0.13217,-2.588316 0.14318,-0.9362 0.57273,-1.652117 0.44056,-0.726931 1.33271,-1.156482 0.90315,-0.440564 2.13673,-0.440564 2.03761,0 3.12801,1.068369 1.0904,1.068369 1.0904,3.083951 0,1.035326 -0.41854,2.235865 -0.41853,1.189524 -1.25561,2.621358 l -1.80631,3.083951 h 2.9628 v 2.995838 h -8.39276 l 4.80216,-8.205512 q 0.88112,-1.475891 0.88112,-2.687444 0,-0.605776 -0.26433,-0.99127 -0.26434,-0.385494 -0.66085,-0.385494 -0.62781,0 -0.82606,0.50665 -0.18724,0.495635 -0.18724,1.971526 z"
             id="path48591"
             style="stroke:#ffffff;stroke-width:0.834151;stroke-miterlimit:4;stroke-dasharray:none;stroke-opacity:1;paint-order:markers fill stroke" />
        </g>
        <g
           aria-label="x"
           transform="matrix(1.0577462,0,-0.16956392,0.94540637,0,0)"
           id="text46426"
           style="font-size:13.7398px;line-height:1.25;font-family:'Franklin Gothic Heavy';-inkscape-font-specification:'Franklin Gothic Heavy, Normal';stroke:#ffffff;stroke-width:0.834151;stroke-miterlimit:4;stroke-dasharray:none;stroke-opacity:1;paint-order:markers fill stroke">
          <path
             d="m 726.75699,53.384506 h -3.019 l -1.25456,-2.173679 -1.33507,2.173679 h -2.17368 l 2.39507,-3.61609 -2.09988,-3.206848 h 2.97875 l 0.70443,1.274689 q 0.047,0.08721 0.11405,0.201266 0.0335,0.05367 0.0939,0.174431 0.0738,-0.114051 0.18114,-0.308608 0.0134,-0.03354 0.0738,-0.140887 l 0.69773,-1.200891 h 2.20722 l -1.99925,3.099506 z"
             id="path48594"
             style="stroke:#ffffff;stroke-width:0.834151;stroke-miterlimit:4;stroke-dasharray:none;stroke-opacity:1;paint-order:markers fill stroke" />
        </g>
      </g>
    </g>
    <g
       aria-label="x2"
       transform="matrix(1.0729137,0,-0.06581934,0.93204142,-3507.4789,-865.1308)"
       id="text46434"
       style="font-size:21.7182px;line-height:1.25;font-family:'Tw Cen MT Condensed Extra Bold';-inkscape-font-specification:'Tw Cen MT Condensed Extra Bold, Normal';fill:#ffffff;stroke:#ffffff;stroke-width:0.544;paint-order:markers fill stroke">
      <path
         d="m 3392.0522,1129.073 h 3.5207 q 1.1877,2.5345 1.3044,3.1284 h 0.042 q 0.1697,-0.8166 1.3256,-3.1284 h 3.5419 l -3.1284,4.9099 3.1496,4.8463 h -3.4571 q -1.0286,-2.1951 -1.4316,-3.2556 h -0.042 q -0.043,0.3712 -0.6151,1.6013 l -0.7741,1.6543 h -3.4041 l 3.0753,-4.8039 z"
         id="path48597" />
      <path
         d="m 3406.4638,1129.9214 h -3.1071 q 0,-1.5907 0.1272,-2.4921 0.1379,-0.9014 0.5515,-1.5907 0.4242,-0.6999 1.2831,-1.1135 0.8696,-0.4242 2.0573,-0.4242 1.9619,0 3.0117,1.0287 1.0499,1.0286 1.0499,2.9693 0,0.9968 -0.403,2.1527 -0.403,1.1453 -1.2089,2.5239 l -1.7392,2.9693 h 2.8527 v 2.8844 h -8.0807 l 4.6236,-7.9004 q 0.8483,-1.421 0.8483,-2.5875 0,-0.5833 -0.2545,-0.9544 -0.2545,-0.3712 -0.6363,-0.3712 -0.6044,0 -0.7953,0.4878 -0.1803,0.4772 -0.1803,1.8982 z"
         id="path48599" />
    </g>
  </g>
</svg>
