<?xml version="1.0" encoding="UTF-8" standalone="no"?>
<!-- Created with Inkscape (http://www.inkscape.org/) -->

<svg
   width="80.6605mm"
   height="126.51943mm"
   viewBox="0 0 80.660499 126.51943"
   version="1.1"
   id="svg2720"
   inkscape:version="1.1.2 (b8e25be833, 2022-02-05)"
   sodipodi:docname="amarillo_alt_cambio_sentido.svg"
   xmlns:inkscape="http://www.inkscape.org/namespaces/inkscape"
   xmlns:sodipodi="http://sodipodi.sourceforge.net/DTD/sodipodi-0.dtd"
   xmlns="http://www.w3.org/2000/svg"
   xmlns:svg="http://www.w3.org/2000/svg">
  <sodipodi:namedview
     id="namedview2722"
     pagecolor="#ffffff"
     bordercolor="#666666"
     borderopacity="1.0"
     inkscape:pageshadow="2"
     inkscape:pageopacity="0.0"
     inkscape:pagecheckerboard="0"
     inkscape:document-units="mm"
     showgrid="false"
     inkscape:zoom="0.74029882"
     inkscape:cx="246.52207"
     inkscape:cy="304.60673"
     inkscape:window-width="958"
     inkscape:window-height="1008"
     inkscape:window-x="953"
     inkscape:window-y="0"
     inkscape:window-maximized="0"
     inkscape:current-layer="layer1" />
  <defs
     id="defs2717">
    <filter
       style="color-interpolation-filters:sRGB"
       inkscape:label="Invert"
       id="filter50808"
       x="-0.0081904726"
       y="-0.0051908861"
       width="1.0163809"
       height="1.0103818">
      <feColorMatrix
         values="1 0 0 0 0 0 1 0 0 0 0 0 1 0 0 -0.21 -0.72 -0.07 2 0 "
         result="color2"
         id="feColorMatrix50806" />
    </filter>
    <filter
       style="color-interpolation-filters:sRGB"
       inkscape:label="Invert"
       id="filter50804"
       x="0"
       y="0"
       width="1"
       height="1">
      <feColorMatrix
         values="1 0 0 0 0 0 1 0 0 0 0 0 1 0 0 -0.21 -0.72 -0.07 2 0 "
         result="color2"
         id="feColorMatrix50802" />
    </filter>
    <filter
       style="color-interpolation-filters:sRGB"
       inkscape:label="Invert"
       id="filter50800"
       x="-0.033412036"
       y="-0.02489306"
       width="1.0668241"
       height="1.0497861">
      <feColorMatrix
         values="1 0 0 0 0 0 1 0 0 0 0 0 1 0 0 -0.21 -0.72 -0.07 2 0 "
         result="color2"
         id="feColorMatrix50798" />
    </filter>
    <filter
       style="color-interpolation-filters:sRGB"
       inkscape:label="Invert"
       id="filter50796"
       x="-0.055072352"
       y="-0.026280202"
       width="1.110509"
       height="1.0525604">
      <feColorMatrix
         values="1 0 0 0 0 0 1 0 0 0 0 0 1 0 0 -0.21 -0.72 -0.07 2 0 "
         result="color2"
         id="feColorMatrix50794" />
    </filter>
    <filter
       style="color-interpolation-filters:sRGB"
       inkscape:label="Invert"
       id="filter50792"
       x="-0.038102195"
       y="-0.014397957"
       width="1.0566831"
       height="1.0439095">
      <feColorMatrix
         values="1 0 0 0 0 0 1 0 0 0 0 0 1 0 0 -0.21 -0.72 -0.07 2 0 "
         result="color2"
         id="feColorMatrix50790" />
    </filter>
    <filter
       style="color-interpolation-filters:sRGB"
       inkscape:label="Invert"
       id="filter50788"
       x="-0.055072408"
       y="-0.02628033"
       width="1.1105092"
       height="1.0525607">
      <feColorMatrix
         values="1 0 0 0 0 0 1 0 0 0 0 0 1 0 0 -0.21 -0.72 -0.07 2 0 "
         result="color2"
         id="feColorMatrix50786" />
    </filter>
    <filter
       style="color-interpolation-filters:sRGB"
       inkscape:label="Invert"
       id="filter50736"
       x="-0.0081904726"
       y="-0.0051908847"
       width="1.0163809"
       height="1.0103818">
      <feColorMatrix
         values="1 0 0 0 0 0 1 0 0 0 0 0 1 0 0 -0.21 -0.72 -0.07 2 0 "
         result="color2"
         id="feColorMatrix50734" />
    </filter>
    <filter
       style="color-interpolation-filters:sRGB"
       inkscape:label="Invert"
       id="filter50732"
       x="0"
       y="0"
       width="1"
       height="1">
      <feColorMatrix
         values="1 0 0 0 0 0 1 0 0 0 0 0 1 0 0 -0.21 -0.72 -0.07 2 0 "
         result="color2"
         id="feColorMatrix50730" />
    </filter>
    <filter
       style="color-interpolation-filters:sRGB"
       inkscape:label="Invert"
       id="filter50728"
       x="-0.033412069"
       y="-0.024893068"
       width="1.0668241"
       height="1.0497861">
      <feColorMatrix
         values="1 0 0 0 0 0 1 0 0 0 0 0 1 0 0 -0.21 -0.72 -0.07 2 0 "
         result="color2"
         id="feColorMatrix50726" />
    </filter>
    <filter
       style="color-interpolation-filters:sRGB"
       inkscape:label="Invert"
       id="filter50724"
       x="-0.05507182"
       y="-0.02628017"
       width="1.1105084"
       height="1.0525603">
      <feColorMatrix
         values="1 0 0 0 0 0 1 0 0 0 0 0 1 0 0 -0.21 -0.72 -0.07 2 0 "
         result="color2"
         id="feColorMatrix50722" />
    </filter>
    <filter
       style="color-interpolation-filters:sRGB"
       inkscape:label="Invert"
       id="filter50720"
       x="-0.038102195"
       y="-0.014397957"
       width="1.0566831"
       height="1.0439095">
      <feColorMatrix
         values="1 0 0 0 0 0 1 0 0 0 0 0 1 0 0 -0.21 -0.72 -0.07 2 0 "
         result="color2"
         id="feColorMatrix50718" />
    </filter>
    <filter
       style="color-interpolation-filters:sRGB"
       inkscape:label="Invert"
       id="filter50716"
       x="-0.05507182"
       y="-0.02628017"
       width="1.1105082"
       height="1.0525603">
      <feColorMatrix
         values="1 0 0 0 0 0 1 0 0 0 0 0 1 0 0 -0.21 -0.72 -0.07 2 0 "
         result="color2"
         id="feColorMatrix50714" />
    </filter>
    <filter
       style="color-interpolation-filters:sRGB"
       inkscape:label="Invert"
       id="filter50760"
       x="-0.0081904726"
       y="-0.0051908847"
       width="1.0163809"
       height="1.0103818">
      <feColorMatrix
         values="1 0 0 0 0 0 1 0 0 0 0 0 1 0 0 -0.21 -0.72 -0.07 2 0 "
         result="color2"
         id="feColorMatrix50758" />
    </filter>
    <filter
       style="color-interpolation-filters:sRGB"
       inkscape:label="Invert"
       id="filter50756"
       x="0"
       y="0"
       width="1"
       height="1">
      <feColorMatrix
         values="1 0 0 0 0 0 1 0 0 0 0 0 1 0 0 -0.21 -0.72 -0.07 2 0 "
         result="color2"
         id="feColorMatrix50754" />
    </filter>
    <filter
       style="color-interpolation-filters:sRGB"
       inkscape:label="Invert"
       id="filter50752"
       x="-0.033412069"
       y="-0.024893068"
       width="1.0668241"
       height="1.0497861">
      <feColorMatrix
         values="1 0 0 0 0 0 1 0 0 0 0 0 1 0 0 -0.21 -0.72 -0.07 2 0 "
         result="color2"
         id="feColorMatrix50750" />
    </filter>
    <filter
       style="color-interpolation-filters:sRGB"
       inkscape:label="Invert"
       id="filter50748"
       x="-0.055072408"
       y="-0.02628033"
       width="1.1105092"
       height="1.0525607">
      <feColorMatrix
         values="1 0 0 0 0 0 1 0 0 0 0 0 1 0 0 -0.21 -0.72 -0.07 2 0 "
         result="color2"
         id="feColorMatrix50746" />
    </filter>
    <filter
       style="color-interpolation-filters:sRGB"
       inkscape:label="Invert"
       id="filter50744"
       x="-0.038102195"
       y="-0.014397957"
       width="1.0566831"
       height="1.0439095">
      <feColorMatrix
         values="1 0 0 0 0 0 1 0 0 0 0 0 1 0 0 -0.21 -0.72 -0.07 2 0 "
         result="color2"
         id="feColorMatrix50742" />
    </filter>
    <filter
       style="color-interpolation-filters:sRGB"
       inkscape:label="Invert"
       id="filter50740"
       x="-0.055072129"
       y="-0.02628017"
       width="1.1105086"
       height="1.0525603">
      <feColorMatrix
         values="1 0 0 0 0 0 1 0 0 0 0 0 1 0 0 -0.21 -0.72 -0.07 2 0 "
         result="color2"
         id="feColorMatrix50738" />
    </filter>
  </defs>
  <g
     inkscape:label="Capa 1"
     inkscape:groupmode="layer"
     id="layer1"
     transform="translate(-34.5508,-125.01745)">
    <path
       id="rect46364"
       style="stroke:#ffffff;stroke-width:1.3;stroke-linecap:round;stroke-linejoin:round;stroke-dashoffset:9.31653"
       d="m 43.2326,125.66745 h 63.2968 c 4.4497,0 8.0319,3.5822 8.0319,8.03185 v 109.15578 c 0,4.4496 -3.5822,8.0318 -8.0319,8.0318 H 43.2326 c -4.4496,0 -8.0318,-3.5822 -8.0318,-8.0318 V 133.6993 c 0,-4.44965 3.5822,-8.03185 8.0318,-8.03185 z" />
    <path
       id="rect46366"
       style="fill:#3948e9;stroke-width:1.81997;stroke-linecap:round;stroke-linejoin:round;stroke-dashoffset:9.31653"
       d="m 45.0476,130.04391 h 59.6671 c 3.0438,0 5.4942,2.45043 5.4942,5.49427 v 105.4781 c 0,3.0438 -2.4504,5.4942 -5.4942,5.4942 H 45.0476 c -3.0438,0 -5.4943,-2.4504 -5.4943,-5.4942 v -105.4781 c 0,-3.04384 2.4505,-5.49427 5.4943,-5.49427 z" />
    <path
       id="ellipse46368"
       style="fill:none;fill-opacity:0;stroke:#000000;stroke-width:4.90276;stroke-linecap:round;stroke-linejoin:round;stroke-dashoffset:9.31653"
       d="m 100.44694,202.44118 a 29.227528,54.28476 28.987554 0 1 -51.873489,33.32001 29.227528,54.28476 28.987554 0 1 0.741435,-61.64845 29.227528,54.28476 28.987554 0 1 51.873484,-33.32002 29.227528,54.28476 28.987554 0 1 -0.74143,61.64846 z" />
    <path
       style="fill:#000000;fill-opacity:1;stroke:#ffffff;stroke-width:2.794;stroke-linecap:square;stroke-miterlimit:4;stroke-dasharray:none;stroke-opacity:1;paint-order:markers fill stroke"
       d="m 74.5972,209.04178 c 0,-0.2168 -0.7645,-1.2874 -1.699,-2.3791 l -1.6988,-1.9849 4.3829,-3.7278 c 4.869,-4.1411 6.3226,-6.3751 6.3743,-9.7966 0.035,-2.3166 -1.3819,-5.5159 -2.4426,-5.5159 -0.3071,0 -3.5748,2.6503 -7.2615,5.8895 -3.6866,3.2393 -6.9128,5.8896 -7.1693,5.8896 -0.2565,0 -1.2739,-0.9855 -2.2609,-2.1899 -0.9868,-1.2044 -1.8751,-2.1091 -1.9738,-2.0103 -0.099,0.099 -0.621,3.3017 -1.1605,7.1178 -0.5396,3.8161 -1.0879,7.4251 -1.2182,8.0201 l -0.2373,1.0817 h 8.1824 c 4.5003,0 8.1823,-0.1774 8.1823,-0.3942 z m -0.1247,-22.3225 c 2.7974,-2.446 5.9496,-5.1952 7.0049,-6.1093 l 1.919,-1.6621 2.1069,2.3272 c 1.1588,1.28 2.1805,2.2443 2.2704,2.1429 0.2025,-0.2283 2.215,-14.2895 2.2112,-15.4491 0,-0.7682 -0.7135,-0.8413 -8.1759,-0.8413 -4.4953,0 -8.1733,0.136 -8.1733,0.3023 0,0.1662 0.7572,1.1404 1.6827,2.1649 0.9255,1.0244 1.6827,2.051 1.6827,2.2814 0,0.2304 -1.9777,2.1103 -4.3948,4.1776 -5.0985,4.3604 -6.4281,6.616 -6.0738,10.3036 0.2034,2.1162 1.557,4.76 2.4545,4.794 0.2196,0.01 2.6881,-1.9862 5.4855,-4.4321 z"
       id="path46370"
       sodipodi:nodetypes="sscscssssssccsssscsscssssssss" />
    <path
       style="fill:#000000;fill-opacity:1;stroke:#ffffff;stroke-width:2.335;stroke-linecap:square;stroke-miterlimit:4;stroke-dasharray:none;stroke-opacity:1;paint-order:markers stroke fill"
       d="m 51.2003,150.83428 c 0,-0.081 -0.2866,-0.4827 -0.637,-0.892 l -0.637,-0.7442 1.6433,-1.3977 c 1.8256,-1.5526 2.3706,-2.3902 2.3899,-3.673 0.013,-0.8686 -0.5181,-2.0681 -0.9158,-2.0681 -0.1151,0 -1.3402,0.9937 -2.7225,2.2082 -1.3822,1.2145 -2.5919,2.2081 -2.688,2.2081 -0.096,0 -0.4777,-0.3694 -0.8477,-0.821 -0.37,-0.4516 -0.7031,-0.7908 -0.7401,-0.7538 -0.037,0.037 -0.2328,1.238 -0.4351,2.6687 -0.2023,1.4308 -0.4078,2.784 -0.4567,3.007 l -0.089,0.4056 h 3.0678 c 1.6873,0 3.0679,-0.067 3.0679,-0.1478 z m -0.047,-8.3694 c 1.0488,-0.9171 2.2307,-1.9478 2.6264,-2.2905 l 0.7195,-0.6232 0.7899,0.8726 c 0.4345,0.4799 0.8175,0.8414 0.8512,0.8034 0.076,-0.086 0.8305,-5.3576 0.8291,-5.7923 0,-0.2881 -0.2675,-0.3155 -3.0654,-0.3155 -1.6854,0 -3.0644,0.051 -3.0644,0.1133 0,0.062 0.2839,0.4276 0.6309,0.8117 0.347,0.3841 0.6309,0.769 0.6309,0.8554 0,0.086 -0.7415,0.7912 -1.6478,1.5663 -1.9115,1.6349 -2.4101,2.4806 -2.2772,3.8631 0.076,0.7934 0.5837,1.7847 0.9202,1.7974 0.082,0 1.0079,-0.7447 2.0567,-1.6617 z"
       id="path46372"
       sodipodi:nodetypes="sscscssssssccsssscsscssssssss" />
    <path
       style="fill:#000000;fill-opacity:1;stroke:#ffffff;stroke-width:2.335;stroke-linecap:square;stroke-miterlimit:4;stroke-dasharray:none;stroke-opacity:1;paint-order:markers stroke fill"
       d="m 98.0844,226.11278 c 0,0.081 0.2867,0.4827 0.6371,0.892 l 0.6369,0.7442 -1.6433,1.3977 c -1.8255,1.5526 -2.3705,2.3902 -2.3898,3.673 -0.013,0.8686 0.518,2.0681 0.9158,2.0681 0.1151,0 1.3402,-0.9937 2.7225,-2.2082 1.3822,-1.2145 2.5918,-2.2081 2.688,-2.2081 0.096,0 0.4776,0.3694 0.8477,0.821 0.37,0.4516 0.703,0.7908 0.74,0.7538 0.037,-0.037 0.2329,-1.238 0.4351,-2.6687 0.2024,-1.4308 0.4079,-2.784 0.4568,-3.007 l 0.089,-0.4056 h -3.0679 c -1.6873,0 -3.0678,0.067 -3.0678,0.1478 z m 0.047,8.3694 c -1.0488,0.9171 -2.2306,1.9479 -2.6263,2.2906 l -0.7195,0.6232 -0.7899,-0.8726 c -0.4345,-0.4799 -0.8176,-0.8414 -0.8513,-0.8034 -0.076,0.086 -0.8305,5.3578 -0.829,5.7925 0,0.2881 0.2675,0.3155 3.0654,0.3155 1.6854,0 3.0644,-0.051 3.0644,-0.1133 0,-0.062 -0.2839,-0.4276 -0.6309,-0.8117 -0.347,-0.3841 -0.6309,-0.769 -0.6309,-0.8555 0,-0.086 0.7415,-0.7912 1.6477,-1.5663 1.9116,-1.635 2.4101,-2.4807 2.2773,-3.8633 -0.076,-0.7934 -0.5838,-1.7847 -0.9203,-1.7974 -0.082,0 -1.0079,0.7447 -2.0567,1.6617 z"
       id="path46374"
       sodipodi:nodetypes="sscscssssssccsssscsscssssssss" />
  </g>
</svg>
